# Blender 5.1.2
# www.blender.org
mtllib Barrel2.mtl
o Untitled
v -1.500000 0.000000 0.100000
v -1.500000 -0.000000 -0.100000
v -1.498210 -0.000000 -0.500000
v -1.500000 0.200000 0.100000
v -1.500000 0.200000 -0.100000
v -1.498210 0.200000 -0.500000
v -1.500000 0.800000 0.100000
v -1.500000 0.800000 -0.100000
v -1.498210 0.800000 -0.500000
v -1.500000 1.000000 0.100000
v -1.500000 1.000000 -0.100000
v -1.498210 1.000000 -0.500000
v -1.500000 2.200000 0.100000
v -1.500000 2.200000 -0.100000
v -1.498210 2.200000 -0.500000
v -1.498210 2.400000 0.500000
v -1.500000 2.400000 0.100000
v -1.500000 2.400000 -0.100000
v -1.500000 3.000000 0.100000
v -1.500000 3.000000 -0.100000
v -1.498210 3.200000 0.500000
v -1.500000 3.200000 0.100000
v -1.500000 3.200000 -0.100000
v -1.498210 0.000000 0.500000
v -1.398210 -0.000000 -0.800000
v -1.398210 0.200000 0.800000
v -1.498210 0.200000 0.500000
v -1.400000 0.200000 0.100000
v -1.400000 0.200000 -0.100000
v -1.398210 0.200000 -0.800000
v -1.398210 0.800000 0.800000
v -1.498210 0.800000 0.500000
v -1.398210 0.800000 0.400000
v -1.400000 0.800000 0.100000
v -1.400000 0.800000 -0.100000
v -1.398210 0.800000 -0.800000
v -1.398210 1.000000 0.800000
v -1.498210 1.000000 0.500000
v -1.398210 1.000000 0.400000
v -1.400000 1.000000 0.100000
v -1.400000 1.000000 -0.100000
v -1.398210 1.000000 -0.400000
v -1.498210 2.200000 0.500000
v -1.398210 2.200000 0.400000
v -1.400000 2.200000 0.100000
v -1.400000 2.200000 -0.100000
v -1.398210 2.400000 0.800000
v -1.398210 2.400000 0.400000
v -1.400000 2.400000 0.100000
v -1.400000 2.400000 -0.100000
v -1.398210 2.400000 -0.400000
v -1.498210 2.400000 -0.500000
v -1.498210 3.000000 0.500000
v -1.398210 3.000000 0.400000
v -1.400000 3.000000 0.100000
v -1.400000 3.000000 -0.100000
v -1.498210 3.000000 -0.500000
v -1.398210 3.000000 -0.800000
v -1.398210 3.200000 0.800000
v -1.400000 3.200000 0.100000
v -1.400000 3.200000 -0.100000
v -1.498210 3.200000 -0.500000
v -1.398210 3.200000 -0.800000
v -1.398210 3.300000 0.400000
v -1.398210 0.000000 0.800000
v -1.298210 -0.000000 -0.900000
v -1.298210 0.200000 0.900000
v -1.398210 0.200000 0.400000
v -1.398210 0.200000 -0.400000
v -1.298210 0.200000 -0.700000
v -1.298210 0.800000 0.700000
v -1.398210 0.800000 -0.400000
v -1.298210 0.800000 -0.700000
v -1.298210 0.800000 -0.900000
v -1.298210 1.000000 -0.700000
v -1.398210 1.000000 -0.800000
v -1.298210 1.000000 -0.900000
v -1.298210 2.200000 0.900000
v -1.398210 2.200000 0.800000
v -1.398210 2.200000 -0.400000
v -1.298210 2.200000 -0.700000
v -1.398210 2.200000 -0.800000
v -1.298210 2.200000 -0.900000
v -1.298210 2.400000 0.900000
v -1.298210 2.400000 0.700000
v -1.398210 2.400000 -0.800000
v -1.298210 2.400000 -0.900000
v -1.298210 3.000000 0.900000
v -1.398210 3.000000 0.800000
v -1.298210 3.000000 0.700000
v -1.398210 3.000000 -0.400000
v -1.298210 3.000000 -0.900000
v -1.298210 3.200000 0.900000
v -1.298210 3.200000 0.700000
v -1.398210 3.200000 0.400000
v -1.398210 3.200000 -0.400000
v -1.298210 3.300000 0.700000
v -1.398210 3.300000 -0.400000
v -1.198210 0.000000 1.100000
v -1.298210 0.000000 0.900000
v -1.198210 -0.000000 -1.100000
v -1.198210 0.200000 1.100000
v -1.298210 0.200000 0.700000
v -1.198210 0.200000 -0.800000
v -1.298210 0.200000 -0.900000
v -1.198210 0.200000 -1.100000
v -1.198210 0.800000 1.100000
v -1.298210 0.800000 0.900000
v -1.198210 0.800000 0.800000
v -1.298210 1.000000 0.900000
v -1.298210 1.000000 0.700000
v -1.198210 1.000000 -1.100000
v -1.198210 2.200000 1.100000
v -1.198210 2.200000 0.800000
v -1.298210 2.200000 0.700000
v -1.198210 2.200000 -0.800000
v -1.198210 2.200000 -1.100000
v -1.198210 2.400000 1.100000
v -1.298210 2.400000 -0.700000
v -1.198210 2.400000 -1.100000
v -1.198210 3.000000 1.100000
v -1.198210 3.000000 0.800000
v -1.298210 3.000000 -0.700000
v -1.198210 3.000000 -0.800000
v -1.198210 3.000000 -1.100000
v -1.198210 3.200000 1.100000
v -1.198210 3.200000 0.800000
v -1.298210 3.200000 -0.700000
v -1.198210 3.200000 -0.800000
v -1.298210 3.200000 -0.900000
v -1.198210 3.200000 -1.100000
v -1.198210 3.300000 0.800000
v -1.298210 3.300000 -0.700000
v -1.100000 0.000000 1.200000
v -1.100000 -0.000000 -1.200000
v -1.100000 0.200000 1.200000
v -1.098210 0.200000 1.000000
v -1.198210 0.200000 0.800000
v -1.098210 0.200000 -1.000000
v -1.100000 0.200000 -1.200000
v -1.100000 0.800000 1.200000
v -1.098210 0.800000 1.000000
v -1.198210 0.800000 -0.800000
v -1.198210 0.800000 -1.100000
v -1.100000 0.800000 -1.200000
v -1.100000 1.000000 1.200000
v -1.198210 1.000000 1.100000
v -1.098210 1.000000 1.000000
v -1.198210 1.000000 0.800000
v -1.198210 1.000000 -0.800000
v -1.098210 1.000000 -1.000000
v -1.100000 1.000000 -1.200000
v -1.100000 2.200000 1.200000
v -1.098210 2.200000 1.000000
v -1.100000 2.200000 -1.200000
v -1.100000 2.400000 1.200000
v -1.098210 2.400000 1.000000
v -1.198210 2.400000 0.800000
v -1.198210 2.400000 -0.800000
v -1.100000 2.400000 -1.200000
v -1.100000 3.000000 1.200000
v -1.098210 3.000000 1.000000
v -1.100000 3.000000 -1.200000
v -1.100000 3.200000 1.200000
v -1.098210 3.200000 1.000000
v -1.098210 3.200000 -1.000000
v -1.100000 3.200000 -1.200000
v -1.098210 3.300000 1.000000
v -1.198210 3.300000 -0.800000
v -1.098210 3.300000 -1.000000
v -1.000000 0.200000 1.100000
v -1.000000 0.200000 -1.100000
v -1.000000 0.800000 1.100000
v -1.098210 0.800000 -1.000000
v -1.000000 0.800000 -1.100000
v -1.000000 1.000000 1.100000
v -1.000000 1.000000 -1.100000
v -1.000000 2.200000 1.100000
v -1.098210 2.200000 -1.000000
v -1.000000 2.200000 -1.100000
v -1.000000 2.400000 1.100000
v -1.098210 2.400000 -1.000000
v -1.000000 2.400000 -1.100000
v -1.000000 3.000000 1.100000
v -1.098210 3.000000 -1.000000
v -1.000000 3.000000 -1.100000
v -1.000000 3.200000 1.100000
v -1.000000 3.200000 -1.100000
v -1.000000 3.300000 1.100000
v -1.000000 3.300000 -1.100000
v -0.996420 0.000000 1.200000
v -0.996420 -0.000000 -1.200000
v -0.898210 -0.000000 -1.300000
v -0.996420 0.200000 1.200000
v -0.996420 0.200000 -1.200000
v -0.898210 0.200000 -1.300000
v -0.996420 0.800000 1.200000
v -0.996420 0.800000 -1.200000
v -0.898210 1.000000 1.300000
v -0.996420 1.000000 1.200000
v -0.996420 1.000000 -1.200000
v -0.898210 2.200000 1.300000
v -0.996420 2.200000 1.200000
v -0.996420 2.200000 -1.200000
v -0.898210 2.200000 -1.300000
v -0.996420 2.400000 1.200000
v -0.996420 2.400000 -1.200000
v -0.898210 3.000000 1.300000
v -0.996420 3.000000 1.200000
v -0.996420 3.000000 -1.200000
v -0.898210 3.200000 1.300000
v -0.996420 3.200000 1.200000
v -0.996420 3.200000 -1.200000
v -0.898210 3.200000 -1.300000
v -0.800000 0.000000 1.400000
v -0.898210 0.000000 1.300000
v -0.800000 -0.000000 -1.400000
v -0.800000 0.200000 1.400000
v -0.898210 0.200000 1.300000
v -0.798210 0.200000 1.200000
v -0.896420 0.200000 1.100000
v -0.896420 0.200000 -1.100000
v -0.800000 0.200000 -1.400000
v -0.800000 0.800000 1.400000
v -0.898210 0.800000 1.300000
v -0.798210 0.800000 1.200000
v -0.896420 0.800000 1.100000
v -0.896420 0.800000 -1.100000
v -0.798210 0.800000 -1.200000
v -0.898210 0.800000 -1.300000
v -0.800000 0.800000 -1.400000
v -0.800000 1.000000 1.400000
v -0.798210 1.000000 1.200000
v -0.896420 1.000000 1.100000
v -0.896420 1.000000 -1.100000
v -0.798210 1.000000 -1.200000
v -0.898210 1.000000 -1.300000
v -0.800000 1.000000 -1.400000
v -0.800000 2.200000 1.400000
v -0.896420 2.200000 1.100000
v -0.896420 2.200000 -1.100000
v -0.800000 2.200000 -1.400000
v -0.800000 2.400000 1.400000
v -0.898210 2.400000 1.300000
v -0.896420 2.400000 1.100000
v -0.896420 2.400000 -1.100000
v -0.798210 2.400000 -1.200000
v -0.898210 2.400000 -1.300000
v -0.800000 2.400000 -1.400000
v -0.800000 3.000000 1.400000
v -0.896420 3.000000 1.100000
v -0.896420 3.000000 -1.100000
v -0.798210 3.000000 -1.200000
v -0.898210 3.000000 -1.300000
v -0.800000 3.000000 -1.400000
v -0.800000 3.200000 1.400000
v -0.798210 3.200000 1.200000
v -0.896420 3.200000 1.100000
v -0.896420 3.200000 -1.100000
v -0.798210 3.200000 -1.200000
v -0.800000 3.200000 -1.400000
v -0.896420 3.300000 1.100000
v -0.896420 3.300000 -1.100000
v -0.700000 0.200000 1.300000
v -0.798210 0.200000 -1.200000
v -0.700000 0.200000 -1.300000
v -0.700000 0.800000 1.300000
v -0.700000 0.800000 -1.300000
v -0.700000 1.000000 1.300000
v -0.700000 1.000000 -1.300000
v -0.700000 2.200000 1.300000
v -0.798210 2.200000 1.200000
v -0.798210 2.200000 -1.200000
v -0.700000 2.200000 -1.300000
v -0.700000 2.400000 1.300000
v -0.798210 2.400000 1.200000
v -0.700000 2.400000 -1.300000
v -0.700000 3.000000 1.300000
v -0.798210 3.000000 1.200000
v -0.700000 3.000000 -1.300000
v -0.700000 3.200000 1.300000
v -0.700000 3.200000 -1.300000
v -0.700000 3.300000 1.300000
v -0.798210 3.300000 1.200000
v -0.798210 3.300000 -1.200000
v -0.700000 3.300000 -1.300000
v -0.500000 0.000000 1.500000
v -0.596420 0.000000 1.400000
v -0.596420 -0.000000 -1.400000
v -0.500000 -0.000000 -1.500000
v -0.500000 0.200000 1.500000
v -0.596420 0.200000 1.400000
v -0.596420 0.200000 -1.400000
v -0.500000 0.200000 -1.500000
v -0.500000 0.800000 1.500000
v -0.596420 0.800000 1.400000
v -0.596420 0.800000 -1.400000
v -0.500000 0.800000 -1.500000
v -0.500000 1.000000 1.500000
v -0.596420 1.000000 1.400000
v -0.596420 1.000000 -1.400000
v -0.500000 1.000000 -1.500000
v -0.500000 2.200000 1.500000
v -0.596420 2.200000 1.400000
v -0.596420 2.200000 -1.400000
v -0.500000 2.200000 -1.500000
v -0.500000 2.400000 1.500000
v -0.596420 2.400000 1.400000
v -0.596420 2.400000 -1.400000
v -0.500000 2.400000 -1.500000
v -0.500000 3.000000 1.500000
v -0.596420 3.000000 1.400000
v -0.596420 3.000000 -1.400000
v -0.500000 3.000000 -1.500000
v -0.500000 3.200000 1.500000
v -0.596420 3.200000 1.400000
v -0.596420 3.200000 -1.400000
v -0.500000 3.200000 -1.500000
v -0.400000 0.200000 1.400000
v -0.496420 0.200000 1.300000
v -0.496420 0.200000 -1.300000
v -0.400000 0.200000 -1.400000
v -0.400000 0.800000 1.400000
v -0.496420 0.800000 1.300000
v -0.496420 0.800000 -1.300000
v -0.400000 0.800000 -1.400000
v -0.400000 1.000000 1.400000
v -0.496420 1.000000 1.300000
v -0.496420 1.000000 -1.300000
v -0.400000 1.000000 -1.400000
v -0.400000 2.200000 1.400000
v -0.496420 2.200000 1.300000
v -0.496420 2.200000 -1.300000
v -0.400000 2.200000 -1.400000
v -0.400000 2.400000 1.400000
v -0.496420 2.400000 1.300000
v -0.496420 2.400000 -1.300000
v -0.400000 2.400000 -1.400000
v -0.400000 3.000000 1.400000
v -0.496420 3.000000 1.300000
v -0.496420 3.000000 -1.300000
v -0.400000 3.000000 -1.400000
v -0.400000 3.200000 1.400000
v -0.496420 3.200000 1.300000
v -0.496420 3.200000 -1.300000
v -0.400000 3.200000 -1.400000
v -0.400000 3.300000 1.400000
v -0.496420 3.300000 1.300000
v -0.496420 3.300000 -1.300000
v -0.400000 3.300000 -1.400000
v 0.300000 3.100000 1.300000
v 0.391909 3.100000 1.200000
v 0.391909 3.100000 -1.200000
v 0.300000 3.100000 -1.300000
v 0.300000 3.300000 1.300000
v 0.391909 3.300000 1.200000
v 0.391909 3.300000 -1.200000
v 0.300000 3.300000 -1.300000
v 0.600000 3.100000 1.200000
v 0.695955 3.100000 1.100000
v 0.695955 3.100000 -1.100000
v 0.600000 3.100000 -1.200000
v 0.600000 3.300000 1.200000
v 0.695955 3.300000 1.100000
v 0.695955 3.300000 -1.100000
v 0.600000 3.300000 -1.200000
v 0.791909 3.100000 1.000000
v 0.791909 3.100000 -1.000000
v 0.791909 3.300000 1.000000
v 0.791909 3.300000 -1.000000
v 0.900000 3.100000 1.000000
v 0.900000 3.100000 -1.000000
v 0.900000 3.300000 1.000000
v 0.995955 3.300000 -0.900000
v 0.900000 3.300000 -1.000000
v 0.995955 3.100000 0.900000
v 1.095955 3.100000 0.700000
v 1.095955 3.100000 -0.700000
v 0.995955 3.100000 -0.900000
v 0.995955 3.300000 0.900000
v 1.095955 3.300000 0.700000
v 1.095955 3.300000 -0.700000
v 1.195955 3.100000 -0.600000
v 1.195955 3.100000 0.600000
v 1.295954 3.100000 0.300000
v 1.295954 3.100000 -0.300000
v 1.195955 3.300000 0.600000
v 1.295954 3.300000 0.300000
v 1.295954 3.300000 -0.300000
v 1.195955 3.300000 -0.600000
v -1.298002 3.100000 0.300000
v -1.298002 3.100000 -0.300000
v -1.298002 3.300000 0.300000
v -1.298002 3.300000 -0.300000
v -1.198002 3.300000 0.600000
v -1.098002 3.100000 0.700000
v -1.198002 3.100000 0.600000
v -1.198002 3.100000 -0.600000
v -1.098002 3.100000 -0.700000
v -1.098002 3.300000 0.700000
v -1.198002 3.300000 -0.600000
v -1.098002 3.300000 -0.700000
v -0.998002 3.100000 0.900000
v -0.900000 3.100000 1.000000
v -0.998002 3.100000 -0.900000
v -0.900000 3.100000 -1.000000
v -0.900000 3.300000 1.000000
v -0.998002 3.300000 0.900000
v -0.998002 3.300000 -0.900000
v -0.900000 3.300000 -1.000000
v -0.698002 3.100000 1.100000
v -0.796003 3.100000 1.000000
v -0.796003 3.100000 -1.000000
v -0.796003 3.300000 1.000000
v -0.796003 3.300000 -1.000000
v -0.698002 3.300000 -1.100000
v -0.600000 3.100000 1.200000
v -0.698002 3.100000 -1.100000
v -0.600000 3.100000 -1.200000
v -0.600000 3.300000 1.200000
v -0.698002 3.300000 1.100000
v -0.600000 3.300000 -1.200000
v -0.300000 3.100000 1.300000
v -0.396003 3.100000 1.200000
v -0.396003 3.100000 -1.200000
v -0.300000 3.100000 -1.300000
v -0.300000 3.300000 1.300000
v -0.396003 3.300000 1.200000
v -0.396003 3.300000 -1.200000
v -0.300000 3.300000 -1.300000
v 0.400000 0.200000 1.400000
v 0.495081 0.200000 1.300000
v 0.495081 0.200000 -1.300000
v 0.400000 0.200000 -1.400000
v 0.400000 0.800000 1.400000
v 0.495081 0.800000 1.300000
v 0.495081 0.800000 -1.300000
v 0.400000 0.800000 -1.400000
v 0.400000 1.000000 1.400000
v 0.495081 1.000000 1.300000
v 0.495081 1.000000 -1.300000
v 0.400000 1.000000 -1.400000
v 0.400000 2.200000 1.400000
v 0.495081 2.200000 1.300000
v 0.495081 2.200000 -1.300000
v 0.400000 2.200000 -1.400000
v 0.400000 2.400000 1.400000
v 0.495081 2.400000 1.300000
v 0.495081 2.400000 -1.300000
v 0.400000 2.400000 -1.400000
v 0.400000 3.000000 1.400000
v 0.495081 3.000000 1.300000
v 0.495081 3.000000 -1.300000
v 0.400000 3.000000 -1.400000
v 0.400000 3.200000 1.400000
v 0.495081 3.200000 1.300000
v 0.495081 3.200000 -1.300000
v 0.400000 3.200000 -1.400000
v 0.400000 3.300000 1.400000
v 0.495081 3.300000 1.300000
v 0.495081 3.300000 -1.300000
v 0.400000 3.300000 -1.400000
v 0.500000 0.000000 1.500000
v 0.595081 0.000000 1.400000
v 0.595081 -0.000000 -1.400000
v 0.500000 -0.000000 -1.500000
v 0.500000 0.200000 1.500000
v 0.595081 0.200000 1.400000
v 0.595081 0.200000 -1.400000
v 0.500000 0.200000 -1.500000
v 0.500000 0.800000 1.500000
v 0.595081 0.800000 1.400000
v 0.595081 0.800000 -1.400000
v 0.500000 0.800000 -1.500000
v 0.500000 1.000000 1.500000
v 0.595081 1.000000 1.400000
v 0.595081 1.000000 -1.400000
v 0.500000 1.000000 -1.500000
v 0.500000 2.200000 1.500000
v 0.595081 2.200000 1.400000
v 0.595081 2.200000 -1.400000
v 0.500000 2.200000 -1.500000
v 0.500000 2.400000 1.500000
v 0.595081 2.400000 1.400000
v 0.595081 2.400000 -1.400000
v 0.500000 2.400000 -1.500000
v 0.500000 3.000000 1.500000
v 0.595081 3.000000 1.400000
v 0.595081 3.000000 -1.400000
v 0.500000 3.000000 -1.500000
v 0.500000 3.200000 1.500000
v 0.595081 3.200000 1.400000
v 0.595081 3.200000 -1.400000
v 0.500000 3.200000 -1.500000
v 0.700000 0.200000 1.300000
v 0.700000 0.200000 -1.300000
v 0.700000 0.800000 1.300000
v 0.797541 0.800000 1.200000
v 0.797541 0.800000 -1.200000
v 0.700000 0.800000 -1.300000
v 0.700000 1.000000 1.300000
v 0.797541 1.000000 1.200000
v 0.797541 1.000000 -1.200000
v 0.700000 1.000000 -1.300000
v 0.700000 2.200000 1.300000
v 0.700000 2.200000 -1.300000
v 0.700000 2.400000 1.300000
v 0.797541 2.400000 1.200000
v 0.700000 2.400000 -1.300000
v 0.700000 3.000000 1.300000
v 0.797541 3.000000 -1.200000
v 0.700000 3.000000 -1.300000
v 0.700000 3.200000 1.300000
v 0.797541 3.200000 -1.200000
v 0.700000 3.200000 -1.300000
v 0.700000 3.300000 1.300000
v 0.797541 3.300000 1.200000
v 0.797541 3.300000 -1.200000
v 0.700000 3.300000 -1.300000
v 0.800000 0.000000 1.400000
v 0.800000 -0.000000 -1.400000
v 0.800000 0.200000 1.400000
v 0.797541 0.200000 1.200000
v 0.895082 0.200000 1.100000
v 0.895082 0.200000 -1.100000
v 0.797541 0.200000 -1.200000
v 0.800000 0.200000 -1.400000
v 0.800000 0.800000 1.400000
v 0.897541 0.800000 1.300000
v 0.895082 0.800000 1.100000
v 0.895082 0.800000 -1.100000
v 0.897541 0.800000 -1.300000
v 0.800000 0.800000 -1.400000
v 0.800000 1.000000 1.400000
v 0.897541 1.000000 1.300000
v 0.895082 1.000000 1.100000
v 0.895082 1.000000 -1.100000
v 0.800000 1.000000 -1.400000
v 0.800000 2.200000 1.400000
v 0.897541 2.200000 1.300000
v 0.797541 2.200000 1.200000
v 0.895082 2.200000 1.100000
v 0.895082 2.200000 -1.100000
v 0.797541 2.200000 -1.200000
v 0.897541 2.200000 -1.300000
v 0.800000 2.200000 -1.400000
v 0.800000 2.400000 1.400000
v 0.895082 2.400000 1.100000
v 0.895082 2.400000 -1.100000
v 0.797541 2.400000 -1.200000
v 0.800000 2.400000 -1.400000
v 0.800000 3.000000 1.400000
v 0.897541 3.000000 1.300000
v 0.797541 3.000000 1.200000
v 0.895082 3.000000 1.100000
v 0.895082 3.000000 -1.100000
v 0.897541 3.000000 -1.300000
v 0.800000 3.000000 -1.400000
v 0.800000 3.200000 1.400000
v 0.797541 3.200000 1.200000
v 0.895082 3.200000 1.100000
v 0.895082 3.200000 -1.100000
v 0.800000 3.200000 -1.400000
v 0.895082 3.300000 1.100000
v 0.895082 3.300000 -1.100000
v 0.897541 0.000000 1.300000
v 0.995081 0.000000 1.200000
v 0.995081 -0.000000 -1.200000
v 0.897541 -0.000000 -1.300000
v 0.897541 0.200000 1.300000
v 0.995081 0.200000 1.200000
v 0.995081 0.200000 -1.200000
v 0.897541 0.200000 -1.300000
v 0.995081 0.800000 1.200000
v 0.995081 0.800000 -1.200000
v 0.995081 1.000000 1.200000
v 0.995081 1.000000 -1.200000
v 0.897541 1.000000 -1.300000
v 0.995081 2.200000 1.200000
v 0.995081 2.200000 -1.200000
v 0.897541 2.400000 1.300000
v 0.995081 2.400000 1.200000
v 0.995081 2.400000 -1.200000
v 0.897541 2.400000 -1.300000
v 0.995081 3.000000 1.200000
v 0.995081 3.000000 -1.200000
v 0.897541 3.200000 1.300000
v 0.995081 3.200000 1.200000
v 0.995081 3.200000 -1.200000
v 0.897541 3.200000 -1.300000
v 1.000000 0.200000 1.100000
v 1.000000 0.200000 -1.100000
v 1.000000 0.800000 1.100000
v 1.097541 0.800000 1.000000
v 1.097541 0.800000 -1.000000
v 1.000000 0.800000 -1.100000
v 1.000000 1.000000 1.100000
v 1.097541 1.000000 1.000000
v 1.097541 1.000000 -1.000000
v 1.000000 1.000000 -1.100000
v 1.000000 2.200000 1.100000
v 1.097541 2.200000 1.000000
v 1.097541 2.200000 -1.000000
v 1.000000 2.200000 -1.100000
v 1.000000 2.400000 1.100000
v 1.097541 2.400000 -1.000000
v 1.000000 2.400000 -1.100000
v 1.000000 3.000000 1.100000
v 1.097541 3.000000 1.000000
v 1.097541 3.000000 -1.000000
v 1.000000 3.000000 -1.100000
v 1.000000 3.200000 1.100000
v 1.097541 3.200000 1.000000
v 1.097541 3.200000 -1.000000
v 1.000000 3.200000 -1.100000
v 1.000000 3.300000 1.100000
v 1.097541 3.300000 -1.000000
v 1.000000 3.300000 -1.100000
v 1.100000 0.000000 1.200000
v 1.197541 0.000000 1.100000
v 1.100000 -0.000000 -1.200000
v 1.100000 0.200000 1.200000
v 1.097541 0.200000 1.000000
v 1.097541 0.200000 -1.000000
v 1.197541 0.200000 -1.100000
v 1.100000 0.200000 -1.200000
v 1.100000 0.800000 1.200000
v 1.197541 0.800000 0.800000
v 1.197541 0.800000 -0.800000
v 1.197541 0.800000 -1.100000
v 1.100000 0.800000 -1.200000
v 1.100000 1.000000 1.200000
v 1.197541 1.000000 1.100000
v 1.197541 1.000000 0.800000
v 1.197541 1.000000 -1.100000
v 1.100000 1.000000 -1.200000
v 1.100000 2.200000 1.200000
v 1.197541 2.200000 -0.800000
v 1.100000 2.200000 -1.200000
v 1.100000 2.400000 1.200000
v 1.197541 2.400000 1.100000
v 1.097541 2.400000 1.000000
v 1.197541 2.400000 0.800000
v 1.197541 2.400000 -0.800000
v 1.197541 2.400000 -1.100000
v 1.100000 2.400000 -1.200000
v 1.100000 3.000000 1.200000
v 1.197541 3.000000 1.100000
v 1.197541 3.000000 -0.800000
v 1.197541 3.000000 -1.100000
v 1.100000 3.000000 -1.200000
v 1.100000 3.200000 1.200000
v 1.197541 3.200000 1.100000
v 1.197541 3.200000 0.800000
v 1.197541 3.200000 -0.800000
v 1.197541 3.200000 -1.100000
v 1.100000 3.200000 -1.200000
v 1.097541 3.300000 1.000000
v 1.197541 3.300000 0.800000
v 1.197541 3.300000 -0.800000
v 1.297541 0.000000 0.900000
v 1.297541 -0.000000 -0.900000
v 1.197541 -0.000000 -1.100000
v 1.197541 0.200000 1.100000
v 1.197541 0.200000 0.800000
v 1.197541 0.200000 -0.800000
v 1.297541 0.200000 -0.900000
v 1.197541 0.800000 1.100000
v 1.297541 0.800000 0.900000
v 1.297541 0.800000 -0.700000
v 1.297541 1.000000 0.900000
v 1.197541 1.000000 -0.800000
v 1.297541 1.000000 -0.900000
v 1.197541 2.200000 1.100000
v 1.297541 2.200000 0.900000
v 1.197541 2.200000 0.800000
v 1.297541 2.200000 -0.700000
v 1.297541 2.200000 -0.900000
v 1.197541 2.200000 -1.100000
v 1.297541 2.400000 -0.900000
v 1.297541 3.000000 0.900000
v 1.197541 3.000000 0.800000
v 1.297541 3.000000 0.700000
v 1.297541 3.200000 -0.700000
v 1.297541 3.200000 -0.900000
v 1.297541 3.300000 0.700000
v 1.297541 3.300000 -0.700000
v 1.397541 -0.000000 -0.800000
v 1.297541 0.200000 0.900000
v 1.397541 0.200000 0.800000
v 1.297541 0.200000 0.700000
v 1.397541 0.200000 -0.400000
v 1.297541 0.200000 -0.700000
v 1.397541 0.800000 0.800000
v 1.297541 0.800000 0.700000
v 1.397541 0.800000 0.400000
v 1.297541 0.800000 -0.900000
v 1.297541 1.000000 0.700000
v 1.397541 1.000000 0.400000
v 1.297541 1.000000 -0.700000
v 1.397541 2.200000 0.800000
v 1.297541 2.200000 0.700000
v 1.397541 2.200000 0.400000
v 1.397541 2.200000 -0.400000
v 1.397541 2.200000 -0.800000
v 1.297541 2.400000 0.900000
v 1.297541 2.400000 0.700000
v 1.397541 2.400000 0.400000
v 1.397541 2.400000 -0.400000
v 1.297541 2.400000 -0.700000
v 1.397541 2.400000 -0.800000
v 1.397541 3.000000 0.400000
v 1.397541 3.000000 -0.400000
v 1.297541 3.000000 -0.700000
v 1.297541 3.000000 -0.900000
v 1.297541 3.200000 0.900000
v 1.397541 3.200000 0.800000
v 1.297541 3.200000 0.700000
v 1.397541 3.200000 -0.400000
v 1.397541 3.200000 -0.800000
v 1.397541 3.300000 -0.400000
v 1.397541 0.000000 0.800000
v 1.497541 -0.000000 -0.500000
v 1.397541 0.200000 0.400000
v 1.400000 0.200000 0.100000
v 1.400000 0.200000 -0.100000
v 1.497541 0.200000 -0.500000
v 1.397541 0.200000 -0.800000
v 1.497541 0.800000 0.500000
v 1.400000 0.800000 0.100000
v 1.400000 0.800000 -0.100000
v 1.397541 0.800000 -0.400000
v 1.497541 0.800000 -0.500000
v 1.397541 0.800000 -0.800000
v 1.397541 1.000000 0.800000
v 1.497541 1.000000 0.500000
v 1.400000 1.000000 0.100000
v 1.400000 1.000000 -0.100000
v 1.397541 1.000000 -0.400000
v 1.497541 1.000000 -0.500000
v 1.397541 1.000000 -0.800000
v 1.400000 2.200000 0.100000
v 1.400000 2.200000 -0.100000
v 1.497541 2.200000 -0.500000
v 1.397541 2.400000 0.800000
v 1.400000 2.400000 0.100000
v 1.400000 2.400000 -0.100000
v 1.497541 2.400000 -0.500000
v 1.397541 3.000000 0.800000
v 1.497541 3.000000 0.500000
v 1.400000 3.000000 0.100000
v 1.400000 3.000000 -0.100000
v 1.397541 3.000000 -0.800000
v 1.497541 3.200000 0.500000
v 1.397541 3.200000 0.400000
v 1.400000 3.200000 0.100000
v 1.400000 3.200000 -0.100000
v 1.497541 3.200000 -0.500000
v 1.397541 3.300000 0.400000
v 1.497541 0.000000 0.500000
v 1.500000 0.000000 0.100000
v 1.500000 -0.000000 -0.100000
v 1.497541 0.200000 0.500000
v 1.500000 0.200000 0.100000
v 1.500000 0.200000 -0.100000
v 1.500000 0.800000 0.100000
v 1.500000 0.800000 -0.100000
v 1.500000 1.000000 0.100000
v 1.500000 1.000000 -0.100000
v 1.497541 2.200000 0.500000
v 1.500000 2.200000 0.100000
v 1.500000 2.200000 -0.100000
v 1.497541 2.400000 0.500000
v 1.500000 2.400000 0.100000
v 1.500000 2.400000 -0.100000
v 1.500000 3.000000 0.100000
v 1.500000 3.000000 -0.100000
v 1.497541 3.000000 -0.500000
v 1.500000 3.200000 0.100000
v 1.500000 3.200000 -0.100000
v -0.100000 0.000000 1.500000
v -0.100000 0.200000 1.500000
v -0.100000 0.800000 1.500000
v -0.100000 1.000000 1.500000
v -0.100000 2.200000 1.500000
v -0.100000 2.400000 1.500000
v -0.100000 3.000000 1.500000
v -0.100000 3.200000 1.500000
v 0.100000 0.000000 1.500000
v 0.100000 0.200000 1.500000
v 0.100000 0.800000 1.500000
v 0.100000 1.000000 1.500000
v 0.100000 2.200000 1.500000
v 0.100000 2.400000 1.500000
v 0.100000 3.000000 1.500000
v 0.100000 3.200000 1.500000
v -0.100000 0.200000 1.400000
v -0.100000 0.800000 1.400000
v -0.100000 1.000000 1.400000
v -0.100000 2.200000 1.400000
v -0.100000 2.400000 1.400000
v -0.100000 3.000000 1.400000
v -0.100000 3.200000 1.400000
v 0.100000 0.200000 1.400000
v 0.100000 0.800000 1.400000
v 0.100000 1.000000 1.400000
v 0.100000 2.200000 1.400000
v 0.100000 2.400000 1.400000
v 0.100000 3.000000 1.400000
v 0.100000 3.200000 1.400000
v -0.100000 0.200000 -1.400000
v -0.100000 0.800000 -1.400000
v -0.100000 1.000000 -1.400000
v -0.100000 2.200000 -1.400000
v -0.100000 2.400000 -1.400000
v -0.100000 3.000000 -1.400000
v -0.100000 3.200000 -1.400000
v 0.100000 0.200000 -1.400000
v 0.100000 0.800000 -1.400000
v 0.100000 1.000000 -1.400000
v 0.100000 2.200000 -1.400000
v 0.100000 2.400000 -1.400000
v 0.100000 3.000000 -1.400000
v 0.100000 3.200000 -1.400000
v -0.100000 -0.000000 -1.500000
v -0.100000 0.200000 -1.500000
v -0.100000 0.800000 -1.500000
v -0.100000 1.000000 -1.500000
v -0.100000 2.200000 -1.500000
v -0.100000 2.400000 -1.500000
v -0.100000 3.000000 -1.500000
v -0.100000 3.200000 -1.500000
v 0.100000 -0.000000 -1.500000
v 0.100000 0.200000 -1.500000
v 0.100000 0.800000 -1.500000
v 0.100000 1.000000 -1.500000
v 0.100000 2.200000 -1.500000
v 0.100000 2.400000 -1.500000
v 0.100000 3.000000 -1.500000
v 0.100000 3.200000 -1.500000
v -0.100000 0.000000 1.400000
v 0.100000 0.000000 1.400000
v -1.400000 0.000000 0.100000
v 1.400000 0.000000 0.100000
v -1.400000 -0.000000 -0.100000
v 1.400000 -0.000000 -0.100000
v -0.100000 -0.000000 -1.400000
v 0.100000 -0.000000 -1.400000
v -0.598100 3.218548 0.800000
v -0.598100 3.218548 0.600000
v -0.584981 3.218548 -0.600000
v -0.584981 3.218548 -0.800000
v -0.500000 3.318547 0.800000
v -0.500000 3.318547 0.600000
v -0.500000 3.318547 -0.600000
v -0.500000 3.318547 -0.800000
v -0.498100 3.218548 0.900000
v -0.498100 3.218548 0.800000
v -0.484981 3.218548 -0.500000
v -0.484981 3.218548 -0.600000
v -0.484981 3.218548 -0.800000
v -0.484981 3.218548 -0.900000
v -0.400000 3.318547 0.900000
v -0.400000 3.318547 0.800000
v -0.400000 3.318547 -0.500000
v -0.400000 3.318547 -0.600000
v -0.400000 3.318547 -0.800000
v -0.400000 3.318547 -0.900000
v -0.209249 3.118547 0.400000
v -0.209249 3.118547 0.300000
v -0.100000 3.218548 0.400000
v -0.100000 3.218548 0.300000
v -0.090934 3.118547 -0.200000
v -0.090934 3.118547 -0.300000
v 0.000000 3.218548 -0.200000
v 0.000000 3.218548 -0.300000
v 0.101900 3.218548 0.600000
v 0.101900 3.218548 0.500000
v 0.200000 3.318547 0.600000
v 0.200000 3.318547 0.500000
v 0.498303 3.118547 0.400000
v 0.498303 3.118547 0.300000
v 0.600000 3.218548 0.400000
v 0.600000 3.218548 0.300000
v 0.596082 3.118547 0.300000
v 0.596082 3.118547 -0.000000
v 0.700000 3.218548 0.300000
v 0.700000 3.218548 -0.000000
v 0.796082 3.118547 -0.300000
v 0.796082 3.118547 -0.400000
v 0.900000 3.218548 -0.300000
v 0.900000 3.218548 -0.400000
v 0.896082 3.118547 -0.000000
v 0.896082 3.118547 -0.300000
v 1.000000 3.218548 -0.000000
v 1.000000 3.218548 -0.300000
v -0.704923 3.118547 0.300000
v -0.704923 3.118547 -0.100000
v -0.800000 3.218548 0.300000
v -0.800000 3.218548 -0.100000
v -0.604923 3.118547 0.400000
v -0.604923 3.118547 0.300000
v -0.604923 3.118547 -0.100000
v -0.604923 3.118547 -0.200000
v -0.700000 3.218548 0.400000
v -0.700000 3.218548 0.300000
v -0.700000 3.218548 -0.100000
v -0.700000 3.218548 -0.200000
v -0.404923 3.118547 -0.200000
v -0.404923 3.118547 -0.300000
v -0.500000 3.218548 -0.200000
v -0.500000 3.218548 -0.300000
v 0.297903 3.118547 0.400000
v 0.297903 3.118547 0.300000
v 0.268588 3.118547 -0.200000
v 0.268588 3.118547 -0.300000
v 0.200000 3.218548 0.400000
v 0.200000 3.218548 0.300000
v 0.200000 3.218548 -0.200000
v 0.200000 3.218548 -0.300000
v 0.498036 3.218548 0.900000
v 0.498036 3.218548 0.800000
v 0.487834 3.218548 -0.500000
v 0.487834 3.218548 -0.900000
v 0.400000 3.318547 0.900000
v 0.400000 3.318547 0.800000
v 0.400000 3.318547 -0.500000
v 0.400000 3.318547 -0.900000
v 0.568588 3.118547 -0.300000
v 0.568588 3.118547 -0.400000
v 0.598036 3.218548 0.800000
v 0.598036 3.218548 0.500000
v 0.500000 3.218548 -0.300000
v 0.500000 3.218548 -0.400000
v 0.500000 3.318547 0.800000
v 0.500000 3.318547 0.500000
v -0.300000 3.218548 1.300000
v 0.300000 3.218548 1.300000
v -0.600000 3.218548 1.200000
v -0.398200 3.218548 1.200000
v 0.392895 3.218548 1.200000
v 0.600000 3.218548 1.200000
v -0.699100 3.218548 1.100000
v 0.696448 3.218548 1.100000
v -0.900000 3.218548 1.000000
v -0.798200 3.218548 1.000000
v 0.792895 3.218548 1.000000
v 0.900000 3.218548 1.000000
v -0.999100 3.218548 0.900000
v 0.996448 3.218548 0.900000
v -1.098200 3.218548 0.700000
v 1.092895 3.218548 0.700000
v -1.199100 3.218548 0.600000
v 1.196448 3.218548 0.600000
v -1.299100 3.218548 0.300000
v 1.296448 3.218548 0.300000
v -1.299100 3.218548 -0.300000
v 1.296448 3.218548 -0.300000
v -1.199100 3.218548 -0.600000
v 1.196448 3.218548 -0.600000
v -1.099100 3.218548 -0.700000
v 1.096448 3.218548 -0.700000
v -0.999100 3.218548 -0.900000
v 0.996448 3.218548 -0.900000
v -0.900000 3.218548 -1.000000
v -0.798200 3.218548 -1.000000
v 0.792895 3.218548 -1.000000
v 0.900000 3.218548 -1.000000
v -0.699100 3.218548 -1.100000
v 0.696448 3.218548 -1.100000
v -0.600000 3.218548 -1.200000
v -0.398200 3.218548 -1.200000
v 0.392895 3.218548 -1.200000
v 0.600000 3.218548 -1.200000
v -0.300000 3.218548 -1.300000
v 0.300000 3.218548 -1.300000
vn -1.0000 -0.0000 -0.0000
vn -1.0000 -0.0000 -0.0001
vn -1.0000 -0.0000 0.0001
vn -0.9520 -0.0000 0.3060
vn -0.9520 -0.0000 -0.3060
vn -0.7199 -0.0000 0.6941
vn -0.7199 -0.0000 -0.6941
vn -0.9008 -0.0000 0.4343
vn -0.9008 -0.0000 -0.4343
vn -0.7198 -0.0000 0.6941
vn -0.7198 -0.0000 -0.6941
vn -0.7363 -0.0000 -0.6767
vn -0.7363 -0.0000 0.6767
vn -0.9086 -0.0000 -0.4176
vn -0.9086 -0.0000 0.4176
vn -0.9561 -0.0000 -0.2929
vn -0.9561 -0.0000 0.2929
vn 1.0000 -0.0000 -0.0000
vn 0.9524 -0.0000 -0.3048
vn 0.9524 -0.0000 0.3048
vn 0.7214 -0.0000 -0.6926
vn 0.7214 -0.0000 0.6926
vn 0.9015 -0.0000 -0.4327
vn 0.9015 -0.0000 -0.4328
vn 0.9015 -0.0000 0.4327
vn 0.7214 -0.0000 -0.6925
vn 0.7214 -0.0000 0.6925
vn 0.7247 -0.0000 0.6891
vn 0.7247 -0.0000 -0.6891
vn 0.9031 -0.0000 0.4294
vn 0.9031 -0.0000 -0.4294
vn 0.9533 -0.0000 0.3021
vn 0.9533 -0.0000 -0.3021
vn 1.0000 -0.0000 0.0001
vn -0.0000 -0.0000 1.0000
vn -0.0000 -0.0000 -1.0000
vn -0.0000 -1.0000 -0.0000
vn -0.0000 1.0000 -0.0000
vn -0.7139 0.7003 -0.0000
vn -0.7620 0.6476 -0.0000
vn -0.6752 0.7376 -0.0000
vn -0.7399 0.6728 -0.0000
vn -0.7011 0.7130 -0.0000
vn -0.6934 0.7206 -0.0000
vn 0.7247 0.6890 -0.0000
vn 0.7146 0.6996 -0.0000
vn 0.8247 0.5656 -0.0000
vn 0.7141 0.7001 -0.0000
vn 0.7513 0.6599 -0.0000
vn -0.0000 1.0000 -0.0001
vt 0.986328 0.500000
vt 0.974609 0.500000
vt 0.373047 0.500000
vt 0.181641 0.500000
s 1
usemtl palette.001
f 27/1/1 1/1/1 24/1/1
f 4/2/1 2/2/2 1/2/1
f 4/1/1 1/1/1 27/1/1
f 5/1/1 3/1/1 2/1/2
f 5/2/1 2/2/2 4/2/1
f 6/1/1 3/1/1 5/1/1
f 38/1/1 7/1/1 32/1/1
f 10/2/3 8/2/3 7/2/1
f 10/1/3 7/1/1 38/1/1
f 11/1/1 9/1/1 8/1/3
f 11/2/1 8/2/3 10/2/3
f 12/1/1 9/1/1 11/1/1
f 16/1/1 13/1/1 43/1/1
f 17/2/1 14/2/1 13/2/1
f 17/1/1 13/1/1 16/1/1
f 18/1/1 15/1/1 14/1/1
f 18/2/1 14/2/1 17/2/1
f 52/1/1 15/1/1 18/1/1
f 21/1/1 19/1/1 53/1/1
f 22/2/1 20/2/1 19/2/1
f 22/1/1 19/1/1 21/1/1
f 23/1/1 57/1/1 20/1/1
f 23/2/1 20/2/1 22/2/1
f 62/1/1 57/1/1 23/1/1
f 26/1/4 24/1/4 65/1/4
f 27/1/4 24/1/4 26/1/4
f 6/1/5 25/1/5 3/1/5
f 30/1/5 25/1/5 6/1/5
f 33/3/1 69/3/1 29/3/1
f 33/3/1 28/3/2 68/3/1
f 33/3/1 29/3/1 28/3/2
f 34/3/1 69/3/1 33/3/1
f 35/3/2 69/3/1 34/3/1
f 72/3/1 69/3/1 35/3/2
f 37/1/4 32/1/4 31/1/4
f 38/1/4 32/1/4 37/1/4
f 12/1/5 36/1/5 9/1/5
f 76/1/5 36/1/5 12/1/5
f 44/3/1 42/3/1 41/3/1
f 44/3/1 40/3/1 39/3/1
f 44/3/1 41/3/1 40/3/1
f 45/3/1 42/3/1 44/3/1
f 46/3/1 42/3/1 45/3/1
f 80/3/1 42/3/1 46/3/1
f 47/1/4 43/1/4 79/1/4
f 16/1/4 43/1/4 47/1/4
f 52/1/5 82/1/5 15/1/5
f 86/1/5 82/1/5 52/1/5
f 54/3/1 51/3/1 50/3/1
f 54/3/1 49/3/2 48/3/1
f 54/3/1 50/3/1 49/3/2
f 55/3/1 51/3/1 54/3/1
f 56/3/3 51/3/1 55/3/1
f 91/3/1 51/3/1 56/3/3
f 59/1/4 53/1/4 89/1/4
f 21/1/4 53/1/4 59/1/4
f 62/1/5 58/1/5 57/1/5
f 63/1/5 58/1/5 62/1/5
f 64/3/1 96/3/1 61/3/1
f 64/3/1 60/3/1 95/3/1
f 64/3/1 61/3/1 60/3/1
f 98/3/1 96/3/1 64/3/1
f 67/1/6 65/1/6 100/1/6
f 26/1/6 65/1/6 67/1/6
f 30/1/7 66/1/7 25/1/7
f 105/1/7 66/1/7 30/1/7
f 71/3/4 68/3/4 103/3/4
f 33/3/4 68/3/4 71/3/4
f 72/3/5 70/3/5 69/3/5
f 73/3/5 70/3/5 72/3/5
f 110/1/6 31/1/6 108/1/6
f 37/1/6 31/1/6 110/1/6
f 76/1/7 74/1/7 36/1/7
f 77/1/7 74/1/7 76/1/7
f 115/3/4 39/3/4 111/3/4
f 44/3/4 39/3/4 115/3/4
f 80/3/5 75/3/5 42/3/5
f 81/3/5 75/3/5 80/3/5
f 84/1/6 79/1/6 78/1/6
f 47/1/6 79/1/6 84/1/6
f 86/1/7 83/1/7 82/1/7
f 87/1/7 83/1/7 86/1/7
f 90/3/4 48/3/4 85/3/4
f 54/3/4 48/3/4 90/3/4
f 91/3/5 119/3/5 51/3/5
f 123/3/5 119/3/5 91/3/5
f 93/1/6 89/1/6 88/1/6
f 59/1/6 89/1/6 93/1/6
f 63/1/7 92/1/7 58/1/7
f 130/1/7 92/1/7 63/1/7
f 97/3/4 95/3/4 94/3/4
f 64/3/4 95/3/4 97/3/4
f 98/3/5 128/3/5 96/3/5
f 133/3/5 128/3/5 98/3/5
f 102/1/8 100/1/8 99/1/8
f 67/1/8 100/1/8 102/1/8
f 105/1/9 101/1/9 66/1/9
f 106/1/9 101/1/9 105/1/9
f 109/3/6 103/3/6 138/3/6
f 71/3/6 103/3/6 109/3/6
f 73/3/7 104/3/7 70/3/7
f 143/3/7 104/3/7 73/3/7
f 147/1/8 108/1/8 107/1/8
f 110/1/8 108/1/8 147/1/8
f 77/1/9 144/1/9 74/1/9
f 112/1/9 144/1/9 77/1/9
f 114/3/6 111/3/6 149/3/6
f 115/3/6 111/3/6 114/3/6
f 81/3/7 150/3/7 75/3/7
f 116/3/7 150/3/7 81/3/7
f 118/1/8 78/1/8 113/1/8
f 84/1/8 78/1/8 118/1/8
f 87/1/9 117/1/9 83/1/9
f 120/1/9 117/1/9 87/1/9
f 122/3/6 85/3/6 158/3/6
f 90/3/6 85/3/6 122/3/6
f 123/3/7 159/3/7 119/3/7
f 124/3/7 159/3/7 123/3/7
f 126/1/8 88/1/8 121/1/8
f 93/1/8 88/1/8 126/1/8
f 130/1/9 125/1/9 92/1/9
f 131/1/9 125/1/9 130/1/9
f 132/3/6 94/3/6 127/3/6
f 97/3/6 94/3/6 132/3/6
f 133/3/7 129/3/7 128/3/7
f 169/3/7 129/3/7 133/3/7
f 136/1/6 99/1/6 134/1/6
f 102/1/6 99/1/6 136/1/6
f 106/1/7 135/1/7 101/1/7
f 140/1/7 135/1/7 106/1/7
f 142/3/8 138/3/8 137/3/8
f 109/3/8 138/3/8 142/3/8
f 143/3/9 139/3/9 104/3/9
f 174/3/9 139/3/9 143/3/9
f 146/1/10 107/1/10 141/1/6
f 147/1/6 107/1/10 146/1/10
f 112/1/11 145/1/11 144/1/7
f 152/1/7 145/1/11 112/1/11
f 154/3/8 149/3/8 148/3/8
f 114/3/8 149/3/8 154/3/8
f 116/3/9 151/3/9 150/3/9
f 179/3/9 151/3/9 116/3/9
f 156/1/6 113/1/6 153/1/6
f 118/1/6 113/1/6 156/1/6
f 120/1/7 155/1/7 117/1/7
f 160/1/7 155/1/7 120/1/7
f 162/3/8 158/3/8 157/3/8
f 122/3/8 158/3/8 162/3/8
f 124/3/9 182/3/9 159/3/9
f 185/3/9 182/3/9 124/3/9
f 164/1/10 121/1/10 161/1/10
f 126/1/10 121/1/10 164/1/10
f 131/1/11 163/1/11 125/1/11
f 167/1/11 163/1/11 131/1/11
f 168/3/8 127/3/8 165/3/8
f 132/3/8 127/3/8 168/3/8
f 169/3/9 166/3/9 129/3/9
f 170/3/9 166/3/9 169/3/9
f 173/3/6 137/3/6 171/3/6
f 142/3/6 137/3/6 173/3/6
f 174/3/7 172/3/7 139/3/7
f 175/3/7 172/3/7 174/3/7
f 178/3/6 148/3/6 176/3/6
f 154/3/6 148/3/6 178/3/6
f 179/3/7 177/3/7 151/3/7
f 180/3/7 177/3/7 179/3/7
f 184/3/6 157/3/6 181/3/6
f 162/3/6 157/3/6 184/3/6
f 185/3/7 183/3/7 182/3/7
f 186/3/7 183/3/7 185/3/7
f 189/3/6 165/3/6 187/3/6
f 168/3/6 165/3/6 189/3/6
f 170/3/7 188/3/7 166/3/7
f 190/3/7 188/3/7 170/3/7
f 219/1/6 191/1/6 216/1/6
f 194/1/6 191/1/6 219/1/6
f 195/1/7 193/1/11 192/1/7
f 196/1/7 193/1/11 195/1/7
f 199/1/6 197/1/10 225/1/6
f 200/1/10 197/1/10 199/1/10
f 201/1/7 230/1/7 198/1/11
f 237/1/7 230/1/7 201/1/7
f 244/1/6 203/1/6 202/1/10
f 206/1/6 203/1/6 244/1/6
f 207/1/7 205/1/7 204/1/7
f 248/1/11 205/1/7 207/1/7
f 211/1/6 209/1/6 208/1/6
f 212/1/6 209/1/6 211/1/6
f 213/1/7 254/1/11 210/1/7
f 214/1/7 254/1/11 213/1/7
f 218/1/6 216/1/6 215/1/6
f 219/1/6 216/1/6 218/1/6
f 196/1/7 217/1/7 193/1/11
f 223/1/7 217/1/7 196/1/7
f 226/3/6 221/3/6 220/3/6
f 227/3/6 221/3/6 226/3/6
f 228/3/7 265/3/7 222/3/7
f 229/3/7 265/3/7 228/3/7
f 232/1/6 225/1/6 224/1/6
f 199/1/6 225/1/6 232/1/6
f 237/1/7 231/1/7 230/1/7
f 238/1/7 231/1/7 237/1/7
f 272/3/6 234/3/6 233/3/6
f 240/3/6 234/3/6 272/3/6
f 241/3/7 236/3/7 235/3/7
f 273/3/7 236/3/7 241/3/7
f 243/1/6 202/1/10 239/1/6
f 244/1/6 202/1/10 243/1/6
f 248/1/11 242/1/7 205/1/7
f 249/1/7 242/1/7 248/1/11
f 279/3/6 245/3/6 276/3/6
f 251/3/10 245/3/6 279/3/6
f 252/3/7 247/3/7 246/3/11
f 253/3/7 247/3/7 252/3/7
f 256/1/6 208/1/6 250/1/10
f 211/1/6 208/1/6 256/1/6
f 214/1/7 255/1/7 254/1/11
f 261/1/11 255/1/7 214/1/7
f 284/3/6 258/3/6 257/3/6
f 262/3/6 258/3/6 284/3/6
f 263/3/7 260/3/7 259/3/7
f 285/3/7 260/3/7 263/3/7
f 267/3/6 220/3/6 264/3/6
f 226/3/6 220/3/6 267/3/6
f 229/3/7 266/3/7 265/3/7
f 268/3/7 266/3/7 229/3/7
f 271/3/6 233/3/6 269/3/6
f 272/3/6 233/3/6 271/3/6
f 273/3/7 270/3/7 236/3/7
f 274/3/7 270/3/7 273/3/7
f 278/3/6 276/3/6 275/3/6
f 279/3/6 276/3/6 278/3/6
f 253/3/7 277/3/7 247/3/7
f 280/3/7 277/3/7 253/3/7
f 283/3/6 257/3/6 281/3/6
f 284/3/6 257/3/6 283/3/6
f 285/3/7 282/3/7 260/3/7
f 286/3/7 282/3/7 285/3/7
f 291/1/6 288/1/6 287/1/6
f 292/1/6 288/1/6 291/1/6
f 293/1/7 290/1/7 289/1/7
f 294/1/7 290/1/7 293/1/7
f 299/1/6 296/1/6 295/1/6
f 300/1/6 296/1/6 299/1/6
f 301/1/7 298/1/7 297/1/7
f 302/1/7 298/1/7 301/1/7
f 307/1/6 304/1/6 303/1/6
f 308/1/6 304/1/6 307/1/6
f 309/1/7 306/1/7 305/1/7
f 310/1/7 306/1/7 309/1/7
f 315/1/6 312/1/6 311/1/6
f 316/1/6 312/1/6 315/1/6
f 317/1/7 314/1/7 313/1/7
f 318/1/7 314/1/7 317/1/7
f 323/3/6 320/3/6 319/3/6
f 324/3/6 320/3/6 323/3/6
f 325/3/7 322/3/7 321/3/7
f 326/3/7 322/3/7 325/3/7
f 331/3/6 328/3/6 327/3/6
f 332/3/6 328/3/6 331/3/6
f 333/3/7 330/3/7 329/3/7
f 334/3/7 330/3/7 333/3/7
f 339/3/6 336/3/6 335/3/6
f 340/3/6 336/3/6 339/3/6
f 341/3/7 338/3/7 337/3/7
f 342/3/7 338/3/7 341/3/7
f 347/3/6 344/3/6 343/3/6
f 348/3/6 344/3/6 347/3/6
f 349/3/7 346/3/7 345/3/7
f 350/3/7 346/3/7 349/3/7
f 355/3/12 352/3/12 351/3/12
f 356/3/12 352/3/12 355/3/12
f 357/3/13 354/3/13 353/3/13
f 358/3/13 354/3/13 357/3/13
f 363/3/12 360/3/12 359/3/12
f 364/3/12 360/3/12 363/3/12
f 365/3/13 362/3/13 361/3/13
f 366/3/13 362/3/13 365/3/13
f 364/3/12 367/3/12 360/3/12
f 369/3/12 367/3/12 364/3/12
f 370/3/13 361/3/13 368/3/13
f 365/3/13 361/3/13 370/3/13
f 373/3/12 376/3/12 371/3/12
f 380/3/12 376/3/12 373/3/12
f 374/3/13 372/3/13 379/3/13
f 375/3/13 372/3/13 374/3/13
f 380/3/14 377/3/14 376/3/14
f 381/3/14 377/3/14 380/3/14
f 382/3/15 379/3/15 378/3/15
f 374/3/15 379/3/15 382/3/15
f 381/3/12 384/3/12 377/3/12
f 387/3/12 384/3/12 381/3/12
f 390/3/13 378/3/13 383/3/13
f 382/3/13 378/3/13 390/3/13
f 387/3/16 385/3/16 384/3/16
f 388/3/16 385/3/16 387/3/16
f 389/3/17 383/3/17 386/3/17
f 390/3/17 383/3/17 389/3/17
f 388/3/1 386/3/1 385/3/1
f 389/3/1 386/3/1 388/3/1
f 391/3/18 392/3/18 393/3/18
f 393/3/18 392/3/18 394/3/18
f 397/3/19 391/3/19 395/3/19
f 395/3/19 391/3/19 393/3/19
f 392/3/20 398/3/20 394/3/20
f 394/3/20 398/3/20 401/3/20
f 396/3/21 397/3/21 400/3/21
f 400/3/21 397/3/21 395/3/21
f 398/3/22 399/3/22 401/3/22
f 401/3/22 399/3/22 402/3/22
f 403/3/23 396/3/23 408/3/23
f 408/3/23 396/3/23 400/3/24
f 399/3/25 405/3/25 402/3/25
f 402/3/25 405/3/25 409/3/25
f 404/3/26 403/3/26 407/3/26
f 407/3/26 403/3/26 408/3/26
f 405/3/27 406/3/27 409/3/27
f 409/3/27 406/3/27 410/3/27
f 411/3/26 412/3/21 421/3/26
f 421/3/26 412/3/21 414/3/26
f 413/3/27 418/3/27 415/3/22
f 415/3/22 418/3/27 416/3/27
f 417/3/26 411/3/26 420/3/26
f 420/3/26 411/3/26 421/3/26
f 418/3/27 419/3/27 416/3/27
f 416/3/27 419/3/27 422/3/27
f 423/3/26 424/3/26 427/3/26
f 427/3/26 424/3/26 428/3/26
f 425/3/27 426/3/27 429/3/27
f 429/3/27 426/3/27 430/3/27
f 431/3/28 432/3/28 435/3/28
f 435/3/28 432/3/28 436/3/28
f 433/3/29 434/3/29 437/3/29
f 437/3/29 434/3/29 438/3/29
f 439/3/28 440/3/28 443/3/28
f 443/3/28 440/3/28 444/3/28
f 441/3/29 442/3/29 445/3/29
f 445/3/29 442/3/29 446/3/29
f 447/3/28 448/3/28 451/3/28
f 451/3/28 448/3/28 452/3/28
f 449/3/29 450/3/29 453/3/29
f 453/3/29 450/3/29 454/3/29
f 455/3/28 456/3/28 459/3/28
f 459/3/28 456/3/28 460/3/28
f 457/3/29 458/3/29 461/3/29
f 461/3/29 458/3/29 462/3/29
f 463/1/28 464/1/28 467/1/28
f 467/1/28 464/1/28 468/1/28
f 465/1/29 466/1/29 469/1/29
f 469/1/29 466/1/29 470/1/29
f 471/1/28 472/1/28 475/1/28
f 475/1/28 472/1/28 476/1/28
f 473/1/29 474/1/29 477/1/29
f 477/1/29 474/1/29 478/1/29
f 479/1/28 480/1/28 483/1/28
f 483/1/28 480/1/28 484/1/28
f 481/1/29 482/1/29 485/1/29
f 485/1/29 482/1/29 486/1/29
f 487/1/28 488/1/28 491/1/28
f 491/1/28 488/1/28 492/1/28
f 489/1/29 490/1/29 493/1/29
f 493/1/29 490/1/29 494/1/29
f 495/3/28 523/3/28 497/3/28
f 497/3/28 523/3/28 498/3/28
f 526/3/29 496/3/29 499/3/29
f 499/3/29 496/3/29 500/3/29
f 501/3/28 502/3/28 505/3/28
f 505/3/28 502/3/28 541/3/28
f 503/3/29 504/3/29 544/3/29
f 544/3/29 504/3/29 506/3/29
f 507/3/28 508/3/28 510/3/28
f 510/3/28 508/3/28 554/3/28
f 550/3/29 509/3/29 511/3/29
f 511/3/29 509/3/29 512/3/29
f 513/3/28 560/3/28 516/3/28
f 516/3/28 560/3/28 517/3/28
f 514/3/29 515/3/29 518/3/29
f 518/3/29 515/3/29 519/3/29
f 520/1/28 566/1/28 522/1/28
f 522/1/28 566/1/28 570/1/28
f 569/1/29 521/1/29 573/1/29
f 573/1/29 521/1/29 527/1/29
f 523/3/28 524/3/28 498/3/28
f 498/3/28 524/3/28 530/3/28
f 525/3/29 526/3/29 531/3/29
f 531/3/29 526/3/29 499/3/29
f 528/1/28 529/1/28 534/1/28
f 534/1/28 529/1/28 535/1/28
f 532/1/29 533/1/29 578/1/29
f 578/1/29 533/1/29 538/1/29
f 502/3/28 536/3/28 541/3/28
f 541/3/28 536/3/28 542/3/28
f 537/3/29 503/3/29 543/3/29
f 543/3/29 503/3/29 544/3/29
f 539/1/28 540/1/28 547/1/28
f 547/1/28 540/1/28 581/1/28
f 545/1/29 546/1/29 584/1/29
f 584/1/29 546/1/29 551/1/29
f 508/3/28 548/3/28 554/3/28
f 554/3/28 548/3/28 555/3/28
f 549/3/29 550/3/29 556/3/29
f 556/3/29 550/3/29 511/3/29
f 552/1/28 553/1/28 559/1/28
f 559/1/28 553/1/28 587/1/28
f 557/1/29 558/1/29 590/1/29
f 590/1/29 558/1/29 563/1/29
f 560/3/28 561/3/28 517/3/28
f 517/3/28 561/3/28 564/3/28
f 562/3/29 514/3/29 565/3/29
f 565/3/29 514/3/29 518/3/29
f 566/1/28 567/1/28 570/1/28
f 570/1/28 567/1/28 571/1/28
f 568/1/29 569/1/29 572/1/29
f 572/1/29 569/1/29 573/1/29
f 529/1/28 574/1/28 535/1/28
f 535/1/28 574/1/28 576/1/28
f 575/1/29 532/1/29 577/1/29
f 577/1/29 532/1/29 578/1/29
f 540/1/28 579/1/28 581/1/28
f 581/1/28 579/1/28 582/1/28
f 580/1/29 545/1/29 583/1/29
f 583/1/29 545/1/29 584/1/29
f 553/1/28 585/1/28 587/1/28
f 587/1/28 585/1/28 588/1/28
f 586/1/29 557/1/29 589/1/29
f 589/1/29 557/1/29 590/1/29
f 591/3/28 623/3/28 593/3/28
f 593/3/28 623/3/28 594/3/28
f 624/3/29 592/3/29 595/3/29
f 595/3/29 592/3/29 596/3/29
f 597/3/28 598/3/28 601/3/28
f 601/3/28 598/3/28 602/3/28
f 599/3/29 600/3/29 603/3/29
f 603/3/29 600/3/29 604/3/29
f 605/3/28 642/3/28 608/3/28
f 608/3/28 642/3/28 609/3/28
f 606/3/29 607/3/29 610/3/29
f 610/3/29 607/3/29 611/3/29
f 612/3/28 613/3/28 616/3/28
f 616/3/28 613/3/28 658/3/28
f 614/3/29 615/3/29 617/3/29
f 617/3/29 615/3/29 618/3/29
f 619/1/28 620/1/28 622/1/28
f 622/1/28 620/1/28 664/1/28
f 663/1/29 621/1/29 625/1/29
f 625/1/29 621/1/29 626/1/29
f 623/3/30 665/3/30 594/3/30
f 594/3/30 665/3/30 628/3/30
f 666/3/31 624/3/31 629/3/31
f 629/3/31 624/3/31 595/3/31
f 627/1/28 668/1/28 632/1/28
f 632/1/28 668/1/28 633/1/28
f 630/1/29 631/1/29 635/1/29
f 635/1/29 631/1/29 636/1/29
f 598/3/30 634/3/30 602/3/30
f 602/3/30 634/3/30 676/3/30
f 672/3/31 599/3/31 638/3/31
f 638/3/31 599/3/31 603/3/31
f 637/1/28 674/1/28 640/1/28
f 640/1/28 674/1/28 641/1/28
f 679/1/29 639/1/29 645/1/29
f 645/1/29 639/1/29 646/1/29
f 642/3/30 643/3/30 609/3/30
f 609/3/30 643/3/30 682/3/30
f 644/3/31 606/3/31 649/3/31
f 649/3/31 606/3/31 610/3/31
f 647/1/28 648/1/28 652/1/28
f 652/1/28 648/1/28 653/1/28
f 650/1/29 651/1/29 656/1/29
f 656/1/29 651/1/29 657/1/29
f 613/3/30 654/3/30 658/3/30
f 658/3/30 654/3/30 659/3/30
f 655/3/31 614/3/31 660/3/31
f 660/3/31 614/3/31 617/3/31
f 620/1/30 661/1/30 664/1/30
f 664/1/30 661/1/30 689/1/30
f 662/1/31 663/1/31 667/1/31
f 667/1/31 663/1/31 625/1/31
f 665/3/28 691/3/28 628/3/28
f 628/3/28 691/3/28 695/3/28
f 693/3/29 666/3/29 670/3/29
f 670/3/29 666/3/29 629/3/29
f 668/1/30 669/1/30 633/1/30
f 633/1/30 669/1/30 671/1/30
f 697/1/31 630/1/31 673/1/31
f 673/1/31 630/1/31 635/1/31
f 634/3/28 698/3/28 676/3/28
f 676/3/28 698/3/28 702/3/28
f 700/3/29 672/3/29 677/3/29
f 677/3/29 672/3/29 638/3/29
f 674/1/30 675/1/30 641/1/30
f 641/1/30 675/1/30 706/1/30
f 678/1/31 679/1/31 680/1/31
f 680/1/31 679/1/31 645/1/31
f 643/3/28 707/3/28 682/3/28
f 682/3/28 707/3/28 683/3/28
f 710/3/29 644/3/29 714/3/29
f 714/3/29 644/3/29 649/3/29
f 648/1/30 681/1/30 653/1/30
f 653/1/30 681/1/30 716/1/30
f 715/1/31 650/1/31 685/1/31
f 685/1/31 650/1/31 656/1/31
f 654/3/28 718/3/28 659/3/28
f 659/3/28 718/3/28 686/3/28
f 684/3/29 655/3/29 687/3/29
f 687/3/29 655/3/29 660/3/29
f 661/1/28 722/1/28 689/1/28
f 689/1/28 722/1/28 690/1/28
f 688/1/29 662/1/29 728/1/29
f 728/1/29 662/1/29 667/1/29
f 691/3/32 724/3/32 695/3/32
f 695/3/32 724/3/32 696/3/32
f 692/3/33 693/3/33 732/3/33
f 732/3/33 693/3/33 670/3/33
f 669/1/28 694/1/28 671/1/28
f 671/1/28 694/1/28 735/1/28
f 734/1/29 697/1/29 741/1/29
f 741/1/29 697/1/29 673/1/29
f 698/3/32 699/3/32 702/3/32
f 702/3/32 699/3/32 703/3/32
f 739/3/33 700/3/33 704/3/33
f 704/3/33 700/3/33 677/3/33
f 675/1/28 701/1/28 706/1/28
f 706/1/28 701/1/28 745/1/28
f 705/1/29 678/1/29 711/1/29
f 711/1/29 678/1/29 680/1/29
f 707/3/32 708/3/32 683/3/32
f 683/3/32 708/3/32 712/3/32
f 709/3/33 710/3/33 713/3/33
f 713/3/33 710/3/33 714/3/33
f 681/1/28 749/1/28 716/1/28
f 716/1/28 749/1/28 717/1/28
f 753/1/29 715/1/29 720/1/29
f 720/1/29 715/1/29 685/1/29
f 718/3/32 755/3/32 686/3/32
f 686/3/32 755/3/32 759/3/32
f 719/3/33 684/3/33 721/3/33
f 721/3/33 684/3/33 687/3/33
f 722/1/32 760/1/32 690/1/32
f 690/1/32 760/1/32 763/1/32
f 723/1/33 688/1/33 727/1/33
f 727/1/33 688/1/33 728/1/33
f 726/3/18 692/3/18 696/3/18
f 724/3/18 725/3/18 696/3/18
f 725/3/18 726/3/18 696/3/18
f 696/3/18 692/3/18 730/3/18
f 730/3/18 692/3/18 731/3/18
f 731/3/18 692/3/18 732/3/18
f 694/1/32 729/1/32 735/1/32
f 735/1/32 729/1/32 736/1/32
f 733/1/33 734/1/33 740/1/33
f 740/1/33 734/1/33 741/1/33
f 738/3/18 739/3/18 703/3/18
f 699/3/18 737/3/18 703/3/18
f 737/3/18 738/3/18 703/3/18
f 703/3/18 739/3/18 742/3/18
f 742/3/18 739/3/18 743/3/18
f 743/3/18 739/3/18 704/3/18
f 701/1/32 770/1/32 745/1/32
f 745/1/32 770/1/32 773/1/32
f 744/1/33 705/1/33 748/1/33
f 748/1/33 705/1/33 711/1/33
f 747/3/18 709/3/18 712/3/18
f 708/3/18 746/3/18 712/3/18
f 746/3/18 747/3/18 712/3/18
f 712/3/18 709/3/18 751/3/18
f 751/3/18 709/3/18 752/3/18
f 752/3/18 709/3/18 713/3/18
f 749/1/32 750/1/32 717/1/32
f 717/1/32 750/1/32 754/1/32
f 778/1/33 753/1/33 758/1/33
f 758/1/33 753/1/33 720/1/33
f 757/3/18 719/3/18 759/3/18
f 755/3/18 756/3/18 759/3/18
f 756/3/18 757/3/18 759/3/18
f 759/3/18 719/3/18 721/3/18
f 760/1/18 761/1/18 763/1/18
f 761/2/34 762/2/18 764/2/18
f 763/1/18 761/1/34 764/1/18
f 762/1/18 723/1/18 765/1/18
f 764/2/18 762/2/18 765/2/18
f 765/1/18 723/1/18 727/1/18
f 729/1/18 766/1/18 736/1/18
f 766/2/34 767/2/18 768/2/18
f 736/1/18 766/1/34 768/1/18
f 767/1/18 733/1/18 769/1/18
f 768/2/18 767/2/18 769/2/18
f 769/1/18 733/1/18 740/1/18
f 770/1/18 771/1/18 773/1/18
f 771/2/34 772/2/18 774/2/18
f 773/1/18 771/1/34 774/1/18
f 772/1/18 744/1/18 775/1/18
f 774/2/18 772/2/18 775/2/18
f 775/1/18 744/1/18 748/1/18
f 750/1/18 776/1/18 754/1/18
f 776/2/18 777/2/18 779/2/18
f 754/1/18 776/1/18 779/1/18
f 777/1/18 778/1/18 780/1/18
f 779/2/18 777/2/18 780/2/18
f 780/1/18 778/1/18 758/1/18
f 781/1/35 291/1/35 287/1/35
f 782/1/35 291/1/35 781/1/35
f 783/1/35 299/1/35 295/1/35
f 784/1/35 299/1/35 783/1/35
f 785/1/35 307/1/35 303/1/35
f 786/1/35 307/1/35 785/1/35
f 787/1/35 315/1/35 311/1/35
f 788/1/35 315/1/35 787/1/35
f 789/2/35 782/2/35 781/2/35
f 790/2/35 782/2/35 789/2/35
f 791/2/35 784/2/35 783/2/35
f 792/2/35 784/2/35 791/2/35
f 793/2/35 786/2/35 785/2/35
f 794/2/35 786/2/35 793/2/35
f 795/2/35 788/2/35 787/2/35
f 796/2/35 788/2/35 795/2/35
f 463/1/35 790/1/35 789/1/35
f 467/1/35 790/1/35 463/1/35
f 471/1/35 792/1/35 791/1/35
f 475/1/35 792/1/35 471/1/35
f 479/1/35 794/1/35 793/1/35
f 483/1/35 794/1/35 479/1/35
f 487/1/35 796/1/35 795/1/35
f 491/1/35 796/1/35 487/1/35
f 288/1/35 218/1/35 215/1/35
f 292/1/35 218/1/35 288/1/35
f 296/1/35 232/1/35 224/1/35
f 300/1/35 232/1/35 296/1/35
f 304/1/35 243/1/35 239/1/35
f 308/1/35 243/1/35 304/1/35
f 312/1/35 256/1/35 250/1/35
f 316/1/35 256/1/35 312/1/35
f 797/3/35 323/3/35 319/3/35
f 798/3/35 323/3/35 797/3/35
f 799/3/35 331/3/35 327/3/35
f 800/3/35 331/3/35 799/3/35
f 801/3/35 339/3/35 335/3/35
f 802/3/35 339/3/35 801/3/35
f 803/3/35 347/3/35 343/3/35
f 804/3/35 798/3/35 797/3/35
f 805/3/35 798/3/35 804/3/35
f 806/3/35 800/3/35 799/3/35
f 807/3/35 800/3/35 806/3/35
f 808/3/35 802/3/35 801/3/35
f 809/3/35 802/3/35 808/3/35
f 810/3/35 347/3/35 803/3/35
f 431/3/35 805/3/35 804/3/35
f 435/3/35 805/3/35 431/3/35
f 439/3/35 807/3/35 806/3/35
f 443/3/35 807/3/35 439/3/35
f 447/3/35 809/3/35 808/3/35
f 451/3/35 809/3/35 447/3/35
f 455/3/35 347/3/35 810/3/35
f 459/3/35 347/3/35 455/3/35
f 520/1/35 468/1/35 464/1/35
f 522/1/35 468/1/35 520/1/35
f 528/1/35 476/1/35 472/1/35
f 534/1/35 476/1/35 528/1/35
f 539/1/35 484/1/35 480/1/35
f 547/1/35 484/1/35 539/1/35
f 552/1/35 492/1/35 488/1/35
f 559/1/35 492/1/35 552/1/35
f 320/3/35 267/3/35 264/3/35
f 324/3/35 267/3/35 320/3/35
f 328/3/35 271/3/35 269/3/35
f 332/3/35 271/3/35 328/3/35
f 336/3/35 278/3/35 275/3/35
f 340/3/35 278/3/35 336/3/35
f 344/3/35 283/3/35 281/3/35
f 348/3/35 283/3/35 344/3/35
f 495/3/35 436/3/35 432/3/35
f 497/3/35 436/3/35 495/3/35
f 501/3/35 444/3/35 440/3/35
f 505/3/35 444/3/35 501/3/35
f 507/3/35 452/3/35 448/3/35
f 510/3/35 452/3/35 507/3/35
f 513/3/35 460/3/35 456/3/35
f 516/3/35 460/3/35 513/3/35
f 191/1/35 136/1/35 134/1/35
f 194/1/35 136/1/35 191/1/35
f 197/1/35 146/1/35 141/1/35
f 200/1/35 146/1/35 197/1/35
f 203/1/35 156/1/35 153/1/35
f 206/1/35 156/1/35 203/1/35
f 209/1/35 164/1/35 161/1/35
f 212/1/35 164/1/35 209/1/35
f 619/1/35 571/1/35 567/1/35
f 622/1/35 571/1/35 619/1/35
f 627/1/35 576/1/35 574/1/35
f 632/1/35 576/1/35 627/1/35
f 637/1/35 582/1/35 579/1/35
f 640/1/35 582/1/35 637/1/35
f 647/1/35 588/1/35 585/1/35
f 652/1/35 588/1/35 647/1/35
f 221/3/35 173/3/35 171/3/35
f 227/3/35 173/3/35 221/3/35
f 234/3/35 178/3/35 176/3/35
f 240/3/35 178/3/35 234/3/35
f 245/3/35 184/3/35 181/3/35
f 251/3/35 184/3/35 245/3/35
f 258/3/35 189/3/35 187/3/35
f 262/3/35 189/3/35 258/3/35
f 591/3/35 530/3/35 524/3/35
f 593/3/35 530/3/35 591/3/35
f 597/3/35 542/3/35 536/3/35
f 601/3/35 542/3/35 597/3/35
f 605/3/35 555/3/35 548/3/35
f 608/3/35 555/3/35 605/3/35
f 612/3/35 564/3/35 561/3/35
f 616/3/35 564/3/35 612/3/35
f 413/3/35 410/3/35 406/3/35
f 415/3/35 410/3/35 413/3/35
f 372/3/35 370/3/35 368/3/35
f 375/3/35 370/3/35 372/3/35
f 425/3/35 422/3/35 419/3/35
f 429/3/35 422/3/35 425/3/35
f 362/3/35 357/3/35 353/3/35
f 366/3/35 357/3/35 362/3/35
f 354/3/35 430/3/35 426/3/35
f 358/3/35 430/3/35 354/3/35
f 423/3/36 427/3/36 351/3/36
f 351/3/36 427/3/36 355/3/36
f 417/3/36 420/3/36 424/3/36
f 424/3/36 420/3/36 428/3/36
f 352/3/36 356/3/36 359/3/36
f 359/3/36 356/3/36 363/3/36
f 404/3/36 407/3/36 412/3/36
f 412/3/36 407/3/36 414/3/36
f 367/3/36 369/3/36 371/3/36
f 371/3/36 369/3/36 373/3/36
f 172/3/36 175/3/36 222/3/36
f 222/3/36 175/3/36 228/3/36
f 177/3/36 180/3/36 235/3/36
f 235/3/36 180/3/36 241/3/36
f 183/3/36 186/3/36 246/3/36
f 246/3/36 186/3/36 252/3/36
f 188/3/36 190/3/36 259/3/36
f 259/3/36 190/3/36 263/3/36
f 525/3/36 531/3/36 592/3/36
f 592/3/36 531/3/36 596/3/36
f 537/3/36 543/3/36 600/3/36
f 600/3/36 543/3/36 604/3/36
f 549/3/36 556/3/36 607/3/36
f 607/3/36 556/3/36 611/3/36
f 562/3/36 565/3/36 615/3/36
f 615/3/36 565/3/36 618/3/36
f 135/1/36 140/1/36 192/1/36
f 192/1/36 140/1/36 195/1/36
f 145/1/36 152/1/36 198/1/36
f 198/1/36 152/1/36 201/1/36
f 155/1/36 160/1/36 204/1/36
f 204/1/36 160/1/36 207/1/36
f 163/1/36 167/1/36 210/1/36
f 210/1/36 167/1/36 213/1/36
f 568/1/36 572/1/36 621/1/36
f 621/1/36 572/1/36 626/1/36
f 575/1/36 577/1/36 631/1/36
f 631/1/36 577/1/36 636/1/36
f 580/1/36 583/1/36 639/1/36
f 639/1/36 583/1/36 646/1/36
f 586/1/36 589/1/36 651/1/36
f 651/1/36 589/1/36 657/1/36
f 266/3/36 268/3/36 321/3/36
f 321/3/36 268/3/36 325/3/36
f 270/3/36 274/3/36 329/3/36
f 329/3/36 274/3/36 333/3/36
f 277/3/36 280/3/36 337/3/36
f 337/3/36 280/3/36 341/3/36
f 282/3/36 286/3/36 345/3/36
f 345/3/36 286/3/36 349/3/36
f 433/3/36 437/3/36 496/3/36
f 496/3/36 437/3/36 500/3/36
f 441/3/36 445/3/36 504/3/36
f 504/3/36 445/3/36 506/3/36
f 449/3/36 453/3/36 509/3/36
f 509/3/36 453/3/36 512/3/36
f 457/3/36 461/3/36 515/3/36
f 515/3/36 461/3/36 519/3/36
f 217/1/36 223/1/36 289/1/36
f 289/1/36 223/1/36 293/1/36
f 231/1/36 238/1/36 297/1/36
f 297/1/36 238/1/36 301/1/36
f 242/1/36 249/1/36 305/1/36
f 305/1/36 249/1/36 309/1/36
f 255/1/36 261/1/36 313/1/36
f 313/1/36 261/1/36 317/1/36
f 322/3/36 326/3/36 811/3/36
f 811/3/36 326/3/36 812/3/36
f 330/3/36 334/3/36 813/3/36
f 813/3/36 334/3/36 814/3/36
f 338/3/36 342/3/36 815/3/36
f 815/3/36 342/3/36 816/3/36
f 346/3/36 350/3/36 817/3/36
f 811/3/36 812/3/36 818/3/36
f 818/3/36 812/3/36 819/3/36
f 813/3/36 814/3/36 820/3/36
f 820/3/36 814/3/36 821/3/36
f 815/3/36 816/3/36 822/3/36
f 822/3/36 816/3/36 823/3/36
f 817/3/36 350/3/36 824/3/36
f 818/3/36 819/3/36 434/3/36
f 434/3/36 819/3/36 438/3/36
f 820/3/36 821/3/36 442/3/36
f 442/3/36 821/3/36 446/3/36
f 822/3/36 823/3/36 450/3/36
f 450/3/36 823/3/36 454/3/36
f 824/3/36 350/3/36 458/3/36
f 458/3/36 350/3/36 462/3/36
f 465/1/36 469/1/36 521/1/36
f 521/1/36 469/1/36 527/1/36
f 473/1/36 477/1/36 533/1/36
f 533/1/36 477/1/36 538/1/36
f 481/1/36 485/1/36 546/1/36
f 546/1/36 485/1/36 551/1/36
f 489/1/36 493/1/36 558/1/36
f 558/1/36 493/1/36 563/1/36
f 290/1/36 294/1/36 825/1/36
f 825/1/36 294/1/36 826/1/36
f 298/1/36 302/1/36 827/1/36
f 827/1/36 302/1/36 828/1/36
f 306/1/36 310/1/36 829/1/36
f 829/1/36 310/1/36 830/1/36
f 314/1/36 318/1/36 831/1/36
f 831/1/36 318/1/36 832/1/36
f 825/2/36 826/2/36 833/2/36
f 833/2/36 826/2/36 834/2/36
f 827/2/36 828/2/36 835/2/36
f 835/2/36 828/2/36 836/2/36
f 829/2/36 830/2/36 837/2/36
f 837/2/36 830/2/36 838/2/36
f 831/2/36 832/2/36 839/2/36
f 839/2/36 832/2/36 840/2/36
f 833/1/36 834/1/36 466/1/36
f 466/1/36 834/1/36 470/1/36
f 835/1/36 836/1/36 474/1/36
f 474/1/36 836/1/36 478/1/36
f 837/1/36 838/1/36 482/1/36
f 482/1/36 838/1/36 486/1/36
f 839/1/36 840/1/36 490/1/36
f 490/1/36 840/1/36 494/1/36
f 288/1/37 781/1/37 287/1/37
f 841/2/37 789/2/37 781/2/37
f 841/1/37 781/1/37 288/1/37
f 842/1/37 463/1/37 789/1/37
f 842/2/37 789/2/37 841/2/37
f 464/1/37 463/1/37 842/1/37
f 216/1/37 841/1/37 288/1/37
f 216/1/37 520/1/37 464/1/37
f 216/1/37 464/1/37 842/1/37
f 216/1/37 842/1/37 841/1/37
f 216/1/37 288/1/37 215/1/37
f 566/1/37 520/1/37 216/1/37
f 191/1/37 566/1/37 216/1/37
f 567/1/37 566/1/37 191/1/37
f 99/1/37 191/1/37 134/1/37
f 99/1/37 619/1/37 567/1/37
f 99/1/37 567/1/37 191/1/37
f 620/1/37 619/1/37 99/1/37
f 100/1/37 620/1/37 99/1/37
f 661/1/37 620/1/37 100/1/37
f 65/1/37 661/1/37 100/1/37
f 722/1/37 661/1/37 65/1/37
f 24/1/37 722/1/37 65/1/37
f 760/1/37 722/1/37 24/1/37
f 1/1/37 760/1/37 24/1/37
f 843/1/37 760/1/37 1/1/37
f 844/1/37 760/1/37 843/1/37
f 761/1/37 760/1/37 844/1/37
f 2/2/37 843/2/37 1/2/37
f 845/1/37 844/1/37 843/1/37
f 845/2/37 843/2/37 2/2/37
f 846/2/37 761/2/37 844/2/37
f 846/1/37 844/1/37 845/1/37
f 762/2/37 761/2/37 846/2/37
f 3/1/37 845/1/37 2/1/37
f 3/1/37 846/1/37 845/1/37
f 3/1/37 762/1/37 846/1/37
f 723/1/37 762/1/37 3/1/37
f 25/1/37 723/1/37 3/1/37
f 688/1/37 723/1/37 25/1/37
f 66/1/37 688/1/37 25/1/37
f 662/1/37 688/1/37 66/1/37
f 101/1/37 662/1/37 66/1/37
f 663/1/37 662/1/37 101/1/37
f 135/1/37 663/1/37 101/1/37
f 192/1/37 663/1/37 135/1/37
f 568/1/37 663/1/37 192/1/37
f 621/1/37 663/1/37 568/1/37
f 193/1/37 568/1/37 192/1/37
f 569/1/37 568/1/37 193/1/37
f 217/1/37 569/1/37 193/1/37
f 289/1/37 569/1/37 217/1/37
f 847/1/37 569/1/37 289/1/37
f 848/1/37 569/1/37 847/1/37
f 465/1/37 569/1/37 848/1/37
f 521/1/37 569/1/37 465/1/37
f 290/1/37 847/1/37 289/1/37
f 825/2/37 848/2/37 847/2/37
f 825/1/37 847/1/37 290/1/37
f 833/1/37 465/1/37 848/1/37
f 833/2/37 848/2/37 825/2/37
f 466/1/37 465/1/37 833/1/37
f 296/1/37 783/1/37 295/1/37
f 323/1/37 783/1/37 296/1/37
f 798/2/37 791/2/37 783/2/37
f 798/1/37 783/1/37 323/1/37
f 805/1/37 471/1/37 791/1/37
f 805/2/37 791/2/37 798/2/37
f 435/1/37 471/1/37 805/1/37
f 472/1/37 471/1/37 435/1/37
f 225/1/37 323/1/37 296/1/37
f 225/1/37 296/1/37 224/1/37
f 267/1/37 323/1/37 225/1/37
f 324/1/37 323/1/37 267/1/37
f 436/1/37 528/1/37 472/1/37
f 436/1/37 472/1/37 435/1/37
f 497/1/37 528/1/37 436/1/37
f 529/1/37 528/1/37 497/1/37
f 197/1/37 267/1/37 225/1/37
f 226/1/37 267/1/37 197/1/37
f 498/1/37 529/1/37 497/1/37
f 574/1/37 529/1/37 498/1/37
f 107/1/37 226/1/37 197/1/37
f 107/1/37 197/1/37 141/1/37
f 173/1/37 226/1/37 107/1/37
f 227/1/37 226/1/37 173/1/37
f 530/1/37 627/1/37 574/1/37
f 530/1/37 574/1/37 498/1/37
f 593/1/37 627/1/37 530/1/37
f 668/1/37 627/1/37 593/1/37
f 142/1/37 173/1/37 107/1/37
f 594/1/37 668/1/37 593/1/37
f 108/1/37 142/1/37 107/1/37
f 669/1/37 668/1/37 594/1/37
f 109/1/37 142/1/37 108/1/37
f 109/1/37 108/1/37 31/1/37
f 628/1/37 669/1/37 594/1/37
f 694/1/37 669/1/37 628/1/37
f 71/1/37 109/1/37 31/1/37
f 695/1/37 694/1/37 628/1/37
f 32/1/37 71/1/37 31/1/37
f 729/1/37 694/1/37 695/1/37
f 33/1/37 71/1/37 32/1/37
f 696/1/37 729/1/37 695/1/37
f 7/1/37 33/1/37 32/1/37
f 34/1/37 33/1/37 7/1/37
f 730/1/37 729/1/37 696/1/37
f 766/1/37 729/1/37 730/1/37
f 8/2/37 34/2/37 7/2/37
f 35/2/37 34/2/37 8/2/37
f 731/2/37 766/2/37 730/2/37
f 767/2/37 766/2/37 731/2/37
f 72/1/37 35/1/37 8/1/37
f 732/1/37 767/1/37 731/1/37
f 9/1/37 72/1/37 8/1/37
f 733/1/37 767/1/37 732/1/37
f 73/1/37 72/1/37 9/1/37
f 670/1/37 733/1/37 732/1/37
f 36/1/37 73/1/37 9/1/37
f 143/1/37 73/1/37 36/1/37
f 734/1/37 733/1/37 670/1/37
f 734/1/37 670/1/37 629/1/37
f 74/1/37 143/1/37 36/1/37
f 697/1/37 734/1/37 629/1/37
f 174/1/37 143/1/37 74/1/37
f 595/1/37 697/1/37 629/1/37
f 144/1/37 174/1/37 74/1/37
f 175/1/37 174/1/37 144/1/37
f 630/1/37 697/1/37 595/1/37
f 630/1/37 595/1/37 596/1/37
f 145/1/37 228/1/37 175/1/37
f 145/1/37 175/1/37 144/1/37
f 198/1/37 228/1/37 145/1/37
f 229/1/37 228/1/37 198/1/37
f 499/1/37 596/1/37 531/1/37
f 499/1/37 630/1/37 596/1/37
f 575/1/37 630/1/37 499/1/37
f 631/1/37 630/1/37 575/1/37
f 230/1/37 229/1/37 198/1/37
f 268/1/37 229/1/37 230/1/37
f 500/1/37 575/1/37 499/1/37
f 532/1/37 575/1/37 500/1/37
f 231/1/37 325/1/37 268/1/37
f 231/1/37 268/1/37 230/1/37
f 297/1/37 325/1/37 231/1/37
f 326/1/37 325/1/37 297/1/37
f 438/1/37 532/1/37 500/1/37
f 438/1/37 500/1/37 437/1/37
f 473/1/37 532/1/37 438/1/37
f 533/1/37 532/1/37 473/1/37
f 298/1/37 812/1/37 326/1/37
f 298/1/37 326/1/37 297/1/37
f 827/2/37 819/2/37 812/2/37
f 827/1/37 812/1/37 298/1/37
f 835/1/37 473/1/37 438/1/37
f 835/2/37 819/2/37 827/2/37
f 835/1/37 438/1/37 819/1/37
f 474/1/37 473/1/37 835/1/37
f 304/1/37 785/1/37 303/1/37
f 331/1/37 785/1/37 304/1/37
f 800/2/37 793/2/37 785/2/37
f 800/1/37 785/1/37 331/1/37
f 807/1/37 479/1/37 793/1/37
f 807/2/37 793/2/37 800/2/37
f 443/1/37 479/1/37 807/1/37
f 480/1/37 479/1/37 443/1/37
f 202/1/37 331/1/37 304/1/37
f 202/1/37 304/1/37 239/1/37
f 271/1/37 331/1/37 202/1/37
f 332/1/37 331/1/37 271/1/37
f 444/1/37 539/1/37 480/1/37
f 444/1/37 480/1/37 443/1/37
f 505/1/37 539/1/37 444/1/37
f 540/1/37 539/1/37 505/1/37
f 203/1/37 271/1/37 202/1/37
f 272/1/37 271/1/37 203/1/37
f 541/1/37 540/1/37 505/1/37
f 579/1/37 540/1/37 541/1/37
f 113/1/37 272/1/37 203/1/37
f 113/1/37 203/1/37 153/1/37
f 178/1/37 272/1/37 113/1/37
f 240/1/37 272/1/37 178/1/37
f 542/1/37 637/1/37 579/1/37
f 542/1/37 579/1/37 541/1/37
f 601/1/37 637/1/37 542/1/37
f 674/1/37 637/1/37 601/1/37
f 154/1/37 178/1/37 113/1/37
f 602/1/37 674/1/37 601/1/37
f 78/1/37 154/1/37 113/1/37
f 675/1/37 674/1/37 602/1/37
f 114/1/37 154/1/37 78/1/37
f 114/1/37 78/1/37 79/1/37
f 676/1/37 675/1/37 602/1/37
f 701/1/37 675/1/37 676/1/37
f 115/1/37 114/1/37 79/1/37
f 702/1/37 701/1/37 676/1/37
f 43/1/37 115/1/37 79/1/37
f 770/1/37 701/1/37 702/1/37
f 44/1/37 115/1/37 43/1/37
f 703/1/37 770/1/37 702/1/37
f 13/1/37 44/1/37 43/1/37
f 45/1/37 44/1/37 13/1/37
f 742/1/37 770/1/37 703/1/37
f 771/1/37 770/1/37 742/1/37
f 14/2/37 45/2/37 13/2/37
f 46/2/37 45/2/37 14/2/37
f 743/2/37 771/2/37 742/2/37
f 772/2/37 771/2/37 743/2/37
f 80/1/37 46/1/37 14/1/37
f 704/1/37 772/1/37 743/1/37
f 15/1/37 80/1/37 14/1/37
f 744/1/37 772/1/37 704/1/37
f 81/1/37 80/1/37 15/1/37
f 677/1/37 744/1/37 704/1/37
f 82/1/37 81/1/37 15/1/37
f 116/1/37 81/1/37 82/1/37
f 705/1/37 744/1/37 677/1/37
f 705/1/37 677/1/37 638/1/37
f 83/1/37 116/1/37 82/1/37
f 678/1/37 705/1/37 638/1/37
f 179/1/37 116/1/37 83/1/37
f 603/1/37 678/1/37 638/1/37
f 117/1/37 179/1/37 83/1/37
f 180/1/37 179/1/37 117/1/37
f 679/1/37 678/1/37 603/1/37
f 679/1/37 603/1/37 604/1/37
f 155/1/37 241/1/37 180/1/37
f 155/1/37 180/1/37 117/1/37
f 204/1/37 241/1/37 155/1/37
f 273/1/37 241/1/37 204/1/37
f 544/1/37 604/1/37 543/1/37
f 544/1/37 679/1/37 604/1/37
f 580/1/37 679/1/37 544/1/37
f 639/1/37 679/1/37 580/1/37
f 205/1/37 273/1/37 204/1/37
f 274/1/37 273/1/37 205/1/37
f 506/1/37 580/1/37 544/1/37
f 545/1/37 580/1/37 506/1/37
f 242/1/37 333/1/37 274/1/37
f 242/1/37 274/1/37 205/1/37
f 305/1/37 333/1/37 242/1/37
f 334/1/37 333/1/37 305/1/37
f 446/1/37 545/1/37 506/1/37
f 446/1/37 506/1/37 445/1/37
f 481/1/37 545/1/37 446/1/37
f 546/1/37 545/1/37 481/1/37
f 306/1/37 814/1/37 334/1/37
f 306/1/37 334/1/37 305/1/37
f 829/2/37 821/2/37 814/2/37
f 829/1/37 814/1/37 306/1/37
f 837/1/37 481/1/37 446/1/37
f 837/2/37 821/2/37 829/2/37
f 837/1/37 446/1/37 821/1/37
f 482/1/37 481/1/37 837/1/37
f 312/1/37 787/1/37 311/1/37
f 339/1/37 787/1/37 312/1/37
f 802/2/37 795/2/37 787/2/37
f 802/1/37 787/1/37 339/1/37
f 809/1/37 487/1/37 795/1/37
f 809/2/37 795/2/37 802/2/37
f 451/1/37 487/1/37 809/1/37
f 488/1/37 487/1/37 451/1/37
f 208/1/37 339/1/37 312/1/37
f 208/1/37 312/1/37 250/1/37
f 278/1/37 339/1/37 208/1/37
f 340/1/37 339/1/37 278/1/37
f 452/1/37 552/1/37 488/1/37
f 452/1/37 488/1/37 451/1/37
f 510/1/37 552/1/37 452/1/37
f 553/1/37 552/1/37 510/1/37
f 209/1/37 278/1/37 208/1/37
f 279/1/37 278/1/37 209/1/37
f 554/1/37 553/1/37 510/1/37
f 585/1/37 553/1/37 554/1/37
f 121/1/37 279/1/37 209/1/37
f 121/1/37 209/1/37 161/1/37
f 184/1/37 279/1/37 121/1/37
f 251/1/37 279/1/37 184/1/37
f 555/1/37 647/1/37 585/1/37
f 555/1/37 585/1/37 554/1/37
f 608/1/37 647/1/37 555/1/37
f 648/1/37 647/1/37 608/1/37
f 162/1/37 184/1/37 121/1/37
f 609/1/37 648/1/37 608/1/37
f 88/1/37 162/1/37 121/1/37
f 681/1/37 648/1/37 609/1/37
f 122/1/37 162/1/37 88/1/37
f 122/1/37 88/1/37 89/1/37
f 682/1/37 681/1/37 609/1/37
f 749/1/37 681/1/37 682/1/37
f 90/1/37 122/1/37 89/1/37
f 683/1/37 749/1/37 682/1/37
f 53/1/37 90/1/37 89/1/37
f 750/1/37 749/1/37 683/1/37
f 54/1/37 90/1/37 53/1/37
f 712/1/37 750/1/37 683/1/37
f 19/1/37 54/1/37 53/1/37
f 55/1/37 54/1/37 19/1/37
f 751/1/37 750/1/37 712/1/37
f 776/1/37 750/1/37 751/1/37
f 20/2/37 55/2/37 19/2/37
f 56/2/37 55/2/37 20/2/37
f 752/2/37 776/2/37 751/2/37
f 777/2/37 776/2/37 752/2/37
f 91/1/37 56/1/37 20/1/37
f 713/1/37 777/1/37 752/1/37
f 57/1/37 91/1/37 20/1/37
f 778/1/37 777/1/37 713/1/37
f 123/1/37 91/1/37 57/1/37
f 714/1/37 778/1/37 713/1/37
f 58/1/37 123/1/37 57/1/37
f 124/1/37 123/1/37 58/1/37
f 753/1/37 778/1/37 714/1/37
f 753/1/37 714/1/37 649/1/37
f 92/1/37 124/1/37 58/1/37
f 715/1/37 753/1/37 649/1/37
f 185/1/37 124/1/37 92/1/37
f 610/1/37 715/1/37 649/1/37
f 125/1/37 185/1/37 92/1/37
f 186/1/37 185/1/37 125/1/37
f 650/1/37 715/1/37 610/1/37
f 650/1/37 610/1/37 611/1/37
f 163/1/37 252/1/37 186/1/37
f 163/1/37 186/1/37 125/1/37
f 210/1/37 252/1/37 163/1/37
f 253/1/37 252/1/37 210/1/37
f 511/1/37 611/1/37 556/1/37
f 511/1/37 650/1/37 611/1/37
f 586/1/37 650/1/37 511/1/37
f 651/1/37 650/1/37 586/1/37
f 254/1/37 253/1/37 210/1/37
f 280/1/37 253/1/37 254/1/37
f 512/1/37 586/1/37 511/1/37
f 557/1/37 586/1/37 512/1/37
f 255/1/37 341/1/37 280/1/37
f 255/1/37 280/1/37 254/1/37
f 313/1/37 341/1/37 255/1/37
f 342/1/37 341/1/37 313/1/37
f 454/1/37 557/1/37 512/1/37
f 454/1/37 512/1/37 453/1/37
f 489/1/37 557/1/37 454/1/37
f 558/1/37 557/1/37 489/1/37
f 314/1/37 816/1/37 342/1/37
f 314/1/37 342/1/37 313/1/37
f 831/2/37 823/2/37 816/2/37
f 831/1/37 816/1/37 314/1/37
f 839/1/37 489/1/37 454/1/37
f 839/2/37 823/2/37 831/2/37
f 839/1/37 454/1/37 823/1/37
f 490/1/37 489/1/37 839/1/37
f 291/1/38 782/1/38 292/1/38
f 292/1/38 782/1/38 319/1/38
f 782/2/38 790/2/38 797/2/38
f 319/1/38 782/1/38 797/1/38
f 790/1/38 467/1/38 804/1/38
f 797/2/38 790/2/38 804/2/38
f 804/1/38 467/1/38 431/1/38
f 431/1/38 467/1/38 468/1/38
f 292/1/38 319/1/38 219/1/38
f 218/1/38 292/1/38 219/1/38
f 219/1/38 319/1/38 264/1/38
f 264/1/38 319/1/38 320/1/38
f 468/1/38 522/1/38 432/1/38
f 431/1/38 468/1/38 432/1/38
f 432/1/38 522/1/38 495/1/38
f 495/1/38 522/1/38 570/1/38
f 219/1/38 264/1/38 194/1/38
f 194/1/38 264/1/38 220/1/38
f 495/1/38 570/1/38 523/1/38
f 523/1/38 570/1/38 571/1/38
f 194/1/38 220/1/38 102/1/38
f 136/1/38 194/1/38 102/1/38
f 102/1/38 220/1/38 171/1/38
f 171/1/38 220/1/38 221/1/38
f 571/1/38 622/1/38 524/1/38
f 523/1/38 571/1/38 524/1/38
f 524/1/38 622/1/38 591/1/38
f 591/1/38 622/1/38 664/1/38
f 102/1/38 171/1/38 137/1/38
f 591/1/38 664/1/38 623/1/38
f 102/1/38 137/1/38 67/1/38
f 623/1/38 664/1/38 689/1/38
f 67/1/38 137/1/38 138/1/38
f 26/1/38 67/1/38 138/1/38
f 623/1/38 689/1/38 665/1/38
f 665/1/38 689/1/38 690/1/38
f 26/1/38 138/1/38 103/1/38
f 665/1/38 690/1/38 691/1/38
f 26/1/38 103/1/38 27/1/38
f 691/1/38 690/1/38 763/1/38
f 27/1/38 103/1/38 68/1/38
f 691/1/38 763/1/38 724/1/38
f 27/1/38 68/1/38 4/1/38
f 4/1/38 68/1/38 28/1/38
f 724/1/38 763/1/38 725/1/38
f 725/1/38 763/1/38 764/1/38
f 4/2/38 28/2/38 5/2/38
f 5/2/38 28/2/38 29/2/38
f 725/2/38 764/2/38 726/2/38
f 726/2/38 764/2/38 765/2/38
f 5/1/38 29/1/38 69/1/38
f 726/1/38 765/1/38 692/1/38
f 5/1/38 69/1/38 6/1/38
f 692/1/38 765/1/38 727/1/38
f 6/1/38 69/1/38 70/1/38
f 692/1/38 727/1/38 693/1/38
f 6/1/38 70/1/38 30/1/38
f 30/1/38 70/1/38 104/1/38
f 693/1/38 727/1/38 728/1/38
f 666/1/38 693/1/38 728/1/38
f 30/1/38 104/1/38 105/1/38
f 666/1/38 728/1/38 667/1/38
f 105/1/38 104/1/38 139/1/38
f 666/1/38 667/1/38 624/1/38
f 105/1/38 139/1/38 106/1/38
f 106/1/38 139/1/38 172/1/38
f 624/1/38 667/1/38 625/1/38
f 592/1/38 624/1/38 625/1/38
f 172/1/38 222/1/38 140/1/38
f 106/1/38 172/1/38 140/1/38
f 140/1/38 222/1/38 195/1/38
f 195/1/38 222/1/38 265/1/38
f 525/1/38 592/1/38 526/1/38
f 592/1/38 625/1/38 526/1/38
f 526/1/38 625/1/38 572/1/38
f 572/1/38 625/1/38 626/1/38
f 195/1/38 265/1/38 196/1/38
f 196/1/38 265/1/38 266/1/38
f 526/1/38 572/1/38 496/1/38
f 496/1/38 572/1/38 573/1/38
f 266/1/38 321/1/38 223/1/38
f 196/1/38 266/1/38 223/1/38
f 223/1/38 321/1/38 293/1/38
f 293/1/38 321/1/38 322/1/38
f 496/1/38 573/1/38 434/1/38
f 433/1/38 496/1/38 434/1/38
f 434/1/38 573/1/38 469/1/38
f 469/1/38 573/1/38 527/1/38
f 322/1/38 811/1/38 294/1/38
f 293/1/38 322/1/38 294/1/38
f 811/2/38 818/2/38 826/2/38
f 294/1/38 811/1/38 826/1/38
f 434/1/38 469/1/38 834/1/38
f 826/2/38 818/2/38 834/2/38
f 818/1/38 434/1/38 834/1/38
f 834/1/38 469/1/38 470/1/38
f 299/1/38 784/1/38 300/1/38
f 300/1/38 784/1/38 327/1/38
f 784/2/38 792/2/38 799/2/38
f 327/1/38 784/1/38 799/1/38
f 792/1/38 475/1/38 806/1/38
f 799/2/38 792/2/38 806/2/38
f 806/1/38 475/1/38 439/1/38
f 439/1/38 475/1/38 476/1/38
f 300/1/38 327/1/38 199/1/38
f 232/1/38 300/1/38 199/1/38
f 199/1/38 327/1/38 269/1/38
f 269/1/38 327/1/38 328/1/38
f 476/1/38 534/1/38 440/1/38
f 439/1/38 476/1/38 440/1/38
f 440/1/38 534/1/38 501/1/38
f 501/1/38 534/1/38 535/1/38
f 199/1/38 269/1/38 200/1/38
f 200/1/38 269/1/38 233/1/38
f 501/1/38 535/1/38 502/1/38
f 502/1/38 535/1/38 576/1/38
f 200/1/38 233/1/38 147/1/38
f 146/1/38 200/1/38 147/1/38
f 147/1/38 233/1/38 176/1/38
f 176/1/38 233/1/38 234/1/38
f 576/1/38 632/1/38 536/1/38
f 502/1/38 576/1/38 536/1/38
f 536/1/38 632/1/38 597/1/38
f 597/1/38 632/1/38 633/1/38
f 147/1/38 176/1/38 148/1/38
f 597/1/38 633/1/38 598/1/38
f 147/1/38 148/1/38 110/1/38
f 598/1/38 633/1/38 671/1/38
f 110/1/38 148/1/38 149/1/38
f 37/1/38 110/1/38 149/1/38
f 598/1/38 671/1/38 634/1/38
f 634/1/38 671/1/38 735/1/38
f 37/1/38 149/1/38 111/1/38
f 634/1/38 735/1/38 698/1/38
f 37/1/38 111/1/38 38/1/38
f 698/1/38 735/1/38 736/1/38
f 38/1/38 111/1/38 39/1/38
f 698/1/38 736/1/38 699/1/38
f 38/1/38 39/1/38 10/1/38
f 10/1/38 39/1/38 40/1/38
f 699/1/38 736/1/38 737/1/38
f 737/1/38 736/1/38 768/1/38
f 10/2/38 40/2/38 11/2/38
f 11/2/38 40/2/38 41/2/38
f 737/2/38 768/2/38 738/2/38
f 738/2/38 768/2/38 769/2/38
f 11/1/38 41/1/38 42/1/38
f 738/1/38 769/1/38 739/1/38
f 11/1/38 42/1/38 12/1/38
f 739/1/38 769/1/38 740/1/38
f 12/1/38 42/1/38 75/1/38
f 739/1/38 740/1/38 700/1/38
f 12/1/38 75/1/38 76/1/38
f 76/1/38 75/1/38 150/1/38
f 700/1/38 740/1/38 741/1/38
f 672/1/38 700/1/38 741/1/38
f 76/1/38 150/1/38 77/1/38
f 672/1/38 741/1/38 673/1/38
f 77/1/38 150/1/38 151/1/38
f 672/1/38 673/1/38 599/1/38
f 77/1/38 151/1/38 112/1/38
f 112/1/38 151/1/38 177/1/38
f 599/1/38 673/1/38 635/1/38
f 600/1/38 599/1/38 635/1/38
f 177/1/38 235/1/38 152/1/38
f 112/1/38 177/1/38 152/1/38
f 152/1/38 235/1/38 201/1/38
f 201/1/38 235/1/38 236/1/38
f 537/1/38 600/1/38 503/1/38
f 600/1/38 635/1/38 503/1/38
f 503/1/38 635/1/38 577/1/38
f 577/1/38 635/1/38 636/1/38
f 201/1/38 236/1/38 237/1/38
f 237/1/38 236/1/38 270/1/38
f 503/1/38 577/1/38 504/1/38
f 504/1/38 577/1/38 578/1/38
f 270/1/38 329/1/38 238/1/38
f 237/1/38 270/1/38 238/1/38
f 238/1/38 329/1/38 301/1/38
f 301/1/38 329/1/38 330/1/38
f 504/1/38 578/1/38 442/1/38
f 441/1/38 504/1/38 442/1/38
f 442/1/38 578/1/38 477/1/38
f 477/1/38 578/1/38 538/1/38
f 330/1/38 813/1/38 302/1/38
f 301/1/38 330/1/38 302/1/38
f 813/2/38 820/2/38 828/2/38
f 302/1/38 813/1/38 828/1/38
f 442/1/38 477/1/38 836/1/38
f 828/2/38 820/2/38 836/2/38
f 820/1/38 442/1/38 836/1/38
f 836/1/38 477/1/38 478/1/38
f 307/1/38 786/1/38 308/1/38
f 308/1/38 786/1/38 335/1/38
f 786/2/38 794/2/38 801/2/38
f 335/1/38 786/1/38 801/1/38
f 794/1/38 483/1/38 808/1/38
f 801/2/38 794/2/38 808/2/38
f 808/1/38 483/1/38 447/1/38
f 447/1/38 483/1/38 484/1/38
f 308/1/38 335/1/38 244/1/38
f 243/1/38 308/1/38 244/1/38
f 244/1/38 335/1/38 275/1/38
f 275/1/38 335/1/38 336/1/38
f 484/1/38 547/1/38 448/1/38
f 447/1/38 484/1/38 448/1/38
f 448/1/38 547/1/38 507/1/38
f 507/1/38 547/1/38 581/1/38
f 244/1/38 275/1/38 206/1/38
f 206/1/38 275/1/38 276/1/38
f 507/1/38 581/1/38 508/1/38
f 508/1/38 581/1/38 582/1/38
f 206/1/38 276/1/38 118/1/38
f 156/1/38 206/1/38 118/1/38
f 118/1/38 276/1/38 181/1/38
f 181/1/38 276/1/38 245/1/38
f 582/1/38 640/1/38 548/1/38
f 508/1/38 582/1/38 548/1/38
f 548/1/38 640/1/38 605/1/38
f 605/1/38 640/1/38 641/1/38
f 118/1/38 181/1/38 157/1/38
f 605/1/38 641/1/38 642/1/38
f 118/1/38 157/1/38 84/1/38
f 642/1/38 641/1/38 706/1/38
f 84/1/38 157/1/38 158/1/38
f 47/1/38 84/1/38 158/1/38
f 642/1/38 706/1/38 643/1/38
f 643/1/38 706/1/38 745/1/38
f 47/1/38 158/1/38 85/1/38
f 643/1/38 745/1/38 707/1/38
f 47/1/38 85/1/38 16/1/38
f 707/1/38 745/1/38 773/1/38
f 16/1/38 85/1/38 48/1/38
f 707/1/38 773/1/38 708/1/38
f 16/1/38 48/1/38 17/1/38
f 17/1/38 48/1/38 49/1/38
f 708/1/38 773/1/38 746/1/38
f 746/1/38 773/1/38 774/1/38
f 17/2/38 49/2/38 18/2/38
f 18/2/38 49/2/38 50/2/38
f 746/2/38 774/2/38 747/2/38
f 747/2/38 774/2/38 775/2/38
f 18/1/38 50/1/38 51/1/38
f 747/1/38 775/1/38 709/1/38
f 18/1/38 51/1/38 52/1/38
f 709/1/38 775/1/38 748/1/38
f 52/1/38 51/1/38 119/1/38
f 709/1/38 748/1/38 710/1/38
f 52/1/38 119/1/38 86/1/38
f 86/1/38 119/1/38 159/1/38
f 710/1/38 748/1/38 711/1/38
f 644/1/38 710/1/38 711/1/38
f 86/1/38 159/1/38 87/1/38
f 644/1/38 711/1/38 680/1/38
f 87/1/38 159/1/38 182/1/38
f 644/1/38 680/1/38 606/1/38
f 87/1/38 182/1/38 120/1/38
f 120/1/38 182/1/38 183/1/38
f 606/1/38 680/1/38 645/1/38
f 607/1/38 606/1/38 645/1/38
f 183/1/38 246/1/38 160/1/38
f 120/1/38 183/1/38 160/1/38
f 160/1/38 246/1/38 207/1/38
f 207/1/38 246/1/38 247/1/38
f 549/1/38 607/1/38 550/1/38
f 607/1/38 645/1/38 550/1/38
f 550/1/38 645/1/38 583/1/38
f 583/1/38 645/1/38 646/1/38
f 207/1/38 247/1/38 248/1/38
f 248/1/38 247/1/38 277/1/38
f 550/1/38 583/1/38 509/1/38
f 509/1/38 583/1/38 584/1/38
f 277/1/38 337/1/38 249/1/38
f 248/1/38 277/1/38 249/1/38
f 249/1/38 337/1/38 309/1/38
f 309/1/38 337/1/38 338/1/38
f 509/1/38 584/1/38 450/1/38
f 449/1/38 509/1/38 450/1/38
f 450/1/38 584/1/38 485/1/38
f 485/1/38 584/1/38 551/1/38
f 338/1/38 815/1/38 310/1/38
f 309/1/38 338/1/38 310/1/38
f 815/2/38 822/2/38 830/2/38
f 310/1/38 815/1/38 830/1/38
f 450/1/38 485/1/38 838/1/38
f 830/2/38 822/2/38 838/2/38
f 822/1/38 450/1/38 838/1/38
f 838/1/38 485/1/38 486/1/38
f 423/3/38 351/3/38 424/3/38
f 424/3/38 351/3/38 352/3/38
f 417/3/38 424/3/38 411/3/38
f 352/3/38 359/3/38 411/3/38
f 424/3/38 352/3/38 411/3/38
f 411/3/38 359/3/38 360/3/38
f 411/3/38 360/3/38 412/3/38
f 412/3/38 360/3/38 367/3/38
f 404/3/38 412/3/38 403/3/38
f 367/3/38 371/3/38 403/3/38
f 412/3/38 367/3/38 403/3/38
f 403/3/38 371/3/38 376/3/38
f 403/3/38 376/3/38 396/3/38
f 396/3/38 376/3/38 377/3/38
f 396/3/38 377/3/38 397/3/38
f 397/3/38 377/3/38 384/3/38
f 397/3/38 384/3/38 391/3/38
f 391/3/38 384/3/38 385/3/38
f 391/3/38 385/3/38 392/3/38
f 392/3/38 385/3/38 386/3/38
f 392/3/38 386/3/38 398/3/38
f 398/3/38 386/3/38 383/3/38
f 398/3/38 383/3/38 399/3/38
f 399/3/38 383/3/38 378/3/38
f 399/3/38 378/3/38 405/3/38
f 405/3/38 378/3/38 379/3/38
f 405/3/38 379/3/38 406/3/38
f 406/3/38 379/3/38 413/3/38
f 413/3/38 379/3/38 368/3/38
f 368/3/38 379/3/38 372/3/38
f 413/3/38 368/3/38 418/3/38
f 418/3/38 368/3/38 361/3/38
f 418/3/38 361/3/38 419/3/38
f 419/3/38 361/3/38 425/3/38
f 425/3/38 361/3/38 353/3/38
f 353/3/38 361/3/38 362/3/38
f 425/3/38 353/3/38 426/3/38
f 426/3/38 353/3/38 354/3/38
f 315/1/38 788/1/38 316/1/38
f 316/1/38 788/1/38 343/1/38
f 788/2/38 796/2/38 803/2/38
f 343/1/38 788/1/38 803/1/38
f 796/1/38 491/1/38 810/1/38
f 803/2/38 796/2/38 810/2/38
f 810/1/38 491/1/38 455/1/38
f 455/1/38 491/1/38 492/1/38
f 316/1/38 343/1/38 211/1/38
f 256/1/38 316/1/38 211/1/38
f 211/1/38 343/1/38 281/1/38
f 281/1/38 343/1/38 344/1/38
f 492/1/38 559/1/38 456/1/38
f 455/1/38 492/1/38 456/1/38
f 456/1/38 559/1/38 513/1/38
f 513/1/38 559/1/38 587/1/38
f 211/1/38 281/1/38 212/1/38
f 212/1/38 281/1/38 257/1/38
f 513/1/38 587/1/38 560/1/38
f 560/1/38 587/1/38 588/1/38
f 212/1/38 257/1/38 126/1/38
f 164/1/38 212/1/38 126/1/38
f 126/1/38 257/1/38 187/1/38
f 187/1/38 257/1/38 258/1/38
f 588/1/38 652/1/38 561/1/38
f 560/1/38 588/1/38 561/1/38
f 561/1/38 652/1/38 612/1/38
f 612/1/38 652/1/38 653/1/38
f 126/1/38 187/1/38 165/1/38
f 612/1/38 653/1/38 613/1/38
f 126/1/38 165/1/38 93/1/38
f 613/1/38 653/1/38 716/1/38
f 93/1/38 165/1/38 127/1/38
f 59/1/38 93/1/38 127/1/38
f 613/1/38 716/1/38 654/1/38
f 654/1/38 716/1/38 717/1/38
f 59/1/38 127/1/38 94/1/38
f 654/1/38 717/1/38 718/1/38
f 59/1/38 94/1/38 21/1/38
f 718/1/38 717/1/38 754/1/38
f 21/1/38 94/1/38 95/1/38
f 718/1/38 754/1/38 755/1/38
f 21/1/38 95/1/38 22/1/38
f 22/1/38 95/1/38 60/1/38
f 755/1/38 754/1/38 756/1/38
f 756/1/38 754/1/38 779/1/38
f 22/2/38 60/2/38 23/2/38
f 23/2/38 60/2/38 61/2/38
f 756/2/38 779/2/38 757/2/38
f 757/2/38 779/2/38 780/2/38
f 23/1/38 61/1/38 96/1/38
f 757/1/38 780/1/38 719/1/38
f 23/1/38 96/1/38 62/1/38
f 719/1/38 780/1/38 758/1/38
f 62/1/38 96/1/38 128/1/38
f 719/1/38 758/1/38 684/1/38
f 62/1/38 128/1/38 63/1/38
f 63/1/38 128/1/38 129/1/38
f 684/1/38 758/1/38 720/1/38
f 655/1/38 684/1/38 720/1/38
f 63/1/38 129/1/38 130/1/38
f 655/1/38 720/1/38 685/1/38
f 130/1/38 129/1/38 166/1/38
f 655/1/38 685/1/38 614/1/38
f 130/1/38 166/1/38 131/1/38
f 131/1/38 166/1/38 188/1/38
f 614/1/38 685/1/38 656/1/38
f 615/1/38 614/1/38 656/1/38
f 188/1/38 259/1/38 167/1/38
f 131/1/38 188/1/38 167/1/38
f 167/1/38 259/1/38 213/1/38
f 213/1/38 259/1/38 260/1/38
f 562/1/38 615/1/38 514/1/38
f 615/1/38 656/1/38 514/1/38
f 514/1/38 656/1/38 589/1/38
f 589/1/38 656/1/38 657/1/38
f 213/1/38 260/1/38 214/1/38
f 214/1/38 260/1/38 282/1/38
f 514/1/38 589/1/38 515/1/38
f 515/1/38 589/1/38 590/1/38
f 282/1/38 345/1/38 261/1/38
f 214/1/38 282/1/38 261/1/38
f 261/1/38 345/1/38 317/1/38
f 317/1/38 345/1/38 346/1/38
f 515/1/38 590/1/38 458/1/38
f 457/1/38 515/1/38 458/1/38
f 458/1/38 590/1/38 493/1/38
f 493/1/38 590/1/38 563/1/38
f 346/1/38 817/1/38 318/1/38
f 317/1/38 346/1/38 318/1/38
f 817/2/38 824/2/38 832/2/38
f 318/1/38 817/1/38 832/1/38
f 458/1/38 493/1/38 840/1/38
f 832/2/38 824/2/38 840/2/38
f 824/1/38 458/1/38 840/1/38
f 840/1/38 493/1/38 494/1/38
f 347/3/38 459/3/38 348/3/38
f 348/3/38 459/3/38 427/3/38
f 427/3/38 459/3/38 355/3/38
f 355/3/38 459/3/38 460/3/38
f 283/3/38 348/3/38 284/3/38
f 348/3/38 427/3/38 284/3/38
f 284/3/38 427/3/38 420/3/38
f 420/3/38 427/3/38 428/3/38
f 355/3/38 460/3/38 356/3/38
f 460/3/38 516/3/38 356/3/38
f 356/3/38 516/3/38 363/3/38
f 363/3/38 516/3/38 517/3/38
f 284/3/38 420/3/38 262/3/38
f 262/3/38 420/3/38 421/3/38
f 363/3/38 517/3/38 364/3/38
f 364/3/38 517/3/38 564/3/38
f 262/3/38 421/3/38 168/3/38
f 189/3/38 262/3/38 168/3/38
f 168/3/38 421/3/38 407/3/38
f 407/3/38 421/3/38 414/3/38
f 564/3/38 616/3/38 369/3/38
f 364/3/38 564/3/38 369/3/38
f 369/3/38 616/3/38 373/3/38
f 373/3/38 616/3/38 658/3/38
f 168/3/38 407/3/38 408/3/38
f 373/3/38 658/3/38 380/3/38
f 168/3/38 408/3/38 132/3/38
f 380/3/38 658/3/38 659/3/38
f 132/3/38 408/3/38 400/3/38
f 97/3/38 132/3/38 400/3/38
f 380/3/38 659/3/38 381/3/38
f 381/3/38 659/3/38 686/3/38
f 97/3/38 400/3/38 395/3/38
f 381/3/38 686/3/38 387/3/38
f 97/3/38 395/3/38 64/3/38
f 387/3/38 686/3/38 759/3/38
f 64/3/38 395/3/38 393/3/38
f 387/3/38 759/3/38 388/3/38
f 64/3/38 393/3/38 394/3/38
f 388/3/38 759/3/38 389/3/38
f 64/3/38 394/3/38 98/3/38
f 389/3/38 759/3/38 721/3/38
f 98/3/38 394/3/38 401/3/38
f 389/3/38 721/3/38 390/3/38
f 98/3/38 401/3/38 133/3/38
f 133/3/38 401/3/38 402/3/38
f 390/3/38 721/3/38 687/3/38
f 382/3/38 390/3/38 687/3/38
f 133/3/38 402/3/38 169/3/38
f 382/3/38 687/3/38 660/3/38
f 169/3/38 402/3/38 409/3/38
f 382/3/38 660/3/38 374/3/38
f 169/3/38 409/3/38 170/3/38
f 170/3/38 409/3/38 410/3/38
f 374/3/38 660/3/38 617/3/38
f 375/3/38 374/3/38 617/3/38
f 410/3/38 415/3/38 190/3/38
f 170/3/38 410/3/38 190/3/38
f 190/3/38 415/3/38 263/3/38
f 263/3/38 415/3/38 416/3/38
f 370/3/38 375/3/38 365/3/38
f 375/3/38 617/3/38 365/3/38
f 365/3/38 617/3/38 565/3/38
f 565/3/38 617/3/38 618/3/38
f 263/3/38 416/3/38 285/3/38
f 285/3/38 416/3/38 422/3/38
f 365/3/38 565/3/38 366/3/38
f 366/3/38 565/3/38 518/3/38
f 422/3/38 429/3/38 286/3/38
f 285/3/38 422/3/38 286/3/38
f 286/3/38 429/3/38 349/3/38
f 349/3/38 429/3/38 430/3/38
f 366/3/38 518/3/38 358/3/38
f 357/3/38 366/3/38 358/3/38
f 358/3/38 518/3/38 461/3/38
f 461/3/38 518/3/38 519/3/38
f 349/3/38 430/3/38 350/3/38
f 358/3/38 461/3/38 350/3/38
f 430/3/38 358/3/38 350/3/38
f 350/3/38 461/3/38 462/3/38
usemtl palette.009
f 853/4/39 850/4/39 849/4/39
f 854/4/39 850/4/39 853/4/39
f 855/4/40 852/4/40 851/4/40
f 856/4/40 852/4/40 855/4/40
f 863/4/39 858/4/39 857/4/39
f 864/4/39 858/4/39 863/4/39
f 865/4/40 860/4/40 859/4/40
f 866/4/40 860/4/40 865/4/40
f 867/4/40 862/4/40 861/4/40
f 868/4/40 862/4/40 867/4/40
f 871/4/41 870/4/41 869/4/41
f 872/4/41 870/4/41 871/4/41
f 875/4/42 874/4/42 873/4/42
f 876/4/42 874/4/42 875/4/42
f 879/4/39 878/4/39 877/4/39
f 880/4/39 878/4/39 879/4/39
f 883/4/43 882/4/43 881/4/43
f 884/4/43 882/4/43 883/4/43
f 887/4/44 886/4/44 885/4/44
f 888/4/44 886/4/44 887/4/44
f 891/4/44 890/4/44 889/4/44
f 892/4/44 890/4/44 891/4/44
f 895/4/44 894/4/44 893/4/44
f 896/4/44 894/4/44 895/4/44
f 897/4/45 898/4/45 899/4/45
f 899/4/45 898/4/45 900/4/45
f 901/4/45 902/4/45 905/4/45
f 905/4/45 902/4/45 906/4/45
f 903/4/45 904/4/45 907/4/45
f 907/4/45 904/4/45 908/4/45
f 909/4/45 910/4/45 911/4/45
f 911/4/45 910/4/45 912/4/45
f 913/4/46 914/4/46 917/4/46
f 917/4/46 914/4/46 918/4/46
f 915/4/47 916/4/47 919/4/47
f 919/4/47 916/4/47 920/4/47
f 921/4/48 922/4/48 925/4/48
f 925/4/48 922/4/48 926/4/48
f 923/4/49 924/4/49 927/4/49
f 927/4/49 924/4/49 928/4/49
f 929/4/47 930/4/47 933/4/47
f 933/4/47 930/4/47 934/4/47
f 931/4/48 932/4/48 935/4/48
f 935/4/48 932/4/48 936/4/48
f 921/4/35 863/4/35 857/4/35
f 925/4/35 863/4/35 921/4/35
f 858/4/35 853/4/35 849/4/35
f 864/4/35 853/4/35 858/4/35
f 931/4/35 926/4/35 922/4/35
f 935/4/35 926/4/35 931/4/35
f 903/4/35 900/4/35 898/4/35
f 907/4/35 900/4/35 903/4/35
f 909/4/35 908/4/35 904/4/35
f 911/4/35 908/4/35 909/4/35
f 915/4/35 875/4/35 873/4/35
f 919/4/35 875/4/35 915/4/35
f 874/4/35 912/4/35 910/4/35
f 876/4/35 912/4/35 874/4/35
f 929/4/35 920/4/35 916/4/35
f 933/4/35 920/4/35 929/4/35
f 894/4/35 891/4/35 889/4/35
f 896/4/35 891/4/35 894/4/35
f 890/4/35 934/4/35 930/4/35
f 892/4/35 934/4/35 890/4/35
f 923/4/35 865/4/35 859/4/35
f 927/4/35 865/4/35 923/4/35
f 860/4/35 855/4/35 851/4/35
f 866/4/35 855/4/35 860/4/35
f 850/4/36 854/4/36 877/4/36
f 877/4/36 854/4/36 879/4/36
f 878/4/36 880/4/36 932/4/36
f 932/4/36 880/4/36 936/4/36
f 901/4/36 905/4/36 869/4/36
f 869/4/36 905/4/36 871/4/36
f 913/4/36 917/4/36 881/4/36
f 881/4/36 917/4/36 883/4/36
f 897/4/36 899/4/36 902/4/36
f 902/4/36 899/4/36 906/4/36
f 870/4/36 872/4/36 914/4/36
f 914/4/36 872/4/36 918/4/36
f 882/4/36 884/4/36 885/4/36
f 885/4/36 884/4/36 887/4/36
f 886/4/36 888/4/36 893/4/36
f 893/4/36 888/4/36 895/4/36
f 852/4/36 856/4/36 861/4/36
f 861/4/36 856/4/36 867/4/36
f 862/4/36 868/4/36 924/4/36
f 924/4/36 868/4/36 928/4/36
f 901/4/38 869/4/38 902/4/38
f 902/4/38 869/4/38 870/4/38
f 913/4/38 881/4/38 914/4/38
f 914/4/38 881/4/38 882/4/38
f 902/4/38 870/4/38 886/4/38
f 882/4/38 885/4/38 886/4/38
f 914/4/38 882/4/38 886/4/38
f 870/4/38 914/4/38 886/4/38
f 897/4/38 902/4/38 886/4/38
f 897/4/38 886/4/38 898/4/38
f 886/4/38 893/4/38 898/4/38
f 898/4/38 893/4/38 903/4/50
f 903/4/50 893/4/38 904/4/38
f 904/4/38 893/4/38 909/4/38
f 909/4/38 893/4/38 873/4/38
f 873/4/38 893/4/38 915/4/38
f 909/4/38 873/4/38 910/4/38
f 910/4/38 873/4/38 874/4/38
f 915/4/38 893/4/38 916/4/38
f 916/4/38 893/4/38 929/4/38
f 929/4/38 893/4/38 889/4/38
f 889/4/38 893/4/38 894/4/38
f 929/4/38 889/4/38 930/4/38
f 930/4/38 889/4/38 890/4/38
f 937/4/38 938/4/38 940/4/38
f 940/4/38 938/4/38 941/4/38
f 941/4/38 942/4/38 943/4/38
f 939/4/38 940/4/38 943/4/38
f 940/4/38 941/4/38 943/4/38
f 943/4/38 942/4/38 944/4/38
f 943/4/38 944/4/38 946/4/38
f 946/4/38 944/4/38 947/4/38
f 947/4/38 948/4/38 949/4/38
f 945/4/38 946/4/38 949/4/38
f 946/4/38 947/4/38 949/4/38
f 949/4/38 948/4/38 857/4/38
f 857/4/38 948/4/38 921/4/38
f 921/4/38 948/4/38 950/4/38
f 949/4/38 857/4/38 849/4/38
f 849/4/38 857/4/38 858/4/38
f 921/4/38 950/4/38 922/4/38
f 922/4/38 950/4/38 931/4/38
f 949/4/38 849/4/38 951/4/38
f 931/4/38 950/4/38 952/4/38
f 951/4/38 849/4/38 850/4/38
f 953/4/38 951/4/38 850/4/38
f 850/4/38 877/4/38 878/4/38
f 953/4/38 850/4/38 878/4/38
f 952/4/38 954/4/38 932/4/38
f 931/4/38 952/4/38 932/4/38
f 953/4/38 878/4/38 905/4/38
f 878/4/38 932/4/38 905/4/38
f 905/4/38 932/4/38 871/4/38
f 871/4/38 932/4/38 917/4/38
f 932/4/38 954/4/38 883/4/38
f 917/4/38 932/4/38 883/4/38
f 953/4/38 905/4/38 955/4/38
f 955/4/38 905/4/38 899/4/38
f 899/4/38 905/4/38 906/4/38
f 871/4/38 917/4/38 872/4/38
f 872/4/38 917/4/38 918/4/38
f 883/4/38 954/4/38 884/4/38
f 884/4/38 954/4/38 887/4/38
f 887/4/38 954/4/38 956/4/38
f 887/4/38 956/4/38 888/4/38
f 888/4/38 956/4/38 895/4/38
f 955/4/38 899/4/38 900/4/38
f 900/4/38 907/4/38 908/4/38
f 955/4/38 900/4/38 957/4/38
f 900/4/38 908/4/38 957/4/38
f 908/4/38 911/4/38 957/4/38
f 957/4/38 911/4/38 912/4/38
f 875/4/38 919/4/38 876/4/38
f 876/4/38 919/4/38 920/4/38
f 895/4/38 956/4/38 896/4/38
f 896/4/38 956/4/38 958/4/38
f 920/4/38 933/4/38 934/4/38
f 957/4/38 912/4/38 934/4/38
f 912/4/38 876/4/38 934/4/38
f 876/4/38 920/4/38 934/4/38
f 896/4/38 958/4/38 892/4/38
f 891/4/38 896/4/38 892/4/38
f 934/4/38 892/4/38 859/4/38
f 957/4/38 934/4/38 859/4/38
f 859/4/38 892/4/38 923/4/38
f 957/4/38 859/4/38 959/4/38
f 959/4/38 859/4/38 851/4/38
f 851/4/38 859/4/38 860/4/38
f 892/4/38 958/4/38 960/4/38
f 923/4/38 892/4/38 960/4/38
f 959/4/38 851/4/38 961/4/38
f 923/4/38 960/4/38 962/4/38
f 961/4/38 851/4/38 852/4/38
f 852/4/38 861/4/38 963/4/38
f 961/4/38 852/4/38 963/4/38
f 963/4/38 861/4/38 862/4/38
f 923/4/38 962/4/38 924/4/38
f 924/4/38 962/4/38 964/4/38
f 963/4/38 862/4/38 965/4/38
f 924/4/38 964/4/38 965/4/38
f 862/4/38 924/4/38 965/4/38
f 965/4/38 964/4/38 966/4/38
f 966/4/38 964/4/38 967/4/38
f 967/4/38 964/4/38 968/4/38
f 966/4/38 967/4/38 969/4/38
f 969/4/38 967/4/38 970/4/38
f 969/4/38 970/4/38 971/4/38
f 971/4/38 970/4/38 972/4/38
f 972/4/38 970/4/38 973/4/38
f 973/4/38 970/4/38 974/4/38
f 972/4/38 973/4/38 975/4/38
f 975/4/38 973/4/38 976/4/38
f 863/4/38 925/4/38 864/4/38
f 864/4/38 925/4/38 926/4/38
f 926/4/38 935/4/38 854/4/38
f 853/4/38 864/4/38 854/4/38
f 864/4/38 926/4/38 854/4/38
f 854/4/38 935/4/38 879/4/38
f 879/4/38 935/4/38 880/4/38
f 880/4/38 935/4/38 936/4/38
f 865/4/38 927/4/38 866/4/38
f 855/4/38 866/4/38 856/4/38
f 866/4/38 927/4/38 867/4/38
f 856/4/38 866/4/38 867/4/38
f 867/4/38 927/4/38 868/4/38
f 868/4/38 927/4/38 928/4/38
