# Blender 5.1.2
# www.blender.org
mtllib Couch.mtl
o Untitled
v -6.100000 0.600000 1.500000
v -6.100000 0.600000 -1.500000
v -6.100000 2.600000 1.500000
v -6.100000 2.691321 1.200000
v -6.100000 2.700000 1.200000
v -6.100000 3.052474 -1.300000
v -6.100000 2.700000 -1.400000
v -6.100000 3.700000 -1.300000
v -6.100000 3.700000 -1.400000
v -6.100000 3.700000 -1.500000
v -6.000000 0.000000 1.500000
v -6.000000 0.000000 1.300000
v -6.000000 -0.000000 -1.300000
v -6.000000 -0.000000 -1.500000
v -6.000000 0.600000 1.600000
v -6.000000 0.600000 1.500000
v -6.000000 0.600000 1.300000
v -6.000000 0.600000 -1.300000
v -6.000000 0.600000 -1.500000
v -6.000000 0.600000 -1.600000
v -6.000000 2.600000 1.600000
v -6.000000 2.600000 1.500000
v -6.000000 2.691321 1.300000
v -6.000000 2.691321 1.200000
v -6.000000 2.700000 1.300000
v -6.000000 2.700000 1.200000
v -6.000000 3.799997 -1.400000
v -6.000000 3.799997 -1.500000
v -6.000000 3.700000 -1.600000
v -6.000000 3.799997 -1.300000
v -5.900001 3.799997 -1.500000
v -5.900001 3.799997 -1.600000
v 5.600000 0.000000 1.500000
v 5.600000 0.000000 1.300000
v 5.600000 -0.000000 -1.300000
v 5.600000 -0.000000 -1.500000
v 5.600000 0.600000 1.500000
v 5.600000 0.600000 1.300000
v 5.600000 0.600000 -1.300000
v 5.600000 0.600000 -1.500000
v 5.600000 1.900000 1.600000
v 5.600000 1.900000 -1.300000
v 5.600000 2.600000 1.600000
v 5.600000 2.697339 1.300000
v 5.600000 2.700000 1.300000
v 5.600000 3.052474 -1.300000
v -5.800001 0.000000 1.500000
v -5.800001 0.000000 1.300000
v -5.800001 -0.000000 -1.300000
v -5.800001 -0.000000 -1.500000
v -5.800001 0.600000 1.500000
v -5.800001 0.600000 1.300000
v -5.800001 0.600000 -1.300000
v -5.800001 0.600000 -1.500000
v -5.800001 1.900000 1.600000
v -5.800001 1.900000 -1.300000
v -5.800001 2.600000 1.600000
v -5.800001 2.691321 1.300000
v -5.800001 2.700000 1.300000
v -5.800001 3.052474 -1.300000
v 5.700000 3.797726 -1.500000
v 5.700000 3.797726 -1.600000
v 5.700000 3.800000 -1.500000
v 5.700000 3.800000 -1.600000
v 5.800001 0.000000 1.500000
v 5.800001 0.000000 1.300000
v 5.800001 -0.000000 -1.300000
v 5.800001 -0.000000 -1.500000
v 5.800001 0.600000 1.600000
v 5.800001 0.600000 1.500000
v 5.800001 0.600000 1.300000
v 5.800001 0.600000 -1.300000
v 5.800001 0.600000 -1.500000
v 5.800001 0.600000 -1.600000
v 5.800001 2.600000 1.600000
v 5.800001 2.600000 1.500000
v 5.800001 2.697339 1.300000
v 5.800001 2.697339 1.200000
v 5.800001 2.700000 1.300000
v 5.800001 2.700000 1.200000
v 5.800001 3.797726 -1.300000
v 5.800000 3.797726 -1.400000
v 5.800001 3.797726 -1.500000
v 5.800001 3.700000 -1.600000
v 5.800001 3.800000 -1.300000
v 5.800000 3.800000 -1.400000
v 5.800001 3.800000 -1.500000
v 5.900001 0.600000 1.500000
v 5.900001 0.600000 -1.500000
v 5.900001 2.600000 1.500000
v 5.900001 2.697339 1.200000
v 5.900001 2.700000 1.200000
v 5.900001 3.052474 -1.300000
v 5.900000 2.700000 -1.400000
v 5.900001 3.700000 -1.300000
v 5.900000 3.700000 -1.400000
v 5.900001 3.700000 -1.500000
v -5.800000 1.800000 1.600000
v 5.600000 1.800000 1.600000
v -6.057979 0.600000 1.560074
v -6.057979 2.600000 1.560074
v 5.852683 0.600000 1.543349
v 5.852683 2.600000 1.543349
v 5.850708 0.600000 -1.550928
v 5.850708 3.700974 -1.550929
v -6.071198 0.600000 -1.556734
v -6.071198 3.685931 -1.556734
vn -1.0000 -0.0000 -0.0000
vn -0.0000 -1.0000 -0.0000
vn -0.0000 1.0000 -0.0000
vn -0.6237 0.6237 -0.4713
vn 1.0000 -0.0000 -0.0000
vn 0.5524 0.5962 -0.5826
vn -0.0000 -0.0000 1.0000
vn -0.0000 -0.0000 -1.0000
vn -0.4948 0.6145 -0.6145
vn 0.5826 0.5961 -0.5525
vn -0.0739 0.9646 0.2530
vn -0.0695 0.9572 0.2810
vn 0.1095 0.9695 0.2191
vn 0.0519 0.9661 0.2527
vn -0.1415 0.9253 0.3518
vn -0.1398 0.9532 0.2681
vn -0.0000 0.9567 0.2912
vn 0.1870 0.9296 0.3176
vn 0.0720 0.9233 0.3773
vn 0.4298 0.8776 0.2123
vn -0.1465 0.9783 0.1465
vn 0.1907 0.9506 0.2449
vn -0.0000 0.9512 0.3086
vn -0.0474 0.9944 0.0948
vn -0.0278 0.9941 0.1047
vn 0.0474 0.9944 0.0948
vn 0.0278 0.9941 0.1047
vn -0.0000 0.9902 0.1396
vn -0.0034 0.9902 0.1393
vn 0.0034 0.9902 0.1393
vn -0.7071 0.7071 -0.0000
vn 0.6989 0.7152 -0.0000
vn -0.0000 0.7071 -0.7071
vn -0.4082 0.8165 -0.4082
vn 0.3217 0.8905 -0.3217
vn 0.3656 0.8559 -0.3656
vn 0.5729 0.5862 -0.5729
vn -0.0000 1.0000 -0.0005
vn -0.5672 -0.0000 0.8236
vn -0.8194 -0.0000 0.5732
vn 0.7323 -0.0000 0.6810
vn 0.6755 -0.0000 0.7374
vn 0.6954 -0.0000 -0.7186
vn 0.7186 -0.0000 -0.6955
vn 0.7185 -0.0000 -0.6955
vn -0.5193 -0.0000 -0.8546
vn -0.8917 -0.0000 -0.4527
vt 0.958984 0.500000
vt 0.962891 0.500000
vt 0.373047 0.500000
s 1
usemtl palette.001
f 3/1/1 2/1/1 1/1/1
f 4/1/1 2/1/1 3/1/1
f 5/1/1 2/1/1 4/1/1
f 6/1/1 2/1/1 5/1/1
f 7/1/1 2/1/1 6/1/1
f 8/2/1 7/2/1 6/2/1
f 9/1/1 2/1/1 7/1/1
f 9/2/1 7/2/1 8/2/1
f 10/1/1 2/1/1 9/1/1
f 16/3/1 12/3/1 11/3/1
f 17/3/1 12/3/1 16/3/1
f 18/3/1 14/3/1 13/3/1
f 19/3/1 14/3/1 18/3/1
s 0
f 1/1/2 16/1/2 100/1/2
f 22/1/3 3/1/3 101/1/3
s 1
f 25/1/1 24/1/1 23/1/1
f 26/1/1 24/1/1 25/1/1
s 0
f 10/1/4 28/1/4 107/1/4
s 1
f 37/3/1 34/3/1 33/3/1
f 38/3/1 34/3/1 37/3/1
f 39/3/1 36/3/1 35/3/1
f 40/3/1 36/3/1 39/3/1
f 43/1/1 42/1/1 41/1/1
f 44/1/1 42/1/1 43/1/1
f 45/1/1 42/1/1 44/1/1
f 46/1/1 42/1/1 45/1/1
f 47/3/5 48/3/5 51/3/5
f 51/3/5 48/3/5 52/3/5
f 49/3/5 50/3/5 53/3/5
f 53/3/5 50/3/5 54/3/5
f 55/1/5 56/1/5 57/1/5
f 57/1/5 56/1/5 58/1/5
f 58/1/5 56/1/5 59/1/5
f 59/1/5 56/1/5 60/1/5
f 61/1/5 62/1/5 63/1/5
f 63/1/5 62/1/5 64/1/5
f 65/3/5 66/3/5 70/3/5
f 70/3/5 66/3/5 71/3/5
f 67/3/5 68/3/5 72/3/5
f 72/3/5 68/3/5 73/3/5
s 0
f 70/1/2 88/1/2 102/1/2
s 1
f 77/1/5 78/1/5 79/1/5
f 79/1/5 78/1/5 80/1/5
s 0
f 84/1/6 83/1/6 105/1/6
f 89/1/2 73/1/2 104/1/2
s 1
f 81/2/5 82/2/5 85/2/5
f 82/1/5 83/1/5 86/1/5
f 85/2/5 82/2/5 86/2/5
f 86/1/5 83/1/5 87/1/5
f 88/1/5 89/1/5 90/1/5
f 90/1/5 89/1/5 91/1/5
f 91/1/5 89/1/5 92/1/5
f 92/1/5 89/1/5 93/1/5
f 93/1/5 89/1/5 94/1/5
f 93/2/5 94/2/5 95/2/5
f 94/1/5 89/1/5 96/1/5
f 95/2/5 94/2/5 96/2/5
f 96/1/5 89/1/5 97/1/5
f 98/1/7 21/1/7 15/1/7
f 55/1/7 21/1/7 98/1/7
f 57/1/7 21/1/7 55/1/7
f 99/1/7 98/1/7 15/1/7
f 99/2/7 55/2/7 98/2/7
f 41/2/7 55/2/7 99/2/7
f 69/1/7 99/1/7 15/1/7
f 69/1/7 43/1/7 41/1/7
f 69/1/7 41/1/7 99/1/7
f 75/1/7 43/1/7 69/1/7
s 0
f 16/1/2 15/1/2 100/1/2
s 1
f 47/3/7 16/3/7 11/3/7
f 51/3/7 16/3/7 47/3/7
f 65/3/7 37/3/7 33/3/7
f 70/3/7 37/3/7 65/3/7
s 0
f 90/1/3 76/1/3 103/1/3
f 69/1/2 70/1/2 102/1/2
s 1
f 58/1/7 25/1/7 23/1/7
f 59/1/7 25/1/7 58/1/7
f 77/1/7 45/1/7 44/1/7
f 79/1/7 45/1/7 77/1/7
f 24/1/7 5/1/7 4/1/7
f 26/1/7 5/1/7 24/1/7
f 91/1/7 80/1/7 78/1/7
f 92/1/7 80/1/7 91/1/7
f 30/2/7 8/2/7 6/2/7
f 49/3/7 18/3/7 13/3/7
f 53/3/7 18/3/7 49/3/7
f 60/2/7 30/2/7 6/2/7
f 42/2/7 60/2/7 56/2/7
f 46/2/7 30/2/7 60/2/7
f 46/2/7 60/2/7 42/2/7
f 67/3/7 39/3/7 35/3/7
f 72/3/7 39/3/7 67/3/7
f 81/2/7 30/2/7 46/2/7
f 85/2/7 30/2/7 81/2/7
f 93/2/7 81/2/7 46/2/7
f 95/2/7 81/2/7 93/2/7
f 12/3/8 17/3/8 48/3/8
f 48/3/8 17/3/8 52/3/8
f 34/3/8 38/3/8 66/3/8
f 66/3/8 38/3/8 71/3/8
s 0
f 28/1/9 29/1/9 107/1/9
f 20/1/2 19/1/2 106/1/2
s 1
f 14/3/8 19/3/8 50/3/8
f 50/3/8 19/3/8 54/3/8
f 36/3/8 40/3/8 68/3/8
f 68/3/8 40/3/8 73/3/8
f 61/1/8 63/1/8 83/1/8
f 83/1/8 63/1/8 87/1/8
s 0
f 83/1/10 97/1/10 105/1/10
s 1
f 20/1/8 29/1/8 32/1/8
f 20/1/8 32/1/8 62/1/8
f 62/1/8 32/1/8 64/1/8
f 20/1/8 62/1/8 74/1/8
f 74/1/8 62/1/8 84/1/8
f 12/3/2 47/3/2 11/3/2
f 48/3/2 47/3/2 12/3/2
f 34/3/2 65/3/2 33/3/2
f 66/3/2 65/3/2 34/3/2
f 14/3/2 49/3/2 13/3/2
f 50/3/2 49/3/2 14/3/2
f 36/3/2 67/3/2 35/3/2
f 68/3/2 67/3/2 36/3/2
f 16/1/2 69/1/2 15/1/2
f 51/1/2 69/1/2 16/1/2
f 37/1/2 69/1/2 51/1/2
f 70/1/2 69/1/2 37/1/2
f 17/1/2 16/1/2 1/1/2
f 52/1/2 37/1/2 51/1/2
f 38/1/2 37/1/2 52/1/2
f 71/1/2 88/1/2 70/1/2
f 18/1/2 38/1/2 52/1/2
f 18/1/2 71/1/2 38/1/2
f 18/1/2 17/1/2 1/1/2
f 18/1/2 52/1/2 17/1/2
f 53/1/2 71/1/2 18/1/2
f 39/1/2 71/1/2 53/1/2
f 72/1/2 88/1/2 71/1/2
f 72/1/2 71/1/2 39/1/2
f 2/1/2 18/1/2 1/1/2
f 19/1/2 18/1/2 2/1/2
f 54/1/2 39/1/2 53/1/2
f 40/1/2 39/1/2 54/1/2
f 73/1/2 88/1/2 72/1/2
f 89/1/2 88/1/2 73/1/2
f 20/1/2 40/1/2 54/1/2
f 20/1/2 73/1/2 40/1/2
f 20/1/2 54/1/2 19/1/2
f 74/1/2 73/1/2 20/1/2
f 55/2/3 41/2/3 56/2/3
f 56/2/3 41/2/3 42/2/3
f 21/1/3 57/1/11 22/1/12
f 43/1/13 75/1/3 76/1/14
f 3/1/15 22/1/12 23/1/16
f 22/1/12 57/1/11 23/1/16
f 23/1/16 57/1/11 58/1/17
f 76/1/14 90/1/18 44/1/19
f 43/1/13 76/1/14 44/1/19
f 44/1/19 90/1/18 77/1/20
f 3/1/15 23/1/16 4/1/21
f 4/1/21 23/1/16 24/1/3
f 77/1/20 90/1/18 78/1/22
f 78/1/22 90/1/18 91/1/23
f 25/1/3 59/1/24 26/1/25
f 45/1/26 79/1/3 80/1/27
f 5/1/28 26/1/25 6/1/28
f 26/1/25 59/1/24 60/1/29
f 6/1/28 26/1/25 60/1/29
f 80/1/27 92/1/28 46/1/30
f 45/1/26 80/1/27 46/1/30
f 46/1/30 92/1/28 93/1/28
f 8/2/31 30/2/31 9/2/31
f 9/2/31 30/2/31 27/2/31
f 81/2/32 95/2/32 82/2/32
f 82/2/32 95/2/32 96/2/32
f 9/1/31 27/1/31 10/1/31
f 10/1/31 27/1/31 28/1/31
f 82/1/32 96/1/32 83/1/32
f 83/1/32 96/1/32 97/1/32
f 28/1/33 31/1/34 29/1/34
f 29/1/34 31/1/34 32/1/31
f 61/1/3 83/1/35 62/1/36
f 62/1/36 83/1/35 84/1/37
f 30/2/3 85/2/3 27/2/3
f 27/2/3 85/2/3 86/2/3
f 27/1/3 86/1/3 28/1/3
f 28/1/3 86/1/3 31/1/38
f 31/1/38 86/1/3 63/1/3
f 63/1/3 86/1/3 87/1/3
f 31/1/38 63/1/3 32/1/3
f 32/1/3 63/1/3 64/1/3
s 0
f 21/1/39 100/1/39 15/1/39
f 101/1/39 100/1/39 21/1/39
f 100/1/40 3/1/40 1/1/40
f 101/1/40 3/1/40 100/1/40
f 21/1/3 22/1/3 101/1/3
f 69/1/41 102/1/41 75/1/41
f 75/1/41 102/1/41 103/1/41
f 88/1/42 103/1/42 102/1/42
f 90/1/42 103/1/42 88/1/42
f 76/1/3 75/1/3 103/1/3
f 104/1/43 74/1/43 105/1/43
f 105/1/43 74/1/43 84/1/43
f 104/1/44 105/1/44 89/1/44
f 89/1/45 105/1/45 97/1/45
f 73/1/2 74/1/2 104/1/2
f 107/1/46 20/1/46 106/1/46
f 29/1/46 20/1/46 107/1/46
f 2/1/47 10/1/47 106/1/47
f 106/1/47 10/1/47 107/1/47
f 19/1/2 2/1/2 106/1/2
