# Blender 5.1.2
# www.blender.org
mtllib FlowerPot.mtl
o Untitled
v -0.400000 0.232476 0.300000
v -0.400000 0.232476 -0.300000
v -0.400000 0.800000 0.300000
v -0.400000 0.800000 -0.300000
v -0.300000 0.000000 0.300000
v -0.300000 -0.000000 -0.300000
v -0.300000 0.232476 0.400000
v -0.345319 0.100000 0.349749
v -0.348575 0.100000 -0.362660
v -0.300000 0.232476 -0.400000
v -0.300000 0.800000 0.400000
v -0.345319 0.800000 0.349749
v -0.300000 0.800000 0.200000
v -0.300000 0.800000 -0.200000
v -0.348575 0.800000 -0.362660
v -0.300000 0.800000 -0.400000
v -0.300000 0.900000 0.200000
v -0.300000 0.900000 -0.200000
v -0.300000 1.500000 0.200000
v -0.300000 1.500000 0.100000
v -0.300000 1.645251 0.200000
v -0.300000 1.645251 0.100000
v -0.200000 0.800000 0.300000
v -0.200000 0.800000 0.200000
v -0.200000 0.800000 -0.200000
v -0.200000 0.800000 -0.300000
v -0.200000 0.900000 0.300000
v -0.200000 0.900000 0.200000
v -0.200000 0.900000 -0.000000
v -0.200000 0.900000 -0.100000
v -0.200000 0.900000 -0.200000
v -0.200000 0.900000 -0.300000
v -0.200000 1.100000 0.100000
v -0.200000 0.917075 -0.000000
v -0.200000 1.169628 -0.100000
v -0.200000 1.169628 -0.200000
v -0.200000 1.500000 0.300000
v -0.200000 1.500000 0.200000
v -0.200000 1.500000 0.100000
v -0.200000 1.500000 -0.000000
v -0.200000 1.500000 -0.100000
v -0.200000 1.500000 -0.200000
v -0.200000 1.645251 0.300000
v -0.200000 1.600000 0.200000
v -0.200000 1.600000 0.100000
v -0.200000 1.645251 -0.000000
v -0.200000 1.645251 -0.100000
v -0.200000 1.645251 -0.200000
v -0.100000 1.300000 -0.100000
v -0.100000 1.300000 -0.200000
v -0.100000 1.500000 -0.000000
v -0.100000 1.500000 -0.100000
v -0.100000 1.500000 -0.200000
v -0.100000 1.500000 -0.300000
v -0.100000 1.645251 -0.000000
v -0.100000 1.600000 -0.100000
v -0.100000 1.600000 -0.200000
v -0.100000 1.645251 -0.300000
v 0.000000 1.400000 0.200000
v 0.000000 1.400000 0.100000
v 0.000000 1.545251 0.200000
v 0.000000 1.545251 0.100000
v 0.100000 0.400000 0.200000
v 0.100000 0.400000 0.100000
v 0.100000 0.600000 -0.000000
v 0.100000 0.600000 -0.200000
v 0.100000 0.700000 0.100000
v 0.100000 0.700000 -0.000000
v 0.100000 0.900000 0.200000
v 0.100000 0.900000 -0.200000
v 0.100000 1.000000 0.100000
v 0.100000 1.000000 -0.000000
v 0.100000 1.000557 -0.000000
v 0.100000 1.100000 -0.100000
v 0.100000 1.200000 -0.000000
v 0.100000 1.200000 -0.100000
v 0.100000 1.200000 -0.200000
v 0.100000 1.200000 -0.300000
v 0.100000 1.345251 -0.000000
v 0.100000 1.300000 -0.100000
v 0.100000 1.300000 -0.200000
v 0.100000 1.345251 -0.300000
v 0.100000 1.400000 0.300000
v 0.100000 1.400000 0.200000
v 0.100000 1.400000 0.100000
v 0.100000 1.400000 -0.000000
v 0.100000 1.545251 0.300000
v 0.100000 1.500000 0.200000
v 0.100000 1.500000 0.100000
v 0.100000 1.545251 -0.000000
v 0.200000 0.100000 0.200000
v 0.200000 0.100000 -0.200000
v 0.200000 0.400000 0.200000
v 0.200000 0.400000 0.100000
v 0.200000 0.600000 -0.000000
v 0.200000 0.600000 -0.200000
v 0.200000 0.700000 0.100000
v 0.200000 0.700000 -0.000000
v -0.200000 0.100000 -0.000000
v -0.200000 0.100000 -0.100000
v -0.100000 0.100000 0.200000
v -0.100000 0.100000 -0.000000
v -0.100000 0.100000 -0.100000
v -0.100000 0.100000 -0.200000
v -0.100000 0.800000 -0.100000
v -0.100000 0.800000 -0.200000
v -0.100000 0.900000 0.200000
v -0.100000 1.100000 0.100000
v -0.100000 0.917075 -0.000000
v -0.100000 1.500000 0.300000
v -0.100000 1.500000 0.200000
v -0.100000 1.500000 0.100000
v -0.100000 1.645251 0.300000
v -0.100000 1.600000 0.200000
v -0.100000 1.600000 0.100000
v 0.000000 0.800000 -0.100000
v 0.000000 0.800000 -0.200000
v 0.000000 0.900000 -0.200000
v 0.000000 1.200000 -0.100000
v 0.000000 1.200000 -0.200000
v 0.000000 1.345251 -0.100000
v 0.000000 1.345251 -0.200000
v 0.000000 1.500000 -0.000000
v 0.000000 1.500000 -0.100000
v 0.000000 1.500000 -0.200000
v 0.000000 1.500000 -0.300000
v 0.000000 1.645251 0.200000
v 0.000000 1.645251 0.100000
v 0.000000 1.645251 -0.000000
v 0.000000 1.600000 -0.100000
v 0.000000 1.600000 -0.200000
v 0.000000 1.645251 -0.300000
v 0.100000 1.500000 -0.100000
v 0.100000 1.500000 -0.200000
v 0.100000 1.645251 -0.100000
v 0.100000 1.645251 -0.200000
v 0.200000 0.800000 0.300000
v 0.200000 0.800000 0.200000
v 0.200000 0.800000 -0.200000
v 0.200000 0.800000 -0.300000
v 0.200000 0.900000 0.300000
v 0.200000 0.900000 0.200000
v 0.200000 0.900000 -0.200000
v 0.200000 0.900000 -0.300000
v 0.200000 1.000000 0.100000
v 0.200000 1.000000 -0.000000
v 0.200000 1.000557 -0.000000
v 0.200000 1.100000 -0.100000
v 0.200000 1.200000 -0.000000
v 0.200000 1.200000 -0.100000
v 0.200000 1.200000 -0.200000
v 0.200000 1.200000 -0.300000
v 0.200000 1.345251 -0.000000
v 0.200000 1.300000 -0.100000
v 0.200000 1.300000 -0.200000
v 0.200000 1.345251 -0.300000
v 0.200000 1.400000 0.300000
v 0.200000 1.400000 0.200000
v 0.200000 1.400000 0.100000
v 0.200000 1.400000 -0.000000
v 0.200000 1.545251 0.300000
v 0.200000 1.500000 0.200000
v 0.200000 1.500000 0.100000
v 0.200000 1.545251 -0.000000
v 0.300000 0.000000 0.300000
v 0.300000 -0.000000 -0.300000
v 0.300000 0.232476 0.400000
v 0.352717 0.100000 0.358340
v 0.357357 0.100000 -0.356749
v 0.300000 0.232476 -0.400000
v 0.300000 0.800000 0.400000
v 0.352717 0.800000 0.358340
v 0.300000 0.800000 0.200000
v 0.300000 0.800000 -0.200000
v 0.357357 0.800000 -0.356749
v 0.300000 0.800000 -0.400000
v 0.300000 0.900000 0.200000
v 0.300000 0.900000 -0.200000
v 0.300000 1.200000 -0.100000
v 0.300000 1.200000 -0.200000
v 0.300000 1.345251 -0.100000
v 0.300000 1.345251 -0.200000
v 0.300000 1.400000 0.200000
v 0.300000 1.400000 0.100000
v 0.300000 1.545251 0.200000
v 0.300000 1.545251 0.100000
v 0.400000 0.232476 0.300000
v 0.400000 0.232476 -0.300000
v 0.400000 0.800000 0.300000
v 0.400000 0.800000 -0.300000
v -0.300000 0.800000 -0.200000
v -0.300000 0.900000 -0.200000
v -0.256913 0.800000 -0.251402
v -0.256913 0.900000 -0.251402
v -0.200000 0.800000 -0.300000
v -0.200000 0.900000 -0.300000
v -0.300000 0.800000 0.200000
v -0.300000 0.900000 0.200000
v -0.200000 0.800000 0.300000
v -0.200000 0.900000 0.300000
v -0.248955 0.800000 0.250764
v -0.248955 0.900000 0.250764
v 0.200000 0.800000 0.300000
v 0.200000 0.900000 0.300000
v 0.249658 0.800000 0.254639
v 0.249658 0.900000 0.254639
v 0.300000 0.800000 0.200000
v 0.300000 0.900000 0.200000
v 0.249184 0.800000 -0.247928
v 0.249184 0.900000 -0.247928
v 0.200000 0.800000 -0.300000
v 0.200000 0.900000 -0.300000
v 0.300000 0.800000 -0.200000
v 0.300000 0.900000 -0.200000
v 0.200000 1.400000 0.300000
v 0.200000 1.545251 0.300000
v 0.261265 1.400000 0.253001
v 0.261265 1.545251 0.253001
v 0.300000 1.400000 0.200000
v 0.300000 1.545251 0.200000
v 0.000000 1.400000 0.200000
v 0.000000 1.545251 0.200000
v 0.100000 1.400000 0.300000
v 0.100000 1.545251 0.300000
v 0.049199 1.400000 0.254945
v 0.049199 1.545251 0.254945
v 0.253390 1.400000 0.046176
v 0.253390 1.545251 0.046176
v 0.200000 1.400000 -0.000000
v 0.200000 1.545251 -0.000000
v 0.300000 1.400000 0.100000
v 0.300000 1.545251 0.100000
v 0.000000 1.400000 0.100000
v 0.000000 1.545251 0.100000
v 0.048994 1.400000 0.047965
v 0.048994 1.545251 0.047965
v 0.100000 1.400000 -0.000000
v 0.100000 1.545251 -0.000000
v 0.048994 1.200000 -0.252035
v 0.048994 1.345251 -0.252035
v 0.100000 1.200000 -0.300000
v 0.100000 1.345251 -0.300000
v 0.000000 1.200000 -0.200000
v 0.000000 1.345251 -0.200000
v 0.253390 1.200000 -0.253824
v 0.253390 1.345251 -0.253824
v 0.200000 1.200000 -0.300000
v 0.200000 1.345251 -0.300000
v 0.300000 1.200000 -0.200000
v 0.300000 1.345251 -0.200000
v 0.200000 1.200000 -0.000000
v 0.200000 1.345251 -0.000000
v 0.261265 1.200000 -0.046999
v 0.261265 1.345251 -0.046999
v 0.300000 1.200000 -0.100000
v 0.300000 1.345251 -0.100000
v 0.100000 1.200000 -0.000000
v 0.100000 1.345251 -0.000000
v 0.049199 1.200000 -0.045055
v 0.049199 1.345251 -0.045055
v 0.000000 1.200000 -0.100000
v 0.000000 1.345251 -0.100000
v -0.100000 1.500000 0.300000
v -0.100000 1.645251 0.300000
v -0.038735 1.500000 0.253001
v -0.038735 1.645251 0.253001
v 0.000000 1.500000 0.200000
v 0.000000 1.645251 0.200000
v -0.300000 1.500000 0.200000
v -0.300000 1.645251 0.200000
v -0.200000 1.500000 0.300000
v -0.200000 1.645251 0.300000
v -0.250801 1.500000 0.254945
v -0.250801 1.645251 0.254945
v -0.300000 1.500000 0.100000
v -0.300000 1.645251 0.100000
v -0.251006 1.500000 0.047965
v -0.251006 1.645251 0.047965
v -0.200000 1.500000 -0.000000
v -0.200000 1.645251 -0.000000
v -0.200000 1.500000 -0.100000
v -0.200000 1.645251 -0.100000
v -0.100000 1.500000 -0.000000
v -0.100000 1.645251 -0.000000
v -0.150801 1.500000 -0.045055
v -0.150801 1.645251 -0.045055
v -0.200000 1.500000 -0.200000
v -0.200000 1.645251 -0.200000
v -0.151006 1.500000 -0.252035
v -0.151006 1.645251 -0.252035
v -0.100000 1.500000 -0.300000
v -0.100000 1.645251 -0.300000
v 0.053390 1.500000 -0.253824
v 0.053390 1.645251 -0.253824
v 0.000000 1.500000 -0.300000
v 0.000000 1.645251 -0.300000
v 0.100000 1.500000 -0.200000
v 0.100000 1.645251 -0.200000
v 0.000000 1.500000 -0.000000
v 0.000000 1.645251 -0.000000
v 0.061265 1.500000 -0.046999
v 0.061265 1.645251 -0.046999
v 0.100000 1.500000 -0.100000
v 0.100000 1.645251 -0.100000
v -0.100000 1.500000 -0.000000
v -0.100000 1.645251 -0.000000
v -0.046610 1.500000 0.046176
v -0.046610 1.645251 0.046176
v 0.000000 1.500000 0.100000
v 0.000000 1.645251 0.100000
vn -1.0000 -0.0000 -0.0000
vn -0.9093 -0.4161 0.0006
vn -0.9013 -0.4331 0.0038
vn -0.9108 -0.4128 -0.0000
vn -0.9005 -0.4348 0.0041
vn -0.7426 -0.0000 0.6697
vn -0.6095 -0.0000 -0.7928
vn -0.0000 1.0000 -0.0000
vn -0.0000 -0.7071 0.7071
vn -0.0000 -0.0000 1.0000
vn -0.0338 0.7448 -0.6664
vn -0.0448 0.7263 -0.6859
vn -0.0000 -1.0000 -0.0000
vn -0.2227 0.5193 -0.8251
vn 0.2329 0.5146 0.8252
vn 0.3843 0.8493 0.3619
vn 0.3382 0.7475 0.5717
vn 0.3102 0.7729 0.5535
vn 0.3434 0.8557 -0.3872
vn 0.2172 0.5105 0.8320
vn -0.0000 -0.3162 0.9487
vn -0.3578 -0.4803 0.8008
vn 0.3402 0.7518 -0.5649
vn -0.3018 0.7458 0.5939
vn 0.3615 0.8495 0.3844
vn 1.0000 -0.0000 -0.0000
vn -0.3309 0.7313 0.5965
vn -0.3947 0.8723 -0.2885
vn -0.2015 0.5150 0.8332
vn -0.3358 0.8581 0.3883
vn -0.0000 -0.2205 0.9754
vn -0.0000 -0.7654 0.6435
vn -0.2737 0.7884 0.5509
vn -0.0742 0.8934 -0.4431
vn 0.0719 0.7034 -0.7072
vn -0.3166 0.7215 -0.6158
vn 0.0034 0.6562 -0.7546
vn -0.3883 0.8580 0.3362
vn -0.2375 0.5249 0.8174
vn 0.8846 -0.4663 -0.0000
vn 0.8702 -0.4927 0.0052
vn 0.8822 -0.4709 0.0009
vn 0.8688 -0.4951 0.0056
vn 0.6200 -0.0000 0.7846
vn 0.6021 -0.0000 -0.7984
vn -0.6730 -0.0000 0.7397
vn -0.0097 -0.4951 0.8688
vn -0.0016 -0.4536 0.8912
vn -0.0000 -0.4454 0.8953
vn -0.0107 -0.4997 0.8661
vn 0.7769 -0.0000 0.6296
vn 0.2113 0.8406 -0.4988
vn 0.3868 0.8547 -0.3463
vn -0.3015 0.8687 -0.3931
vn 0.1374 0.3037 0.9428
vn -0.2220 0.5297 0.8186
vn -0.0000 -0.0000 -1.0000
vn -0.0000 -0.7071 -0.7071
vn -0.5704 -0.7835 0.2464
vn -0.7730 -0.0000 -0.6344
vn -0.0000 -0.5310 -0.8474
vn 0.0011 -0.5259 -0.8505
vn 0.0066 -0.4998 -0.8661
vn 0.0073 -0.4967 -0.8679
vn 0.7995 -0.0000 -0.6007
vn -0.0020 -0.3462 0.9381
vn -0.0104 -0.3099 0.9507
vn -0.0000 -0.3547 0.9350
vn -0.0117 -0.3042 0.9525
vn -0.9308 -0.3656 0.0038
vn -0.9256 -0.3784 0.0007
vn -0.9244 -0.3815 -0.0000
vn -0.9315 -0.3636 0.0043
vn 0.9503 -0.3113 0.0011
vn 0.9437 -0.3309 0.0055
vn 0.9426 -0.3338 0.0061
vn 0.9519 -0.3064 -0.0000
vn 0.0072 -0.2780 -0.9606
vn 0.0014 -0.3040 -0.9527
vn 0.0081 -0.2740 -0.9617
vn -0.0000 -0.3104 -0.9506
vn 0.4123 -0.9111 -0.0000
vn -0.0000 0.4797 -0.8774
vn -0.0000 0.7091 0.7051
vn -0.0000 0.9111 -0.4123
vn 0.1431 0.9793 -0.1431
vn -0.1431 0.9793 -0.1431
vn -0.7935 0.6086 -0.0000
vn 0.4123 0.9111 -0.0000
vn 0.1431 0.9793 0.1431
vn -0.4123 0.9111 -0.0000
vn -0.1431 0.9793 0.1431
vn -0.0000 0.9111 0.4123
vn -0.6494 -0.0000 -0.7605
vn -0.7664 -0.0000 -0.6424
vn -0.7091 -0.0000 0.7051
vn -0.7052 -0.0000 0.7091
vn 0.6744 -0.0000 0.7383
vn 0.7354 -0.0000 0.6776
vn 0.7270 -0.0000 -0.6867
vn 0.6861 -0.0000 -0.7275
vn 0.6087 -0.0000 0.7934
vn 0.8074 -0.0000 0.5901
vn -0.6635 -0.0000 0.7482
vn -0.7450 -0.0000 0.6671
vn 0.6542 -0.0000 -0.7564
vn 0.7560 -0.0000 -0.6546
vn -0.6851 -0.0000 -0.7285
vn -0.7281 -0.0000 -0.6855
vn -0.0000 -0.7605 -0.6493
vn -0.0000 -0.3416 0.9398
vt 0.978516 0.500000
vt 0.962891 0.500000
vt 0.900391 0.500000
vt 0.185547 0.500000
s 1
usemtl palette.002
f 3/1/1 2/1/1 1/1/1
f 4/1/1 2/1/1 3/1/1
f 8/1/2 6/1/3 5/1/4
f 9/1/5 6/1/3 8/1/2
f 11/1/6 8/1/6 7/1/6
f 12/1/6 8/1/6 11/1/6
f 15/1/7 10/1/7 9/1/7
f 16/1/7 10/1/7 15/1/7
f 17/1/1 14/1/1 13/1/1
f 18/1/1 14/1/1 17/1/1
f 21/2/1 20/2/1 19/2/1
f 22/2/1 20/2/1 21/2/1
s 0
f 27/1/8 28/1/8 202/1/8 200/1/8
s 1
f 23/1/9 27/1/10 200/1/10 199/1/11
f 14/1/9 18/1/10 192/1/10 191/1/12
f 26/1/9 25/1/13 193/1/13 195/1/14
f 33/3/1 29/3/1 28/3/1
f 34/3/1 29/3/1 33/3/1
f 35/3/1 31/3/1 30/3/1
f 36/3/1 31/3/1 35/3/1
f 38/3/1 33/3/1 28/3/1
f 39/3/1 33/3/1 38/3/1
f 19/2/9 38/2/13 273/2/13 269/2/9
f 38/2/13 37/2/9 271/2/9 273/2/13
f 39/2/13 20/2/9 275/2/9 277/2/13
f 22/2/15 45/2/16 278/2/16 276/2/15
f 47/2/1 42/2/1 41/2/1
f 48/2/1 42/2/1 47/2/1
f 52/3/1 50/3/1 49/3/1
f 53/3/1 50/3/1 52/3/1
f 47/2/17 41/2/9 281/2/9 282/2/17
f 55/2/18 56/2/19 286/2/19 284/2/18
f 54/2/9 53/2/13 289/2/13 291/2/9
f 58/2/20 54/2/9 291/2/9 292/2/20
f 61/2/1 60/2/1 59/2/1
f 62/2/1 60/2/1 61/2/1
f 67/3/1 64/3/1 63/3/1
f 68/3/1 66/3/1 65/3/1
f 69/3/1 67/3/1 63/3/1
f 69/3/1 68/3/1 67/3/1
f 70/3/1 66/3/1 68/3/1
f 70/3/1 68/3/1 69/3/1
f 71/3/1 70/3/1 69/3/1
f 72/3/1 70/3/1 71/3/1
f 73/3/1 70/3/1 72/3/1
f 74/3/1 70/3/1 73/3/1
f 76/3/1 70/3/1 74/3/1
f 77/3/1 70/3/1 76/3/1
f 119/2/21 76/2/13 259/2/13 261/2/22
f 76/2/13 75/2/9 257/2/9 259/2/13
f 82/2/20 78/2/9 241/2/9 242/2/20
f 122/2/23 81/2/16 240/2/16 244/2/24
f 84/3/1 71/3/1 69/3/1
f 85/3/1 71/3/1 84/3/1
f 84/2/13 83/2/9 223/2/9 225/2/13
f 59/2/9 84/2/13 225/2/13 221/2/9
f 89/2/25 90/2/20 238/2/20 236/2/25
f 86/2/9 85/2/13 235/2/13 237/2/9
f 93/1/1 92/1/1 91/1/1
f 94/1/1 92/1/1 93/1/1
f 95/1/1 92/1/1 94/1/1
f 96/1/1 92/1/1 95/1/1
f 97/1/1 95/1/1 94/1/1
f 98/1/1 95/1/1 97/1/1
f 99/1/26 100/1/26 29/1/26
f 29/1/26 100/1/26 30/1/26
f 103/3/26 104/3/26 105/3/26
f 105/3/26 104/3/26 106/3/26
f 101/3/26 102/3/26 107/3/26
f 107/3/26 102/3/26 108/3/26
f 108/3/26 102/3/26 109/3/26
f 107/3/26 108/3/26 111/3/26
f 111/3/26 108/3/26 112/3/26
f 127/2/27 114/2/28 266/2/28 268/2/27
f 110/2/9 111/2/13 265/2/13 263/2/9
f 55/2/29 115/2/30 308/2/30 306/2/29
f 62/2/31 112/2/32 307/2/32 309/2/32
f 116/3/26 117/3/26 118/3/26
f 116/3/26 118/3/26 119/3/26
f 119/3/26 118/3/26 120/3/26
f 121/3/26 122/3/26 124/3/26
f 124/3/26 122/3/26 125/3/26
f 61/2/26 62/2/26 127/2/26
f 127/2/26 62/2/26 128/2/26
f 129/2/33 123/2/9 299/2/9 300/2/33
f 133/2/9 135/2/27 304/2/27 303/2/9
f 125/2/13 126/2/9 295/2/9 293/2/13
f 132/2/29 131/2/30 294/2/30 296/2/29
f 133/2/26 134/2/26 135/2/26
f 135/2/26 134/2/26 136/2/26
f 138/1/13 173/1/9 207/1/34 205/1/13
f 137/1/9 138/1/13 205/1/13 203/1/35
f 140/1/9 144/1/10 212/1/10 211/1/36
f 178/1/10 174/1/9 213/1/37 214/1/10
f 142/3/26 143/3/26 145/3/26
f 145/3/26 143/3/26 146/3/26
f 146/3/26 143/3/26 147/3/26
f 147/3/26 143/3/26 148/3/26
f 148/3/26 143/3/26 150/3/26
f 150/3/26 143/3/26 151/3/26
f 150/2/13 179/2/9 255/2/9 253/2/13
f 181/2/27 154/2/28 254/2/28 256/2/27
f 156/2/29 155/2/30 246/2/30 248/2/29
f 180/2/9 151/2/13 245/2/13 249/2/9
f 142/3/26 145/3/26 158/3/26
f 158/3/26 145/3/26 159/3/26
f 158/2/13 183/2/9 219/2/9 217/2/13
f 161/2/33 157/2/9 215/2/9 216/2/33
f 163/2/38 186/2/39 232/2/39 228/2/38
f 160/2/9 164/2/29 230/2/29 229/2/9
f 165/1/40 166/1/41 168/1/42
f 168/1/42 166/1/41 169/1/43
f 167/1/44 168/1/44 171/1/44
f 171/1/44 168/1/44 172/1/44
f 169/1/45 170/1/45 175/1/45
f 175/1/45 170/1/45 176/1/45
f 173/1/26 174/1/26 177/1/26
f 177/1/26 174/1/26 178/1/26
f 179/2/26 180/2/26 181/2/26
f 181/2/26 180/2/26 182/2/26
f 183/2/26 184/2/26 185/2/26
f 185/2/26 184/2/26 186/2/26
f 187/1/26 188/1/26 189/1/26
f 189/1/26 188/1/26 190/1/26
f 167/1/10 11/1/10 7/1/10
f 171/1/10 11/1/10 167/1/10
f 8/1/46 3/1/46 1/1/46
f 12/1/46 3/1/46 8/1/46
f 110/2/10 43/2/10 37/2/10
f 113/2/10 43/2/10 110/2/10
f 137/1/10 27/1/10 23/1/10
f 141/1/10 27/1/10 137/1/10
f 157/2/10 87/2/10 83/2/10
f 161/2/10 87/2/10 157/2/10
f 165/1/47 8/1/48 5/1/49
f 168/1/50 8/1/48 165/1/47
f 187/1/51 172/1/51 168/1/51
f 189/1/51 172/1/51 187/1/51
f 24/1/13 23/1/9 199/1/11 201/1/13
f 13/1/9 24/1/13 201/1/13 197/1/52
f 44/2/53 21/2/17 270/2/17 274/2/53
f 21/2/17 19/2/9 269/2/9 270/2/17
f 107/3/10 38/3/10 28/3/10
f 111/3/10 38/3/10 107/3/10
f 114/2/54 113/2/33 264/2/33 266/2/54
f 113/2/33 110/2/9 263/2/9 264/2/33
f 87/2/18 88/2/19 226/2/19 224/2/18
f 88/2/53 61/2/17 222/2/17 226/2/53
f 142/3/10 84/3/10 69/3/10
f 158/3/10 84/3/10 142/3/10
s 0
f 177/1/8 142/1/8 206/1/8 208/1/8
f 142/1/8 141/1/8 204/1/8 206/1/8
s 1
f 185/2/27 162/2/28 218/2/28 220/2/27
f 183/2/9 185/2/27 220/2/27 219/2/9
f 123/2/10 55/2/10 51/2/10
f 129/2/10 55/2/10 123/2/10
f 95/3/10 68/3/10 65/3/10
f 98/3/10 68/3/10 95/3/10
f 146/3/10 73/3/10 72/3/10
f 147/3/10 73/3/10 146/3/10
f 149/2/10 79/2/10 75/2/10
f 153/2/10 79/2/10 149/2/10
f 103/3/10 30/3/10 100/3/10
f 103/3/10 35/3/10 30/3/10
f 105/3/10 35/3/10 103/3/10
f 49/3/10 35/3/10 105/3/10
f 51/2/9 55/2/18 284/2/18 283/2/9
f 52/2/13 51/2/9 283/2/9 285/2/13
f 116/3/10 49/3/10 105/3/10
f 116/3/10 52/3/10 49/3/10
f 119/3/21 52/3/10 116/3/10
f 121/3/55 52/3/10 119/3/21
f 124/3/10 52/3/10 121/3/55
f 80/2/53 121/2/55 262/2/56 260/2/53
f 121/3/55 119/3/21 261/3/22 262/3/56
f 123/2/9 124/2/13 301/2/13 299/2/9
f 130/2/54 129/2/33 300/2/33 302/2/54
f 148/3/10 76/3/10 74/3/10
f 150/3/10 76/3/10 148/3/10
f 149/2/9 150/2/13 253/2/13 251/2/9
f 154/2/54 153/2/33 252/2/33 254/2/54
f 117/1/10 106/1/10 104/1/10
f 66/1/10 117/1/10 104/1/10
f 66/1/10 118/1/10 117/1/10
f 70/1/10 118/1/10 66/1/10
f 92/1/10 66/1/10 104/1/10
f 96/1/10 66/1/10 92/1/10
f 101/1/57 107/1/57 63/1/57
f 63/1/57 107/1/57 69/1/57
f 101/1/57 63/1/57 91/1/57
f 91/1/57 63/1/57 93/1/57
f 40/2/9 39/2/13 277/2/13 279/2/9
f 46/2/20 40/2/9 279/2/9 280/2/20
f 33/3/57 39/3/57 108/3/57
f 108/3/57 39/3/57 112/3/57
f 115/2/38 128/2/39 310/2/39 308/2/38
f 51/2/9 55/2/29 306/2/29 305/2/9
f 90/2/20 86/2/9 237/2/9 238/2/20
f 85/2/13 60/2/9 233/2/9 235/2/13
f 64/3/57 67/3/57 94/3/57
f 94/3/57 67/3/57 97/3/57
f 71/3/57 85/3/57 145/3/57
f 145/3/57 85/3/57 159/3/57
f 186/2/39 184/2/9 231/2/9 232/2/39
f 159/2/13 160/2/9 229/2/9 227/2/13
f 99/3/57 29/3/57 102/3/57
f 29/3/57 34/3/57 102/3/57
f 102/3/57 34/3/57 109/3/57
f 40/2/57 46/2/57 51/2/57
f 51/2/57 46/2/57 55/2/57
f 86/2/57 90/2/57 160/2/57
f 160/2/57 90/2/57 164/2/57
f 32/1/10 26/1/9 195/1/14 196/1/10
s 0
f 31/1/8 32/1/8 196/1/8 194/1/8
s 1
f 31/3/57 36/3/57 50/3/57
f 53/2/13 42/2/9 287/2/9 289/2/13
f 48/2/15 57/2/16 290/2/16 288/2/15
f 31/3/57 50/3/57 118/3/57
f 50/3/57 53/3/57 118/3/57
f 118/3/57 53/3/57 120/3/58
f 120/3/58 53/3/57 122/3/23
f 122/3/23 53/3/57 125/3/57
f 120/3/58 122/3/23 244/3/24 243/3/59
f 81/2/25 82/2/20 242/2/20 240/2/25
f 136/2/39 134/2/9 297/2/9 298/2/39
f 134/2/9 125/2/13 293/2/13 297/2/9
f 70/3/57 77/3/57 143/3/57
f 143/3/57 77/3/57 151/3/57
f 139/1/13 140/1/9 211/1/36 209/1/13
s 0
f 144/1/8 143/1/8 210/1/8 212/1/8
s 1
f 152/2/9 156/2/29 248/2/29 247/2/9
f 155/2/38 182/2/39 250/2/39 246/2/38
f 2/1/60 4/1/60 9/1/60
f 9/1/60 4/1/60 15/1/60
f 54/2/57 58/2/57 126/2/57
f 126/2/57 58/2/57 132/2/57
f 26/1/57 32/1/57 140/1/57
f 140/1/57 32/1/57 144/1/57
f 78/2/57 82/2/57 152/2/57
f 152/2/57 82/2/57 156/2/57
f 6/1/61 9/1/62 166/1/63
f 166/1/63 9/1/62 169/1/64
f 169/1/65 175/1/65 188/1/65
f 188/1/65 175/1/65 190/1/65
f 10/1/57 16/1/57 170/1/57
f 170/1/57 16/1/57 176/1/57
f 6/1/13 165/1/13 5/1/13
f 166/1/13 165/1/13 6/1/13
f 8/1/66 167/1/67 7/1/68
f 168/1/69 167/1/67 8/1/66
f 2/1/70 8/1/71 1/1/72
f 9/1/73 8/1/71 2/1/70
f 169/1/74 187/1/75 168/1/76
f 188/1/77 187/1/75 169/1/74
f 10/1/78 169/1/79 9/1/80
f 170/1/81 169/1/79 10/1/78
f 64/3/13 93/3/13 63/3/13
f 94/3/13 93/3/13 64/3/13
f 66/3/13 95/3/13 65/3/13
f 96/3/13 95/3/13 66/3/13
f 68/3/13 97/3/13 67/3/13
f 98/3/13 97/3/13 68/3/13
f 106/3/13 116/3/13 105/3/13
f 117/3/13 116/3/13 106/3/13
f 76/2/13 149/2/13 75/2/13
f 150/2/13 149/2/13 76/2/13
f 120/2/13 76/2/13 119/2/13
f 77/2/13 76/2/13 120/2/13
f 151/2/13 179/2/13 150/2/13
f 180/2/13 179/2/13 151/2/13
f 78/2/13 151/2/13 77/2/13
f 152/2/13 151/2/13 78/2/13
f 84/2/13 157/2/13 83/2/13
f 158/2/13 157/2/13 84/2/13
f 60/2/13 84/2/13 59/2/13
f 85/2/13 84/2/13 60/2/13
f 159/2/13 183/2/13 158/2/13
f 184/2/13 183/2/13 159/2/13
f 86/2/13 159/2/13 85/2/13
f 160/2/13 159/2/13 86/2/13
f 38/2/13 110/2/13 37/2/13
f 111/2/13 110/2/13 38/2/13
f 20/2/13 38/2/13 19/2/13
f 39/2/13 38/2/13 20/2/13
f 112/2/82 61/2/82 111/2/82
f 62/2/82 61/2/82 112/2/82
f 40/2/13 112/2/13 39/2/13
f 51/2/13 112/2/13 40/2/13
f 52/2/13 123/2/13 51/2/13
f 124/2/13 123/2/13 52/2/13
f 42/2/13 52/2/13 41/2/13
f 53/2/13 52/2/13 42/2/13
f 125/2/13 133/2/13 124/2/13
f 134/2/13 133/2/13 125/2/13
f 54/2/13 125/2/13 53/2/13
f 126/2/13 125/2/13 54/2/13
f 101/1/8 91/1/8 102/1/8
f 99/1/8 102/1/8 100/1/8
f 102/1/8 91/1/8 103/1/8
f 100/1/8 102/1/8 103/1/8
f 103/1/8 91/1/8 104/1/8
f 104/1/8 91/1/8 92/1/8
f 11/1/8 171/1/8 12/1/8
f 12/1/8 171/1/8 23/1/8
f 23/1/8 171/1/8 137/1/8
f 137/1/8 171/1/8 172/1/8
f 3/1/8 12/1/8 13/1/8
f 12/1/8 23/1/8 13/1/8
f 13/1/8 23/1/8 24/1/8
f 172/1/8 189/1/8 138/1/8
f 137/1/8 172/1/8 138/1/8
f 138/1/8 189/1/8 173/1/8
f 3/1/8 13/1/8 14/1/8
f 173/1/8 189/1/8 174/1/8
f 14/1/8 25/1/8 4/1/8
f 3/1/8 14/1/8 4/1/8
f 4/1/8 25/1/8 15/1/8
f 15/1/8 25/1/8 26/1/8
f 139/1/8 174/1/8 140/1/8
f 174/1/8 189/1/8 175/1/8
f 140/1/8 174/1/8 175/1/8
f 175/1/8 189/1/8 190/1/8
f 15/1/8 26/1/8 16/1/8
f 26/1/8 140/1/8 16/1/8
f 140/1/8 175/1/8 16/1/8
f 16/1/8 175/1/8 176/1/8
f 27/1/8 141/1/8 28/1/8
f 28/1/8 141/1/8 107/1/8
f 107/1/8 141/1/8 69/1/8
f 69/1/8 141/1/8 142/1/8
f 17/1/8 28/1/8 29/1/8
f 17/1/8 29/1/8 30/1/8
f 17/1/8 30/1/8 18/1/8
f 18/1/8 30/1/8 31/1/8
f 142/1/8 177/1/8 143/1/8
f 143/1/8 177/1/8 178/1/8
f 118/1/8 70/1/8 32/1/8
f 70/1/8 143/1/8 32/1/8
f 31/1/8 118/1/8 32/1/8
f 32/1/8 143/1/8 144/1/8
f 71/3/8 145/3/8 72/3/8
f 72/3/8 145/3/8 146/3/8
f 33/3/83 108/3/83 34/3/83
f 34/3/83 108/3/83 109/3/83
f 73/3/84 147/3/84 74/3/84
f 74/3/84 147/3/84 148/3/84
f 79/2/85 153/2/85 80/2/86
f 80/2/86 153/2/85 154/2/87
f 35/3/88 49/3/88 36/3/88
f 36/3/88 49/3/88 50/3/88
f 121/2/89 80/2/86 122/2/89
f 80/4/86 154/4/87 81/4/90
f 122/2/89 80/2/86 81/2/90
f 154/2/87 181/2/91 155/2/92
f 81/4/90 154/4/87 155/4/92
f 155/2/92 181/2/91 182/2/91
f 81/2/90 155/2/92 82/2/93
f 82/2/93 155/2/92 156/2/93
f 87/2/85 161/2/85 88/2/86
f 88/2/86 161/2/85 162/2/87
f 61/2/89 88/2/86 62/2/89
f 88/4/86 162/4/87 89/4/90
f 62/2/89 88/2/86 89/2/90
f 162/2/87 185/2/91 163/2/92
f 89/4/90 162/4/87 163/4/92
f 163/2/92 185/2/91 186/2/91
f 89/2/90 163/2/92 90/2/93
f 90/2/93 163/2/92 164/2/93
f 43/2/85 113/2/85 44/2/86
f 44/2/86 113/2/85 114/2/87
f 21/2/89 44/2/86 22/2/89
f 44/4/86 114/4/87 45/4/90
f 22/2/89 44/2/86 45/2/90
f 114/2/87 127/2/91 115/2/92
f 45/4/90 114/4/87 115/4/92
f 115/2/92 127/2/91 128/2/91
f 45/2/90 115/2/92 46/2/93
f 46/2/93 115/2/92 55/2/93
f 55/2/85 129/2/85 56/2/86
f 56/2/86 129/2/85 130/2/87
f 47/2/89 56/2/86 48/2/89
f 56/4/86 130/4/87 57/4/90
f 48/2/89 56/2/86 57/2/90
f 130/2/87 135/2/91 131/2/92
f 57/4/90 130/4/87 131/4/92
f 131/2/92 135/2/91 136/2/91
f 57/2/90 131/2/92 58/2/93
f 58/2/93 131/2/92 132/2/93
s 0
f 194/1/94 195/1/94 193/1/94
f 196/1/94 195/1/94 194/1/94
f 191/1/95 192/1/95 193/1/95
f 193/1/95 192/1/95 194/1/95
f 18/1/8 31/1/8 194/1/8 192/1/8
s 1
f 25/1/13 14/1/9 191/1/12 193/1/13
s 0
f 200/1/96 201/1/96 199/1/96
f 202/1/96 201/1/96 200/1/96
f 201/1/97 198/1/97 197/1/97
f 202/1/97 198/1/97 201/1/97
f 28/1/8 17/1/8 198/1/8 202/1/8
s 1
f 17/1/10 13/1/9 197/1/52 198/1/10
s 0
f 203/1/98 205/1/98 204/1/98
f 204/1/98 205/1/98 206/1/98
f 207/1/99 206/1/99 205/1/99
f 208/1/99 206/1/99 207/1/99
s 1
f 141/1/10 137/1/9 203/1/35 204/1/10
f 173/1/9 177/1/10 208/1/10 207/1/34
s 0
f 209/1/100 211/1/100 210/1/100
f 210/1/100 211/1/100 212/1/100
f 209/1/101 210/1/101 213/1/101
f 213/1/101 210/1/101 214/1/101
f 143/1/8 178/1/8 214/1/8 210/1/8
s 1
f 174/1/9 139/1/13 209/1/13 213/1/37
f 215/2/102 217/2/102 216/2/102
f 216/2/102 217/2/102 218/2/102
f 219/2/103 218/2/103 217/2/103
f 220/2/103 218/2/103 219/2/103
f 162/2/54 161/2/33 216/2/33 218/2/54
f 157/2/9 158/2/13 217/2/13 215/2/9
f 224/2/104 225/2/104 223/2/104
f 226/2/104 225/2/104 224/2/104
f 225/2/105 222/2/105 221/2/105
f 226/2/105 222/2/105 225/2/105
f 61/2/17 59/2/9 221/2/9 222/2/17
f 83/2/9 87/2/18 224/2/18 223/2/9
f 227/2/106 229/2/106 228/2/106
f 228/2/106 229/2/106 230/2/106
f 227/2/107 228/2/107 231/2/107
f 231/2/107 228/2/107 232/2/107
f 184/2/9 159/2/13 227/2/13 231/2/9
f 164/2/29 163/2/30 228/2/30 230/2/29
f 236/2/108 237/2/108 235/2/108
f 238/2/108 237/2/108 236/2/108
f 233/2/109 234/2/109 235/2/109
f 235/2/109 234/2/109 236/2/109
f 60/2/9 62/2/15 234/2/15 233/2/9
f 62/2/15 89/2/16 236/2/16 234/2/15
f 240/2/108 241/2/108 239/2/108
f 242/2/108 241/2/108 240/2/108
f 243/2/59 244/2/24 239/2/109
f 239/2/109 244/2/24 240/2/109
f 77/2/13 120/2/58 243/2/59 239/2/13
f 78/2/9 77/2/13 239/2/13 241/2/9
f 245/2/106 247/2/106 246/2/106
f 246/2/106 247/2/106 248/2/106
f 245/2/107 246/2/107 249/2/107
f 249/2/107 246/2/107 250/2/107
f 151/2/13 152/2/9 247/2/9 245/2/13
f 182/2/39 180/2/9 249/2/9 250/2/39
f 251/2/102 253/2/102 252/2/102
f 252/2/102 253/2/102 254/2/102
f 255/2/103 254/2/103 253/2/103
f 256/2/103 254/2/103 255/2/103
f 153/2/33 149/2/9 251/2/9 252/2/33
f 179/2/9 181/2/27 256/2/27 255/2/9
f 258/2/104 259/2/104 257/2/104
f 260/2/104 259/2/104 258/2/104
f 259/2/105 262/2/56 261/2/22
f 260/2/105 262/2/56 259/2/105
f 75/2/9 79/2/18 258/2/18 257/2/9
f 79/2/18 80/2/19 260/2/19 258/2/18
f 263/2/102 265/2/102 264/2/102
f 264/2/102 265/2/102 266/2/102
f 267/2/103 266/2/103 265/2/103
f 268/2/103 266/2/103 267/2/103
f 111/2/110 61/2/111 267/2/110 265/2/110
f 61/2/111 127/2/27 268/2/27 267/2/110
f 272/2/104 273/2/104 271/2/104
f 274/2/104 273/2/104 272/2/104
f 273/2/105 270/2/105 269/2/105
f 274/2/105 270/2/105 273/2/105
f 37/2/9 43/2/18 272/2/18 271/2/9
f 43/2/18 44/2/19 274/2/19 272/2/18
f 278/2/108 279/2/108 277/2/108
f 280/2/108 279/2/108 278/2/108
f 275/2/109 276/2/109 277/2/109
f 277/2/109 276/2/109 278/2/109
f 20/2/9 22/2/15 276/2/15 275/2/9
f 45/2/25 46/2/20 280/2/20 278/2/25
f 284/2/104 285/2/104 283/2/104
f 286/2/104 285/2/104 284/2/104
f 285/2/105 282/2/105 281/2/105
f 286/2/105 282/2/105 285/2/105
f 56/2/53 47/2/17 282/2/17 286/2/53
f 41/2/9 52/2/13 285/2/13 281/2/9
f 290/2/108 291/2/108 289/2/108
f 292/2/108 291/2/108 290/2/108
f 287/2/109 288/2/109 289/2/109
f 289/2/109 288/2/109 290/2/109
f 42/2/9 48/2/15 288/2/15 287/2/9
f 57/2/25 58/2/20 292/2/20 290/2/25
f 293/2/106 295/2/106 294/2/106
f 294/2/106 295/2/106 296/2/106
f 293/2/107 294/2/107 297/2/107
f 297/2/107 294/2/107 298/2/107
f 126/2/9 132/2/29 296/2/29 295/2/9
f 131/2/38 136/2/39 298/2/39 294/2/38
f 299/2/102 301/2/102 300/2/102
f 300/2/102 301/2/102 302/2/102
f 303/2/103 302/2/103 301/2/103
f 304/2/103 302/2/103 303/2/103
f 135/2/27 130/2/28 302/2/28 304/2/27
f 124/2/13 133/2/9 303/2/9 301/2/13
f 307/2/106 305/2/106 308/2/106
f 308/2/106 305/2/106 306/2/106
f 307/2/107 308/2/107 309/2/107
f 309/2/107 308/2/107 310/2/107
f 112/2/13 51/2/9 305/2/9 307/2/13
f 128/2/39 62/2/31 309/2/32 310/2/39
