# Blender 5.1.2
# www.blender.org
mtllib LongBox.mtl
o Untitled
v -2.500000 0.000000 1.000000
v -2.500000 -0.000000 -1.000000
v -2.500000 0.600000 1.000000
v -2.500000 0.600000 -1.000000
v -2.262581 0.500000 0.700000
v -2.262581 0.500000 -0.700000
v -2.200000 0.600000 0.700000
v -2.200000 0.600000 -0.700000
v -0.583975 0.400000 0.600000
v -0.583975 0.400000 0.500000
v -0.583975 0.400000 -0.400000
v -0.583975 0.400000 -0.500000
v -0.500000 0.500000 0.600000
v -0.500000 0.500000 0.500000
v -0.500000 0.500000 -0.400000
v -0.500000 0.500000 -0.500000
v -0.383975 0.400000 0.500000
v -0.383975 0.400000 0.300000
v -0.383975 0.400000 -0.200000
v -0.383975 0.400000 -0.400000
v -0.300000 0.500000 0.500000
v -0.300000 0.500000 0.300000
v -0.300000 0.500000 -0.200000
v -0.300000 0.500000 -0.400000
v -0.283975 0.400000 0.300000
v -0.283975 0.400000 -0.200000
v -0.200000 0.500000 0.300000
v -0.200000 0.500000 -0.200000
v -0.088679 0.500000 0.400000
v -0.088679 0.500000 -0.500000
v 0.000000 0.600000 0.400000
v 0.000000 0.600000 -0.500000
v 0.011321 0.500000 0.500000
v 0.011321 0.500000 0.400000
v 0.011321 0.500000 -0.500000
v 0.011321 0.500000 -0.600000
v 0.100000 0.600000 0.500000
v 0.100000 0.600000 0.400000
v 0.100000 0.600000 -0.500000
v 0.100000 0.600000 -0.600000
v 0.111321 0.500000 0.600000
v 0.111321 0.500000 0.500000
v 0.200000 0.600000 0.600000
v 0.200000 0.600000 0.500000
v 1.695454 0.400000 0.500000
v 1.695454 0.400000 0.300000
v 1.800000 0.500000 0.500000
v 1.800000 0.500000 0.300000
v 1.795454 0.400000 0.300000
v 1.795454 0.400000 -0.400000
v 1.900000 0.500000 0.300000
v 1.900000 0.500000 -0.400000
v 2.200000 0.500000 0.800000
v 2.200000 0.500000 -0.800000
v 2.200000 0.600000 0.800000
v 2.200000 0.600000 -0.800000
v -2.300000 0.500000 0.800000
v -2.300000 0.500000 -0.800000
v -2.300000 0.600000 0.800000
v -2.300000 0.600000 -0.800000
v -1.197625 0.500000 -0.600000
v -1.197625 0.500000 -0.700000
v -1.300000 0.600000 -0.600000
v -1.300000 0.600000 -0.700000
v -1.097625 0.500000 0.700000
v -1.097625 0.500000 -0.600000
v -1.200000 0.600000 0.700000
v -1.200000 0.600000 -0.600000
v -0.900197 0.400000 0.500000
v -0.900197 0.400000 -0.200000
v -1.000000 0.500000 0.500000
v -1.000000 0.500000 -0.200000
v -0.800197 0.400000 0.600000
v -0.800197 0.400000 0.500000
v -0.800197 0.400000 -0.200000
v -0.800197 0.400000 -0.400000
v -0.900000 0.500000 0.600000
v -0.900000 0.500000 0.500000
v -0.900000 0.500000 -0.200000
v -0.900000 0.500000 -0.400000
v -0.700197 0.400000 -0.400000
v -0.700197 0.400000 -0.500000
v -0.800000 0.500000 -0.400000
v -0.800000 0.500000 -0.500000
v 1.273490 0.500000 0.600000
v 1.273490 0.500000 0.500000
v 1.273490 0.500000 -0.500000
v 1.273490 0.500000 -0.600000
v 1.200000 0.600000 0.600000
v 1.200000 0.600000 0.500000
v 1.200000 0.600000 -0.500000
v 1.200000 0.600000 -0.600000
v 1.373489 0.500000 0.500000
v 1.373489 0.500000 -0.500000
v 1.300000 0.600000 0.500000
v 1.300000 0.600000 -0.500000
v 1.475832 0.400000 0.200000
v 1.475832 0.400000 -0.300000
v 1.400000 0.500000 0.200000
v 1.400000 0.500000 -0.300000
v 1.575832 0.400000 0.400000
v 1.575832 0.400000 0.200000
v 1.575832 0.400000 -0.300000
v 1.575832 0.400000 -0.400000
v 1.500000 0.500000 0.400000
v 1.500000 0.500000 0.200000
v 1.500000 0.500000 -0.300000
v 1.500000 0.500000 -0.400000
v 1.675833 0.400000 0.500000
v 1.675833 0.400000 0.400000
v 1.600000 0.500000 0.500000
v 1.600000 0.500000 0.400000
v 2.500000 0.000000 1.000000
v 2.500000 -0.000000 -1.000000
v 2.500000 0.600000 1.000000
v 2.500000 0.600000 -1.000000
vn -1.0000 -0.0000 -0.0000
vn -0.8477 0.5305 -0.0000
vn -0.7658 0.6431 -0.0000
vn -0.7482 0.6635 -0.0000
vn -0.6912 0.7226 -0.0000
vn 1.0000 -0.0000 -0.0000
vn 0.6988 0.7154 -0.0000
vn 0.7078 0.7064 -0.0000
vn 0.8058 0.5922 -0.0000
vn 0.7968 0.6042 -0.0000
vn -0.0000 -0.0000 1.0000
vn -0.0000 -0.0000 -1.0000
vn -0.0000 -1.0000 -0.0000
vn -0.0000 1.0000 -0.0000
vt 0.373047 0.500000
vt 0.029297 0.500000
s 1
usemtl palette.012
f 3/1/1 2/1/1 1/1/1
f 4/1/1 2/1/1 3/1/1
f 7/2/2 6/2/2 5/2/2
f 8/2/2 6/2/2 7/2/2
f 13/2/3 10/2/3 9/2/3
f 14/2/3 10/2/3 13/2/3
f 15/2/3 12/2/3 11/2/3
f 16/2/3 12/2/3 15/2/3
f 21/2/3 18/2/3 17/2/3
f 22/2/3 18/2/3 21/2/3
f 23/2/3 20/2/3 19/2/3
f 24/2/3 20/2/3 23/2/3
f 27/2/3 26/2/3 25/2/3
f 28/2/3 26/2/3 27/2/3
f 31/2/4 30/2/4 29/2/4
f 32/2/4 30/2/4 31/2/4
f 37/2/4 34/2/4 33/2/4
f 38/2/4 34/2/4 37/2/4
f 39/2/4 36/2/4 35/2/4
f 40/2/4 36/2/4 39/2/4
f 43/2/4 42/2/4 41/2/4
f 44/2/4 42/2/4 43/2/4
f 47/2/5 46/2/5 45/2/5
f 48/2/5 46/2/5 47/2/5
f 51/2/5 50/2/5 49/2/5
f 52/2/5 50/2/5 51/2/5
f 55/1/1 54/1/1 53/1/1
f 56/1/1 54/1/1 55/1/1
f 57/1/6 58/1/6 59/1/6
f 59/1/6 58/1/6 60/1/6
f 61/2/7 62/2/7 63/2/7
f 63/2/7 62/2/7 64/2/7
f 65/2/7 66/2/7 67/2/7
f 67/2/7 66/2/7 68/2/7
f 69/2/8 70/2/8 71/2/8
f 71/2/8 70/2/8 72/2/8
f 73/2/8 74/2/8 77/2/8
f 77/2/8 74/2/8 78/2/8
f 75/2/8 76/2/8 79/2/8
f 79/2/8 76/2/8 80/2/8
f 81/2/8 82/2/8 83/2/8
f 83/2/8 82/2/8 84/2/8
f 85/2/9 86/2/9 89/2/9
f 89/2/9 86/2/9 90/2/9
f 87/2/9 88/2/9 91/2/9
f 91/2/9 88/2/9 92/2/9
f 93/2/9 94/2/9 95/2/9
f 95/2/9 94/2/9 96/2/9
f 97/2/10 98/2/10 99/2/10
f 99/2/10 98/2/10 100/2/10
f 101/2/10 102/2/10 105/2/10
f 105/2/10 102/2/10 106/2/10
f 103/2/10 104/2/10 107/2/10
f 107/2/10 104/2/10 108/2/10
f 109/2/10 110/2/10 111/2/10
f 111/2/10 110/2/10 112/2/10
f 113/1/6 114/1/6 115/1/6
f 115/1/6 114/1/6 116/1/6
f 113/1/11 3/1/11 1/1/11
f 115/1/11 3/1/11 113/1/11
f 65/2/11 7/2/11 5/2/11
f 67/2/11 7/2/11 65/2/11
f 85/2/11 43/2/11 41/2/11
f 89/2/11 43/2/11 85/2/11
f 42/2/11 37/2/11 33/2/11
f 44/2/11 37/2/11 42/2/11
f 93/2/11 90/2/11 86/2/11
f 95/2/11 90/2/11 93/2/11
f 34/2/11 31/2/11 29/2/11
f 38/2/11 31/2/11 34/2/11
f 75/2/11 72/2/11 70/2/11
f 79/2/11 72/2/11 75/2/11
f 26/2/11 23/2/11 19/2/11
f 28/2/11 23/2/11 26/2/11
f 103/2/11 100/2/11 98/2/11
f 107/2/11 100/2/11 103/2/11
f 81/2/11 80/2/11 76/2/11
f 83/2/11 80/2/11 81/2/11
f 20/2/11 15/2/11 11/2/11
f 24/2/11 15/2/11 20/2/11
f 50/2/11 108/2/11 104/2/11
f 52/2/11 108/2/11 50/2/11
f 12/2/11 84/2/11 82/2/11
f 16/2/11 84/2/11 12/2/11
f 54/1/11 60/1/11 58/1/11
f 56/1/11 60/1/11 54/1/11
f 57/1/12 59/1/12 53/1/12
f 53/1/12 59/1/12 55/1/12
f 73/2/12 77/2/12 9/2/12
f 9/2/12 77/2/12 13/2/12
f 69/2/12 71/2/12 74/2/12
f 74/2/12 71/2/12 78/2/12
f 10/2/12 14/2/12 17/2/12
f 17/2/12 14/2/12 21/2/12
f 109/2/12 111/2/12 45/2/12
f 45/2/12 111/2/12 47/2/12
f 101/2/12 105/2/12 110/2/12
f 110/2/12 105/2/12 112/2/12
f 18/2/12 22/2/12 25/2/12
f 25/2/12 22/2/12 27/2/12
f 46/2/12 48/2/12 49/2/12
f 49/2/12 48/2/12 51/2/12
f 97/2/12 99/2/12 102/2/12
f 102/2/12 99/2/12 106/2/12
f 30/2/12 32/2/12 35/2/12
f 35/2/12 32/2/12 39/2/12
f 87/2/12 91/2/12 94/2/12
f 94/2/12 91/2/12 96/2/12
f 61/2/12 63/2/12 66/2/12
f 66/2/12 63/2/12 68/2/12
f 36/2/12 40/2/12 88/2/12
f 88/2/12 40/2/12 92/2/12
f 6/2/12 8/2/12 62/2/12
f 62/2/12 8/2/12 64/2/12
f 2/1/12 4/1/12 114/1/12
f 114/1/12 4/1/12 116/1/12
f 2/1/13 113/1/13 1/1/13
f 114/1/13 113/1/13 2/1/13
f 73/2/14 9/2/14 74/2/14
f 74/2/14 9/2/14 10/2/14
f 109/2/14 45/2/14 110/2/14
f 69/2/14 74/2/14 18/2/14
f 74/2/14 10/2/14 18/2/14
f 10/2/14 17/2/14 18/2/14
f 101/2/14 110/2/14 46/2/14
f 110/2/14 45/2/14 46/2/14
f 101/2/14 46/2/14 102/2/14
f 46/2/14 49/2/14 102/2/14
f 18/2/14 25/2/14 70/2/14
f 69/2/14 18/2/14 70/2/14
f 70/2/14 25/2/14 75/2/14
f 75/2/14 25/2/14 19/2/14
f 19/2/14 25/2/14 26/2/14
f 97/2/14 102/2/14 98/2/14
f 102/2/14 49/2/14 103/2/14
f 98/2/14 102/2/14 103/2/14
f 75/2/14 19/2/14 76/2/14
f 76/2/14 19/2/14 81/2/14
f 81/2/14 19/2/14 11/2/14
f 11/2/14 19/2/14 20/2/14
f 103/2/14 49/2/14 104/2/14
f 104/2/14 49/2/14 50/2/14
f 81/2/14 11/2/14 82/2/14
f 82/2/14 11/2/14 12/2/14
f 57/2/14 53/2/14 5/2/14
f 5/2/14 53/2/14 65/2/14
f 65/2/14 53/2/14 77/2/14
f 77/2/14 53/2/14 13/2/14
f 13/2/14 53/2/14 41/2/14
f 41/2/14 53/2/14 85/2/14
f 65/2/14 77/2/14 71/2/14
f 71/2/14 77/2/14 78/2/14
f 13/2/14 41/2/14 14/2/14
f 14/2/14 41/2/14 21/2/14
f 21/2/14 41/2/14 33/2/14
f 33/2/14 41/2/14 42/2/14
f 85/2/14 53/2/14 86/2/14
f 86/2/14 53/2/14 93/2/14
f 93/2/14 53/2/14 111/2/14
f 111/2/14 53/2/14 47/2/14
f 21/2/14 33/2/14 29/2/14
f 29/2/14 33/2/14 34/2/14
f 93/2/14 111/2/14 105/2/14
f 105/2/14 111/2/14 112/2/14
f 21/2/14 29/2/14 22/2/14
f 22/2/14 29/2/14 27/2/14
f 47/2/14 53/2/14 48/2/14
f 48/2/14 53/2/14 51/2/14
f 93/2/14 105/2/14 99/2/14
f 99/2/14 105/2/14 106/2/14
f 65/2/14 71/2/14 72/2/14
f 27/2/14 29/2/14 28/2/14
f 93/2/14 99/2/14 100/2/14
f 72/2/14 79/2/14 80/2/14
f 23/2/14 28/2/14 24/2/14
f 100/2/14 107/2/14 108/2/14
f 51/2/14 53/2/14 52/2/14
f 80/2/14 83/2/14 84/2/14
f 15/2/14 24/2/14 16/2/14
f 24/2/14 28/2/14 30/2/14
f 28/2/14 29/2/14 30/2/14
f 16/2/14 24/2/14 30/2/14
f 100/2/14 108/2/14 94/2/14
f 108/2/14 52/2/14 94/2/14
f 93/2/14 100/2/14 94/2/14
f 80/2/14 84/2/14 66/2/14
f 30/2/14 35/2/14 66/2/14
f 84/2/14 16/2/14 66/2/14
f 16/2/14 30/2/14 66/2/14
f 65/2/14 72/2/14 66/2/14
f 72/2/14 80/2/14 66/2/14
f 66/2/14 35/2/14 36/2/14
f 87/2/14 94/2/14 88/2/14
f 57/2/14 5/2/14 6/2/14
f 36/2/14 88/2/14 62/2/14
f 66/2/14 36/2/14 62/2/14
f 61/2/14 66/2/14 62/2/14
f 57/2/14 6/2/14 58/2/14
f 6/2/14 62/2/14 58/2/14
f 62/2/14 88/2/14 54/2/14
f 58/2/14 62/2/14 54/2/14
f 88/2/14 94/2/14 54/2/14
f 94/2/14 52/2/14 54/2/14
f 52/2/14 53/2/14 54/2/14
f 3/1/14 115/1/14 59/1/14
f 59/1/14 115/1/14 55/1/14
f 43/2/14 89/2/14 44/2/14
f 44/2/14 89/2/14 90/2/14
f 37/2/14 44/2/14 38/2/14
f 90/2/14 95/2/14 38/2/14
f 44/2/14 90/2/14 38/2/14
f 31/2/14 38/2/14 32/2/14
f 38/2/14 95/2/14 39/2/14
f 32/2/14 38/2/14 39/2/14
f 39/2/14 95/2/14 91/2/14
f 91/2/14 95/2/14 96/2/14
f 7/2/14 67/2/14 63/2/14
f 63/2/14 67/2/14 68/2/14
f 39/2/14 91/2/14 40/2/14
f 40/2/14 91/2/14 92/2/14
f 7/2/14 63/2/14 8/2/14
f 8/2/14 63/2/14 64/2/14
f 3/1/14 59/1/14 60/1/14
f 55/1/14 115/1/14 56/1/14
f 3/1/14 60/1/14 4/1/14
f 60/1/14 56/1/14 4/1/14
f 56/1/14 115/1/14 116/1/14
f 4/1/14 56/1/14 116/1/14
