# Blender 5.1.2
# www.blender.org
mtllib LongBox2.mtl
o Untitled
v -2.500000 0.000000 1.000000
v -2.500000 -0.000000 -1.000000
v -2.500000 0.600000 1.000000
v -2.500000 0.600000 -1.000000
v -2.200000 0.500000 0.700000
v -2.200000 0.500000 -0.700000
v -2.200000 0.600000 0.700000
v -2.200000 0.600000 -0.700000
v -0.590404 0.400000 0.600000
v -0.590404 0.400000 0.500000
v -0.590404 0.400000 -0.400000
v -0.590404 0.400000 -0.500000
v -0.500000 0.500000 0.600000
v -0.500000 0.500000 0.500000
v -0.500000 0.500000 -0.400000
v -0.500000 0.500000 -0.500000
v -0.390404 0.400000 0.500000
v -0.390404 0.400000 0.300000
v -0.390404 0.400000 -0.200000
v -0.390404 0.400000 -0.400000
v -0.300000 0.500000 0.500000
v -0.300000 0.500000 0.300000
v -0.300000 0.500000 -0.200000
v -0.300000 0.500000 -0.400000
v -0.290404 0.400000 0.300000
v -0.290404 0.400000 -0.200000
v -0.200000 0.500000 0.300000
v -0.200000 0.500000 -0.200000
v -0.095493 0.500000 0.400000
v -0.095493 0.500000 -0.500000
v 0.000000 0.600000 0.400000
v 0.000000 0.600000 -0.500000
v 0.004506 0.500000 0.500000
v 0.004506 0.500000 0.400000
v 0.004506 0.500000 -0.500000
v 0.004506 0.500000 -0.600000
v 0.100000 0.600000 0.500000
v 0.100000 0.600000 0.400000
v 0.100000 0.600000 -0.500000
v 0.100000 0.600000 -0.600000
v 0.104506 0.500000 0.600000
v 0.104506 0.500000 0.500000
v 0.200000 0.600000 0.600000
v 0.200000 0.600000 0.500000
v 1.701795 0.400000 0.500000
v 1.701795 0.400000 0.300000
v 1.800000 0.500000 0.500000
v 1.800000 0.500000 0.300000
v 1.801795 0.400000 0.300000
v 1.801795 0.400000 -0.400000
v 1.900000 0.500000 0.300000
v 1.900000 0.500000 -0.400000
v 2.200000 0.500000 0.800000
v 2.200000 0.500000 -0.800000
v 2.200000 0.600000 0.800000
v 2.200000 0.600000 -0.800000
v -2.300000 0.500000 0.800000
v -2.300000 0.500000 -0.800000
v -2.300000 0.600000 0.800000
v -2.300000 0.600000 -0.800000
v -1.200655 0.500000 -0.600000
v -1.200655 0.500000 -0.700000
v -1.300000 0.600000 -0.600000
v -1.300000 0.600000 -0.700000
v -1.100655 0.500000 0.700000
v -1.100655 0.500000 -0.600000
v -1.200000 0.600000 0.700000
v -1.200000 0.600000 -0.600000
v -0.915138 0.400000 0.500000
v -0.915138 0.400000 -0.200000
v -1.000000 0.500000 0.500000
v -1.000000 0.500000 -0.200000
v -0.815138 0.400000 0.600000
v -0.815138 0.400000 0.500000
v -0.815138 0.400000 -0.200000
v -0.815138 0.400000 -0.400000
v -0.900000 0.500000 0.600000
v -0.900000 0.500000 0.500000
v -0.900000 0.500000 -0.200000
v -0.900000 0.500000 -0.400000
v -0.715138 0.400000 -0.400000
v -0.715138 0.400000 -0.500000
v -0.800000 0.500000 -0.400000
v -0.800000 0.500000 -0.500000
v 1.283601 0.500000 0.600000
v 1.283601 0.500000 0.500000
v 1.283601 0.500000 -0.500000
v 1.283601 0.500000 -0.600000
v 1.200000 0.600000 0.600000
v 1.200000 0.600000 0.500000
v 1.200000 0.600000 -0.500000
v 1.200000 0.600000 -0.600000
v 1.383601 0.500000 0.500000
v 1.383601 0.500000 -0.500000
v 1.300000 0.600000 0.500000
v 1.300000 0.600000 -0.500000
v 1.471370 0.400000 0.200000
v 1.471370 0.400000 -0.300000
v 1.400000 0.500000 0.200000
v 1.400000 0.500000 -0.300000
v 1.571370 0.400000 0.400000
v 1.571370 0.400000 0.200000
v 1.571370 0.400000 -0.300000
v 1.571370 0.400000 -0.400000
v 1.500000 0.500000 0.400000
v 1.500000 0.500000 0.200000
v 1.500000 0.500000 -0.300000
v 1.500000 0.500000 -0.400000
v 1.671370 0.400000 0.500000
v 1.671370 0.400000 0.400000
v 1.600000 0.500000 0.500000
v 1.600000 0.500000 0.400000
v 2.500000 0.000000 1.000000
v 2.500000 -0.000000 -1.000000
v 2.500000 0.600000 1.000000
v 2.500000 0.600000 -1.000000
vn -1.0000 -0.0000 -0.0000
vn -0.7418 0.6706 -0.0000
vn -0.7232 0.6906 -0.0000
vn -0.7135 0.7007 -0.0000
vn 1.0000 -0.0000 -0.0000
vn 0.7094 0.7048 -0.0000
vn 0.7625 0.6470 -0.0000
vn 0.7672 0.6414 -0.0000
vn 0.8140 0.5809 -0.0000
vn -0.0000 -0.0000 1.0000
vn -0.0000 -0.0000 -1.0000
vn -0.0000 -1.0000 -0.0000
vn -0.0000 1.0000 -0.0000
vt 0.373047 0.500000
vt 0.341797 0.500000
s 1
usemtl palette.013
f 3/1/1 2/1/1 1/1/1
f 4/1/1 2/1/1 3/1/1
f 7/2/1 6/2/1 5/2/1
f 8/2/1 6/2/1 7/2/1
f 13/2/2 10/2/2 9/2/2
f 14/2/2 10/2/2 13/2/2
f 15/2/2 12/2/2 11/2/2
f 16/2/2 12/2/2 15/2/2
f 21/2/2 18/2/2 17/2/2
f 22/2/2 18/2/2 21/2/2
f 23/2/2 20/2/2 19/2/2
f 24/2/2 20/2/2 23/2/2
f 27/2/2 26/2/2 25/2/2
f 28/2/2 26/2/2 27/2/2
f 31/2/3 30/2/3 29/2/3
f 32/2/3 30/2/3 31/2/3
f 37/2/3 34/2/3 33/2/3
f 38/2/3 34/2/3 37/2/3
f 39/2/3 36/2/3 35/2/3
f 40/2/3 36/2/3 39/2/3
f 43/2/3 42/2/3 41/2/3
f 44/2/3 42/2/3 43/2/3
f 47/2/4 46/2/4 45/2/4
f 48/2/4 46/2/4 47/2/4
f 51/2/4 50/2/4 49/2/4
f 52/2/4 50/2/4 51/2/4
f 55/1/1 54/1/1 53/1/1
f 56/1/1 54/1/1 55/1/1
f 57/1/5 58/1/5 59/1/5
f 59/1/5 58/1/5 60/1/5
f 61/2/6 62/2/6 63/2/6
f 63/2/6 62/2/6 64/2/6
f 65/2/6 66/2/6 67/2/6
f 67/2/6 66/2/6 68/2/6
f 69/2/7 70/2/7 71/2/7
f 71/2/7 70/2/7 72/2/7
f 73/2/7 74/2/7 77/2/7
f 77/2/7 74/2/7 78/2/7
f 75/2/7 76/2/7 79/2/7
f 79/2/7 76/2/7 80/2/7
f 81/2/7 82/2/7 83/2/7
f 83/2/7 82/2/7 84/2/7
f 85/2/8 86/2/8 89/2/8
f 89/2/8 86/2/8 90/2/8
f 87/2/8 88/2/8 91/2/8
f 91/2/8 88/2/8 92/2/8
f 93/2/8 94/2/8 95/2/8
f 95/2/8 94/2/8 96/2/8
f 97/2/9 98/2/9 99/2/9
f 99/2/9 98/2/9 100/2/9
f 101/2/9 102/2/9 105/2/9
f 105/2/9 102/2/9 106/2/9
f 103/2/9 104/2/9 107/2/9
f 107/2/9 104/2/9 108/2/9
f 109/2/9 110/2/9 111/2/9
f 111/2/9 110/2/9 112/2/9
f 113/1/5 114/1/5 115/1/5
f 115/1/5 114/1/5 116/1/5
f 113/1/10 3/1/10 1/1/10
f 115/1/10 3/1/10 113/1/10
f 65/2/10 7/2/10 5/2/10
f 67/2/10 7/2/10 65/2/10
f 85/2/10 43/2/10 41/2/10
f 89/2/10 43/2/10 85/2/10
f 42/2/10 37/2/10 33/2/10
f 44/2/10 37/2/10 42/2/10
f 93/2/10 90/2/10 86/2/10
f 95/2/10 90/2/10 93/2/10
f 34/2/10 31/2/10 29/2/10
f 38/2/10 31/2/10 34/2/10
f 75/2/10 72/2/10 70/2/10
f 79/2/10 72/2/10 75/2/10
f 26/2/10 23/2/10 19/2/10
f 28/2/10 23/2/10 26/2/10
f 103/2/10 100/2/10 98/2/10
f 107/2/10 100/2/10 103/2/10
f 81/2/10 80/2/10 76/2/10
f 83/2/10 80/2/10 81/2/10
f 20/2/10 15/2/10 11/2/10
f 24/2/10 15/2/10 20/2/10
f 50/2/10 108/2/10 104/2/10
f 52/2/10 108/2/10 50/2/10
f 12/2/10 84/2/10 82/2/10
f 16/2/10 84/2/10 12/2/10
f 54/1/10 60/1/10 58/1/10
f 56/1/10 60/1/10 54/1/10
f 57/1/11 59/1/11 53/1/11
f 53/1/11 59/1/11 55/1/11
f 73/2/11 77/2/11 9/2/11
f 9/2/11 77/2/11 13/2/11
f 69/2/11 71/2/11 74/2/11
f 74/2/11 71/2/11 78/2/11
f 10/2/11 14/2/11 17/2/11
f 17/2/11 14/2/11 21/2/11
f 109/2/11 111/2/11 45/2/11
f 45/2/11 111/2/11 47/2/11
f 101/2/11 105/2/11 110/2/11
f 110/2/11 105/2/11 112/2/11
f 18/2/11 22/2/11 25/2/11
f 25/2/11 22/2/11 27/2/11
f 46/2/11 48/2/11 49/2/11
f 49/2/11 48/2/11 51/2/11
f 97/2/11 99/2/11 102/2/11
f 102/2/11 99/2/11 106/2/11
f 30/2/11 32/2/11 35/2/11
f 35/2/11 32/2/11 39/2/11
f 87/2/11 91/2/11 94/2/11
f 94/2/11 91/2/11 96/2/11
f 61/2/11 63/2/11 66/2/11
f 66/2/11 63/2/11 68/2/11
f 36/2/11 40/2/11 88/2/11
f 88/2/11 40/2/11 92/2/11
f 6/2/11 8/2/11 62/2/11
f 62/2/11 8/2/11 64/2/11
f 2/1/11 4/1/11 114/1/11
f 114/1/11 4/1/11 116/1/11
f 2/1/12 113/1/12 1/1/12
f 114/1/12 113/1/12 2/1/12
f 73/2/13 9/2/13 74/2/13
f 74/2/13 9/2/13 10/2/13
f 109/2/13 45/2/13 110/2/13
f 69/2/13 74/2/13 18/2/13
f 74/2/13 10/2/13 18/2/13
f 10/2/13 17/2/13 18/2/13
f 101/2/13 110/2/13 46/2/13
f 110/2/13 45/2/13 46/2/13
f 101/2/13 46/2/13 102/2/13
f 46/2/13 49/2/13 102/2/13
f 18/2/13 25/2/13 70/2/13
f 69/2/13 18/2/13 70/2/13
f 70/2/13 25/2/13 75/2/13
f 75/2/13 25/2/13 19/2/13
f 19/2/13 25/2/13 26/2/13
f 97/2/13 102/2/13 98/2/13
f 102/2/13 49/2/13 103/2/13
f 98/2/13 102/2/13 103/2/13
f 75/2/13 19/2/13 76/2/13
f 76/2/13 19/2/13 81/2/13
f 81/2/13 19/2/13 11/2/13
f 11/2/13 19/2/13 20/2/13
f 103/2/13 49/2/13 104/2/13
f 104/2/13 49/2/13 50/2/13
f 81/2/13 11/2/13 82/2/13
f 82/2/13 11/2/13 12/2/13
f 57/2/13 53/2/13 5/2/13
f 5/2/13 53/2/13 65/2/13
f 65/2/13 53/2/13 77/2/13
f 77/2/13 53/2/13 13/2/13
f 13/2/13 53/2/13 41/2/13
f 41/2/13 53/2/13 85/2/13
f 65/2/13 77/2/13 71/2/13
f 71/2/13 77/2/13 78/2/13
f 13/2/13 41/2/13 14/2/13
f 14/2/13 41/2/13 21/2/13
f 21/2/13 41/2/13 33/2/13
f 33/2/13 41/2/13 42/2/13
f 85/2/13 53/2/13 86/2/13
f 86/2/13 53/2/13 93/2/13
f 93/2/13 53/2/13 111/2/13
f 111/2/13 53/2/13 47/2/13
f 21/2/13 33/2/13 29/2/13
f 29/2/13 33/2/13 34/2/13
f 93/2/13 111/2/13 105/2/13
f 105/2/13 111/2/13 112/2/13
f 21/2/13 29/2/13 22/2/13
f 22/2/13 29/2/13 27/2/13
f 47/2/13 53/2/13 48/2/13
f 48/2/13 53/2/13 51/2/13
f 93/2/13 105/2/13 99/2/13
f 99/2/13 105/2/13 106/2/13
f 65/2/13 71/2/13 72/2/13
f 27/2/13 29/2/13 28/2/13
f 93/2/13 99/2/13 100/2/13
f 72/2/13 79/2/13 80/2/13
f 23/2/13 28/2/13 24/2/13
f 100/2/13 107/2/13 108/2/13
f 51/2/13 53/2/13 52/2/13
f 80/2/13 83/2/13 84/2/13
f 15/2/13 24/2/13 16/2/13
f 24/2/13 28/2/13 30/2/13
f 28/2/13 29/2/13 30/2/13
f 16/2/13 24/2/13 30/2/13
f 100/2/13 108/2/13 94/2/13
f 108/2/13 52/2/13 94/2/13
f 93/2/13 100/2/13 94/2/13
f 80/2/13 84/2/13 66/2/13
f 30/2/13 35/2/13 66/2/13
f 84/2/13 16/2/13 66/2/13
f 16/2/13 30/2/13 66/2/13
f 65/2/13 72/2/13 66/2/13
f 72/2/13 80/2/13 66/2/13
f 66/2/13 35/2/13 36/2/13
f 87/2/13 94/2/13 88/2/13
f 57/2/13 5/2/13 6/2/13
f 36/2/13 88/2/13 62/2/13
f 66/2/13 36/2/13 62/2/13
f 61/2/13 66/2/13 62/2/13
f 57/2/13 6/2/13 58/2/13
f 6/2/13 62/2/13 58/2/13
f 62/2/13 88/2/13 54/2/13
f 58/2/13 62/2/13 54/2/13
f 88/2/13 94/2/13 54/2/13
f 94/2/13 52/2/13 54/2/13
f 52/2/13 53/2/13 54/2/13
f 3/1/13 115/1/13 59/1/13
f 59/1/13 115/1/13 55/1/13
f 43/2/13 89/2/13 44/2/13
f 44/2/13 89/2/13 90/2/13
f 37/2/13 44/2/13 38/2/13
f 90/2/13 95/2/13 38/2/13
f 44/2/13 90/2/13 38/2/13
f 31/2/13 38/2/13 32/2/13
f 38/2/13 95/2/13 39/2/13
f 32/2/13 38/2/13 39/2/13
f 39/2/13 95/2/13 91/2/13
f 91/2/13 95/2/13 96/2/13
f 7/2/13 67/2/13 63/2/13
f 63/2/13 67/2/13 68/2/13
f 39/2/13 91/2/13 40/2/13
f 40/2/13 91/2/13 92/2/13
f 7/2/13 63/2/13 8/2/13
f 8/2/13 63/2/13 64/2/13
f 3/1/13 59/1/13 60/1/13
f 55/1/13 115/1/13 56/1/13
f 3/1/13 60/1/13 4/1/13
f 60/1/13 56/1/13 4/1/13
f 56/1/13 115/1/13 116/1/13
f 4/1/13 56/1/13 116/1/13
