# Blender 5.1.2
# www.blender.org
mtllib Painting.mtl
o Untitled
v -1.700000 -0.000000 -0.200000
v -1.700000 -0.000000 -0.500000
v -1.700000 5.000000 -0.200000
v -1.700000 5.000000 -0.500000
v 1.483396 0.100000 -0.200000
v 1.483396 0.100000 -0.300000
v 1.600000 0.200000 -0.200000
v 1.600000 0.200000 -0.300000
v 1.600000 4.800000 -0.200000
v 1.600000 4.800000 -0.300000
v 1.437406 4.900001 -0.200000
v 1.437406 4.900001 -0.300000
v 1.700000 0.294520 -0.200000
v 1.700000 0.294520 -0.300000
v 1.700000 4.707387 -0.200000
v 1.700000 4.707387 -0.300000
v -1.600000 0.295056 -0.200000
v -1.600000 0.295056 -0.300000
v -1.600000 4.712581 -0.200000
v -1.600000 4.712581 -0.300000
v -1.412642 0.100000 -0.200000
v -1.412642 0.100000 -0.300000
v -1.500000 0.200000 -0.200000
v -1.500000 0.200000 -0.300000
v -1.500000 4.800000 -0.200000
v -1.500000 4.800000 -0.300000
v -1.315071 4.900001 -0.200000
v -1.315071 4.900001 -0.300000
v 1.800000 -0.000000 -0.200000
v 1.800000 -0.000000 -0.500000
v 1.800000 5.000000 -0.200000
v 1.800000 5.000000 -0.500000
vn -1.0000 -0.0000 -0.0000
vn -0.6510 0.7591 -0.0000
vn -0.5239 -0.8518 -0.0000
vn 1.0000 -0.0000 -0.0000
vn 0.7531 0.6579 -0.0000
vn 0.4757 -0.8796 -0.0000
vn -0.0000 -0.0000 1.0000
vn -0.0000 -0.0000 -1.0000
vn -0.0000 -1.0000 -0.0000
vn 0.6582 -0.7529 -0.0000
vn -0.6795 -0.7337 -0.0000
vn -0.0000 1.0000 -0.0000
vn 0.6890 0.7248 -0.0000
vn -0.6869 0.7267 -0.0000
vt 0.373047 0.500000
vt 0.962891 0.500000
s 1
usemtl palette
f 3/1/1 2/1/1 1/1/1
f 4/1/1 2/1/1 3/1/1
f 7/1/2 6/1/2 5/1/2
f 8/1/2 6/1/2 7/1/2
f 11/1/3 10/1/3 9/1/3
f 12/1/3 10/1/3 11/1/3
f 15/1/1 14/1/1 13/1/1
f 16/1/1 14/1/1 15/1/1
f 17/1/4 18/1/4 19/1/4
f 19/1/4 18/1/4 20/1/4
f 21/1/5 22/1/5 23/1/5
f 23/1/5 22/1/5 24/1/5
f 25/1/6 26/1/6 27/1/6
f 27/1/6 26/1/6 28/1/6
f 29/1/4 30/1/4 31/1/4
f 31/1/4 30/1/4 32/1/4
f 17/1/7 3/1/7 1/1/7
f 19/1/7 3/1/7 17/1/7
f 21/1/7 17/1/7 1/1/7
f 23/1/7 17/1/7 21/1/7
f 25/1/7 3/1/7 19/1/7
f 27/1/7 3/1/7 25/1/7
f 5/1/7 21/1/7 1/1/7
f 11/1/7 3/1/7 27/1/7
f 13/1/7 7/1/8 5/1/7
f 15/1/7 11/1/7 9/1/8
f 29/1/7 13/1/7 5/1/7
f 29/1/7 15/1/7 13/1/7
f 29/1/7 5/1/7 1/1/7
f 31/1/7 11/1/7 15/1/7
f 31/1/7 15/1/7 29/1/7
f 31/1/7 3/1/7 11/1/7
f 24/2/7 20/2/7 18/2/7
f 26/2/7 20/2/7 24/2/7
f 6/2/7 24/2/7 22/2/7
f 6/2/7 28/2/7 26/2/7
f 6/2/7 26/2/7 24/2/7
f 8/2/7 28/2/7 6/2/7
f 10/2/7 28/2/7 8/2/7
f 12/2/7 28/2/7 10/2/7
f 14/2/7 10/2/7 8/2/7
f 16/2/7 10/2/7 14/2/7
f 2/1/8 4/1/8 30/1/8
f 30/1/8 4/1/8 32/1/8
f 2/1/9 29/1/9 1/1/9
f 30/1/9 29/1/9 2/1/9
f 20/1/10 25/1/10 19/1/10
f 26/1/10 25/1/10 20/1/10
f 10/1/11 15/1/11 9/1/11
f 16/1/11 15/1/11 10/1/11
f 28/1/9 11/1/9 27/1/9
f 12/1/9 11/1/9 28/1/9
f 21/1/12 5/1/12 22/1/12
f 22/1/12 5/1/12 6/1/12
f 17/1/13 23/1/13 18/1/13
f 18/1/13 23/1/13 24/1/13
f 7/1/14 13/1/14 8/1/14
f 8/1/14 13/1/14 14/1/14
f 3/1/12 31/1/12 4/1/12
f 4/1/12 31/1/12 32/1/12
