# Blender 5.1.2
# www.blender.org
mtllib Table1.mtl
o Untitled
v -4.000000 0.700000 1.100000
v -4.000000 0.700000 -1.800000
v -4.000000 1.100000 1.100000
v -4.000000 1.100000 -1.800000
v -3.900000 0.700000 1.200000
v -3.969050 0.700000 1.147406
v -3.969260 0.700000 -1.843651
v -3.900000 0.700000 -1.900000
v -3.900000 1.100000 1.200000
v -3.969050 1.100000 1.147406
v -3.969260 1.100000 -1.843651
v -3.900000 1.100000 -1.900000
v -3.800000 0.000000 0.900000
v -3.800000 -0.000000 -0.177369
v -3.800000 -0.000000 -0.505130
v -3.800000 -0.000000 -1.600000
v -3.800000 0.700000 0.900000
v -3.800000 0.700000 -0.177369
v -3.800000 0.700000 -0.505130
v -3.800000 0.700000 -1.600000
v -3.700000 0.000000 1.000000
v -3.757400 0.000000 0.949847
v -3.700000 -0.000000 -0.300000
v -3.700000 -0.000000 -0.400000
v -3.751348 -0.000000 -1.648337
v -3.700000 -0.000000 -1.700000
v -3.700000 0.700000 1.000000
v -3.757400 0.700000 0.949846
v -3.700000 0.700000 -0.300000
v -3.700000 0.700000 -0.400000
v -3.751348 0.700000 -1.648337
v -3.700000 0.700000 -1.700000
v 3.300000 0.000000 0.900000
v 3.300000 -0.000000 -1.600000
v 3.300000 0.700000 0.900000
v 3.300000 0.700000 -1.600000
v 3.400000 0.000000 1.000000
v 3.400000 0.000000 0.988987
v 3.400000 -0.000000 -1.699612
v 3.400000 0.700000 1.000000
v 3.400000 0.700000 0.988987
v 3.400000 0.700000 -1.699612
v -3.400000 0.000000 1.000000
v -3.301095 -0.000000 -1.600000
v -3.400000 -0.000000 -1.700000
v -3.400000 0.700000 1.000000
v -3.301095 0.700000 -1.600000
v -3.400000 0.700000 -1.700000
v -3.301171 0.000000 0.900000
v -3.301171 0.700000 0.900000
v 3.700000 0.000000 1.000000
v 3.700000 0.000000 0.988987
v 3.700000 -0.000000 -0.300000
v 3.700000 -0.000000 -0.400000
v 3.700000 -0.000000 -1.698462
v 3.700000 0.700000 1.000000
v 3.700000 0.700000 0.988987
v 3.700000 0.700000 -0.300000
v 3.700000 0.700000 -0.400000
v 3.700000 0.700000 -1.698462
v 3.800000 0.000000 0.900000
v 3.800000 -0.000000 -0.178816
v 3.800000 -0.000000 -0.577609
v 3.800000 -0.000000 -1.600000
v 3.800000 0.700000 0.900000
v 3.800000 0.700000 -0.178816
v 3.800000 0.700000 -0.577609
v 3.800000 0.700000 -1.600000
v 3.900000 0.700000 1.200000
v 3.900000 0.700000 1.188987
v 3.900000 0.700000 -1.898462
v 3.900000 1.100000 1.200000
v 3.900000 1.100000 1.188987
v 3.900000 1.100000 -1.898462
v 4.000000 0.700000 1.100000
v 4.000000 0.700000 -1.800000
v 4.000000 1.100000 1.100000
v 4.000000 1.100000 -1.800000
vn -1.0000 -0.0000 -0.0000
vn -0.6059 -0.0000 0.7955
vn -0.6311 -0.0000 -0.7757
vn -0.6580 -0.0000 0.7530
vn -0.7093 -0.0000 -0.7049
vn 0.7155 -0.0000 0.6987
vn 0.7154 -0.0000 0.6987
vn 0.7149 -0.0000 -0.6992
vn 1.0000 -0.0000 -0.0000
vn -0.0000 -0.0000 1.0000
vn -0.8373 -0.0000 0.5467
vn 0.6648 -0.0000 0.7470
vn -0.7602 -0.0000 0.6497
vn -0.6648 -0.0000 0.7470
vn -0.7246 -0.0000 0.6892
vn 0.8714 -0.0000 0.4906
vn -0.7750 -0.0000 -0.6320
vn 0.7713 -0.0000 -0.6365
vn -0.7048 -0.0000 -0.7094
vn -0.7043 -0.0000 -0.7099
vn 0.6960 -0.0000 -0.7181
vn -0.0000 -0.0000 -1.0000
vn -0.8176 -0.0000 -0.5758
vn 0.0002 -0.0000 -1.0000
vn -0.0000 -1.0000 -0.0000
vn -0.0000 1.0000 -0.0000
vn -0.0000 -1.0000 0.0002
vt 0.373047 0.500000
s 1
usemtl palette.003
f 3/1/1 2/1/1 1/1/1
f 4/1/1 2/1/1 3/1/1
f 9/1/2 6/1/2 5/1/2
f 10/1/2 6/1/2 9/1/2
f 11/1/3 8/1/3 7/1/3
f 12/1/3 8/1/3 11/1/3
f 17/1/1 14/1/1 13/1/1
f 18/1/1 14/1/1 17/1/1
f 19/1/1 16/1/1 15/1/1
f 20/1/1 16/1/1 19/1/1
f 27/1/4 22/1/4 21/1/4
f 28/1/4 22/1/4 27/1/4
f 29/1/1 24/1/1 23/1/1
f 30/1/1 24/1/1 29/1/1
f 31/1/5 26/1/5 25/1/5
f 32/1/5 26/1/5 31/1/5
f 35/1/1 34/1/1 33/1/1
f 36/1/1 34/1/1 35/1/1
f 40/1/1 38/1/1 37/1/1
f 41/1/1 38/1/1 40/1/1
f 43/1/6 49/1/7 46/1/7
f 46/1/7 49/1/7 50/1/6
f 44/1/8 45/1/8 47/1/8
f 47/1/8 45/1/8 48/1/8
f 49/1/9 44/1/9 50/1/9
f 50/1/9 44/1/9 47/1/9
f 51/1/9 52/1/9 56/1/9
f 56/1/9 52/1/9 57/1/9
f 53/1/9 54/1/9 58/1/9
f 58/1/9 54/1/9 59/1/9
f 61/1/9 62/1/9 65/1/9
f 65/1/9 62/1/9 66/1/9
f 63/1/9 64/1/9 67/1/9
f 67/1/9 64/1/9 68/1/9
f 69/1/9 70/1/9 72/1/9
f 72/1/9 70/1/9 73/1/9
f 75/1/9 76/1/9 77/1/9
f 77/1/9 76/1/9 78/1/9
f 69/1/10 9/1/10 5/1/10
f 72/1/10 9/1/10 69/1/10
f 6/1/11 3/1/11 1/1/11
f 10/1/11 3/1/11 6/1/11
f 75/1/12 73/1/12 70/1/12
f 77/1/12 73/1/12 75/1/12
f 43/1/10 27/1/10 21/1/10
f 46/1/10 27/1/10 43/1/10
f 51/1/10 40/1/10 37/1/10
f 56/1/10 40/1/10 51/1/10
f 22/1/13 17/1/13 13/1/13
f 28/1/13 17/1/13 22/1/13
f 38/1/14 35/1/14 33/1/14
f 41/1/14 35/1/14 38/1/14
f 61/1/12 57/1/12 52/1/12
f 65/1/12 57/1/12 61/1/12
f 24/1/15 19/1/15 15/1/15
f 30/1/15 19/1/15 24/1/15
f 63/1/16 59/1/16 54/1/16
f 67/1/16 59/1/16 63/1/16
f 14/1/17 18/1/17 23/1/17
f 23/1/17 18/1/17 29/1/17
f 53/1/18 58/1/18 62/1/18
f 62/1/18 58/1/18 66/1/18
f 16/1/19 20/1/19 25/1/19
f 25/1/19 20/1/19 31/1/19
f 34/1/20 36/1/20 39/1/20
f 39/1/20 36/1/20 42/1/20
f 55/1/21 60/1/21 64/1/21
f 64/1/21 60/1/21 68/1/21
f 26/1/22 32/1/22 45/1/22
f 45/1/22 32/1/22 48/1/22
f 39/1/22 42/1/22 55/1/22
f 55/1/22 42/1/22 60/1/22
f 2/1/23 4/1/23 7/1/23
f 7/1/23 4/1/23 11/1/23
f 71/1/21 74/1/21 76/1/21
f 76/1/21 74/1/21 78/1/21
f 8/1/24 12/1/24 71/1/24
f 71/1/24 12/1/24 74/1/24
f 22/1/25 43/1/25 21/1/25
f 49/1/25 43/1/25 22/1/25
f 38/1/25 51/1/25 37/1/25
f 52/1/25 51/1/25 38/1/25
f 14/1/25 22/1/25 13/1/25
f 14/1/25 49/1/25 22/1/25
f 23/1/25 49/1/25 14/1/25
f 53/1/25 61/1/25 52/1/25
f 53/1/25 52/1/25 38/1/25
f 53/1/25 38/1/25 33/1/25
f 62/1/25 61/1/25 53/1/25
f 24/1/25 49/1/25 23/1/25
f 54/1/25 53/1/25 33/1/25
f 16/1/25 24/1/25 15/1/25
f 25/1/25 49/1/25 24/1/25
f 25/1/25 24/1/25 16/1/25
f 44/1/25 49/1/25 25/1/25
f 34/1/25 63/1/25 54/1/25
f 34/1/25 54/1/25 33/1/25
f 39/1/25 63/1/25 34/1/25
f 55/1/25 63/1/25 39/1/25
f 64/1/25 63/1/25 55/1/25
f 26/1/25 44/1/25 25/1/25
f 45/1/25 44/1/25 26/1/25
f 6/1/25 69/1/25 5/1/25
f 70/1/25 69/1/25 6/1/25
f 27/1/25 6/1/25 1/1/25
f 27/1/25 75/1/25 70/1/25
f 27/1/25 70/1/25 6/1/25
f 46/1/25 75/1/25 27/1/25
f 40/1/25 75/1/25 46/1/25
f 56/1/25 75/1/25 40/1/25
f 17/1/25 27/1/25 1/1/25
f 28/1/26 27/1/25 17/1/25
f 50/1/25 40/1/25 46/1/25
f 35/1/25 40/1/25 50/1/25
f 41/1/25 40/1/25 35/1/25
f 57/1/25 75/1/25 56/1/25
f 65/1/25 75/1/25 57/1/25
f 18/1/25 17/1/25 1/1/25
f 66/1/25 75/1/25 65/1/25
f 19/1/25 29/1/25 18/1/25
f 19/1/25 18/1/25 1/1/25
f 30/1/25 29/1/25 19/1/25
f 59/1/25 66/1/25 58/1/25
f 67/1/25 75/1/25 66/1/25
f 67/1/25 66/1/25 59/1/25
f 20/1/25 19/1/25 1/1/25
f 47/1/25 35/1/25 50/1/25
f 36/1/25 35/1/25 47/1/25
f 68/1/25 75/1/25 67/1/25
f 32/1/25 31/1/27 20/1/25
f 48/1/25 42/1/25 36/1/25
f 48/1/25 36/1/25 47/1/25
f 2/1/25 32/1/25 20/1/25
f 2/1/25 60/1/25 42/1/25
f 2/1/25 42/1/25 48/1/25
f 2/1/25 20/1/25 1/1/25
f 2/1/25 48/1/25 32/1/25
f 7/1/25 60/1/25 2/1/25
f 71/1/25 68/1/25 60/1/25
f 71/1/25 60/1/25 7/1/25
f 71/1/25 75/1/25 68/1/25
f 76/1/25 75/1/25 71/1/25
f 8/1/25 71/1/25 7/1/25
f 9/1/26 72/1/26 10/1/26
f 10/1/26 72/1/26 73/1/26
f 3/1/26 10/1/26 4/1/26
f 73/1/26 77/1/26 4/1/26
f 10/1/26 73/1/26 4/1/26
f 4/1/26 77/1/26 11/1/26
f 11/1/26 77/1/26 74/1/26
f 74/1/26 77/1/26 78/1/26
f 11/1/26 74/1/26 12/1/26
