# Blender 5.1.2
# www.blender.org
mtllib Rock1.mtl
o Rock1
v -0.922924 -0.107220 0.432382
v -1.294510 -0.107220 0.726568
v -0.922924 0.077171 0.432382
v -1.294510 0.077171 0.726568
v -1.627855 -0.107220 0.257097
v -1.312680 -0.107220 -0.582108
v -1.627855 0.041526 0.257097
v -1.312680 0.038814 -0.582108
v -0.709153 -0.107220 -0.785363
v -0.709153 0.038814 -0.785364
v -0.422662 -0.107220 -0.391698
v -0.570160 -0.107220 0.308216
v -0.422662 0.070139 -0.391698
v -0.570160 0.070139 0.308216
v -0.709153 0.036709 0.257097
v -1.294510 0.036709 0.257097
v -0.709153 0.038597 -0.391699
v -1.294509 0.038597 -0.391699
v -0.709153 -0.107220 -0.391698
v -1.294510 -0.107220 -0.391698
v -0.709153 -0.107220 0.257097
v -1.294510 -0.107220 0.257097
v -1.751005 0.016156 0.537136
v -1.751005 -0.107220 0.537136
v -0.594218 -0.107220 -0.663128
v -0.594218 0.038814 -0.663128
v -0.422662 0.044769 0.537136
v -0.422662 -0.107220 0.537136
v 0.508833 -0.107220 1.263038
v 0.291645 -0.107220 0.719464
v 0.508833 0.027969 1.263038
v 0.291645 0.027969 0.719464
v 0.426338 -0.107220 0.364468
v 1.291662 -0.107220 0.052153
v 0.426338 0.045755 0.364467
v 1.291662 0.038814 0.052153
v 1.632531 -0.107220 0.905278
v 1.632531 0.038814 0.905278
v 1.475990 -0.107220 1.242909
v 0.873505 -0.107220 1.483634
v 1.475990 0.070139 1.242909
v 0.873505 0.070139 1.483634
v 0.767207 0.065803 1.217592
v 0.550020 0.129053 0.674019
v 1.369692 0.065803 0.976867
v 1.152505 0.129053 0.433294
v 1.369692 -0.107220 0.976867
v 1.152505 -0.107220 0.433294
v 0.767207 -0.107220 1.217592
v 0.550020 -0.107220 0.674019
v 0.298666 0.020385 0.444714
v 0.298666 -0.107220 0.444714
v 1.636069 -0.107220 1.245816
v 1.636069 0.038815 1.245816
v 0.791040 0.044769 1.458794
v 0.791040 -0.107220 1.458794
v 0.310103 -0.107220 -0.158578
v -0.033473 -0.107220 -0.632496
v 0.310103 0.077171 -0.158578
v -0.033473 0.077171 -0.632496
v 0.150964 -0.107220 -1.177936
v 0.994964 -0.107220 -1.789810
v 0.150964 0.134565 -1.177936
v 0.994964 0.038814 -1.789810
v 1.534197 -0.107220 -1.046007
v 1.534197 0.038814 -1.046008
v 1.383633 -0.107220 -0.582995
v 0.858354 -0.107220 -0.202184
v 1.383633 0.070139 -0.582995
v 0.858354 0.070139 -0.202184
v 0.690197 0.220305 -0.434134
v 0.346621 0.220305 -0.908052
v 1.215477 0.220305 -0.814945
v 0.871901 0.220305 -1.288864
v 1.215477 -0.107220 -0.814945
v 0.871901 -0.107220 -1.288864
v 0.690197 -0.107220 -0.434134
v 0.346621 -0.107220 -0.908052
v -0.148045 0.109195 -1.113272
v -0.148045 -0.107220 -1.113272
v 1.702353 -0.107220 -0.814058
v 1.702353 0.038814 -0.814058
v 0.631628 0.044769 -0.037815
v 0.631628 -0.107220 -0.037815
vn 0.6207 -0.0000 0.7840
vn -0.9362 -0.0000 -0.3516
vn -0.3192 -0.0000 -0.9477
vn 0.9785 -0.0000 0.2062
vn 0.0001 1.0000 0.0018
vn -0.0000 1.0000 0.0029
vn -0.0000 -1.0000 -0.0000
vn -0.3833 -0.0000 0.9236
vn 0.8453 -0.0000 -0.5343
vn -0.0021 1.0000 0.0026
vn 0.0144 0.9999 0.0022
vn -0.0185 0.9998 0.0029
vn 0.0001 1.0000 0.0007
vn 0.8406 -0.0000 -0.5416
vn -0.0416 0.9991 0.0055
vn -0.0971 0.9916 -0.0854
vn 0.0144 0.9952 0.0965
vn -0.4008 0.7234 -0.5622
vn -0.6165 0.1163 -0.7787
vn -0.4009 0.7234 -0.5621
vn -0.0000 0.9963 -0.0859
vn -0.9154 -0.0000 -0.4026
vn -0.1258 0.9870 0.1003
vn -0.3288 0.8919 0.3106
vn -0.1258 0.9870 0.1002
vn 0.0891 0.9888 -0.1196
vn 0.1163 0.9798 -0.1626
vn 0.3330 0.8894 -0.3131
vn -0.1094 0.9940 0.0006
vn 0.7285 -0.0000 -0.6850
vn -0.1725 0.9850 -0.0101
vn -0.1094 0.9937 -0.0231
vn -0.2348 0.9720 0.0028
vn -0.2050 -0.0000 0.9788
vn -0.9286 -0.0000 0.3710
vn -0.3395 -0.0000 -0.9406
vn 0.9286 -0.0000 -0.3710
vn 0.3710 -0.0000 0.9286
vn 0.0399 0.9942 0.0998
vn -0.9997 -0.0000 -0.0255
vn -0.0182 -0.0000 0.9998
vn -0.0908 0.9644 -0.2483
vn -0.0755 0.9701 -0.2308
vn -0.1061 0.9582 -0.2656
vn 0.2086 0.9777 -0.0252
vn 0.2937 0.9487 -0.1174
vn 0.2086 0.9777 -0.0253
vn 0.1201 0.9905 0.0673
vn -0.2884 -0.0000 0.9575
vn -0.3251 0.9414 -0.0897
vn -0.3695 0.9286 -0.0351
vn -0.2791 0.9494 -0.1439
vn -0.2288 0.9625 0.1454
vn -0.1354 0.9893 0.0541
vn -0.2289 0.9625 0.1454
vn -0.3182 0.9187 0.2340
vn -0.5321 -0.0000 -0.8467
vn -0.2264 0.9682 0.1068
vn -0.3233 0.9394 0.1139
vn -0.1272 0.9870 0.0986
vn 0.1403 0.9897 -0.0268
vn 0.1920 0.9814 -0.0020
vn 0.0882 0.9948 -0.0514
vn 0.9999 -0.0000 -0.0104
vn -0.0056 0.9999 -0.0141
vn -0.5700 -0.0000 0.8217
vn -0.8096 -0.0000 0.5870
vn -0.5870 -0.0000 -0.8096
vn 0.8096 -0.0000 -0.5870
vn 0.5870 -0.0000 0.8096
vn -0.0000 1.0000 -0.0000
vn -0.9728 -0.0000 0.2318
vn -0.1788 0.9294 -0.3228
vn -0.0739 0.9647 -0.2529
vn -0.2806 0.8783 -0.3871
vn 0.3390 0.9081 -0.2457
vn -0.2014 0.9785 -0.0443
vn -0.2674 0.9551 0.1273
vn -0.1285 0.9682 -0.2144
vn -0.2361 0.9565 0.1712
vn -0.2114 -0.0000 -0.9774
vn 0.0757 0.9075 0.4131
vn 0.2068 0.8829 0.4216
vn 0.0756 0.9075 0.4131
vn -0.0569 0.9159 0.3973
vn 0.3239 0.9452 0.0414
vn 0.0643 0.9968 -0.0465
vn 0.5583 0.8200 0.1261
vn 0.2725 0.8857 0.3759
vn -0.3516 -0.0000 0.9361
vt 0.473942 1.000000
vt 0.000000 1.000000
vt 0.000000 0.815609
vt 0.473942 0.815609
vt 0.896438 1.000000
vt 0.000000 0.997289
vt 0.000000 0.851254
vt 0.896438 0.851254
vt 0.636834 1.000000
vt 0.000000 0.853965
vt 0.636834 0.853965
vt 0.715287 1.000000
vt 0.000000 0.822641
vt 0.715287 0.822641
vt 0.000000 0.351201
vt 0.585357 0.351201
vt 0.585357 0.999999
vt 0.585357 1.000000
vt 0.315176 0.160795
vt 0.333345 0.351204
vt 0.333345 1.000000
vt 0.000000 0.938985
vt 0.494239 0.815609
vt 0.494239 1.000000
vt 0.321101 0.822641
vt 0.321101 0.968676
vt 0.018163 0.160792
vt 0.333234 0.999969
vt 0.000000 0.809591
vt 0.603527 0.606335
vt 0.603527 1.000000
vt 0.018170 1.000000
vt 0.000000 0.606335
vt 0.603527 0.809591
vt 0.000000 1.000000
vt 0.371586 0.705814
vt 0.000000 0.530529
vt 0.585357 0.530529
vt 0.000000 0.974630
vt 0.272324 0.822641
vt 0.272324 1.000000
vt 0.456151 0.817975
vt 0.000585 1.000000
vt 0.000000 0.536622
vt 0.333380 0.536623
vt 0.213771 0.706901
vt 0.000000 0.528789
vt 0.585357 0.528788
vt 0.456495 1.000000
vt 0.000000 0.810568
vt 0.123150 0.530529
vt 0.456495 0.530529
vt 0.305921 0.851254
vt 0.305921 0.974630
vt 0.149180 0.774162
vt 0.284612 0.717936
vt 0.501152 0.894489
vt 0.114935 0.728571
vt 0.286491 1.000000
vt 0.173954 0.728577
vt 0.288199 0.606335
vt 0.288222 1.000000
vt 0.167784 0.853965
vt 0.167784 1.000000
vt 0.286491 0.300086
vt 0.138993 1.000000
vt 0.000000 0.948881
vt 0.000000 0.300086
vt 0.143374 1.000000
vt 0.285887 0.300082
vt 0.286330 0.948881
vt 0.352764 0.771080
vt 0.500262 1.000000
vt 0.000000 0.895246
vt 0.213771 0.719961
vt 0.511112 0.815609
vt 0.511112 0.967598
vt 0.000000 0.864811
vt 0.585357 0.864811
vt 0.919959 1.000000
vt 0.000000 0.993059
vt 0.000000 0.847025
vt 0.919959 0.847025
vt 0.918702 1.000000
vt 0.918702 0.853965
vt 0.648796 1.000000
vt 0.648796 0.822641
vt 0.588764 0.351204
vt 0.588764 1.000000
vt 0.031042 0.080565
vt 0.000000 0.992417
vt 0.274840 0.864811
vt 0.274840 1.000000
vt 0.160106 0.822641
vt 0.160106 0.968676
vt 0.315484 0.080564
vt 0.343245 1.000000
vt 0.000000 0.729360
vt 0.918702 0.729360
vt 0.887660 1.000000
vt 0.302303 1.000000
vt -0.000000 0.728342
vt 0.913385 0.719805
vt 0.622526 1.000000
vt 0.033762 1.000000
vt 0.053664 0.743206
vt 0.639021 0.743206
vt 0.086124 0.822641
vt 0.086124 1.000000
vt 0.323408 0.882775
vt 0.076569 1.000000
vt -0.000000 0.731198
vt 0.343595 0.731198
vt 0.631258 1.000000
vt 0.049289 0.975955
vt 0.000000 0.722088
vt 0.588764 0.722088
vt 0.279681 1.000000
vt 0.027148 0.891539
vt 0.000000 0.743206
vt 0.333345 0.743206
vt 0.150796 0.847025
vt 0.150796 0.974630
vt 0.052469 0.808261
vt 0.000000 0.737416
vt 0.286007 0.740078
vt 0.337916 1.000000
vt 0.348586 0.852425
vt 0.286491 1.000000
vt 0.031042 0.729360
vt 0.061614 1.000000
vt -0.000000 0.849923
vt 0.317508 0.727971
vt 0.348138 1.000000
vt 0.340557 0.853965
vt 0.340557 1.000000
vt 0.286491 0.351204
vt 0.286524 0.351204
vt 0.286524 1.000000
vt 0.340155 0.743206
vt 0.286491 0.810569
vt 0.343456 0.848011
vt 0.000000 0.983200
vt 0.000000 0.848011
vt 0.585357 0.815609
vt 1.042461 1.000000
vt 0.000000 0.904249
vt 0.000000 0.758215
vt 1.042461 0.758215
vt -0.000000 -0.042461
vt 0.000000 0.783584
vt 0.494239 0.783584
vt 0.494239 0.967976
vt 0.393665 0.822641
vt 0.393665 0.968676
vt 0.379550 -0.042461
vt 0.333764 1.000000
vt 0.918702 0.606335
vt 0.000000 0.566513
vt 0.918702 0.566513
vt 0.280039 0.822641
vt 0.280039 1.000000
vt 0.469783 0.813769
vt 0.035654 1.000000
vt 0.000000 0.533663
vt 0.344195 0.533663
vt -0.000000 0.509195
vt 0.585357 0.509195
vt 0.305921 0.758215
vt 0.000000 0.802720
vt 0.007616 0.527064
vt 0.325972 0.511079
vt 0.283006 1.000000
vt 0.286491 0.606335
vt 0.014542 1.000000
vt -0.000000 0.625059
vt 0.253747 0.574780
vt 0.338003 1.000000
vt 0.286492 0.853965
vt 0.323461 0.351204
vt 0.323461 1.000000
vt 0.286491 0.530529
vt 0.343456 0.815609
vt 0.343456 0.967598
s 1
usemtl Rock2
f 3/1/1 4/2/1 2/3/1 1/4/1
f 7/5/2 8/6/2 6/7/2 5/8/2
f 8/9/3 10/2/3 9/10/3 6/11/3
f 13/12/4 14/2/4 12/13/4 11/14/4
f 17/15/5 18/16/5 16/17/6 15/2/6
f 21/18/7 22/2/7 20/15/7 19/16/7
f 5/2/7 6/19/7 20/20/7 22/21/7
f 23/22/8 24/3/8 2/23/8 4/24/8
f 25/25/9 26/26/9 13/2/9 11/13/9
f 8/27/10 7/28/11 16/2/10 18/15/12
f 6/29/7 9/30/7 19/31/7 20/32/7
f 10/33/13 8/34/13 18/18/5 17/35/5
f 1/36/7 2/2/7 22/37/7 21/38/7
f 27/39/14 28/13/14 12/40/14 14/41/14
f 23/42/15 4/43/16 16/44/15 7/45/17
f 4/18/18 3/46/19 15/47/20 16/48/21
f 2/49/7 24/50/7 5/51/7 22/52/7
f 24/53/22 23/54/22 7/2/22 5/7/22
f 27/2/23 14/55/24 15/56/25 3/57/26
f 25/58/7 11/59/7 19/2/7 9/33/7
f 13/2/27 26/60/28 10/61/27 17/62/29
f 26/2/30 25/10/30 9/63/30 10/64/30
f 11/65/7 12/66/7 21/67/7 19/68/7
f 14/69/31 13/68/32 17/70/31 15/71/33
f 12/72/7 28/73/7 1/74/7 21/75/7
f 28/76/34 27/77/34 3/2/34 1/3/34
f 31/18/35 32/2/35 30/78/35 29/79/35
f 35/80/36 36/81/36 34/82/36 33/83/36
f 36/84/37 38/2/37 37/10/37 34/85/37
f 41/86/38 42/2/38 40/13/38 39/87/38
f 45/15/39 46/88/39 44/89/39 43/2/39
f 49/18/7 50/35/7 48/15/7 47/16/7
f 33/2/7 34/90/7 48/20/7 50/21/7
f 51/91/40 52/78/40 30/92/40 32/93/40
f 53/94/41 54/95/41 41/2/41 39/13/41
f 36/96/42 35/97/43 44/35/42 46/15/44
f 34/98/7 37/99/7 47/100/7 48/101/7
f 38/102/45 36/103/46 46/104/47 45/105/48
f 29/17/7 30/2/7 50/106/7 49/107/7
f 55/39/49 56/13/49 40/108/49 42/109/49
f 51/110/50 32/111/51 44/112/50 35/113/52
f 32/114/53 31/115/54 43/116/55 44/117/56
f 30/118/7 52/119/7 33/120/7 50/121/7
f 52/122/57 51/123/57 35/2/57 33/82/57
f 55/124/58 42/125/59 43/126/58 31/127/60
f 53/128/7 39/129/7 47/2/7 37/130/7
f 41/131/61 54/132/62 38/133/61 45/134/63
f 54/2/64 53/10/64 37/135/64 38/136/64
f 39/137/7 40/129/7 49/2/7 47/15/7
f 42/2/65 41/15/65 45/138/65 43/139/65
f 40/140/7 56/141/7 29/35/7 49/106/7
f 56/142/66 55/97/66 31/143/66 29/144/66
f 59/18/67 60/2/67 58/3/67 57/145/67
f 63/146/68 64/147/68 62/148/68 61/149/68
f 64/84/69 66/2/69 65/10/69 62/85/69
f 69/86/70 70/2/70 68/13/70 67/87/70
f 73/15/71 74/16/71 72/17/71 71/2/71
f 77/17/7 78/35/7 76/15/7 75/16/7
f 61/2/7 62/150/7 76/20/7 78/21/7
f 79/2/72 80/151/72 58/152/72 60/153/72
f 81/154/70 82/155/70 69/2/70 67/13/70
f 64/156/73 63/157/74 72/2/73 74/15/75
f 62/33/7 65/158/7 75/84/7 76/21/7
f 66/159/76 64/160/76 74/18/76 73/2/76
f 57/18/7 58/2/7 78/37/7 77/38/7
f 83/39/70 84/13/70 68/161/70 70/162/70
f 79/163/77 60/164/78 72/165/77 63/166/79
f 60/17/80 59/2/80 71/167/80 72/168/80
f 58/49/7 80/50/7 61/51/7 78/52/7
f 80/169/81 79/54/81 63/2/81 61/148/81
f 83/170/82 70/171/83 71/172/84 59/173/85
f 81/174/7 67/59/7 75/2/7 65/33/7
f 69/175/86 82/176/87 66/177/86 73/178/88
f 82/2/69 81/10/69 65/179/69 66/59/69
f 67/137/7 68/59/7 77/2/7 75/15/7
f 70/35/89 69/15/89 73/180/89 71/181/89
f 68/182/7 84/141/7 57/2/7 77/37/7
f 84/183/90 83/184/90 59/2/90 57/3/90
