# Blender 5.1.2
# www.blender.org
mtllib Rock2.mtl
o Rock2
v 0.319098 -0.025662 0.866610
v -0.395249 -0.025662 1.331402
v 0.319098 0.218674 0.866610
v -0.395249 0.218674 1.331401
v -1.281850 -0.025662 0.036562
v -0.653735 -0.025662 -0.690468
v -1.281850 0.183028 0.036562
v -0.653735 0.180317 -0.690468
v -0.014392 -0.025662 -0.905785
v -0.014392 0.180317 -0.905785
v 1.768473 -0.025662 -0.426849
v 1.352619 -0.025662 0.613806
v 1.815753 0.211641 -0.290982
v 1.399899 0.211641 0.749671
v 0.501016 1.848048 0.493819
v -0.085563 1.848027 0.500805
v 0.495853 1.849917 -0.148448
v -0.086607 1.849917 -0.148372
v 0.500000 -0.025662 -0.148796
v -0.085357 -0.025662 -0.148796
v 0.500000 -0.025662 0.500000
v -0.085357 -0.025662 0.500000
v -0.418702 -0.025662 0.500000
v -0.103527 -0.025662 -0.339205
v -0.851744 0.157658 1.141970
v -0.851744 -0.025662 1.141970
v 1.100278 -0.025662 -0.964774
v 1.100278 0.180317 -0.964774
v -0.104381 1.702968 -0.339163
v -0.420806 1.501657 0.508504
v 0.500000 -0.025662 -0.542461
v 0.498502 1.702968 -0.542410
v 0.819359 0.186271 0.971362
v 0.819360 -0.025662 0.971363
v -0.544343 1.475615 0.796994
v -0.083878 1.538115 0.970509
v 0.303082 1.536905 1.078553
v -1.403891 -0.025662 0.314081
v -1.403891 0.157658 0.314081
v 0.810709 1.504147 1.187667
v 1.132018 1.530647 0.462599
v 1.537515 1.530085 -0.573696
v 0.880295 1.498919 -0.760916
v 0.577464 0.180317 -1.323297
v 0.577464 -0.025662 -1.323297
v 0.140097 1.498919 -0.704952
v -0.499081 1.498919 -0.489896
v 0.360476 1.498919 -1.119489
v -0.988460 1.501656 0.197648
v -1.114643 1.475571 0.482696
v 0.577464 1.074313 -1.323297
v 1.098781 1.074313 -0.964747
v 1.588947 1.105558 -0.438008
v -1.110658 1.051311 0.475413
v -0.986547 1.077038 0.194131
v -0.499164 1.074313 -0.489766
v 0.140097 1.074313 -0.704952
v 0.299424 1.112486 1.085055
v -0.394525 1.113087 1.331936
v 1.178270 1.105839 0.600471
v 0.803353 1.079906 1.191974
v -0.853016 1.051332 1.150440
vn 0.5454 -0.0000 0.8382
vn -0.7567 -0.0000 -0.6538
vn -0.3192 -0.0000 -0.9477
vn 0.8629 -0.3694 0.3448
vn -0.0000 1.0000 0.0029
vn -0.0000 -1.0000 -0.0000
vn -0.3754 -0.0046 0.9268
vn -0.3833 -0.0000 0.9236
vn 0.6496 0.1548 -0.7443
vn 0.6856 -0.0000 -0.7280
vn 0.5971 0.3056 -0.7417
vn -0.9027 0.4269 -0.0535
vn -0.7159 0.6906 -0.1032
vn -0.9027 0.4270 -0.0535
vn -0.9931 0.1176 0.0019
vn -0.1004 0.8742 -0.4751
vn -0.1977 0.7855 -0.5865
vn -0.0001 0.9369 -0.3495
vn 0.4599 -0.2701 0.8459
vn 0.5569 -0.0000 0.8306
vn 0.3249 -0.5178 0.7914
vn -0.5584 0.8142 0.1587
vn -0.3057 0.7942 0.5251
vn -0.5584 0.8142 0.1588
vn -0.7004 0.6725 -0.2392
vn -0.0563 0.8672 0.4948
vn -0.1186 0.8927 0.4348
vn 0.0065 0.8347 0.5507
vn -0.9154 -0.0000 -0.4026
vn 0.2104 0.9100 0.3571
vn 0.4464 0.8649 0.2295
vn -0.0412 0.8878 0.4584
vn 0.1329 0.8808 -0.4546
vn 0.1199 0.8214 -0.5576
vn 0.1329 0.8808 -0.4545
vn 0.1439 0.9275 -0.3450
vn -0.5764 -0.0000 -0.8171
vn 0.3962 0.9158 0.0660
vn 0.3400 0.9310 0.1325
vn 0.4493 0.8934 -0.0010
vn -0.2050 -0.0000 0.9788
vn -0.1935 0.7961 -0.5734
vn -0.1927 0.7965 -0.5731
vn -0.0784 0.9456 -0.3156
vn -0.4070 0.8874 -0.2164
vn 0.2597 0.8892 -0.3765
vn 0.5656 -0.0000 -0.8247
vn 0.5658 0.0002 -0.8245
vn -0.2411 0.9704 0.0162
vn 0.0015 1.0000 -0.0029
vn -0.4693 0.8824 0.0344
vn -0.0402 0.9965 0.0731
vn -0.8319 -0.0000 0.5549
vn 0.5661 0.0005 -0.8243
vn 0.5667 0.0010 -0.8239
vn 0.7076 0.0369 -0.7057
vn 0.7280 0.0726 -0.6817
vn 0.6855 0.0012 -0.7280
vn -0.8691 0.3487 -0.3509
vn -0.8688 0.3489 -0.3513
vn -0.8693 0.3486 -0.3505
vn -0.3082 0.2589 -0.9154
vn 0.4403 -0.0962 0.8927
vn 0.3352 -0.0009 0.9421
vn 0.5355 -0.1893 0.8230
vn 0.6323 0.0646 0.7720
vn 0.8413 -0.1153 0.5282
vn 0.3377 0.2357 0.9113
vn -0.3751 -0.0048 0.9270
vn -0.3670 -0.0093 0.9302
vn 0.8915 0.2823 0.3544
vn 0.8927 0.2801 0.3530
vn 0.8903 0.2844 0.3557
vn -0.8819 0.1160 0.4569
vn -0.9080 0.2353 0.3466
vn -0.8319 -0.0064 0.5548
vn -0.7020 0.1396 -0.6984
vn -0.8164 -0.0000 -0.5775
vn -0.5546 0.2725 -0.7862
vn -0.2150 -0.2370 0.9474
vn -0.2163 -0.2363 0.9473
vn -0.2138 -0.2378 0.9475
vn -0.7492 0.3029 -0.5890
vn -0.7855 0.2617 -0.5608
vn -0.7493 0.3029 -0.5890
vn -0.7102 0.3429 -0.6148
vn 0.4677 0.5658 -0.6790
vn 0.4680 0.5665 -0.6783
vn 0.4675 0.5652 -0.6797
vn 0.4883 0.1784 -0.8543
vn 0.2758 -0.2622 -0.9248
vn 0.5815 0.5753 -0.5752
vn -0.9146 -0.0012 -0.4043
vn -0.9144 -0.0007 -0.4049
vn -0.9149 -0.0017 -0.4038
vn -0.3190 -0.0001 -0.9478
vn -0.3194 0.0001 -0.9476
vn 0.0834 0.4066 0.9098
vn -0.1867 0.7121 0.6768
vn 0.3352 0.0116 0.9421
vn 0.8733 0.1250 0.4708
vn 0.9143 -0.0117 0.4048
vn 0.8107 0.2587 0.5252
vn -0.3280 0.7368 0.5912
vn -0.3246 0.7335 0.5971
vn -0.3314 0.7400 0.5853
vn 0.9079 0.2194 0.3571
vn 0.9096 0.2145 0.3558
vn 0.9062 0.2243 0.3583
vn -0.6575 0.3880 0.6459
vn -0.4825 -0.0196 0.8757
vn -0.6684 0.6987 0.2551
vn -0.8457 -0.1111 -0.5219
vn -0.8613 -0.2203 -0.4579
vn -0.2079 0.0152 0.9780
vn -0.2091 0.0168 0.9778
vn -0.2067 0.0136 0.9783
vn -0.8145 0.0006 -0.5801
vn -0.8147 -0.0000 -0.5799
vn -0.8144 0.0012 -0.5804
vt 0.852246 1.000000
vt 0.000000 1.000000
vt 0.000000 0.755665
vt 0.852246 0.755665
vt 0.960781 1.000000
vt 0.000000 0.997289
vt 0.000000 0.791310
vt 0.960781 0.791310
vt 0.674627 1.000000
vt 0.000000 0.794022
vt 0.674627 0.794022
vt 1.120667 1.000000
vt 0.000000 1.000000
vt 0.108621 0.744640
vt 1.229289 0.744640
vt 0.005163 0.350744
vt 0.587623 0.350820
vt 0.586579 1.000000
vt 0.000000 0.993013
vt 0.585357 1.000000
vt 0.000000 0.351204
vt 0.585357 0.351204
vt 0.315176 0.160795
vt 0.333345 0.351204
vt 0.333345 1.000000
vt 0.000000 0.938985
vt 0.494239 0.755665
vt 0.494238 1.000000
vt 0.979845 0.750768
vt 0.979845 0.946887
vt 0.122029 0.750768
vt 0.000000 0.852025
vt 0.847047 0.614704
vt 0.840003 0.998097
vt 0.190826 1.000000
vt 0.000000 0.809591
vt 0.603527 0.606335
vt 0.603527 1.000000
vt 0.018170 1.000000
vt 0.000000 0.579443
vt 0.602884 0.769884
vt 0.002642 0.999918
vt 0.714346 0.535208
vt 0.309892 0.168598
vt 0.895249 0.168598
vt 0.000000 0.970344
vt 0.000000 0.789041
vt 0.629091 0.722609
vt 0.621239 1.000000
vt 0.428572 0.496786
vt 0.443950 0.873814
vt 0.115637 0.531975
vt 0.582452 0.910816
vt 0.195494 1.000000
vt 0.000000 0.339727
vt 0.586560 0.348097
vt 0.456495 1.000000
vt 0.000000 0.810568
vt 0.433042 0.168598
vt 0.766387 0.168598
vt 0.303169 0.791310
vt 0.303169 0.974630
vt 0.322193 1.000000
vt 0.000000 0.350311
vt 0.615590 0.219282
vt 0.827753 0.877225
vt 0.600278 0.184022
vt 1.268473 0.721947
vt 0.000000 0.606335
vt 0.000000 0.546937
vt 0.644666 0.325815
vt 1.053235 0.580270
vt 1.078389 1.000000
vt 0.724299 0.794022
vt 0.724299 1.000000
vt 1.268473 -0.040654
vt 0.852619 1.000000
vt 0.000000 0.886194
vt 0.000000 0.237399
vt 0.362511 0.968780
vt 0.000000 -0.067330
vt 1.074297 0.357733
vt 1.068844 1.000000
vt 1.033522 0.642443
vt 0.500262 1.000000
vt 0.000000 0.895247
vt 0.180902 0.528637
vt 0.511112 0.755665
vt 0.511111 0.967598
vt 0.396427 0.553548
vt 1.017564 0.816198
vt 0.585868 1.000000
vt 0.000000 0.751934
vt 0.498968 0.377070
vt 0.710508 0.737828
vt 0.423690 1.000000
vt 0.000000 0.764133
vt 0.000000 0.636676
vt 0.591856 0.219164
vt 1.114669 0.577687
vt 0.514391 1.000000
vt 0.633935 0.794022
vt 0.633935 1.000000
vt 0.000000 0.648737
vt 0.639343 0.433420
vt 1.153735 0.796744
vt 0.550208 1.000000
vt 0.444294 0.001010
vt 0.875079 0.680166
vt 0.373899 1.000000
vt 0.000000 0.151832
vt 0.000000 0.536562
vt 0.628115 -0.190468
vt 1.178323 0.160795
vt 0.863148 1.000000
vt 0.000000 0.172111
vt 0.122042 -0.105408
vt 0.985189 0.358030
vt 0.552148 1.000000
vt 0.567200 0.399057
vt 0.694326 0.684878
vt 0.124481 1.000000
vt 0.000000 0.710741
vt 0.000000 0.816680
vt 0.995121 0.816680
vt 0.995121 1.000000
vt 0.001219 1.000000
vt 0.000000 0.106003
vt 0.633935 0.106003
vt 0.983873 0.968700
vt 0.265913 1.000000
vt 0.982802 0.074702
vt 0.343021 0.972420
vt 0.035735 1.000000
vt 0.000000 0.046057
vt 0.303022 0.018990
vt 0.674506 0.999975
vt 0.082309 0.074443
vt 0.756936 0.074443
vt 0.716621 1.000000
vt 0.000316 0.968111
vt 0.000000 0.089719
vt 0.852246 0.089719
vt 0.557087 1.000000
vt 0.000000 0.874756
vt 0.091665 0.053764
vt 0.713063 0.079869
vt 0.495113 1.000000
vt 0.002071 0.938246
vt 0.000000 0.044571
vt 0.494238 0.105586
vt 1.173033 1.000000
vt 0.056306 0.999131
vt 0.000000 0.067582
vt 1.120667 0.067582
vt 1.001462 1.000000
vt 0.296921 0.998947
vt 0.995121 0.106308
vt 0.713828 1.000000
vt 0.000000 0.931022
vt 0.000000 0.070849
vt 0.724299 0.070849
vt 0.543996 0.966779
vt 0.028892 1.000000
vt 0.000000 0.080125
vt 0.511050 0.046767
vt 0.886623 1.000000
vt 0.050566 0.970295
vt 0.000000 0.045386
vt 0.960781 0.048272
vt 0.696006 0.999510
vt 0.064511 1.000000
vt 0.000000 0.484820
vt 0.632716 0.484820
vt 0.727940 1.000000
vt 0.132634 0.832432
vt 0.000000 0.519070
vt 0.719189 0.480869
vt 0.315718 0.973916
vt 0.003990 1.000000
vt 0.000000 0.575381
vt 0.307446 0.549654
vt 0.674386 1.000000
vt 0.674506 0.575394
vt 0.742181 0.996117
vt 0.413823 1.000000
vt 0.000000 0.572271
vt 0.736556 0.571669
vt 0.790844 1.000000
vt 0.007614 0.942178
vt 0.000000 0.533371
vt 0.700278 0.560218
vt 0.000000 0.554222
vt 0.445793 0.336765
vt 0.900920 0.776146
vt 0.457233 1.000000
vt 1.224005 1.000000
vt 0.111208 0.999662
vt 0.000000 0.564659
vt 1.116734 0.564372
vt 0.000000 0.634462
vt 0.412150 0.230016
vt 0.702531 0.301880
vt 0.516335 1.000000
vt 0.757391 1.000000
vt 0.291696 1.000000
vt 0.757391 0.575394
vt 0.521453 0.967220
vt 0.002234 1.000000
vt 0.000000 0.575522
vt 0.515147 0.542940
vt 0.843925 1.000000
vt 0.000155 0.572657
vt 0.839951 0.575381
s 1
usemtl Rock2.001
f 3/1/1 4/2/1 2/3/1 1/4/1
f 7/5/2 8/6/2 6/7/2 5/8/2
f 8/9/3 10/2/3 9/10/3 6/11/3
f 13/12/4 14/13/4 12/14/4 11/15/4
f 17/16/5 18/17/5 16/18/5 15/19/5
f 21/20/6 22/2/6 20/21/6 19/22/6
f 23/2/6 24/23/6 20/24/6 22/25/6
f 25/26/7 26/3/8 2/27/8 4/28/8
f 27/29/9 28/30/10 13/2/9 11/31/11
f 29/32/12 30/33/13 16/34/14 18/35/15
f 24/36/6 31/37/6 19/38/6 20/39/6
f 32/40/16 29/41/17 18/20/16 17/42/18
f 1/43/6 2/2/6 22/44/6 21/45/6
f 33/46/19 34/47/20 12/48/19 14/49/21
f 35/50/22 36/51/23 16/2/24 30/52/25
f 36/53/26 37/54/27 15/55/26 16/56/28
f 2/57/6 26/58/6 23/59/6 22/60/6
f 38/61/29 39/62/29 7/2/29 5/7/29
f 40/63/30 41/64/31 15/65/30 37/66/32
f 27/67/6 11/68/6 19/2/6 31/69/6
f 42/70/33 43/71/34 32/72/35 17/73/36
f 44/2/37 45/10/37 9/74/37 10/75/37
f 11/76/6 12/77/6 21/78/6 19/79/6
f 41/80/38 42/81/39 17/82/38 15/83/40
f 12/84/6 34/85/6 1/86/6 21/87/6
f 34/88/41 33/89/41 3/2/41 1/3/41
f 46/90/42 47/91/43 29/92/42 32/93/42
f 48/94/44 46/95/45 32/96/44 43/97/46
f 9/98/6 45/99/6 27/100/6 31/101/6
f 45/102/47 44/103/48 28/2/48 27/10/47
f 6/104/6 9/105/6 31/106/6 24/107/6
f 47/108/49 49/109/50 30/110/49 29/111/51
f 5/112/6 6/113/6 24/114/6 23/115/6
f 38/116/6 5/117/6 23/118/6 26/119/6
f 49/120/52 50/121/52 35/122/52 30/123/52
f 39/2/53 38/124/53 26/125/53 25/126/53
f 51/103/54 52/127/55 28/128/48 44/129/48
f 52/130/56 53/131/57 13/128/56 28/132/58
f 54/133/59 55/134/60 7/135/59 39/136/61
f 56/137/62 57/2/62 10/138/62 8/139/62
f 58/140/63 59/141/64 4/142/63 3/143/65
f 60/144/66 61/145/67 33/146/66 14/147/68
f 59/148/69 62/149/70 25/150/7 4/151/8
f 53/152/71 60/153/72 14/154/71 13/155/73
f 62/156/74 54/157/75 39/128/74 25/158/76
f 57/159/77 51/160/78 44/161/77 10/162/79
f 61/163/80 58/164/81 3/165/80 33/166/82
f 55/167/83 56/168/84 8/169/85 7/170/86
f 48/171/87 43/172/88 52/173/87 51/174/89
f 43/175/90 42/176/91 53/177/90 52/178/92
f 50/179/93 49/180/94 55/181/93 54/182/95
f 47/183/96 46/13/96 57/181/96 56/184/97
f 37/185/98 36/186/99 59/187/98 58/188/100
f 41/189/101 40/190/102 61/191/101 60/192/103
f 36/193/104 35/194/105 62/195/104 59/196/106
f 42/197/107 41/198/108 60/199/107 53/200/109
f 35/201/110 50/202/111 54/203/110 62/204/112
f 46/205/113 48/206/114 51/181/113 57/207/78
f 40/208/115 37/209/116 58/210/115 61/211/117
f 49/212/118 47/6/119 56/213/118 55/214/120
