# Blender 5.1.2
# www.blender.org
mtllib Rock3.mtl
o Rock3
v 0.367281 -0.018721 1.323919
v -0.395249 -0.018721 1.331402
v 0.367281 0.225614 1.323919
v -0.395249 0.225614 1.331401
v -1.281850 -0.018721 0.036562
v -0.709493 -0.018721 -0.862208
v -1.281850 0.189968 0.036562
v -0.709493 0.187257 -0.862208
v -0.070150 -0.018721 -1.077525
v -0.070150 0.187257 -1.077525
v 1.975527 -0.018721 -0.434085
v 1.559674 -0.018721 0.606570
v 2.022807 0.218581 -0.298218
v 1.606953 0.218581 0.742435
v 0.501016 1.002550 0.493819
v -0.085563 1.321635 0.500806
v 0.495852 1.004418 -0.148448
v -0.086607 1.004418 -0.148372
v 0.500000 -0.018721 -0.148796
v -0.085357 -0.018721 -0.148796
v 0.500000 -0.018721 0.500000
v -0.085357 -0.018721 0.500000
v -0.418702 -0.018721 0.500000
v -0.103527 -0.018721 -0.339205
v -0.851744 0.164599 1.141970
v -0.851744 -0.018721 1.141970
v 1.355942 -0.018721 -1.112798
v 1.355942 0.187257 -1.112798
v -0.104381 1.121120 -0.339163
v -0.420806 1.238915 0.508504
v 0.500000 -0.018721 -0.542461
v 0.498502 1.121120 -0.542409
v 0.867543 0.193212 1.428671
v 0.867543 -0.018721 1.428672
v -0.544343 1.212873 0.796994
v -0.083878 1.275373 0.970509
v 0.303082 0.955057 1.078553
v -1.403891 -0.018721 0.314081
v -1.403891 0.164599 0.314081
v 0.672863 0.922299 1.210395
v 0.994172 0.948798 0.485327
v 1.458124 0.948236 -0.343549
v 0.800904 0.917070 -0.530769
v 0.833128 0.187257 -1.471321
v 0.833128 -0.018721 -1.471321
v 0.140097 0.917070 -0.704952
v -0.499081 0.917070 -0.489896
v 0.360476 0.917070 -1.119489
v -0.988460 1.238914 0.197649
v -1.114643 1.212829 0.482696
v 0.615984 0.492464 -1.106874
v 1.057910 0.492465 -0.518176
v 1.509556 0.523710 -0.207861
v -1.110658 0.469462 0.475413
v -0.986547 0.495189 0.194131
v -0.722177 0.492464 -0.600755
v -0.082917 0.492464 -0.815941
v 0.299424 0.530637 1.085055
v -0.371790 0.531238 1.116946
v 1.178270 0.523990 0.600471
v 0.803353 0.498057 1.191974
v -0.830281 0.469483 0.935450
vn 0.0098 -0.0000 1.0000
vn -0.8435 -0.0000 -0.5372
vn -0.3192 -0.0000 -0.9477
vn 0.8629 -0.3694 0.3448
vn 0.2526 0.9392 -0.2327
vn -0.0000 0.8985 -0.4390
vn 0.4778 0.8784 -0.0013
vn -0.0000 -1.0000 -0.0000
vn -0.3833 -0.0000 0.9236
vn 0.7515 0.1170 -0.6493
vn 0.7738 -0.0000 -0.6335
vn 0.7184 0.2323 -0.6558
vn 0.5807 0.7888 -0.2013
vn -0.2384 0.9458 -0.2204
vn 0.5807 0.7889 -0.2013
vn 0.9957 0.0829 -0.0421
vn 0.0857 0.9135 0.3978
vn 0.1695 0.8477 0.5027
vn -0.0000 0.9588 0.2840
vn 0.7080 -0.2498 0.6605
vn 0.7650 -0.0000 0.6441
vn 0.6045 -0.4831 0.6335
vn -0.2052 0.9778 0.0412
vn -0.1697 0.9807 0.0972
vn -0.2053 0.9778 0.0411
vn -0.2398 0.9707 -0.0151
vn 0.5281 0.8316 0.1720
vn 0.5726 0.7785 0.2570
vn 0.4769 0.8749 0.0845
vn -0.9154 -0.0000 -0.4026
vn 0.0812 0.9925 0.0917
vn 0.1094 0.9904 0.0847
vn 0.0529 0.9937 0.0986
vn 0.2461 0.8665 -0.4343
vn 0.2464 0.3130 -0.9172
vn 0.1130 0.9525 0.2829
vn -0.3996 -0.0000 -0.9167
vn 0.0870 0.9960 0.0190
vn 0.0655 0.9972 0.0360
vn 0.1084 0.9941 0.0020
vn -0.2050 -0.0000 0.9788
vn -0.1931 0.7963 -0.5732
vn -0.1928 0.7965 -0.5731
vn 0.0670 0.9355 -0.3468
vn -0.4071 0.8874 -0.2164
vn 0.5248 0.7553 -0.3926
vn 0.5656 -0.0000 -0.8247
vn -0.0992 0.9493 -0.2982
vn 0.1721 0.9335 -0.3144
vn -0.3633 0.8947 -0.2599
vn -0.0402 0.9965 0.0731
vn -0.0405 0.9965 0.0733
vn -0.8319 -0.0000 0.5549
vn 0.3500 0.8560 -0.3805
vn 0.3649 0.8899 -0.2739
vn 0.3307 0.8112 -0.4822
vn 0.3367 0.8318 -0.4414
vn 0.3420 0.7450 -0.5728
vn 0.3230 0.8979 -0.2990
vn -0.6437 0.7341 -0.2164
vn -0.6433 0.7343 -0.2167
vn -0.6440 0.7338 -0.2161
vn -0.2493 0.6241 -0.7405
vn 0.0236 0.5951 0.8033
vn 0.0394 0.5719 0.8193
vn 0.0077 0.6176 0.7865
vn 0.5708 0.6660 0.4802
vn 0.7120 0.5180 0.4740
vn 0.4057 0.7862 0.4662
vn -0.3768 0.5445 0.7494
vn -0.3719 0.5384 0.7562
vn -0.3817 0.5503 0.7426
vn 0.5230 0.8257 0.2115
vn 0.5193 0.8277 0.2126
vn 0.5267 0.8236 0.2105
vn -0.7572 0.4393 0.4834
vn -0.7495 0.4792 0.4568
vn -0.7631 0.3984 0.5089
vn -0.3064 0.6240 -0.7189
vn -0.2959 0.6382 -0.7107
vn -0.3168 0.6095 -0.7267
vn -0.1293 0.5922 0.7953
vn -0.1302 0.5932 0.7944
vn -0.1285 0.5912 0.7962
vn -0.7858 0.5072 -0.3540
vn -0.9242 0.2256 -0.3082
vn -0.5684 0.7378 -0.3641
vn 0.7256 0.4218 -0.5437
vn 0.7255 0.4230 -0.5428
vn 0.7256 0.4205 -0.5447
vn 0.4226 0.0175 -0.9061
vn 0.2759 -0.2621 -0.9248
vn 0.5270 0.2953 -0.7969
vn -0.9146 -0.0007 -0.4043
vn -0.9145 -0.0006 -0.4046
vn -0.9148 -0.0009 -0.4039
vn -0.2946 0.3834 -0.8753
vn -0.0192 0.1205 0.9925
vn -0.0855 0.2241 0.9708
vn 0.0474 0.0149 0.9988
vn 0.8189 0.3574 0.4491
vn 0.8809 0.2536 0.3996
vn 0.8189 0.3573 0.4491
vn 0.7430 0.4550 0.4909
vn -0.3788 0.3129 0.8710
vn -0.3718 0.3062 0.8763
vn -0.3857 0.3195 0.8655
vn 0.8468 0.3440 0.4056
vn 0.7773 0.4547 0.4348
vn 0.9011 0.2272 0.3693
vn -0.6696 0.2007 0.7151
vn -0.4827 -0.0111 0.8757
vn -0.7858 0.3914 0.4789
vn -0.6670 -0.0435 -0.7438
vn -0.7752 -0.4788 -0.4121
vn -0.3514 0.4051 -0.8440
vn -0.2748 -0.0454 0.9604
vn -0.3344 0.0173 0.9423
vn -0.2130 -0.1077 0.9711
vn -0.8203 0.2550 -0.5120
vn -0.5927 0.4802 -0.6467
vn -0.9489 -0.0009 -0.3156
vt 0.762567 1.000000
vt 0.000000 1.000000
vt 0.000000 0.755665
vt 0.762567 0.755665
vt 1.065541 1.000000
vt 0.000000 0.997289
vt 0.000000 0.791310
vt 1.065542 0.791310
vt 0.674627 1.000000
vt 0.000000 0.794022
vt 0.674627 0.794022
vt 1.120667 1.000000
vt 0.000000 1.000000
vt 0.108621 0.744640
vt 1.229289 0.744640
vt 0.005429 0.350746
vt 0.517088 0.350464
vt 0.667750 1.000000
vt 0.000000 0.993013
vt 0.585357 1.000000
vt 0.000000 0.351204
vt 0.585357 0.351204
vt 0.315176 0.160795
vt 0.333345 0.351204
vt 0.333345 1.000000
vt 0.000000 0.938985
vt 0.494239 0.755665
vt 0.494238 1.000000
vt 1.051207 0.756021
vt 1.051207 0.956364
vt 0.132220 0.756021
vt 0.840014 0.798792
vt 0.006466 0.945340
vt 0.648642 0.681688
vt 0.000000 0.809591
vt 0.603527 0.606335
vt 0.603527 1.000000
vt 0.018170 1.000000
vt 0.000000 0.589037
vt 0.602884 0.783920
vt 0.002645 0.999920
vt 0.762530 0.992517
vt 0.309892 0.168598
vt 0.895249 0.168598
vt 0.000000 0.971025
vt 0.000000 0.785464
vt 1.068281 0.728972
vt 1.008688 1.000000
vt 0.471475 0.827256
vt 0.009462 1.000000
vt 0.000000 0.531034
vt 0.345297 0.538733
vt 0.644128 0.884232
vt 0.151058 1.000000
vt 0.000000 0.405832
vt 0.667750 0.412844
vt 0.456495 1.000000
vt 0.000000 0.810568
vt 0.433042 0.168598
vt 0.766387 0.168598
vt 0.303169 0.791310
vt 0.303169 0.974630
vt 0.319447 1.000000
vt 0.000000 0.274173
vt 0.495315 0.279915
vt 0.690447 0.867513
vt 0.855942 0.035998
vt 1.475527 0.714711
vt 0.000000 0.606335
vt 0.000000 0.796589
vt 0.648975 0.647672
vt 0.973305 0.589259
vt 0.962191 1.000000
vt 0.985386 0.794022
vt 0.985386 1.000000
vt 1.475527 -0.040654
vt 1.059674 1.000000
vt 0.000000 0.893430
vt 0.000000 0.244635
vt 0.461280 0.991508
vt 0.000000 0.162533
vt 0.962692 0.357732
vt 0.957356 1.000000
vt 1.192393 0.177897
vt 0.500262 1.000000
vt 0.000000 0.895247
vt 0.132719 0.071328
vt 0.511112 0.755665
vt 0.511111 0.967598
vt 0.396426 0.553548
vt 1.017564 0.816198
vt 0.585868 1.000000
vt 0.000000 0.751934
vt 0.361699 0.359890
vt 0.542684 0.691780
vt 0.364771 0.987343
vt 0.000000 0.464936
vt 0.903278 0.071140
vt 1.426092 0.429663
vt 0.570150 1.000000
vt 0.633935 0.794022
vt 0.633935 1.000000
vt 0.000000 0.476998
vt 0.639343 0.261680
vt 1.209493 0.796744
vt 0.605966 1.000000
vt 0.442467 -0.033940
vt 0.774820 0.755338
vt 0.248865 1.000000
vt 0.000000 0.122159
vt 0.000000 0.536562
vt 0.572357 -0.362208
vt 1.178323 0.160795
vt 0.863148 1.000000
vt 0.000000 0.172111
vt 0.122042 -0.105408
vt 0.985189 0.358030
vt 0.552148 1.000000
vt 0.567200 0.399057
vt 0.694326 0.684878
vt 0.124481 1.000000
vt 0.000000 0.710741
vt 0.000000 0.816680
vt 0.995121 0.816680
vt 0.995121 1.000000
vt 0.800424 0.403826
vt 0.391202 1.000000
vt 0.000000 0.397064
vt 0.484123 -0.012201
vt 1.000644 0.649378
vt 0.586240 1.000000
vt 0.000000 0.879879
vt 0.616892 0.026255
vt 0.110252 1.000000
vt 0.000000 0.711851
vt 0.423279 0.550525
vt 0.531739 0.834762
vt 0.770094 0.999939
vt 0.095588 1.000000
vt 0.000000 0.609355
vt 0.674627 0.609355
vt 0.697057 1.000000
vt 0.025562 0.984846
vt 0.000000 0.612176
vt 0.762567 0.612176
vt 0.521006 0.063839
vt 0.842282 0.678028
vt 0.645442 1.000000
vt 0.000000 0.224309
vt 0.490747 1.000000
vt 0.000000 0.921917
vt 0.075326 0.560874
vt 0.567925 0.633952
vt 0.596784 0.027930
vt 0.876033 0.855671
vt 0.350343 1.000000
vt 0.000000 -0.064497
vt 0.835217 0.991256
vt 0.296922 1.000000
vt 0.000000 0.658847
vt 0.995121 0.658847
vt 1.101628 0.992310
vt 0.344696 1.000000
vt 0.000000 0.607305
vt 0.985386 0.607305
vt 0.514525 0.958763
vt 0.105029 0.620966
vt 0.615588 0.580791
vt 0.207781 1.000000
vt 0.000000 0.200158
vt 0.176194 -0.134211
vt 0.627980 0.830815
vt 0.899597 0.999491
vt 0.164365 1.000000
vt 0.000000 0.531509
vt 0.736113 0.531509
vt 0.769198 1.000000
vt 0.117753 0.968802
vt 0.000000 0.588267
vt 0.547892 0.555562
vt 0.315718 0.973915
vt 0.003990 1.000000
vt 0.000000 0.256275
vt 0.307446 0.230548
vt 0.674386 0.999963
vt 0.175951 0.540234
vt 0.850457 0.540234
vt 0.675933 0.677838
vt 0.294539 1.000000
vt 0.000000 0.253973
vt 0.671971 0.253371
vt 0.782076 1.000000
vt 0.000000 0.916519
vt 0.087301 0.493821
vt 0.787488 0.522943
vt 0.696053 1.000000
vt 0.204831 0.931535
vt 0.000000 0.149520
vt 0.492667 0.214692
vt 0.979641 0.973317
vt 0.036745 1.000000
vt 0.000000 0.537679
vt 0.873586 0.537391
vt 0.569320 1.000000
vt 0.004145 0.873361
vt 0.000000 0.192125
vt 0.538744 0.192148
vt 0.593803 1.000000
vt 0.231039 0.879257
vt 0.000000 0.535566
vt 0.757037 0.535566
vt 0.391621 0.972769
vt 0.002180 1.000000
vt 0.000000 0.578816
vt 0.515135 0.546045
vt 0.841638 1.000000
vt 0.034787 0.677922
vt 0.837696 0.256274
s 1
usemtl Rock2.002
f 3/1/1 4/2/1 2/3/1 1/4/1
f 7/5/2 8/6/2 6/7/2 5/8/2
f 8/9/3 10/2/3 9/10/3 6/11/3
f 13/12/4 14/13/4 12/14/4 11/15/4
f 17/16/5 18/17/6 16/18/5 15/19/7
f 21/20/8 22/2/8 20/21/8 19/22/8
f 23/2/8 24/23/8 20/24/8 22/25/8
f 25/26/9 26/3/9 2/27/9 4/28/9
f 27/29/10 28/30/11 13/2/10 11/31/12
f 29/32/13 30/33/14 16/2/15 18/34/16
f 24/35/8 31/36/8 19/37/8 20/38/8
f 32/39/17 29/40/18 18/20/17 17/41/19
f 1/42/8 2/2/8 22/43/8 21/44/8
f 33/45/20 34/46/21 12/47/20 14/48/22
f 35/49/23 36/50/24 16/51/25 30/52/26
f 36/53/27 37/54/28 15/55/27 16/56/29
f 2/57/8 26/58/8 23/59/8 22/60/8
f 38/61/30 39/62/30 7/2/30 5/7/30
f 40/63/31 41/64/32 15/65/31 37/66/33
f 27/67/8 11/68/8 19/2/8 31/69/8
f 42/70/34 43/71/35 32/72/34 17/73/36
f 44/2/37 45/10/37 9/74/37 10/75/37
f 11/76/8 12/77/8 21/78/8 19/79/8
f 41/80/38 42/81/39 17/82/38 15/83/40
f 12/84/8 34/85/8 1/86/8 21/87/8
f 34/88/41 33/89/41 3/2/41 1/3/41
f 46/90/42 47/91/43 29/92/42 32/93/42
f 48/94/44 46/95/45 32/96/44 43/2/46
f 9/97/8 45/98/8 27/99/8 31/100/8
f 45/101/47 44/102/47 28/2/47 27/10/47
f 6/103/8 9/104/8 31/105/8 24/106/8
f 47/107/48 49/108/49 30/109/48 29/110/50
f 5/111/8 6/112/8 24/113/8 23/114/8
f 38/115/8 5/116/8 23/117/8 26/118/8
f 49/119/51 50/120/52 35/121/51 30/122/51
f 39/2/53 38/123/53 26/124/53 25/125/53
f 51/126/54 52/127/55 28/128/54 44/129/56
f 52/130/57 53/131/58 13/132/57 28/133/59
f 54/134/60 55/135/61 7/136/60 39/137/62
f 56/138/63 57/139/63 10/140/63 8/141/63
f 58/142/64 59/143/65 4/144/64 3/145/66
f 60/146/67 61/147/68 33/148/67 14/149/69
f 59/150/70 62/151/71 25/152/70 4/153/72
f 53/154/73 60/155/74 14/156/73 13/157/75
f 62/158/76 54/159/77 39/160/76 25/161/78
f 57/162/79 51/163/80 44/164/79 10/165/81
f 61/166/82 58/2/83 3/167/82 33/168/84
f 55/169/85 56/170/86 8/171/85 7/172/87
f 48/173/88 43/174/89 52/175/88 51/176/90
f 43/177/91 42/178/92 53/179/91 52/180/93
f 50/181/94 49/182/95 55/183/94 54/184/96
f 47/185/97 46/2/97 57/186/97 56/187/97
f 37/188/98 36/189/99 59/190/98 58/191/100
f 41/192/101 40/193/102 61/194/103 60/195/104
f 36/196/105 35/197/106 62/198/105 59/199/107
f 42/200/108 41/201/109 60/202/108 53/203/110
f 35/204/111 50/205/112 54/206/111 62/207/113
f 46/208/114 48/209/115 51/210/114 57/211/116
f 40/212/117 37/213/118 58/214/117 61/215/119
f 49/216/120 47/217/121 56/190/120 55/218/122
