# Blender 5.1.2
# www.blender.org
mtllib Rock4.mtl
o Rock4
v 0.500000 -0.015800 0.969471
v -0.085357 -0.015800 1.150559
v 0.500000 0.260737 0.969471
v -0.085357 0.260737 1.150559
v -0.633249 -0.015800 0.500000
v -0.633249 -0.015800 -0.719456
v -0.633249 0.318131 0.500000
v -0.633249 0.222380 -0.719456
v 0.500000 -0.015800 -0.719456
v 0.500000 0.222380 -0.719456
v 0.933459 -0.015800 -0.148796
v 0.933459 -0.015800 0.500000
v 0.933459 0.253704 -0.148796
v 0.933459 0.253705 0.500000
v 0.520459 0.825120 0.515522
v -0.104479 0.822939 0.507095
v 0.524726 0.690663 -0.170829
v -0.102518 0.690718 -0.163821
v 0.500000 -0.015800 -0.148796
v -0.085357 -0.015800 -0.148796
v 0.500000 -0.015800 0.500000
v -0.085357 -0.015800 0.500000
v -0.541852 0.292761 0.780039
v -0.541852 -0.015800 0.780039
v 0.786491 -0.015800 -0.542461
v 0.786491 0.222380 -0.542461
v -0.470859 0.508606 -0.565752
v -0.481183 0.598736 0.498893
v 0.522586 0.500042 -0.584328
v 0.931790 0.228335 0.921808
v 0.931790 -0.015800 0.921808
v -0.566756 0.576434 0.777859
v -0.098329 0.547844 0.983525
v 0.514725 0.543238 0.998633
v 0.815315 0.506776 0.807964
v 0.825178 0.533179 0.514357
v 0.832916 0.529123 -0.168426
v 0.829471 0.491226 -0.580264
vn 0.2955 -0.0000 0.9553
vn -1.0000 -0.0000 -0.0000
vn -0.0000 -0.0000 -1.0000
vn 1.0000 -0.0000 -0.0000
vn 1.0000 -0.0000 0.0019
vn 1.0000 -0.0000 0.0020
vn -0.0014 0.9812 -0.1928
vn -0.0020 0.9811 -0.1933
vn -0.0008 0.9813 -0.1922
vn -0.0000 -1.0000 -0.0000
vn -0.6302 -0.0000 0.7764
vn 0.9368 -0.0000 -0.3498
vn -0.3900 0.9110 -0.1337
vn -0.5086 0.8575 -0.0775
vn -0.2635 0.9463 -0.1872
vn -0.0023 0.9095 -0.4158
vn 0.0001 0.9108 -0.4128
vn -0.0046 0.9081 -0.4186
vn 1.0000 -0.0000 0.0040
vn -0.3576 0.9084 0.2164
vn -0.1652 0.8532 0.4947
vn -0.3576 0.9084 0.2165
vn -0.5081 0.8569 -0.0873
vn -0.0078 0.8648 0.5020
vn -0.0059 0.8637 0.5039
vn -0.0097 0.8659 0.5001
vn -0.9506 -0.0000 0.3103
vn 0.5576 0.7793 0.2861
vn 0.6893 0.7191 0.0879
vn 0.3924 0.7924 0.4670
vn 0.2392 0.9398 -0.2442
vn 0.0299 0.9953 -0.0919
vn 0.4318 0.8183 -0.3794
vn 0.5256 -0.0000 -0.8507
vn 0.5817 0.8105 -0.0688
vn 0.4643 0.8857 -0.0000
vn 0.6851 0.7157 -0.1359
vn 0.1097 -0.0000 0.9940
vn -0.0065 0.4559 -0.8900
vn -0.0130 0.4384 -0.8987
vn -0.0000 0.4731 -0.8810
vn 0.9220 0.3844 0.0463
vn 0.9104 0.4083 0.0673
vn 0.9326 0.3600 0.0253
vn 0.2686 0.1110 -0.9568
vn 0.0091 -0.1406 -0.9900
vn 0.4927 0.3480 -0.7976
vn 0.9359 0.3522 0.0044
vn 0.9326 0.3609 0.0084
vn 0.9394 0.3429 -0.0000
vn -0.4976 0.1902 0.8463
vn -0.4033 -0.0284 0.9146
vn -0.5614 0.3970 0.7261
vn 0.9781 0.0767 -0.1935
vn 0.9395 0.3402 -0.0392
vn 0.9240 -0.1940 -0.3295
vn 0.3462 0.1628 0.9239
vn 0.5222 -0.1144 0.8451
vn 0.1307 0.4215 0.8973
vn 0.1472 0.2074 0.9671
vn -0.0175 0.5022 0.8646
vn 0.2936 -0.1133 0.9492
vn -0.8678 0.4950 -0.0446
vn -0.8564 0.5137 -0.0518
vn -0.8786 0.4760 -0.0374
vn -0.9775 0.2069 0.0415
vn -0.8569 0.4634 -0.2258
vn -0.9775 0.2069 0.0416
vn -0.9497 -0.0810 0.3026
vt 0.612728 1.000000
vt 0.000000 1.000000
vt 0.000000 0.723463
vt 0.612728 0.723463
vt 1.219456 1.000000
vt 0.000000 0.904249
vt 0.000000 0.666069
vt 1.219456 0.666069
vt 1.133249 1.000000
vt 0.000000 0.761820
vt 1.133249 0.761820
vt 0.648796 1.000000
vt 0.000000 0.730496
vt 0.648796 0.730496
vt 0.000000 0.300602
vt 0.627244 0.307593
vt 0.629092 0.991413
vt 0.004153 1.000000
vt 0.585357 1.000000
vt 0.000000 0.351204
vt 0.585357 0.351204
vt 0.000000 -0.219456
vt 0.547893 0.351204
vt 0.547893 1.000000
vt 0.000000 0.691439
vt 0.587940 0.691439
vt 0.587940 0.967976
vt 0.420205 0.730496
vt 0.420205 0.968676
vt 0.437277 -0.092167
vt 0.423043 0.970421
vt 0.033582 0.317002
vt 0.000000 0.429339
vt 1.133249 0.429339
vt 0.003105 0.536967
vt 0.996494 0.559528
vt 0.627236 1.000000
vt 0.000000 0.992283
vt 0.585357 0.818911
vt 0.000000 0.349441
vt 0.585357 0.349441
vt 0.000000 0.974630
vt 0.421812 0.730496
vt 0.421812 1.000000
vt 0.523356 0.818137
vt 0.135017 1.000000
vt 0.000000 0.546334
vt 0.438375 0.538101
vt 0.621875 0.981156
vt 0.008913 1.000000
vt 0.000000 0.440713
vt 0.624923 0.430982
vt 0.091397 0.629479
vt 0.547893 0.349441
vt 0.294576 0.666069
vt 0.294576 0.974630
vt 0.000000 0.784371
vt 0.002877 0.511656
vt 0.405495 0.453647
vt 0.285558 1.000000
vt 0.286491 0.606335
vt 0.433459 1.000000
vt 0.000000 1.000000
vt 0.014641 1.000000
vt 0.000000 0.605633
vt 0.275520 0.550480
vt 0.362600 0.997402
vt 0.336756 0.761820
vt 0.336756 1.000000
vt 0.433459 0.351204
vt 0.008394 0.998825
vt 0.000000 0.322709
vt 0.334330 0.307218
vt 0.430393 1.000000
vt 0.433459 0.530529
vt 0.431790 0.952338
vt 0.000000 0.530529
vt 0.434413 0.723463
vt 0.434413 0.967598
vt 0.993445 1.000000
vt 0.000000 0.983666
vt 0.022586 0.675115
vt 1.155835 0.675115
vt 0.404405 1.000000
vt 0.110638 0.976046
vt 0.000000 0.673244
vt 0.421698 0.700437
vt 0.263215 1.000000
vt 0.000000 0.936799
vt 0.016695 0.703819
vt 0.353451 0.703819
vt 0.682783 0.993537
vt 0.014357 0.700340
vt 0.663153 0.700340
vt 0.496370 1.000000
vt 0.000000 0.977064
vt 0.021035 0.722072
vt 0.608811 0.687180
vt 0.441329 0.989038
vt 0.052262 1.000000
vt 0.000000 0.746914
vt 0.420159 0.714983
vt 0.335299 1.000000
vt 0.010368 0.971787
vt 0.000000 0.728674
vt 0.434152 0.692941
vt 0.618176 1.000000
vt 0.036974 0.982415
vt 0.000000 0.715668
vt 0.612728 0.715668
vt 1.210785 1.000000
vt 0.146664 0.904108
vt 0.000000 0.572051
vt 1.218354 0.680928
vt 0.284931 0.991244
vt 0.045113 1.000000
vt 0.000000 0.732088
vt 0.294569 0.706635
s 1
usemtl Rock2.003
f 3/1/1 4/2/1 2/3/1 1/4/1
f 7/5/2 8/6/2 6/7/2 5/8/2
f 8/9/3 10/2/3 9/10/3 6/11/3
f 13/12/4 14/2/5 12/13/6 11/14/4
f 17/15/7 18/16/8 16/17/7 15/18/9
f 21/19/10 22/2/10 20/20/10 19/21/10
f 5/2/10 6/22/10 20/23/10 22/24/10
f 23/2/11 24/25/11 2/26/11 4/27/11
f 25/28/12 26/29/12 13/2/12 11/13/12
f 27/30/13 28/31/14 16/2/13 18/32/15
f 6/33/10 9/34/10 19/9/10 20/24/10
f 29/35/16 27/36/17 18/37/16 17/38/18
f 1/39/10 2/2/10 22/40/10 21/41/10
f 30/42/19 31/13/19 12/43/6 14/44/5
f 32/45/20 33/46/21 16/47/22 28/48/23
f 33/49/24 34/50/25 15/51/24 16/52/26
f 2/24/10 24/53/10 5/40/10 22/54/10
f 24/55/27 23/56/27 7/2/27 5/7/27
f 35/57/28 36/58/29 15/59/28 34/60/30
f 25/61/10 11/62/10 19/63/10 9/33/10
f 37/64/31 38/65/32 29/66/31 17/67/33
f 26/2/34 25/10/34 9/68/34 10/69/34
f 11/70/10 12/62/10 21/2/10 19/20/10
f 36/71/35 37/72/36 17/73/35 15/74/37
f 12/75/10 31/76/10 1/2/10 21/77/10
f 31/78/38 30/79/38 3/2/38 1/3/38
f 27/80/39 29/81/40 10/82/39 8/83/41
f 36/84/42 35/85/43 30/86/42 14/87/44
f 29/88/45 38/89/46 26/90/45 10/91/47
f 37/92/48 36/2/49 14/93/48 13/94/50
f 33/95/51 32/96/52 23/97/51 4/98/53
f 38/99/54 37/100/55 13/101/54 26/102/56
f 35/103/57 34/104/58 3/105/57 30/106/59
f 34/107/60 33/108/61 4/109/60 3/110/62
f 28/111/63 27/112/64 8/113/63 7/114/65
f 32/115/66 28/116/67 7/117/68 23/118/69
