# Blender 5.1.2
# www.blender.org
mtllib Rock5.mtl
o Rock5
v 0.500000 -0.011450 0.759634
v -0.085357 -0.011450 0.940723
v 0.500000 0.265087 0.672856
v -0.085357 0.265087 0.940723
v -0.397069 -0.011450 0.500000
v -0.397069 -0.011450 -0.719456
v -0.347695 0.322480 0.467479
v -0.397069 0.226730 -0.719456
v 0.500000 -0.011450 -0.719456
v 0.500000 0.226730 -0.712856
v 1.133461 -0.011450 -0.148796
v 1.133461 -0.011450 0.500000
v 1.133461 0.258054 -0.148796
v 1.133461 0.258054 0.500000
v 0.520459 0.845445 0.515522
v -0.104479 0.843264 0.507095
v 0.524726 0.658680 -0.170829
v -0.102518 0.658736 -0.163821
v 0.500000 -0.011450 -0.148796
v -0.085357 -0.011450 -0.148796
v 0.500000 -0.011450 0.500000
v -0.085357 -0.011450 0.500000
v -0.189526 0.297111 0.537682
v -0.305672 -0.011450 0.570202
v 0.786491 -0.011450 -0.542461
v 0.786491 0.226730 -0.542461
v -0.234679 0.617601 -0.565752
v -0.245003 0.766100 0.498893
v 0.522586 0.609036 -0.584328
v 0.931790 0.232684 0.711972
v 0.931790 -0.011450 0.711972
v -0.330576 0.580783 0.568022
v -0.098329 0.709146 0.773689
v 0.514725 0.704540 0.788797
v 0.815315 0.511126 0.598127
v 0.825178 0.537528 0.514357
v 0.832916 0.533472 -0.168426
v 0.695653 0.495575 -0.580264
vn 0.3541 0.1454 0.9238
vn 0.4161 -0.0000 0.9093
vn 0.2831 0.2871 0.9151
vn -0.9971 0.0733 0.0208
vn -0.9991 -0.0000 0.0416
vn -0.9971 0.0734 0.0208
vn -0.9892 0.1463 -0.0000
vn 0.0037 0.0139 -0.9999
vn 0.0074 0.0277 -0.9996
vn -0.0000 -0.0000 -1.0000
vn 1.0000 -0.0000 -0.0000
vn -0.0013 0.9646 -0.2639
vn -0.0029 0.9642 -0.2652
vn 0.0002 0.9649 -0.2625
vn -0.0000 -1.0000 -0.0000
vn -0.9096 0.1812 0.3738
vn -0.8042 0.3531 0.4781
vn -0.9682 -0.0000 0.2502
vn 0.7502 -0.0000 -0.6612
vn -0.0131 0.9788 -0.2043
vn -0.4718 0.8726 -0.1263
vn -0.0130 0.9788 -0.2043
vn 0.4488 0.8620 -0.2358
vn 0.0038 0.9937 -0.1118
vn 0.0087 0.9945 -0.1047
vn -0.0012 0.9929 -0.1192
vn 0.7245 -0.0000 0.6893
vn -0.5113 0.5863 0.6283
vn -0.6696 0.6571 0.3461
vn -0.2968 0.4510 0.8417
vn -0.0069 0.8910 0.4539
vn -0.0046 0.8888 0.4582
vn -0.0092 0.8932 0.4496
vn -0.3348 -0.4935 0.8027
vn -0.0000 1.0000 -0.0000
vn -0.6983 -0.5741 0.4276
vn -0.4867 0.2003 0.8503
vn -0.3634 0.2318 0.9023
vn -0.4866 0.2003 0.8503
vn -0.6008 0.1650 0.7822
vn 0.6681 0.6695 0.3247
vn 0.6804 0.6722 0.2920
vn 0.6550 0.6659 0.3571
vn 0.4580 0.8697 -0.1838
vn 0.5346 0.8065 -0.2524
vn 0.3748 0.9203 -0.1124
vn 0.5184 0.0118 -0.8551
vn 0.5256 -0.0000 -0.8507
vn 0.5110 0.0238 -0.8592
vn 0.5507 0.8293 -0.0949
vn 0.3765 0.9264 -0.0013
vn 0.6983 0.6918 -0.1839
vn 0.0074 0.1513 0.9885
vn -0.0902 0.0001 0.9959
vn 0.0074 0.1514 0.9885
vn 0.1047 0.2977 0.9489
vn -0.0064 0.3417 -0.9398
vn -0.0196 0.3196 -0.9473
vn 0.0068 0.3635 -0.9316
vn 0.7255 0.5347 0.4334
vn 0.8547 0.4577 0.2449
vn 0.5541 0.5805 0.5966
vn 0.2193 0.0447 -0.9746
vn -0.0867 -0.1674 -0.9821
vn 0.2194 0.0447 -0.9746
vn 0.4949 0.2505 -0.8321
vn 0.6736 0.7391 0.0017
vn 0.6717 0.7408 0.0032
vn 0.6756 0.7373 -0.0000
vn -0.8074 -0.1483 0.5710
vn -0.5118 -0.3389 0.7895
vn -0.9646 0.0676 0.2547
vn 0.7384 0.4523 -0.5002
vn 0.6579 0.6977 -0.2835
vn 0.7349 0.1555 -0.6601
vn 0.1857 0.0599 0.9808
vn 0.4012 -0.2462 0.8823
vn -0.0576 0.3571 0.9323
vn 0.2059 0.0566 0.9769
vn -0.0204 0.3514 0.9360
vn 0.4033 -0.2460 0.8814
vn -0.9485 0.3160 -0.0215
vn -0.9122 0.4046 -0.0653
vn -0.9743 0.2240 0.0225
vn -0.9530 -0.0530 0.2984
vn -0.8635 0.2316 -0.4480
vn -0.4268 -0.3033 0.8520
vt 0.638375 1.000000
vt 0.000000 0.976194
vt 0.000000 0.711304
vt 0.612728 0.711304
vt 1.186935 1.000000
vt 0.000000 0.898058
vt 0.000000 0.662439
vt 1.219456 0.662439
vt 0.897069 1.000000
vt 0.000000 1.000000
vt 0.000000 0.761820
vt 0.897069 0.761820
vt 0.648796 1.000000
vt 0.000000 0.730496
vt 0.648796 0.730496
vt 0.000000 0.288693
vt 0.627244 0.295440
vt 0.629238 0.991267
vt 0.004300 1.000000
vt 0.585357 1.000000
vt 0.000000 0.351204
vt 0.585357 0.351204
vt 0.000000 -0.219456
vt 0.311712 0.351204
vt 0.311712 1.000000
vt 0.002422 0.691439
vt 0.416286 0.691439
vt 0.416286 0.967976
vt 0.524747 0.730496
vt 0.524747 0.968676
vt 0.098233 -0.103970
vt 0.175961 0.960593
vt 0.086946 1.000000
vt 0.000000 0.309621
vt 0.000000 0.429339
vt 0.897069 0.429339
vt 0.002202 0.576474
vt 0.759456 0.596051
vt 0.627244 1.000000
vt 0.000000 0.992942
vt 0.585357 0.818911
vt 0.000000 0.559277
vt 0.585357 0.559277
vt 0.000000 0.974630
vt 0.292580 0.730496
vt 0.292580 1.000000
vt 0.000000 0.705904
vt 0.287424 0.767821
vt 0.192967 1.000000
vt 0.057713 0.913541
vt 0.620156 0.981602
vt 0.007182 1.000000
vt 0.000000 0.692581
vt 0.624927 0.683148
vt 0.091397 0.629479
vt 0.311712 0.559277
vt 0.115247 0.661428
vt 0.187547 0.981690
vt 0.019346 1.000000
vt 0.000000 0.661428
vt 0.000000 0.795871
vt 0.011483 0.708433
vt 0.444648 0.707434
vt 0.349929 1.000000
vt 0.286491 0.606335
vt 0.633461 1.000000
vt 0.000000 1.000000
vt 0.112834 0.581006
vt 0.315912 0.581444
vt 0.332653 0.997581
vt 0.336708 0.761752
vt 0.333334 1.000000
vt 0.633461 0.351204
vt 0.000000 0.573597
vt 0.658301 0.445210
vt 0.739109 0.741368
vt 0.076473 1.000000
vt 0.633461 0.740366
vt 0.431790 0.952338
vt 0.000000 0.740366
vt 0.434413 0.710324
vt 0.434413 0.943385
vt 0.009521 1.000000
vt 0.000000 0.710324
vt 0.757108 1.000000
vt 0.000000 0.983244
vt 0.023531 0.580431
vt 0.920624 0.580431
vt 0.064232 1.000000
vt 0.000000 0.946763
vt 0.007878 0.625605
vt 0.299898 0.656763
vt 0.248221 1.000000
vt 0.097397 0.868870
vt 0.000000 0.605103
vt 0.333334 0.605103
vt 0.407654 0.317217
vt 0.416100 1.000000
vt 0.000000 0.985643
vt 0.000000 0.336847
vt 0.258140 1.000000
vt 0.000000 0.860296
vt 0.006672 0.587019
vt 0.422952 0.554921
vt 0.613549 0.935650
vt 0.215437 1.000000
vt 0.000000 0.695204
vt 0.524724 0.663494
vt 0.310101 0.893912
vt 0.021854 1.000000
vt 0.000000 0.630509
vt 0.433381 0.595820
vt 0.608880 1.000000
vt 0.057710 0.938319
vt 0.000000 0.546609
vt 0.643735 0.546609
vt 1.221530 1.000000
vt 0.157406 0.863080
vt 0.000000 0.446573
vt 1.187758 0.544819
vt 0.060339 0.853790
vt 0.105886 1.000000
vt 0.000000 0.582715
vt 0.172860 0.556091
s 1
usemtl Rock2.004
f 3/1/1 4/2/2 2/3/1 1/4/3
f 7/5/4 8/6/5 6/7/6 5/8/7
f 8/9/8 10/10/9 9/11/8 6/12/10
f 13/13/11 14/10/11 12/14/11 11/15/11
f 17/16/12 18/17/13 16/18/12 15/19/14
f 21/20/15 22/10/15 20/21/15 19/22/15
f 5/10/15 6/23/15 20/24/15 22/25/15
f 23/10/16 24/26/17 2/27/16 4/28/18
f 25/29/19 26/30/19 13/10/19 11/14/19
f 27/31/20 28/32/21 16/33/22 18/34/23
f 6/35/15 9/36/15 19/9/15 20/25/15
f 29/37/24 27/38/25 18/39/24 17/40/26
f 1/41/15 2/10/15 22/42/15 21/43/15
f 30/44/27 31/14/27 12/45/27 14/46/27
f 32/47/28 33/48/29 16/49/28 28/50/30
f 33/51/31 34/52/32 15/53/31 16/54/33
f 2/25/34 24/55/35 5/42/36 22/56/15
f 24/57/37 23/58/38 7/59/39 5/60/40
f 35/61/41 36/62/42 15/63/41 34/64/43
f 25/65/15 11/66/15 19/67/15 9/35/15
f 37/67/44 38/68/45 29/69/44 17/70/46
f 26/67/47 25/11/48 9/71/47 10/72/49
f 11/73/15 12/66/15 21/10/15 19/21/15
f 36/74/50 37/75/51 17/76/50 15/77/52
f 12/78/15 31/79/15 1/10/15 21/80/15
f 31/81/53 30/82/54 3/83/55 1/84/56
f 27/85/57 29/86/58 10/87/57 8/88/59
f 36/89/60 35/90/61 30/91/60 14/92/62
f 29/93/63 38/94/64 26/95/65 10/96/66
f 37/97/67 36/98/68 14/99/67 13/100/69
f 33/101/70 32/102/71 23/103/70 4/104/72
f 38/105/73 37/106/74 13/107/73 26/108/75
f 35/109/76 34/110/77 3/111/76 30/112/78
f 34/113/79 33/114/80 4/115/79 3/116/81
f 28/117/82 27/118/83 8/119/82 7/120/84
f 32/121/85 28/122/86 7/123/85 23/124/87
