# ProBuilder 6.0.9
# https://unity3d.com/unity/features/worldbuilding/probuilder
# 26/07/2026 10:09:50

mtllib ./Tree2.mtl
o Tree2

g Tree2
v 0.7812715 3.918597 1.383156
v -0.8585358 3.918597 1.383156
v 0.7812715 5.878159 1.383156
v -0.8585358 5.878159 1.383156
v -0.8585358 3.918597 -0.3024333
v -0.7760391 5.878159 -0.3024333
v 0.7812715 3.918597 -0.3024333
v 0.6176333 5.878159 -0.3024333
v 0.954381 13.55731 1.629772
v -1.04723 13.56252 1.627651
v 0.6657104 13.07245 -0.6583598
v -1.047482 13.16864 -0.6556876
v 1.006892 -1.186262 -0.7960932
v -0.6329145 -1.186262 -0.7960932
v 1.006892 -1.186262 0.8894956
v -0.6329145 -1.186262 0.8894956
v 1.091959 7.545887 1.383156
v -1.050607 7.545887 1.383156
v 0.8830361 7.545887 -0.4636595
v -0.5973263 7.545887 -0.3024333
v 0.7557569 7.656075 1.383156
v -0.8840504 7.656075 1.383156
v 0.7557569 7.656075 -0.3024333
v -0.8840504 7.656075 -0.3024333
v -1.502276 7.82794 -1.869591
v 1.010557 7.568339 -1.565005
v 0.8299203 9.583797 2.58613
v -0.9051523 9.857871 2.58613
v 0.8266568 12.77301 2.58613
v -0.9016771 12.77301 2.58613
v 2.095928 9.537662 -0.5061648
v 2.11537 9.539136 1.624428
v 1.848471 12.28094 -0.5152972
v 2.099754 12.74122 1.628521
v -2.945242 9.927905 1.601066
v -2.547474 9.873696 -0.4833872
v -2.281555 12.71956 1.602695
v -2.264541 12.36824 -0.4865801
v -1.402885 9.864257 -2.081761
v 0.8880701 9.618161 -1.78615
v -1.58084 12.26586 -2.081761
v 0.6218786 12.16899 -1.78615
v -1.710636 9.775084 -1.585964
v -1.921027 12.41272 -1.570427
v 1.331449 12.31259 -1.445719
v 1.628153 9.470422 -1.436199
v 1.922328 7.586737 1.6711
v 1.899341 7.568908 -0.7069609
v -2.031857 7.828707 -1.41853
v -1.806285 7.911471 1.674766
v -1.739915 9.822278 2.209802
v -1.741074 12.83172 2.213217
v 1.553802 12.84048 2.385412
v 1.566136 9.472062 2.381031
v -1.127345 7.914452 1.678211
v 1.509812 7.587342 2.348852

vt 1.639807 -0.9595618
vt 0 -0.9595618
vt 1.639807 1
vt 0 1
vt 1.685589 -0.9595618
vt 1.685589 1
vt 1.557311 1
vt 0.1636381 1
vt 1.685589 -0.9663823
vt 0 -0.9663823
vt 0 0.9863825
vt 0.1647797 0.8552995
vt 2.166363 0.8542001
vt 0.453656 -1.48361
vt 2.166378 -1.460588
vt 1.639807 -0.6855888
vt 0 -0.6855888
vt 1.831878 -0.6677279
vt 0.192071 -0.6677279
vt 2.142565 1
vt 1.723534 -0.6959057
vt 0.03002053 -0.6959057
vt 1.858361 0.995121
vt 1.696343 -0.6787252
vt 0.008736134 -0.6787252
vt 1.705732 1
vt 0 0.9576783
vt 1.659075 -0.6677279
vt 0.2654028 -0.6677279
vt 1.480362 1
vt 2.142565 0.8898115
vt 0 0.8898115
vt 1.806364 1
vt 0.1665564 1
vt 0.1665592 -0.8511165
vt 0.334548 -0.6895147
vt 0.334548 0.9921572
vt 0.3780394 1
vt 0 -0.704042
vt 0.1783333 1
vt 0.1783333 -0.6673355
vt 1.489116 0.8855219
vt 0 0.8855219
vt 1.774155 1
vt 0.143987 0.9518552
vt 0.462441 1
vt 1.462441 1
vt 0.07308538 0.008207142
vt 1.996577 0.1944784
vt 2.047992 -1.345324
vt 0.3129187 -1.07125
vt 2.044728 0.8542002
vt 0.3163942 0.8542003
vt 2.277317 -1.35483
vt 0.1469079 -1.35483
vt 2.28279 0.4161236
vt 0.1444546 0.8254779
vt 2.463237 -1.001136
vt 0.372367 -1.054358
vt 2.465374 0.8006356
vt 0.3843952 0.448697
vt 1.934628 -0.6225367
vt 0.2310784 -0.8686326
vt 2.112582 0.7893757
vt 0.4972697 0.6925064
vt -0.776005 7.747972
vt 1.755086 8.008884
vt -0.6299192 9.808151
vt 1.679654 10.05718
vt -0.4699714 4.891977
vt -0.3302183 6.547454
vt -0.6507448 4.981539
vt -0.5429667 6.400503
vt 0.499646 6.120001
vt 0.3027968 4.254416
vt 0.7082179 5.97545
vt 0.5379918 4.401147
vt 0 0.2386703
vt 0.7084315 0.8997704
vt 0.6793416 -1.47829
vt 0.6784124 -1.47866
vt 0 -0.7613297
vt 0.7011158 -0.04670477
vt 0 0.755064
vt 0.0003780946 0.7559373
vt 2.399738 0.8627734
vt 1.699241 -0.08159375
vt 1.584986 9.982068
vt -0.5368609 9.919868
vt 1.460182 7.668394
vt -1.547212 7.968065
vt 0.1432212 2.80097
vt -0.524106 4.568042
vt -0.6372347 2.576962
vt -0.9239291 4.341479
vt 0.7655241 9.601677
vt 0.5905126 12.10611
vt -0.6186352 9.502674
vt -0.4780612 12.11593
vt -0.6124007 9.736196
vt -0.05664083 9.65448
vt 0.2964718 7.706426
vt -0.3991662 7.705658
vt 0.7635381 9.63791
vt -0.2921964 7.586628
vt -0.6206274 9.538995
vt -5.097773 0.6593939
vt -5.406632 -0.4357364
vt -6.554234 0.488526
vt 0.9971411 9.698564
vt -1.13354 9.700045
vt 1.199709 7.7202
vt -1.178463 7.738085
vt 0.003223627 12.08138
vt -0.1244687 9.329914
vt 1.067644 12.11313
vt 0.915791 9.259754
vt 0.3115784 6.846988
vt 0.3244233 4.468258
vt 0.4674185 6.747727
vt 0.4829271 4.535328
vt 0.1462027 9.772094
vt -0.05709276 7.716771
vt -1.222031 7.687275
vt -0.6723758 9.623958
vt 1.693018 0.01408529
vt 0.7023088 -0.07613277
vt 0 0.8655119
vt 0.002399296 0.8702015
vt 2.188151 0.845359
vt 2.188563 0.8446255
vt 2.58169 5.105618
vt 0.3784491 5.39335
vt -0.3169497 5.786779
vt 0.408877 6.837636
vt 2.124187 6.813232
vt 2.932778 5.587219
vt -0.02737677 9.63037
vt 0.2400976 7.659733
vt 1.013666 9.563066
vt 5.624697 2.148622
vt 6.064041 1.178584
vt 7.047242 1.999468
vt 0.8709413 9.765697
vt -0.8637898 10.04192
vt 1.545992 7.753561
vt -1.103949 8.001093
vt 0.2444843 12.7724
vt 0.2476302 9.583191
vt 0.9988241 12.83988
vt 1.011879 9.471457
vt 0.02812922 9.85676
vt 0.03129732 12.7719
vt -0.8875405 9.821167
vt -0.8871936 12.83061
vt -0.9308569 -7.733713
vt 1.07076 -7.736456
vt -0.8044937 -6.496744
vt 0.9238375 -6.494842
vt 0.1790034 7.718281
vt -0.6121031 7.722893
vt -0.6053631 9.60775
vt 0.3295631 9.674972
vt -1.801793 7.934509
vt -2.941025 9.857646
vt -1.733367 9.918739
vt -1.122845 7.937605
vt 6.873661 0.632978
vt 5.450628 0.7773821
vt 5.505087 2.977094
vt 6.010874 3.687592
vt 6.911293 2.981784
vt -6.810306 2.122473
vt -5.824714 2.687893
vt -5.315602 2.097895
vt -5.130855 -0.009341445
vt -6.587239 -0.1802826
vt 0.2502342 9.635103
vt 0.9686938 7.638055
vt 1.01448 9.523335
vt -0.005657509 10.01549
vt -0.5703249 7.934212
vt -0.9212255 9.977371
vt 0.9359511 -6.559738
vt 0.2249694 -6.820671
vt 0.9171859 -7.803003
vt -3.004925 -6.358922
vt -2.222628 -6.843803
vt -3.105053 -7.605185
vt 0.2256207 1
vt 1.865428 1
vt 0 -4.128672
vt 1.639807 -4.128672
vt 0.49366 -4.109842
vt 2.179249 -4.109842
vt 0.49366 1
vt 2.179249 1
vt 0 -4.109842
vt 1.685589 -4.109842
vt 0.2256212 -4.128672
vt 1.865428 -4.128672

vn 0 0 1
vn -1 0 0
vn -0.9989613 0.02100604 -0.02442033
vn -0.9979227 0.04201208 -0.04884066
vn 0 0 -1
vn 0.9965314 0.08321784 0
vn 0.995926 0.04160892 -0.04831321
vn 0.9953207 0 -0.09662642
vn 0.002767542 0.9782034 -0.2076307
vn 0.02887465 0.9810787 -0.1886847
vn 0.05498176 0.9839541 -0.1697387
vn 0 -1 0
vn 0.9816074 -0.1654259 -0.09529512
vn 0.9793351 -0.1737232 -0.1029131
vn 0.9770626 -0.1820205 -0.110531
vn -0.9922611 -0.114278 -0.04856357
vn -0.9764119 -0.00567228 -0.1534367
vn -0.9605627 0.1029334 -0.2583099
vn -0.05396727 -0.0393158 -0.9955218
vn -0.1079345 -0.0786316 -0.9910435
vn 0.6022721 0.7953781 -0.0681325
vn 0.4568583 0.8728212 -0.03406625
vn 0.3114446 0.9502643 0
vn -0.5457783 0.8249759 -0.1467681
vn -0.452251 -0.05423391 -0.07338404
vn -0.3587238 -0.9334437 0
vn -0.1042129 -0.2711749 -0.9568719
vn -0.05210646 0.2772143 -0.7605612
vn 0 0.8256037 -0.5642505
vn 0 -0.9940404 -0.1090128
vn -0.05415076 -0.9935199 -0.03093282
vn -0.1083015 -0.9929994 0.04714717
vn 0.9959173 0.08980593 -0.009150313
vn 0.9944905 0.04739961 -0.06331103
vn 0.9930637 0.004993286 -0.1174717
vn -0.9554675 0.2272626 -0.1882383
vn -0.9743688 0.1699427 -0.1076325
vn -0.9932702 0.1126229 -0.02702662
vn 0.1289766 0.009556959 -0.9916016
vn 0.131288 0.01174936 -0.9912695
vn 0.1335994 0.01394176 -0.9909374
vn 0.109524 -0.100146 -0.9889264
vn 0.1126328 -0.1043341 -0.9881297
vn 0.1157417 -0.1085223 -0.9873332
vn -0.8426791 -0.06406723 -0.5345908
vn -0.8408946 -0.06312196 -0.5374937
vn -0.83911 -0.0621767 -0.5403966
vn 0.4253735 0.0413782 -0.9040715
vn 0.4298943 0.04335579 -0.9018214
vn 0.4344152 0.04533338 -0.8995712
vn -0.06865942 -0.9975967 0.004037799
vn -0.06131685 -0.9980857 0.008075598
vn -0.06425019 -0.9973218 0.02205154
vn -0.05543172 -0.9967719 0.05807901
vn -0.06571686 -0.9969398 0.0290395
vn -0.1096585 -0.9915372 -0.04059187
vn -0.07058804 -0.9941964 -0.08118373
vn -0.1576312 -0.9831243 -0.01227935
vn -0.2535765 -0.9662983 0.04434567
vn -0.2011527 -0.9775882 0.02217284
vn -0.8583412 -0.4903435 -0.1510419
vn -0.9080755 -0.3835845 -0.03689438
vn -0.9578098 -0.2768255 0.0772531
vn -0.4508902 -0.001186217 0.8925787
vn -0.6018287 0.08870345 0.7630881
vn -0.7527673 0.1785931 0.6335976
vn -0.7895674 0.08877615 -0.6072084
vn -0.8696727 0.0074041 -0.4556328
vn -0.9497778 -0.07396795 -0.3040572
vn -0.8484412 -0.01371793 -0.5291119
vn -0.748131 0.01388021 -0.6448873
vn -0.6478208 0.04147836 -0.7606627
vn -0.7907251 0.07826861 -0.6071473
vn -0.5576261 0.817651 -0.1431784
vn 0.9951017 -0.09844502 -0.009012599
vn 0.9950945 -0.09852311 -0.008945953
vn 0.8726176 0.07710869 -0.4822787
vn 0.8798053 0.08409443 -0.4674951
vn 0.8869931 0.09108017 -0.4527114
vn 0.8111666 0.002209426 0.5848109
vn 0.8101419 0.002702142 0.5862248
vn 0.8091172 0.003194858 0.5876387
vn 0.414364 -0.07310997 -0.90717
vn 0.5491838 -0.1236156 -0.8077816
vn 0.6840036 -0.1741212 -0.7083932
vn -0.02588583 -0.997833 -0.05080783
vn -0.07826031 -0.8562639 0.3704653
vn -3.892972E-05 -0.7523353 0.6587804
vn -0.1173905 -0.7856576 0.5911955
vn -0.09550455 -0.9382153 0.140665
vn -0.05177165 -0.9981894 -0.03062049
vn -0.04019512 0.8211598 -0.5349481
vn 0.1302045 0.7712703 -0.6229199
vn 0.1427283 0.769748 -0.6221871
vn 0.102168 0.7928951 -0.5974694
vn -0.119133 0.8453433 -0.4905958
vn -0.2843609 0.8545418 -0.434623
vn 0.8937762 -0.04371985 -0.4463773
vn 0.5568448 0.7809678 -0.2828661
vn -0.01968248 -0.1246031 0.9920114
vn -0.1458349 -0.2531053 0.9377066
vn -0.2719873 -0.3816076 0.8834017
vn 0.2660607 0.000272256 0.9639562
vn 0.2671945 8.844072E-07 0.9636419
vn 0.2683282 -0.0002704872 0.9633275
vn -0.4110034 0.0004899646 0.9116337
vn -0.4085367 -0.0003515589 0.9127375
vn -0.4060699 -0.001193082 0.9138412
vn 0.001341449 0.773145 0.6342279
vn 0.0006707244 0.7725027 0.6350101
vn 0 0.7718603 0.6357923
vn 0.8319789 -0.05028907 0.5509768
vn 0.853696 -0.03438434 0.5196354
vn 0.8102617 -0.06619381 0.5823181
vn -0.2292871 -0.2474763 0.9122699
vn -0.4548717 -0.2254391 0.8615503
vn -0.003702409 -0.2695135 0.9629895
vn 0.5598584 0.7934426 -0.2387624
vn 0.5617865 0.7924869 -0.23739
vn 0.5589418 0.7844233 0.03088494
vn 0.554169 0.7773154 0.2977875
vn 0.5592473 0.7874297 -0.05899749
vn -0.5501112 0.8041601 0.01638685
vn -0.5364702 0.7756934 0.3324147
vn -0.5463719 0.7972175 0.09510603
vn -0.5569317 0.8183935 -0.1416271
vn -0.5575898 0.8180453 -0.1410515
vn 0.2648522 -0.02437357 0.963981
vn -0.3710385 -0.3578927 0.8568799
vn 0.1056778 0.7619373 0.6389709
vn -0.2326782 0.7330405 0.6391498
vn 0 0.09625492 -0.9953567
vn 0.9990247 0.04415415 0
vn -0.9990247 -0.04415425 0
vn 0 -0.09625492 0.9953567

usemtl Wood1
f 3/3/1 4/4/1 2/2/1 1/1/1
f 4/6/3 6/4/4 5/2/3 2/5/2
f 6/7/5 8/8/5 7/2/5 5/1/5
f 8/6/7 3/11/8 1/10/7 7/9/6
f 15/3/12 16/4/12 14/17/12 13/16/12
f 17/20/1 18/4/1 4/19/1 3/18/1
f 19/23/14 17/4/15 3/22/14 8/21/13
f 18/26/17 20/27/18 6/25/17 4/24/16
f 20/30/19 19/4/20 8/29/19 6/28/5
f 21/33/1 22/34/1 18/32/1 17/31/1
f 23/36/22 21/37/23 17/4/22 19/35/21
f 22/40/25 24/41/26 20/39/25 18/38/24
f 24/44/28 23/45/29 19/43/28 20/42/27
f 13/192/132 14/193/132 5/191/132 7/190/132
f 15/194/133 13/195/133 7/6/133 1/4/133
f 14/198/134 16/199/134 2/197/134 5/196/134
f 16/200/135 15/201/135 1/3/135 2/4/135

usemtl Tree1
f 21/78/51 48/80/53 47/79/52
f 23/82/55 48/80/53 21/78/51
f 23/82/55 26/81/54 48/80/53
f 50/86/59 49/85/58 22/87/60
f 49/85/58 24/83/56 22/87/60
f 49/85/58 25/84/57 24/83/56
f 43/106/73 49/105/73 36/104/73
f 12/109/74 44/108/74 38/107/74
f 21/126/86 47/131/91 56/130/90
f 22/127/87 21/126/86 56/130/90
f 22/127/87 56/130/90 55/129/89
f 50/128/88 22/127/87 55/129/89
f 12/136/96 41/132/92 44/137/97
f 12/136/96 11/135/95 41/132/92
f 11/135/95 42/133/93 41/132/92
f 11/135/95 45/134/94 42/133/93
f 31/138/98 48/139/98 46/140/98
f 33/141/99 45/142/99 11/143/99
f 53/171/121 34/170/120 9/172/122
f 11/168/118 9/172/122 33/169/119
f 9/172/122 34/170/120 33/169/119
f 38/176/126 10/173/123 12/177/127
f 37/175/125 10/173/123 38/176/126
f 52/174/124 10/173/123 37/175/125
f 27/178/128 56/179/128 54/180/128
f 51/183/129 55/182/129 28/181/129
f 29/184/130 53/185/130 9/186/130
f 10/189/131 52/188/131 30/187/131
f 12/15/11 10/13/10 9/12/9
f 9/12/9 11/14/10 12/15/11
f 26/49/32 23/47/31 24/46/30
f 24/46/30 25/48/31 26/49/32
f 30/53/1 28/51/1 27/50/1
f 27/50/1 29/52/1 30/53/1
f 34/57/35 32/55/34 31/54/33
f 31/54/33 33/56/34 34/57/35
f 38/61/38 36/59/37 35/58/36
f 35/58/36 37/60/37 38/61/38
f 42/65/41 40/63/40 39/62/39
f 39/62/39 41/64/40 42/65/41
f 40/68/43 26/66/42 25/67/43
f 25/67/43 39/69/44 40/68/43
f 39/72/46 43/70/45 44/71/46
f 44/71/46 41/73/47 39/72/46
f 42/76/49 45/74/48 46/75/49
f 46/75/49 40/77/50 42/76/49
f 50/90/62 35/88/61 36/89/62
f 36/89/62 49/91/63 50/90/62
f 35/94/65 51/92/64 52/93/65
f 52/93/65 37/95/66 35/94/65
f 43/98/68 36/96/67 38/97/68
f 38/97/68 44/99/69 43/98/68
f 39/100/70 25/103/71 49/102/72
f 49/102/72 43/101/71 39/100/70
f 48/112/76 31/110/75 32/111/76
f 32/111/76 47/113/76 48/112/76
f 45/116/78 33/114/77 31/115/78
f 31/115/78 46/117/79 45/116/78
f 34/120/81 53/118/80 54/119/81
f 54/119/81 32/121/82 34/120/81
f 26/123/84 40/122/83 46/125/84
f 46/125/84 48/124/85 26/123/84
f 56/146/101 27/144/100 28/145/101
f 28/145/101 55/147/102 56/146/101
f 53/150/104 29/148/103 27/149/104
f 27/149/104 54/151/105 53/150/104
f 51/154/107 28/152/106 30/153/107
f 30/153/107 52/155/108 51/154/107
f 29/158/110 9/156/109 10/157/110
f 10/157/110 30/159/111 29/158/110
f 47/160/112 32/163/114 54/162/112
f 54/162/112 56/161/113 47/160/112
f 35/165/116 50/164/115 55/167/117
f 55/167/117 51/166/115 35/165/116

