# ProBuilder 6.0.9
# https://unity3d.com/unity/features/worldbuilding/probuilder
# 26/07/2026 10:01:14

mtllib ./Tree1.mtl
o Tree1

g Tree1
v 1.341502 3.191596 1.531391
v -0.6470194 3.191596 1.531391
v 1.52389 3.701336 1.531391
v -0.5 3.701336 1.531391
v -0.6470194 3.191596 -0.5
v -0.5 3.701336 -0.5
v 1.341502 3.191596 -0.5
v 1.52389 3.701336 -0.5
v 0.5844812 15.02345 0.8518715
v -0.02141953 15.02345 0.8518715
v 0.5844812 15.02345 0.300354
v -0.02141953 15.02345 0.300354
v 1.52389 -1.17553 -0.5
v -0.5 -1.17553 -0.5
v 1.52389 -1.17553 1.531391
v -0.5 -1.17553 1.531391
v -0.5 7.215881 1.531391
v 1.52389 7.215881 1.531391
v -0.6 7.215881 1.631391
v 1.62389 7.215881 1.631391
v -0.6000004 3.701336 -2.879837
v 1.623889 3.701336 -2.879837
v 1.52389 7.215881 -0.5
v -0.5 7.215881 -0.5
v 1.62389 7.215881 -0.6
v -0.6 7.215881 -0.6
v 1.623889 3.701336 4.334602
v -0.6000004 3.701336 4.334602
v -0.6000004 7.215881 -2.365801
v 1.623889 7.215881 -2.365801
v 1.52389 10.28324 -0.5
v -0.5 10.28324 -0.5
v 1.62389 10.28324 -0.6
v -0.6 10.28324 -0.6
v 1.623889 7.215881 3.833199
v -0.6000004 7.215881 3.833199
v -0.5 10.28324 1.531391
v 1.52389 10.28324 1.531391
v -0.6 10.28324 1.631391
v 1.62389 10.28324 1.631391
v 1.62389 13.73923 -0.6
v -0.6 13.73923 -0.6
v 1.623889 10.28324 3.192734
v -0.6000004 10.28324 3.192734
v -0.6 13.73923 1.631391
v 1.62389 13.73923 1.631391
v -0.6000004 10.28324 -2.121359
v 1.623889 10.28324 -2.121359
v -3.383897 3.701336 0.904808
v -2.249233 5.458609 0.7102509
v -0.6000004 5.458609 2.805573
v -0.6000002 5.458609 -1.739918
v -0.6 7.215881 0.5156956
v -2.541279 7.215881 0.6027908
v -1.679567 8.749558 0.5592422
v -0.6000004 8.749558 2.601109
v -0.6000004 8.749558 -1.220806
v -0.6 10.28324 0.5156956
v -1.909937 10.28324 0.4340515
v -1.393164 12.01124 0.4748726
v -0.6000004 12.01123 2.299759
v -0.6000004 12.01123 -1.146744
v -0.6 13.73923 0.5156956
v 4.207663 3.701336 0.904808
v 3.167467 5.458609 0.7102509
v 1.623889 5.458609 -1.739918
v 1.623889 5.458609 2.805573
v 1.62389 7.215881 0.5156956
v 3.471962 7.215881 0.6027908
v 2.630622 8.749558 0.5592422
v 1.623889 8.749558 -1.220806
v 1.623889 8.749558 2.601109
v 1.62389 10.28324 0.5156956
v 2.818613 10.28324 0.4340515
v 2.435268 12.01124 0.4748764
v 1.623889 12.01123 -1.146744
v 1.623889 12.01123 2.299759
v 1.62389 13.73923 0.5156956

vt 1.988522 0.4902596
vt 0 0.4902596
vt 2.170909 1
vt 0.1470194 1
vt 2.031391 0.4694815
vt 0 0.4694815
vt 2.031391 1
vt 0 1
vt 2.170909 0.4902596
vt 0.1823874 0.4902596
vt 2.02389 1
vt 2.031391 0.4586124
vt 0 0.4586124
vt 0.6059008 1
vt 0 0.4484825
vt 0.6059008 0.4484825
vt 2.02389 -1.031391
vt 0 -1.031391
vt 2.123889 0.9
vt 0.1 0.9
vt 2.22389 1
vt 0.1000004 1
vt 2.12389 1
vt 0 -1.379837
vt 2.22389 -1.379837
vt 0 0.9
vt 2.22389 0.9
vt 2.12389 -1.803211
vt 0.1000004 -1.803211
vt 0 -0.8658009
vt 2.22389 -0.8658009
vt 2.12389 -1.301807
vt 0.1000004 -1.301807
vt 1.039408 1
vt 1.645309 1
vt 0 -0.5683889
vt 2.22389 -0.5683889
vt 2.12389 -0.6613426
vt 0.1000004 -0.6613426
vt 0.5785805 1
vt 1.184481 1
vt 0 -0.502284
vt 2.22389 -0.502284
vt 0 -0.6213589
vt 2.22389 -0.6213589
vt 7.053705 -2.496925
vt 3.115955 -3.610332
vt 3.16391 -1.510198
vt 5.558742 -0.8580022
vt 0 -1.654668
vt 1.114522 -0.3273339
vt 2.229043 1
vt 3.319882 0.8697472
vt 4.41072 0.7394938
vt 2.883897 -1.803211
vt 2.883897 -3.834602
vt 2.783896 -6.214439
vt 0 -2.429794
vt 2.783896 1
vt 0 -1.131391
vt 0.1 -0.1156956
vt 0.1 -1.231391
vt 6.138729 -2.012954
vt 2.669683 -2.681775
vt 2.746428 -0.9250989
vt 4.918618 -0.5686593
vt 0 -1.621419
vt 1.133862 -0.3272638
vt 1.748633 1
vt 2.853481 0.9295311
vt 3.958329 0.8590631
vt 2.041279 -1.301807
vt 2.041279 -3.333199
vt 1.941278 -5.198999
vt 0 -2.230408
vt 1.941278 1
vt 5.282608 -2.431785
vt 2.397887 -2.714777
vt 2.494637 -0.9132938
vt 4.394924 -0.746685
vt 0 -2.268703
vt 0.9688407 -0.6409178
vt 1.512345 1
vt 2.62143 0.9657612
vt 3.730516 0.9315224
vt 1.409937 -0.6613426
vt 1.409937 -2.692734
vt 1.309937 -4.314093
vt 0 -1.758682
vt 1.309937 1
vt 0.900354 1
vt 1.451872 1
vt 2.231391 -0.4085312
vt 1.115696 -0.4085312
vt 0 -0.4085312
vt 7.113918 -2.410681
vt 2.952193 -3.381955
vt 3.317077 -1.363633
vt 5.989882 -0.7993174
vt 0 -1.803
vt 1.507725 -0.4164448
vt 2.665546 1
vt 3.765697 0.9060235
vt 4.865847 0.812047
vt 0 -3.834602
vt 0 -1.803211
vt 0.0999999 1
vt 2.683773 -2.429794
vt 0.0999999 -6.214439
vt 0.1 -1.131391
vt 0 -1.231391
vt 0 -0.1156956
vt 6.104428 -2.072522
vt 2.859543 -2.625791
vt 3.048828 -0.8886728
vt 4.976901 -0.5993152
vt 0 -1.614612
vt 1.213293 -0.3169966
vt 2.168217 1
vt 3.266891 0.9175854
vt 4.365566 0.8351707
vt 0 -3.333199
vt 0 -1.301807
vt 1.948073 -2.230408
vt 0.0999999 -5.198999
vt 5.271225 -2.458697
vt 2.584984 -2.686549
vt 2.593082 -0.9181538
vt 4.304472 -0.759594
vt 0 -2.280466
vt 0.8857715 -0.6440001
vt 1.548748 1
vt 2.655443 0.9625797
vt 3.762139 0.9251604
vt 0 -2.692734
vt 0 -0.6613426
vt 1.294723 -1.758682
vt 0.0999999 -4.314093
vt 0.7795197 1
vt 1.331037 1
vt 2.231391 -0.6521425
vt 1.115696 -0.6521425
vt 0 -0.6521425
vt 0 -1.108774
vt 2.22389 -1.108774
vt 2.22389 -3.433889
vt 0 -3.433889
vt 2.22389 -1.094617
vt 2.22389 -3.189234
vt 1.192093E-07 -3.189234
vt 1.192093E-07 -1.094617
vt 0 -0.8113971
vt 2.22389 -0.8113971
vt 2.22389 -2.775793
vt 0 -2.775793
vt 2.22389 -0.6388936
vt 2.22389 -2.53931
vt 1.192093E-07 -2.53931
vt 1.192093E-07 -0.6388936
vt 0 -0.849925
vt 2.22389 -0.849925
vt 2.22389 -2.792323
vt 0 -2.792323
vt 2.22389 -0.8018255
vt 2.22389 -2.776038
vt 1.192093E-07 -2.776038
vt 1.192093E-07 -0.8018255
vt 0.1823874 1
vt 0 -3.367126
vt 2.02389 -3.367126
vt 0 -3.370933
vt 2.031391 -3.370933
vt 0 -3.3696
vt 2.031391 -3.3696
vt 1.988522 1
vt 0.1470194 -3.367126
vt 2.170909 -3.367126

vn 0 0 1
vn -0.9608342 0.277124 0
vn 0 0 -1
vn 0.9415445 -0.3368888 0
vn 0 1 0
vn 0 -1 0
vn 0 0.5740631 -0.8188111
vn 0 0.5188897 0.8548412
vn -0.6807887 0.4808109 0.5525827
vn -0.6808705 0.4899201 0.544281
vn -0.6809523 0.4990293 0.5359792
vn -0.7507935 0.3934875 -0.5288512
vn -0.7519109 0.3587808 -0.5530881
vn -0.749676 0.4281942 -0.5046143
vn -0.7799826 0.3405693 -0.5250139
vn -0.7545745 0.5124528 -0.262507
vn -0.7291665 0.6843364 0
vn -0.7276912 0.5331373 0.2858031
vn -0.7262158 0.3819383 0.5716063
vn -0.7920079 0.3823565 0.4759485
vn -0.7897753 0.4183341 0.4461673
vn -0.7875426 0.4543118 0.4163862
vn -0.7749335 0.4001997 -0.488367
vn -0.774755 0.3782433 -0.5066426
vn -0.7751119 0.422156 -0.4700913
vn -0.8368018 0.2054295 -0.5075051
vn -0.8272648 0.3905173 -0.2537526
vn -0.8177279 0.575605 0
vn -0.8327609 0.4295104 0.224121
vn -0.8477939 0.2834159 0.448242
vn -0.8819264 0.2164097 0.4187752
vn -0.8842385 0.2362188 0.4020516
vn -0.8865507 0.2560279 0.3853279
vn -0.8635383 0.2589651 -0.4324969
vn -0.8618247 0.2491715 -0.4417825
vn -0.865252 0.2687587 -0.4232113
vn -0.889746 0.137696 -0.4351917
vn -0.8992894 0.2774283 -0.2175959
vn -0.9088328 0.4171607 0
vn -0.9076208 0.2847695 0.1969795
vn -0.9064089 0.1523784 0.393959
vn -0.9117396 0.4107686 0
vn 0.7756366 0.3434965 -0.5295263
vn 0.7747803 0.3738153 -0.5085445
vn 0.7739239 0.4041341 -0.4875627
vn 0.7076851 0.4702522 0.5272281
vn 0.7076076 0.4638266 0.5330633
vn 0.7077625 0.4766777 0.521393
vn 0.7484831 0.3684305 0.5513909
vn 0.7498975 0.514189 0.2756955
vn 0.7513118 0.6599475 0
vn 0.7754779 0.4933667 -0.2518831
vn 0.7996441 0.326786 -0.5037661
vn 0.789689 0.3670238 -0.4916146
vn 0.789705 0.3937823 -0.4691266
vn 0.7897211 0.4205407 -0.4466386
vn 0.8034805 0.4105048 0.4280145
vn 0.8062142 0.3705277 0.4612243
vn 0.8007469 0.4504818 0.3948046
vn 0.8637788 0.2692778 0.4258822
vn 0.8498812 0.4090161 0.2129411
vn 0.8359836 0.5487545 0
vn 0.8448167 0.3720906 -0.2413972
vn 0.8536498 0.1954268 -0.4827944
vn 0.881095 0.2323374 -0.4119357
vn 0.878244 0.2184426 -0.4249696
vn 0.8753931 0.2045479 -0.4380035
vn 0.8980289 0.1953892 0.3940938
vn 0.8988813 0.2011703 0.3892852
vn 0.8971766 0.1896081 0.3989024
vn 0.9026751 0.1552358 0.4013471
vn 0.9039282 0.2901309 0.2006736
vn 0.9051812 0.425026 0
vn 0.8953263 0.2826035 -0.2215231
vn 0.8854713 0.1401809 -0.4430461
vn 0.7773021 0.6291275 0
vn 0 0.6059942 0.7929338
vn 0 0.5555733 0.8314676
vn 0 0.6564151 0.7544
vn 0 0.5442134 -0.8389468
vn 0 0.5956656 0.8014672
vn 0 0.5344181 0.8452203
vn 0 0.5650418 0.8233438
vn 0 0.6262894 0.7795906
vn 0 0.5238956 -0.843192
vn 0 0.5982386 -0.801318
vn 0 0.4495525 -0.885066
vn 0 0.3752094 -0.9269401
vn 0 0.4263084 0.9031479
vn 0 0.3607428 0.9326653
vn 0 0.3935256 0.9179066
vn 0 0.4590913 0.8883891
vn 0 0.4280626 -0.8984792
vn 0 0.4912625 -0.8710115
vn 0 0.3648628 -0.925947
vn 0 0.301663 -0.9534147
vn 0.9991291 0.04172733 0
vn -0.9994338 -0.03364596 0

usemtl Wood1
f 3/3/1 4/4/1 2/2/1 1/1/1
f 4/7/2 6/8/2 5/6/2 2/5/2
f 6/11/3 8/8/3 7/10/3 5/9/3
f 8/7/4 3/8/4 1/13/4 7/12/4
f 15/11/6 16/8/6 14/18/6 13/17/6
f 13/169/3 14/170/3 5/3/3 7/168/3
f 15/171/97 13/172/97 7/7/97 1/8/97
f 14/173/98 16/174/98 2/7/98 5/8/98
f 16/176/1 15/177/1 1/175/1 2/8/1

usemtl Tree3
f 28/59/6 49/58/6 4/55/6
f 49/58/6 6/56/6 4/55/6
f 49/58/6 21/57/6 6/56/6
f 24/60/5 26/62/5 53/61/5
f 17/26/5 24/60/5 53/61/5
f 17/26/5 53/61/5 19/22/5
f 32/60/5 34/62/5 58/61/5
f 37/26/5 32/60/5 58/61/5
f 37/26/5 58/61/5 39/22/5
f 36/76/6 54/75/6 17/72/6
f 54/75/6 24/73/6 17/72/6
f 54/75/6 29/74/6 24/73/6
f 44/90/6 59/89/6 37/86/6
f 59/89/6 32/87/6 37/86/6
f 59/89/6 47/88/6 32/87/6
f 12/91/42 42/95/42 63/94/42
f 10/92/42 12/91/42 63/94/42
f 10/92/42 63/94/42 45/93/42
f 3/106/6 64/108/6 27/107/6
f 3/106/6 8/105/6 64/108/6
f 8/105/6 22/109/6 64/108/6
f 68/112/5 25/111/5 23/110/5
f 68/112/5 23/110/5 18/20/5
f 20/8/5 68/112/5 18/20/5
f 18/123/6 69/124/6 35/107/6
f 18/123/6 23/122/6 69/124/6
f 23/122/6 30/125/6 69/124/6
f 73/112/5 33/111/5 31/110/5
f 73/112/5 31/110/5 38/20/5
f 40/8/5 73/112/5 38/20/5
f 38/136/6 74/137/6 43/107/6
f 38/136/6 31/135/6 74/137/6
f 31/135/6 48/138/6 74/137/6
f 78/142/76 41/141/76 11/140/76
f 78/142/76 11/140/76 9/139/76
f 46/143/76 78/142/76 9/139/76
f 20/21/78 19/8/78 51/144/77
f 20/21/78 51/144/77 67/145/77
f 51/144/77 27/146/79 67/145/77
f 51/144/77 28/147/79 27/146/79
f 22/150/80 21/149/80 52/148/80
f 66/151/80 22/150/80 52/148/80
f 66/151/80 52/148/80 26/21/80
f 25/8/80 66/151/80 26/21/80
f 39/8/82 72/153/83 40/21/82
f 39/8/82 56/152/81 72/153/83
f 56/152/81 35/154/84 72/153/83
f 56/152/81 36/155/84 35/154/84
f 30/158/86 29/157/86 57/156/85
f 71/159/87 30/158/86 57/156/85
f 71/159/87 57/156/85 34/21/88
f 33/8/88 71/159/87 34/21/88
f 45/8/90 77/161/91 46/21/90
f 45/8/90 61/160/89 77/161/91
f 61/160/89 43/162/92 77/161/91
f 61/160/89 44/163/92 43/162/92
f 48/166/94 47/165/94 62/164/93
f 76/167/95 48/166/94 62/164/93
f 76/167/95 62/164/93 42/21/96
f 41/8/96 76/167/95 42/21/96
f 12/16/5 10/14/5 9/8/5
f 9/8/5 11/15/5 12/16/5
f 20/8/5 18/20/5 17/19/5
f 17/19/5 19/21/5 20/8/5
f 22/25/6 8/23/6 6/22/6
f 6/22/6 21/24/6 22/25/6
f 26/27/5 24/23/5 23/22/5
f 23/22/5 25/26/5 26/27/5
f 28/8/6 4/29/6 3/28/6
f 3/28/6 27/21/6 28/8/6
f 30/31/6 23/23/6 24/22/6
f 24/22/6 29/30/6 30/31/6
f 34/27/5 32/23/5 31/22/5
f 31/22/5 33/26/5 34/27/5
f 36/8/6 17/33/6 18/32/6
f 18/32/6 35/21/6 36/8/6
f 40/8/5 38/20/5 37/19/5
f 37/19/5 39/21/5 40/8/5
f 42/37/7 12/35/7 11/34/7
f 11/34/7 41/36/7 42/37/7
f 44/8/6 37/39/6 38/38/6
f 38/38/6 43/21/6 44/8/6
f 46/43/8 9/41/8 10/40/8
f 10/40/8 45/42/8 46/43/8
f 48/45/6 31/23/6 32/22/6
f 32/22/6 47/44/6 48/45/6
f 50/48/11 49/47/10 28/46/9
f 28/46/9 51/49/10 50/48/11
f 49/47/12 50/48/14 52/51/12
f 52/51/12 21/50/13 49/47/12
f 50/48/16 53/53/17 26/52/16
f 26/52/16 52/51/15 50/48/16
f 53/53/17 50/48/18 51/49/19
f 51/49/19 19/54/18 53/53/17
f 55/65/22 54/64/21 36/63/20
f 36/63/20 56/66/21 55/65/22
f 54/64/23 55/65/25 57/68/23
f 57/68/23 29/67/24 54/64/23
f 55/65/27 58/70/28 34/69/27
f 34/69/27 57/68/26 55/65/27
f 58/70/28 55/65/29 56/66/30
f 56/66/30 39/71/29 58/70/28
f 60/79/33 59/78/32 44/77/31
f 44/77/31 61/80/32 60/79/33
f 47/81/35 59/78/34 60/79/36
f 60/79/36 62/82/34 47/81/35
f 62/82/37 60/79/38 63/84/39
f 63/84/39 42/83/38 62/82/37
f 60/79/40 61/80/41 45/85/40
f 45/85/40 63/84/39 60/79/40
f 64/97/44 22/96/43 66/99/44
f 66/99/44 65/98/45 64/97/44
f 27/100/47 64/97/46 65/98/48
f 65/98/48 67/101/46 27/100/47
f 67/101/49 65/98/50 68/103/51
f 68/103/51 20/102/50 67/101/49
f 65/98/52 66/99/53 25/104/52
f 25/104/52 68/103/51 65/98/52
f 69/114/55 30/113/54 71/116/55
f 71/116/55 70/115/56 69/114/55
f 35/117/58 69/114/57 70/115/59
f 70/115/59 72/118/57 35/117/58
f 72/118/60 70/115/61 73/120/62
f 73/120/62 40/119/61 72/118/60
f 70/115/63 71/116/64 33/121/63
f 33/121/63 73/120/62 70/115/63
f 74/127/66 48/126/65 76/129/66
f 76/129/66 75/128/67 74/127/66
f 43/130/69 74/127/68 75/128/70
f 75/128/70 77/131/68 43/130/69
f 75/128/72 78/133/73 46/132/72
f 46/132/72 77/131/71 75/128/72
f 75/128/74 76/129/75 41/134/74
f 41/134/74 78/133/73 75/128/74

