# Blender 5.1.2
# www.blender.org
mtllib Axe.mtl
o Untitled
v -0.500000 4.402234 2.100000
v -0.500000 4.401975 1.600000
v -0.500000 4.502234 2.200000
v -0.500000 4.500000 1.400000
v -0.500000 4.600000 2.300000
v -0.500000 5.100000 2.299999
v -0.500000 5.199152 2.200000
v -0.500000 5.299152 2.099999
v -0.500000 5.200000 1.400000
v -0.500000 5.296092 1.600000
v -0.400000 4.197581 0.600000
v -0.400000 4.200000 0.800000
v -0.400000 4.101339 0.500000
v -0.400000 4.200000 0.400000
v -0.400000 4.397582 1.200000
v -0.400000 4.297581 0.900000
v -0.400000 4.400001 2.200000
v -0.400000 4.401975 1.600000
v -0.400000 4.400000 0.800000
v -0.400000 4.400000 0.700000
v -0.400000 4.302680 0.400000
v -0.400000 4.400001 0.300000
v -0.400000 4.500000 2.300000
v -0.400000 4.502234 2.200000
v -0.400000 4.402234 2.100000
v -0.400000 4.500000 1.400000
v -0.400000 4.600000 2.400000
v -0.400000 4.600000 2.300000
v -0.400000 4.700000 0.700000
v -0.400000 4.700000 0.600000
v -0.400000 4.602679 0.300000
v -0.400000 4.700000 0.200000
v -0.400000 5.100000 2.400000
v -0.400000 5.100000 2.299999
v -0.400000 5.199152 2.200000
v -0.400000 5.200000 2.299999
v -0.400000 5.200000 1.400000
v -0.400000 5.300000 2.200000
v -0.400000 5.299152 2.099999
v -0.400000 5.296092 1.600000
v -0.400000 5.300960 1.400000
v -0.400000 5.300000 0.700000
v -0.400000 5.300000 0.600000
v -0.400000 5.403242 1.200000
v -0.400000 5.503242 1.000000
v -0.400000 5.599531 0.300000
v -0.400000 5.500000 0.200000
v -0.400000 5.600000 0.800000
v -0.400000 5.600000 0.700000
v -0.400000 5.699063 0.400000
v -0.400000 5.603241 0.900000
v -0.400000 5.700000 0.800000
v -0.400000 5.703242 0.700000
v -0.400000 5.803242 0.600000
v -0.400000 5.899532 0.500000
v -0.400000 5.800001 0.400000
v -0.300000 0.000000 1.400000
v -0.300000 0.000000 1.300000
v -0.300000 0.100000 1.600000
v -0.300000 0.100000 1.492026
v -0.300000 0.200000 1.696013
v -0.300000 0.300000 1.796013
v -0.300000 0.600000 1.800000
v -0.300000 0.698763 1.700000
v -0.300000 0.700000 1.300000
v -0.300000 0.800000 1.700000
v -0.300000 0.800000 1.300000
v -0.300000 1.700000 1.700000
v -0.300000 1.700000 1.300000
v -0.300000 1.800000 1.700000
v -0.300000 1.800000 1.300000
v -0.300000 2.000000 1.800000
v -0.300000 1.906198 1.700000
v -0.300000 2.197647 1.400000
v -0.300000 2.100000 1.300000
v -0.300000 3.200001 1.900000
v -0.300000 3.081989 1.800000
v -0.300000 3.299959 1.500000
v -0.300000 3.200000 1.400000
v -0.300000 3.897582 0.200000
v -0.300000 3.801340 0.100000
v -0.300000 3.901340 -0.000000
v -0.300000 4.097581 0.400000
v -0.300000 3.997581 0.300000
v -0.300000 4.000000 -0.100000
v -0.300000 4.100000 2.000000
v -0.300000 3.999468 1.900000
v -0.300000 4.101339 0.500000
v -0.300000 4.200000 0.400000
v -0.300000 4.202680 -0.100000
v -0.300000 4.300000 -0.200000
v -0.300000 4.400001 2.000000
v -0.300000 4.400001 1.500000
v -0.300000 4.302680 0.400000
v -0.300000 4.400001 0.300000
v -0.300000 4.503176 2.400000
v -0.300000 4.503176 2.300000
v -0.300000 4.502679 -0.200000
v -0.300000 4.600000 -0.300000
v -0.300000 4.602679 0.300000
v -0.300000 4.700000 0.200000
v -0.300000 5.199596 2.400000
v -0.300000 5.199596 2.299999
v -0.300000 5.300000 2.000000
v -0.300000 5.300000 1.500000
v -0.300000 5.399063 -0.200000
v -0.300000 5.300000 -0.300000
v -0.300000 5.500000 0.200000
v -0.300000 5.699063 0.400000
v -0.300000 5.599531 0.300000
v -0.300000 5.699063 -0.100000
v -0.300000 5.600000 -0.200000
v -0.300000 5.700000 2.000000
v -0.300000 5.700000 1.500000
v -0.300000 5.800001 0.400000
v -0.300000 5.899064 -0.000000
v -0.300000 5.800001 -0.100000
v -0.300000 5.901849 0.500000
v -0.300000 6.003242 0.400000
v -0.300000 6.100000 0.300000
v -0.300000 6.199532 0.099999
v -0.300000 6.100000 -0.000000
v -0.300000 6.299532 0.200000
v -0.300000 6.206484 0.300000
v -0.200000 0.601214 1.800000
v -0.200000 0.698763 1.700000
v -0.200000 1.885602 1.800000
v -0.200000 1.800000 1.700000
v -0.200000 2.000000 1.800000
v -0.200000 1.906198 1.700000
v -0.200000 2.197647 1.400000
v -0.200000 2.100000 1.300000
v -0.200000 2.397647 1.400000
v -0.200000 2.300000 1.300000
v -0.200000 3.000000 1.900000
v -0.200000 2.881989 1.800000
v -0.200000 3.200001 1.900000
v -0.200000 3.081989 1.800000
v -0.200000 3.299959 1.500000
v -0.200000 3.200000 1.400000
v -0.200000 3.499959 1.500000
v -0.200000 3.400000 1.400000
v -0.200000 3.600000 0.100000
v -0.200000 3.601018 -0.000000
v -0.200000 3.701018 -0.100000
v -0.200000 3.800000 -0.200000
v -0.200000 3.900001 2.000000
v -0.200000 3.799468 1.900000
v -0.200000 3.801340 0.100000
v -0.200000 3.901340 -0.000000
v -0.200000 4.000000 -0.100000
v -0.200000 3.902036 -0.200000
v -0.200000 4.000000 -0.300000
v -0.200000 4.100000 2.000000
v -0.200000 3.999468 1.900000
v -0.200000 4.202680 -0.100000
v -0.200000 4.300000 -0.200000
v -0.200000 4.302037 -0.300000
v -0.200000 4.400001 -0.400000
v -0.200000 4.502679 -0.200000
v -0.200000 4.600000 -0.300000
v -0.200000 5.399063 -0.200000
v -0.200000 5.300000 -0.300000
v -0.200000 5.499063 -0.300000
v -0.200000 5.400001 -0.400000
v -0.200000 5.699063 -0.100000
v -0.200000 5.600000 -0.200000
v -0.200000 5.799063 -0.200000
v -0.200000 5.700000 -0.300000
v -0.200000 5.899064 -0.000000
v -0.200000 5.800001 -0.100000
v -0.200000 5.999063 -0.100000
v -0.200000 5.900001 -0.200000
v -0.200000 6.100000 -0.000000
v -0.200000 6.199532 0.099999
v -0.200000 6.299532 -0.000000
v -0.200000 6.200000 -0.100000
v -0.200000 6.301849 0.200000
v -0.200000 6.399532 0.099999
v -0.100000 0.601214 1.800000
v -0.100000 0.698763 1.700000
v -0.100000 1.885602 1.800000
v -0.100000 1.800000 1.700000
v -0.100000 2.000000 1.800000
v -0.100000 1.906198 1.700000
v -0.100000 2.197647 1.400000
v -0.100000 2.100000 1.300000
v -0.100000 2.397647 1.400000
v -0.100000 2.300000 1.300000
v -0.100000 3.000000 1.900000
v -0.100000 2.881989 1.800000
v -0.100000 3.200001 1.900000
v -0.100000 3.081989 1.800000
v -0.100000 3.299959 1.500000
v -0.100000 3.200000 1.400000
v -0.100000 3.499959 1.500000
v -0.100000 3.400000 1.400000
v -0.100000 3.600000 0.100000
v -0.100000 3.601018 -0.000000
v -0.100000 3.701018 -0.100000
v -0.100000 3.800000 -0.200000
v -0.100000 3.900001 2.000000
v -0.100000 3.799468 1.900000
v -0.100000 3.801018 0.100000
v -0.100000 3.901018 -0.000000
v -0.100000 4.000000 -0.100000
v -0.100000 3.902036 -0.200000
v -0.100000 4.000000 -0.300000
v -0.100000 4.100000 2.000000
v -0.100000 3.999468 1.900000
v -0.100000 4.202036 -0.100000
v -0.100000 4.300000 -0.200000
v -0.100000 4.302037 -0.300000
v -0.100000 4.400001 -0.400000
v -0.100000 4.502036 -0.200000
v -0.100000 4.600000 -0.300000
v -0.100000 5.399063 -0.200000
v -0.100000 5.300000 -0.300000
v -0.100000 5.499063 -0.300000
v -0.100000 5.400001 -0.400000
v -0.100000 5.699063 -0.100000
v -0.100000 5.600000 -0.200000
v -0.100000 5.799063 -0.200000
v -0.100000 5.700000 -0.300000
v -0.100000 5.899064 -0.000000
v -0.100000 5.800001 -0.100000
v -0.100000 5.999063 -0.100000
v -0.100000 5.900001 -0.200000
v -0.100000 6.100000 -0.000000
v -0.100000 6.199532 0.099999
v -0.100000 6.299532 -0.000000
v -0.100000 6.200000 -0.100000
v -0.100000 6.301849 0.200000
v -0.100000 6.399532 0.099999
v 0.000000 0.000000 1.400000
v 0.000000 0.000000 1.300000
v 0.000000 0.100000 1.600000
v 0.000000 0.100000 1.492026
v 0.000000 0.200000 1.696013
v 0.000000 0.300000 1.796013
v 0.000000 0.600000 1.800000
v 0.000000 0.698763 1.700000
v 0.000000 0.700000 1.300000
v 0.000000 0.800000 1.700000
v 0.000000 0.800000 1.300000
v 0.000000 1.700000 1.700000
v 0.000000 1.700000 1.300000
v 0.000000 1.800000 1.700000
v 0.000000 1.800000 1.300000
v 0.000000 2.000000 1.800000
v 0.000000 1.906198 1.700000
v 0.000000 2.197647 1.400000
v 0.000000 2.100000 1.300000
v 0.000000 3.200001 1.900000
v 0.000000 3.081989 1.800000
v 0.000000 3.299959 1.500000
v 0.000000 3.200000 1.400000
v 0.000000 3.897582 0.200000
v 0.000000 3.801018 0.100000
v 0.000000 3.901018 -0.000000
v 0.000000 4.097581 0.400000
v 0.000000 3.997581 0.300000
v 0.000000 4.000000 -0.100000
v 0.000000 4.100000 2.000000
v 0.000000 3.999468 1.900000
v 0.000000 4.102975 0.500000
v 0.000000 4.200000 0.400000
v 0.000000 4.202036 -0.100000
v 0.000000 4.300000 -0.200000
v 0.000000 4.400001 2.000000
v 0.000000 4.400001 1.500000
v 0.000000 4.305951 0.400000
v 0.000000 4.400001 0.300000
v 0.000000 4.503176 2.400000
v 0.000000 4.503176 2.300000
v 0.000000 4.502036 -0.200000
v 0.000000 4.600000 -0.300000
v 0.000000 4.605950 0.300000
v 0.000000 4.700000 0.200000
v 0.000000 5.199596 2.400000
v 0.000000 5.199596 2.299999
v 0.000000 5.300000 2.000000
v 0.000000 5.300000 1.500000
v 0.000000 5.399063 -0.200000
v 0.000000 5.300000 -0.300000
v 0.000000 5.500000 0.200000
v 0.000000 5.699063 0.400000
v 0.000000 5.599531 0.300000
v 0.000000 5.699063 -0.100000
v 0.000000 5.600000 -0.200000
v 0.000000 5.700000 2.000000
v 0.000000 5.700000 1.500000
v 0.000000 5.800001 0.400000
v 0.000000 5.899064 -0.000000
v 0.000000 5.800001 -0.100000
v 0.000000 5.901849 0.500000
v 0.000000 6.003242 0.400000
v 0.000000 6.100000 0.300000
v 0.000000 6.199532 0.099999
v 0.000000 6.100000 -0.000000
v 0.000000 6.206484 0.300000
v 0.000000 6.299532 0.200000
v 0.100000 4.197581 0.600000
v 0.100000 4.102975 0.500000
v 0.100000 4.297581 0.900000
v 0.100000 4.200000 0.800000
v 0.100000 4.200000 0.400000
v 0.100000 4.400001 2.200000
v 0.100000 4.401353 2.100000
v 0.100000 4.397582 1.200000
v 0.100000 4.400000 0.800000
v 0.100000 4.400000 0.700000
v 0.100000 4.305951 0.400000
v 0.100000 4.400001 0.300000
v 0.100000 4.500000 2.300000
v 0.100000 4.501353 2.200000
v 0.100000 4.400364 1.600000
v 0.100000 4.500000 1.400000
v 0.100000 4.600000 2.400000
v 0.100000 4.600000 2.300000
v 0.100000 4.700000 0.700000
v 0.100000 4.700000 0.600000
v 0.100000 4.605950 0.300000
v 0.100000 4.700000 0.200000
v 0.100000 5.100000 2.400000
v 0.100000 5.100000 2.299999
v 0.100000 5.200000 2.299999
v 0.100000 5.199904 2.200000
v 0.100000 5.299905 2.099999
v 0.100000 5.298254 1.600000
v 0.100000 5.200000 1.400000
v 0.100000 5.300000 2.200000
v 0.100000 5.300960 1.400000
v 0.100000 5.300000 0.700000
v 0.100000 5.300000 0.600000
v 0.100000 5.403242 1.200000
v 0.100000 5.599531 0.300000
v 0.100000 5.500000 0.200000
v 0.100000 5.503242 1.000000
v 0.100000 5.603241 0.900000
v 0.100000 5.600000 0.800000
v 0.100000 5.600000 0.700000
v 0.100000 5.699063 0.400000
v 0.100000 5.700000 0.800000
v 0.100000 5.703242 0.700000
v 0.100000 5.803242 0.600000
v 0.100000 5.800001 0.400000
v 0.100000 5.899532 0.500000
v 0.200000 4.401353 2.100000
v 0.200000 4.400364 1.600000
v 0.200000 4.501353 2.200000
v 0.200000 4.500000 1.400000
v 0.200000 4.600000 2.300000
v 0.200000 5.100000 2.299999
v 0.200000 5.199904 2.200000
v 0.200000 5.298254 1.600000
v 0.200000 5.200000 1.400000
v 0.200000 5.299905 2.099999
vn -1.0000 -0.0000 -0.0000
vn -1.0000 -0.0001 -0.0000
vn 1.0000 -0.0000 -0.0000
vn -0.0000 -0.0000 1.0000
vn -0.0000 -0.6772 0.7358
vn -0.0000 -0.0000 -1.0000
vn -0.0000 -1.0000 -0.0000
vn -0.0000 -0.7597 0.6503
vn -0.0000 -0.7293 0.6841
vn -0.0000 -0.6465 0.7629
vn -0.0000 -0.7143 -0.6998
vn -0.0000 -0.7144 -0.6998
vn -0.0000 -0.7244 0.6894
vn -0.0000 -0.7052 0.7090
vn -0.0000 -0.7166 -0.6974
vn -0.0000 -0.7166 -0.6975
vn -0.0000 -0.7167 -0.6974
vn -0.0000 -0.8714 0.4906
vn -0.0000 -0.9286 0.3712
vn -0.0000 -0.7285 -0.6851
vn -0.0000 -0.7284 -0.6851
vn -0.0000 -0.9532 0.3024
vn -0.0000 -1.0000 0.0001
vn -0.0000 -0.7231 0.6908
vn -0.0000 -0.7167 0.6973
vn -0.0000 -0.7167 0.6974
vn -0.0000 -0.9014 -0.4329
vn -0.0000 -0.8957 -0.4446
vn -0.6836 -0.7299 -0.0000
vn 0.6836 -0.7299 -0.0000
vn -0.0000 0.7159 0.6982
vn -0.0000 0.7158 0.6983
vn -0.0000 0.7155 -0.6986
vn -0.0000 0.7073 -0.7070
vn -0.7042 0.7100 -0.0000
vn 0.7042 0.7100 -0.0000
vn 0.7043 0.7099 -0.0000
vn -0.0000 0.7131 0.7011
vn -0.0000 0.7131 0.7010
vn -0.0000 0.7078 0.7064
vn -0.0000 0.7079 0.7063
vn -0.0000 0.7077 0.7065
vn -0.0000 0.7076 0.7066
vn -0.0000 1.0000 -0.0000
vn -0.0000 0.9082 -0.4186
vn -0.0000 0.9006 -0.4346
vn -0.0000 1.0000 -0.0001
vn 0.0001 1.0000 -0.0000
vn 0.0001 1.0000 -0.0001
vn 0.0001 1.0000 0.0001
vn -0.0000 1.0000 0.0002
vn -0.0000 0.7104 -0.7038
vn -0.0000 0.8978 0.4403
vn -0.0000 0.9059 0.4236
vn -0.0000 0.7105 -0.7037
vn -0.0000 0.7304 0.6831
vn -0.0000 0.7304 0.6830
vn -0.0000 0.9302 0.3672
vn -0.0000 0.7104 -0.7037
vt 0.974609 0.500000
vt 0.970703 0.500000
vt 0.373047 0.500000
s 1
usemtl palette
f 3/1/1 4/1/1 2/1/1
f 3/1/1 2/1/1 1/1/1
f 6/1/1 3/1/1 5/1/1
f 7/1/1 4/1/1 3/1/1
f 7/1/1 3/1/1 6/1/1
f 8/1/1 4/1/1 7/1/1
f 10/1/1 4/1/1 8/1/1
f 9/1/1 4/1/1 10/1/1
f 19/2/2 14/2/1 13/2/1
f 19/2/2 11/2/1 12/2/1
f 19/1/2 16/1/1 15/1/1
f 19/2/2 13/2/1 11/2/1
f 19/1/2 12/1/1 16/1/1
f 20/2/1 14/2/1 19/2/2
f 21/2/1 14/2/1 20/2/1
f 24/1/1 25/1/1 17/1/1
f 18/1/1 19/1/2 15/1/1
f 18/1/1 20/1/1 19/1/2
f 26/1/1 20/1/1 18/1/1
f 28/1/1 24/1/1 23/1/1
f 29/1/1 20/1/1 26/1/1
f 29/2/1 22/2/1 21/2/1
f 29/2/1 21/2/1 20/2/1
f 30/2/1 22/2/1 29/2/1
f 31/2/1 22/2/1 30/2/1
f 33/1/1 28/1/1 27/1/1
f 34/1/1 28/1/1 33/1/1
f 36/1/1 35/1/1 34/1/1
f 37/1/1 29/1/1 26/1/1
f 37/1/1 30/1/1 29/1/1
f 38/1/1 39/1/1 35/1/1
f 41/1/1 30/1/1 37/1/1
f 41/1/1 37/1/1 40/1/1
f 42/1/1 30/1/1 41/1/1
f 43/2/1 32/2/1 31/2/1
f 43/1/1 30/1/1 42/1/1
f 43/2/1 31/2/1 30/2/1
f 44/1/1 42/1/1 41/1/1
f 45/1/1 42/1/1 44/1/1
f 46/2/1 32/2/1 43/2/1
f 46/2/1 43/2/1 42/2/1
f 47/2/1 32/2/1 46/2/1
f 51/1/1 42/1/1 45/1/1
f 48/1/1 42/1/1 51/1/1
f 49/2/1 46/2/1 42/2/1
f 49/1/1 42/1/1 48/1/1
f 50/2/1 46/2/1 49/2/1
f 52/2/1 50/2/1 49/2/1
f 52/1/1 48/1/1 51/1/1
f 52/2/1 49/2/1 48/2/1
f 53/2/1 50/2/1 52/2/1
f 54/2/1 50/2/1 53/2/1
f 55/2/1 50/2/1 54/2/1
f 56/2/1 50/2/1 55/2/1
f 60/3/1 58/3/1 57/3/1
f 61/3/1 60/3/1 59/3/1
f 64/3/1 61/3/1 62/3/1
f 64/3/1 62/3/1 63/3/1
f 65/3/1 58/3/1 60/3/1
f 65/3/1 61/3/1 64/3/1
f 65/3/1 60/3/1 61/3/1
f 66/2/1 65/2/1 64/2/1
f 67/2/1 65/2/1 66/2/1
f 68/1/1 67/1/1 66/1/1
f 69/1/1 67/1/1 68/1/1
f 70/2/1 69/2/1 68/2/1
f 71/2/1 69/2/1 70/2/1
f 73/3/1 71/3/1 70/3/1
f 74/3/1 71/3/1 73/3/1
f 74/3/1 73/3/1 72/3/1
f 75/3/1 71/3/1 74/3/1
f 77/3/1 74/3/1 72/3/1
f 78/3/1 74/3/1 77/3/1
f 79/3/1 74/3/1 78/3/1
f 84/2/1 82/2/1 81/2/1
f 84/2/1 81/2/1 80/2/1
f 87/3/1 78/3/1 77/3/1
f 87/3/1 77/3/1 76/3/1
f 83/2/1 85/2/1 82/2/1
f 83/2/1 82/2/1 84/2/1
f 89/2/1 85/2/1 83/2/1
f 89/2/1 83/2/1 88/2/1
f 90/2/1 85/2/1 89/2/1
f 92/3/1 87/3/1 86/3/1
f 93/3/1 78/3/1 87/3/1
f 93/3/1 87/3/1 92/3/1
f 94/2/1 91/2/1 90/2/1
f 94/2/1 90/2/1 89/2/1
f 95/2/1 91/2/1 94/2/1
f 98/2/1 91/2/1 95/2/1
f 100/2/1 99/2/1 98/2/1
f 100/2/1 98/2/1 95/2/1
f 101/2/1 99/2/1 100/2/1
f 106/2/1 99/2/1 101/2/1
f 107/2/1 99/2/1 106/2/1
f 108/2/1 106/2/1 101/2/1
f 111/2/1 106/2/1 108/2/1
f 111/2/1 108/2/1 110/2/1
f 112/2/1 106/2/1 111/2/1
f 113/3/1 105/3/1 104/3/1
f 114/3/1 105/3/1 113/3/1
f 115/2/1 110/2/1 109/2/1
f 115/2/1 111/2/1 110/2/1
f 116/2/1 111/2/1 115/2/1
f 117/2/1 111/2/1 116/2/1
f 118/2/1 116/2/1 115/2/1
f 119/2/1 116/2/1 118/2/1
f 120/2/1 116/2/1 119/2/1
f 121/2/1 116/2/1 120/2/1
f 122/2/1 116/2/1 121/2/1
f 123/2/1 121/2/1 120/2/1
f 124/2/1 123/2/1 120/2/1
f 129/3/1 128/3/1 127/3/1
f 130/3/1 128/3/1 129/3/1
f 133/3/1 132/3/1 131/3/1
f 134/3/1 132/3/1 133/3/1
f 137/3/1 136/3/1 135/3/1
f 138/3/1 136/3/1 137/3/1
f 141/3/1 140/3/1 139/3/1
f 142/3/1 140/3/1 141/3/1
f 149/2/1 144/2/1 143/2/1
f 149/2/1 145/2/1 144/2/1
f 149/2/1 146/2/1 145/2/1
f 150/2/1 146/2/1 149/2/1
f 151/2/1 146/2/1 150/2/1
f 152/2/1 146/2/1 151/2/1
f 154/3/1 148/3/1 147/3/1
f 155/3/1 148/3/1 154/3/1
f 156/2/1 153/2/1 152/2/1
f 156/2/1 152/2/1 151/2/1
f 157/2/1 153/2/1 156/2/1
f 158/2/1 153/2/1 157/2/1
f 160/2/1 158/2/1 157/2/1
f 160/2/1 159/2/1 158/2/1
f 161/2/1 159/2/1 160/2/1
f 163/2/1 159/2/1 161/2/1
f 164/2/1 159/2/1 163/2/1
f 164/2/1 163/2/1 162/2/1
f 165/2/1 159/2/1 164/2/1
f 167/2/1 164/2/1 162/2/1
f 168/2/1 164/2/1 167/2/1
f 168/2/1 167/2/1 166/2/1
f 169/2/1 164/2/1 168/2/1
f 171/2/1 168/2/1 166/2/1
f 172/2/1 168/2/1 171/2/1
f 172/2/1 171/2/1 170/2/1
f 173/2/1 168/2/1 172/2/1
f 174/2/1 172/2/1 170/2/1
f 176/2/1 172/2/1 174/2/1
f 176/2/1 174/2/1 175/2/1
f 177/2/1 172/2/1 176/2/1
f 178/2/1 176/2/1 175/2/1
f 179/2/1 176/2/1 178/2/1
f 182/3/3 183/3/3 184/3/3
f 184/3/3 183/3/3 185/3/3
f 186/3/3 187/3/3 188/3/3
f 188/3/3 187/3/3 189/3/3
f 190/3/3 191/3/3 192/3/3
f 192/3/3 191/3/3 193/3/3
f 194/3/3 195/3/3 196/3/3
f 196/3/3 195/3/3 197/3/3
f 198/2/3 199/2/3 204/2/3
f 199/2/3 200/2/3 204/2/3
f 200/2/3 201/2/3 204/2/3
f 204/2/3 201/2/3 205/2/3
f 205/2/3 201/2/3 206/2/3
f 206/2/3 201/2/3 207/2/3
f 202/3/3 203/3/3 209/3/3
f 209/3/3 203/3/3 210/3/3
f 207/2/3 208/2/3 211/2/3
f 206/2/3 207/2/3 211/2/3
f 211/2/3 208/2/3 212/2/3
f 212/2/3 208/2/3 213/2/3
f 212/2/3 213/2/3 215/2/3
f 213/2/3 214/2/3 215/2/3
f 215/2/3 214/2/3 216/2/3
f 216/2/3 214/2/3 218/2/3
f 218/2/3 214/2/3 219/2/3
f 217/2/3 218/2/3 219/2/3
f 219/2/3 214/2/3 220/2/3
f 217/2/3 219/2/3 222/2/3
f 222/2/3 219/2/3 223/2/3
f 221/2/3 222/2/3 223/2/3
f 223/2/3 219/2/3 224/2/3
f 221/2/3 223/2/3 226/2/3
f 226/2/3 223/2/3 227/2/3
f 225/2/3 226/2/3 227/2/3
f 227/2/3 223/2/3 228/2/3
f 225/2/3 227/2/3 229/2/3
f 229/2/3 227/2/3 231/2/3
f 230/2/3 229/2/3 231/2/3
f 231/2/3 227/2/3 232/2/3
f 230/2/3 231/2/3 233/2/3
f 233/2/3 231/2/3 234/2/3
f 235/3/3 236/3/3 238/3/3
f 237/3/3 238/3/3 239/3/3
f 240/3/3 239/3/3 242/3/3
f 241/3/3 240/3/3 242/3/3
f 238/3/3 236/3/3 243/3/3
f 242/3/3 239/3/3 243/3/3
f 239/3/3 238/3/3 243/3/3
f 242/2/3 243/2/3 244/2/3
f 244/2/3 243/2/3 245/2/3
f 244/1/3 245/1/3 246/1/3
f 246/1/3 245/1/3 247/1/3
f 246/2/3 247/2/3 248/2/3
f 248/2/3 247/2/3 249/2/3
f 248/3/3 249/3/3 251/3/3
f 251/3/3 249/3/3 252/3/3
f 250/3/3 251/3/3 252/3/3
f 252/3/3 249/3/3 253/3/3
f 250/3/3 252/3/3 255/3/3
f 255/3/3 252/3/3 256/3/3
f 256/3/3 252/3/3 257/3/3
f 259/2/3 260/2/3 262/2/3
f 258/2/3 259/2/3 262/2/3
f 255/3/3 256/3/3 265/3/3
f 254/3/3 255/3/3 265/3/3
f 260/2/3 263/2/3 261/2/3
f 262/2/3 260/2/3 261/2/3
f 261/2/3 263/2/3 267/2/3
f 266/2/3 261/2/3 267/2/3
f 267/2/3 263/2/3 268/2/3
f 264/3/3 265/3/3 270/3/3
f 265/3/3 256/3/3 271/3/3
f 270/3/3 265/3/3 271/3/3
f 268/2/3 269/2/3 272/2/3
f 267/2/3 268/2/3 272/2/3
f 272/2/3 269/2/3 273/2/3
f 273/2/3 269/2/3 276/2/3
f 276/2/3 277/2/3 278/2/3
f 273/2/3 276/2/3 278/2/3
f 278/2/3 277/2/3 279/2/3
f 279/2/3 277/2/3 284/2/3
f 284/2/3 277/2/3 285/2/3
f 279/2/3 284/2/3 286/2/3
f 286/2/3 284/2/3 289/2/3
f 288/2/3 286/2/3 289/2/3
f 289/2/3 284/2/3 290/2/3
f 282/3/3 283/3/3 291/3/3
f 291/3/3 283/3/3 292/3/3
f 287/2/3 288/2/3 293/2/3
f 288/2/3 289/2/3 293/2/3
f 293/2/3 289/2/3 294/2/3
f 294/2/3 289/2/3 295/2/3
f 293/2/3 294/2/3 296/2/3
f 296/2/3 294/2/3 297/2/3
f 297/2/3 294/2/3 298/2/3
f 298/2/3 294/2/3 299/2/3
f 299/2/3 294/2/3 300/2/3
f 298/2/3 299/2/3 302/2/3
f 298/2/3 302/2/3 301/2/3
f 304/2/3 307/2/3 311/2/3
f 306/2/3 303/2/3 311/2/3
f 310/1/3 305/1/3 311/1/3
f 303/2/3 304/2/3 311/2/3
f 305/1/3 306/1/3 311/1/3
f 311/2/3 307/2/3 312/2/3
f 312/2/3 307/2/3 313/2/3
f 308/1/3 309/1/3 316/1/3
f 310/1/3 311/1/3 317/1/3
f 311/1/3 312/1/3 317/1/3
f 317/1/3 312/1/3 318/1/3
f 315/1/3 316/1/3 320/1/3
f 318/1/3 312/1/3 321/1/3
f 313/2/3 314/2/3 321/2/3
f 312/2/3 313/2/3 321/2/3
f 321/2/3 314/2/3 322/2/3
f 322/2/3 314/2/3 323/2/3
f 319/1/3 320/1/3 325/1/3
f 325/1/3 320/1/3 326/1/3
f 326/1/3 328/1/3 327/1/3
f 318/1/3 321/1/3 331/1/3
f 321/1/3 322/1/3 331/1/3
f 328/1/3 329/1/3 332/1/3
f 331/1/3 322/1/3 333/1/3
f 330/1/3 331/1/3 333/1/3
f 333/1/3 322/1/3 334/1/3
f 323/2/3 324/2/3 335/2/3
f 334/1/3 322/1/3 335/1/3
f 322/2/3 323/2/3 335/2/3
f 333/1/3 334/1/3 336/1/3
f 336/1/3 334/1/3 339/1/3
f 335/2/3 324/2/3 337/2/3
f 334/2/3 335/2/3 337/2/3
f 337/2/3 324/2/3 338/2/3
f 339/1/3 334/1/3 340/1/3
f 340/1/3 334/1/3 341/1/3
f 334/2/3 337/2/3 342/2/3
f 341/1/3 334/1/3 342/1/3
f 342/2/3 337/2/3 343/2/3
f 342/2/3 343/2/3 344/2/3
f 340/1/3 341/1/3 344/1/3
f 341/2/3 342/2/3 344/2/3
f 344/2/3 343/2/3 345/2/3
f 345/2/3 343/2/3 346/2/3
f 346/2/3 343/2/3 348/2/3
f 348/2/3 343/2/3 347/2/3
f 350/1/3 352/1/3 351/1/3
f 349/1/3 350/1/3 351/1/3
f 353/1/3 351/1/3 354/1/3
f 351/1/3 352/1/3 355/1/3
f 354/1/3 351/1/3 355/1/3
f 355/1/3 352/1/3 358/1/3
f 358/1/3 352/1/3 356/1/3
f 356/1/3 352/1/3 357/1/3
f 96/1/4 33/1/4 27/1/4
f 102/1/4 33/1/4 96/1/4
f 274/1/4 102/1/4 96/1/4
f 280/1/4 102/1/4 274/1/4
f 319/1/4 280/1/4 274/1/4
f 325/1/4 280/1/4 319/1/4
f 28/1/4 6/1/4 5/1/4
f 34/1/4 6/1/4 28/1/4
f 97/1/4 28/1/4 23/1/4
f 103/1/4 36/1/4 34/1/4
f 320/1/4 275/1/4 315/1/4
f 327/1/4 281/1/4 326/1/4
f 353/1/4 326/1/4 320/1/4
f 354/1/4 326/1/4 353/1/4
f 308/1/4 24/1/4 17/1/4
f 316/1/4 24/1/4 308/1/4
f 328/1/4 38/1/4 35/1/4
f 332/1/4 38/1/4 328/1/4
f 154/3/4 92/3/4 86/3/4
f 202/3/4 154/3/4 147/3/4
f 209/3/4 92/3/4 154/3/4
f 209/3/4 154/3/4 202/3/4
f 264/3/4 92/3/4 209/3/4
f 270/3/4 92/3/4 264/3/4
f 282/3/4 113/3/4 104/3/4
f 291/3/4 113/3/4 282/3/4
f 137/3/4 87/3/4 76/3/4
f 148/3/4 87/3/4 137/3/4
f 155/3/4 87/3/4 148/3/4
f 190/3/4 137/3/4 135/3/4
f 190/3/4 148/3/4 137/3/4
f 192/3/4 148/3/4 190/3/4
f 203/3/4 148/3/4 192/3/4
f 254/3/4 210/3/4 203/3/4
f 254/3/4 203/3/4 192/3/4
f 265/3/4 210/3/4 254/3/4
f 125/3/4 63/3/4 62/3/4
f 129/3/4 77/3/4 72/3/4
f 136/3/4 77/3/4 129/3/4
f 138/3/4 77/3/4 136/3/4
f 180/3/4 125/3/4 62/3/4
f 182/3/4 136/3/4 129/3/4
f 182/3/4 129/3/4 127/3/4
f 184/3/4 136/3/4 182/3/4
f 191/3/4 136/3/4 184/3/4
f 240/3/4 180/3/4 62/3/4
f 241/3/4 180/3/4 240/3/4
f 250/3/4 193/3/4 191/3/4
f 250/3/4 191/3/4 184/3/4
f 255/3/4 193/3/4 250/3/4
f 126/2/4 66/2/4 64/2/4
f 128/3/4 73/3/4 70/3/4
f 128/2/4 70/2/4 68/2/4
f 130/3/4 73/3/4 128/3/4
f 181/2/4 66/2/4 126/2/4
f 183/2/4 128/2/4 68/2/4
f 239/3/5 62/3/5 61/3/5
f 240/3/5 62/3/5 239/3/5
f 242/2/4 66/2/4 181/2/4
f 244/1/4 68/1/4 66/1/4
f 244/2/4 66/2/4 242/2/4
f 246/2/4 183/2/4 68/2/4
f 246/1/4 68/1/4 244/1/4
f 248/3/4 185/3/4 183/3/4
f 248/2/4 183/2/4 246/2/4
f 251/3/4 185/3/4 248/3/4
f 237/3/5 61/3/5 59/3/5
f 239/3/5 61/3/5 237/3/5
f 235/3/5 60/3/5 57/3/5
f 238/3/5 60/3/5 235/3/5
f 298/2/4 124/2/4 120/2/4
f 301/2/4 124/2/4 298/2/4
f 198/2/4 149/2/4 143/2/4
f 204/2/4 149/2/4 198/2/4
f 78/3/6 93/3/6 139/3/6
f 139/3/6 93/3/6 141/3/6
f 141/3/6 93/3/6 196/3/6
f 194/3/6 196/3/6 256/3/6
f 196/3/6 93/3/6 271/3/6
f 256/3/6 196/3/6 271/3/6
f 105/3/6 114/3/6 283/3/6
f 283/3/6 114/3/6 292/3/6
f 4/1/6 9/1/6 26/1/6
f 26/1/6 9/1/6 37/1/6
f 74/3/6 79/3/6 131/3/6
f 131/3/6 79/3/6 133/3/6
f 133/3/6 79/3/6 140/3/6
f 140/3/6 142/3/6 188/3/6
f 133/3/6 140/3/6 188/3/6
f 188/3/6 142/3/6 195/3/6
f 195/3/6 142/3/6 197/3/6
f 186/3/6 188/3/6 252/3/6
f 188/3/6 195/3/6 252/3/6
f 252/3/6 195/3/6 257/3/6
f 318/1/6 331/1/6 352/1/6
f 352/1/6 331/1/6 357/1/6
f 71/3/6 75/3/6 132/3/6
f 71/3/6 132/3/6 187/3/6
f 132/3/6 134/3/6 187/3/6
f 187/3/6 134/3/6 189/3/6
f 58/3/6 65/3/6 236/3/6
f 65/2/6 67/2/6 243/2/6
f 236/3/6 65/3/6 243/3/6
f 67/1/6 69/1/6 245/1/6
f 243/2/6 67/2/6 245/2/6
f 69/2/6 71/2/6 247/2/6
f 245/1/6 69/1/6 247/1/6
f 71/3/6 187/3/6 249/3/6
f 247/2/6 71/2/6 249/2/6
f 249/3/6 187/3/6 253/3/6
f 14/2/6 21/2/6 89/2/6
f 89/2/6 21/2/6 94/2/6
f 50/2/6 56/2/6 109/2/6
f 109/2/6 56/2/6 115/2/6
f 267/2/6 272/2/6 307/2/6
f 307/2/6 272/2/6 313/2/6
f 287/2/6 293/2/6 343/2/6
f 343/2/6 293/2/6 347/2/6
f 22/2/6 31/2/6 95/2/6
f 95/2/6 31/2/6 100/2/6
f 273/2/6 278/2/6 314/2/6
f 314/2/6 278/2/6 323/2/6
f 32/2/6 47/2/6 101/2/6
f 101/2/6 47/2/6 108/2/6
f 279/2/6 286/2/6 324/2/6
f 324/2/6 286/2/6 338/2/6
f 116/2/6 122/2/6 170/2/6
f 170/2/6 122/2/6 174/2/6
f 225/2/6 229/2/6 294/2/6
f 294/2/6 229/2/6 300/2/6
f 85/2/6 90/2/6 151/2/6
f 151/2/6 90/2/6 156/2/6
f 111/2/6 117/2/6 166/2/6
f 166/2/6 117/2/6 171/2/6
f 172/2/6 177/2/6 227/2/6
f 227/2/6 177/2/6 232/2/6
f 206/2/6 211/2/6 263/2/6
f 263/2/6 211/2/6 268/2/6
f 221/2/6 226/2/6 289/2/6
f 289/2/6 226/2/6 295/2/6
f 91/2/6 98/2/6 157/2/6
f 157/2/6 98/2/6 160/2/6
f 106/2/6 112/2/6 162/2/6
f 162/2/6 112/2/6 167/2/6
f 146/2/6 152/2/6 201/2/6
f 201/2/6 152/2/6 207/2/6
f 168/2/6 173/2/6 223/2/6
f 223/2/6 173/2/6 228/2/6
f 212/2/6 215/2/6 269/2/6
f 269/2/6 215/2/6 276/2/6
f 217/2/6 222/2/6 284/2/6
f 284/2/6 222/2/6 290/2/6
f 99/2/6 107/2/6 161/2/6
f 161/2/6 107/2/6 163/2/6
f 153/2/6 158/2/6 208/2/6
f 208/2/6 158/2/6 213/2/6
f 164/2/6 169/2/6 219/2/6
f 219/2/6 169/2/6 224/2/6
f 216/2/6 218/2/6 277/2/6
f 277/2/6 218/2/6 285/2/6
f 159/2/6 165/2/6 214/2/6
f 214/2/6 165/2/6 220/2/6
f 58/3/7 235/3/7 57/3/7
f 236/3/7 235/3/7 58/3/7
f 60/3/7 237/3/7 59/3/7
f 238/3/7 237/3/7 60/3/7
f 128/3/8 182/3/8 127/3/8
f 183/3/8 182/3/8 128/3/8
f 73/3/9 129/3/9 72/3/9
f 130/3/9 129/3/9 73/3/9
f 185/3/9 250/3/9 184/3/9
f 251/3/9 250/3/9 185/3/9
f 136/3/10 190/3/10 135/3/10
f 191/3/10 190/3/10 136/3/10
f 77/3/10 137/3/10 76/3/10
f 138/3/10 137/3/10 77/3/10
f 193/3/10 254/3/10 192/3/10
f 255/3/10 254/3/10 193/3/10
f 144/2/7 198/2/7 143/2/7
f 199/2/7 198/2/7 144/2/7
f 145/2/11 199/2/12 144/2/11
f 200/2/11 199/2/12 145/2/11
f 81/2/13 258/2/13 80/2/13
f 149/2/13 258/2/13 81/2/13
f 204/2/13 258/2/13 149/2/13
f 259/2/13 258/2/13 204/2/13
f 146/2/11 200/2/11 145/2/11
f 201/2/11 200/2/11 146/2/11
f 148/3/14 202/3/14 147/3/14
f 203/3/14 202/3/14 148/3/14
f 80/2/13 262/2/13 84/2/13
f 258/2/13 262/2/13 80/2/13
f 82/2/15 149/2/15 81/2/15
f 150/2/15 149/2/16 82/2/15
f 205/2/11 259/2/12 204/2/11
f 260/2/11 259/2/12 205/2/11
f 84/2/13 261/2/13 83/2/13
f 262/2/13 261/2/13 84/2/13
f 85/2/17 150/2/15 82/2/15
f 151/2/17 150/2/15 85/2/17
f 206/2/11 260/2/11 205/2/11
f 263/2/11 260/2/11 206/2/11
f 153/2/11 207/2/11 152/2/11
f 208/2/11 207/2/11 153/2/11
f 87/3/14 154/3/14 86/3/14
f 155/3/14 154/3/14 87/3/14
f 210/3/14 264/3/14 209/3/14
f 265/3/14 264/3/14 210/3/14
f 13/2/13 303/2/13 11/2/13
f 88/2/18 303/2/13 13/2/13
f 266/2/18 303/2/13 88/2/18
f 304/2/13 303/2/13 266/2/18
f 83/2/7 266/2/18 88/2/18
f 261/2/7 266/2/18 83/2/7
f 12/1/19 305/1/13 16/1/13
f 306/1/19 305/1/13 12/1/19
f 11/2/7 306/2/19 12/2/19
f 303/2/7 306/2/19 11/2/7
f 14/2/16 88/2/16 13/2/16
f 89/2/16 88/2/16 14/2/16
f 267/2/20 304/2/20 266/2/21
f 307/2/21 304/2/20 267/2/20
f 16/1/22 310/1/22 15/1/22
f 305/1/22 310/1/22 16/1/22
f 91/2/15 156/2/15 90/2/15
f 157/2/15 156/2/15 91/2/15
f 212/2/11 268/2/11 211/2/11
f 269/2/11 268/2/11 212/2/11
f 25/1/7 308/1/7 17/1/7
f 309/1/7 308/1/7 25/1/7
f 92/1/7 25/1/7 1/1/7
f 92/1/7 349/1/7 309/1/7
f 92/1/7 309/1/7 25/1/7
f 270/1/7 349/1/7 92/1/7
f 2/1/7 92/1/7 1/1/7
f 18/1/7 92/1/7 2/1/7
f 317/1/7 349/1/7 270/1/7
f 350/1/7 349/1/7 317/1/7
f 93/1/7 92/1/7 18/1/7
f 271/1/7 317/1/7 270/1/7
f 15/1/7 93/1/7 18/1/7
f 15/1/7 271/1/7 93/1/7
f 310/1/7 317/1/7 271/1/7
f 310/1/7 271/1/7 15/1/7
f 22/2/15 94/2/15 21/2/15
f 95/2/15 94/2/15 22/2/15
f 273/2/21 313/2/21 272/2/21
f 314/2/21 313/2/21 273/2/21
f 159/2/11 213/2/11 158/2/11
f 214/2/11 213/2/11 159/2/11
f 97/1/7 274/1/7 96/1/7
f 275/1/7 274/1/7 97/1/7
f 24/1/7 97/1/7 23/1/7
f 24/1/7 315/1/23 275/1/7
f 24/1/7 275/1/7 97/1/7
f 316/1/7 315/1/7 24/1/7
f 1/1/24 24/1/24 3/1/24
f 25/1/24 24/1/24 1/1/24
f 309/1/25 351/1/26 316/1/26
f 349/1/25 351/1/26 309/1/25
f 4/1/27 18/1/27 2/1/27
f 26/1/27 18/1/27 4/1/27
f 318/1/28 350/1/28 317/1/28
f 352/1/28 350/1/28 318/1/28
f 28/1/29 96/1/29 27/1/29
f 97/1/29 96/1/29 28/1/29
f 275/1/30 319/1/30 274/1/30
f 320/1/30 319/1/30 275/1/30
f 3/1/24 28/1/24 5/1/24
f 24/1/24 28/1/24 3/1/24
f 316/1/26 353/1/25 320/1/25
f 351/1/26 353/1/25 316/1/26
f 99/2/15 160/2/15 98/2/15
f 161/2/15 160/2/15 99/2/15
f 216/2/11 276/2/11 215/2/11
f 277/2/11 276/2/11 216/2/11
f 32/2/15 100/2/15 31/2/15
f 101/2/15 100/2/15 32/2/15
f 279/2/21 323/2/21 278/2/21
f 324/2/21 323/2/21 279/2/21
f 63/3/31 125/3/32 64/3/31
f 64/3/31 125/3/32 126/3/32
f 180/3/32 241/3/31 181/3/31
f 181/3/31 241/3/31 242/3/31
f 125/3/32 180/3/32 126/3/32
f 126/3/32 180/3/32 181/3/31
f 74/3/33 131/3/33 75/3/33
f 75/3/33 131/3/33 132/3/33
f 186/3/33 252/3/33 187/3/33
f 187/3/33 252/3/33 253/3/33
f 133/3/33 188/3/33 134/3/33
f 134/3/33 188/3/33 189/3/33
f 78/3/34 139/3/34 79/3/34
f 79/3/34 139/3/34 140/3/34
f 194/3/34 256/3/34 195/3/34
f 195/3/34 256/3/34 257/3/34
f 141/3/34 196/3/34 142/3/34
f 142/3/34 196/3/34 197/3/34
f 33/1/35 102/1/35 34/1/35
f 34/1/35 102/1/35 103/1/35
f 280/1/36 325/1/37 281/1/37
f 281/1/37 325/1/37 326/1/36
f 6/1/38 34/1/38 7/1/39
f 7/1/39 34/1/38 35/1/38
f 326/1/40 354/1/41 328/1/42
f 328/1/42 354/1/41 355/1/43
f 102/1/44 280/1/44 103/1/44
f 103/1/44 280/1/44 281/1/44
f 36/1/44 103/1/44 35/1/44
f 281/1/44 327/1/44 35/1/44
f 103/1/44 281/1/44 35/1/44
f 35/1/44 327/1/44 328/1/44
f 7/1/39 35/1/38 8/1/39
f 8/1/39 35/1/38 39/1/39
f 328/1/42 355/1/43 329/1/42
f 329/1/42 355/1/43 358/1/40
f 10/1/45 40/1/45 9/1/45
f 9/1/45 40/1/45 37/1/45
f 330/1/46 356/1/46 331/1/46
f 331/1/46 356/1/46 357/1/46
f 38/1/44 332/1/44 39/1/44
f 39/1/44 332/1/44 329/1/47
f 8/1/44 39/1/44 104/1/48
f 329/1/47 358/1/49 104/1/48
f 39/1/44 329/1/47 104/1/48
f 104/1/44 358/1/50 282/1/44
f 8/1/44 104/1/48 10/1/44
f 10/1/44 104/1/48 40/1/44
f 282/1/44 358/1/50 330/1/44
f 330/1/44 358/1/50 356/1/51
f 40/1/44 104/1/48 105/1/44
f 282/1/44 330/1/44 283/1/44
f 40/1/44 105/1/44 41/1/44
f 105/1/44 283/1/44 41/1/44
f 283/1/44 330/1/44 333/1/44
f 41/1/44 283/1/44 333/1/44
f 106/2/52 162/2/52 107/2/52
f 107/2/52 162/2/52 163/2/52
f 217/2/52 284/2/52 218/2/52
f 218/2/52 284/2/52 285/2/52
f 41/1/53 333/1/53 44/1/53
f 44/1/53 333/1/53 336/1/53
f 164/2/52 219/2/52 165/2/52
f 165/2/52 219/2/52 220/2/52
f 44/1/54 336/1/54 45/1/54
f 45/1/54 336/1/54 339/1/54
f 46/2/52 110/2/52 47/2/52
f 47/2/52 110/2/52 108/2/55
f 288/2/52 337/2/52 286/2/55
f 286/2/55 337/2/55 338/2/55
f 45/1/56 339/1/56 51/1/57
f 51/1/57 339/1/56 340/1/57
f 50/2/52 109/2/52 46/2/52
f 46/2/52 109/2/52 110/2/52
f 287/2/52 343/2/52 288/2/52
f 288/2/52 343/2/52 337/2/52
f 111/2/52 166/2/52 112/2/52
f 112/2/52 166/2/52 167/2/52
f 221/2/52 289/2/52 222/2/52
f 222/2/52 289/2/52 290/2/52
f 113/3/44 291/3/44 114/3/44
f 114/3/44 291/3/44 292/3/44
f 51/1/57 340/1/57 52/1/58
f 52/1/58 340/1/57 344/1/58
f 52/2/58 344/2/58 53/2/44
f 53/2/44 344/2/58 345/2/44
f 168/2/52 223/2/52 169/2/52
f 169/2/52 223/2/52 224/2/52
f 53/2/56 345/2/56 54/2/57
f 54/2/57 345/2/56 346/2/57
f 55/2/52 118/2/52 56/2/52
f 56/2/52 118/2/52 115/2/52
f 296/2/52 348/2/52 293/2/52
f 293/2/52 348/2/52 347/2/52
f 116/2/52 170/2/52 117/2/52
f 117/2/52 170/2/52 171/2/52
f 225/2/52 294/2/52 226/2/52
f 226/2/52 294/2/52 295/2/52
f 54/2/57 346/2/57 55/2/57
f 55/2/57 346/2/57 118/2/57
f 118/2/57 346/2/57 296/2/57
f 296/2/57 346/2/57 348/2/57
f 172/2/52 227/2/52 173/2/52
f 173/2/52 227/2/52 228/2/52
f 118/2/57 296/2/57 119/2/57
f 119/2/57 296/2/57 297/2/57
f 119/2/57 297/2/57 120/2/57
f 120/2/57 297/2/57 298/2/57
f 121/2/52 175/2/52 122/2/52
f 122/2/52 175/2/52 174/2/59
f 230/2/52 299/2/52 229/2/52
f 229/2/52 299/2/52 300/2/52
f 123/2/52 178/2/52 121/2/52
f 121/2/52 178/2/52 175/2/52
f 233/2/52 302/2/52 230/2/52
f 230/2/52 302/2/52 299/2/52
f 176/2/52 231/2/52 177/2/52
f 177/2/52 231/2/52 232/2/52
f 124/2/57 301/2/57 123/2/57
f 123/2/56 301/2/56 178/2/57
f 178/2/57 301/2/56 233/2/57
f 233/2/57 301/2/56 302/2/57
f 179/2/52 234/2/52 176/2/52
f 176/2/52 234/2/52 231/2/52
f 178/2/57 233/2/57 179/2/57
f 179/2/57 233/2/57 234/2/57
