# Blender 5.1.2
# www.blender.org
mtllib JudgeHammer.mtl
o Untitled
v -2.200000 1.900000 1.100000
v -2.200000 1.900000 0.700000
v -2.200000 2.200000 1.100000
v -2.200000 2.200000 0.700000
v -2.200000 2.400000 1.100000
v -2.200000 2.400000 0.700000
v -2.200000 3.200000 1.100000
v -2.200000 3.200000 0.700000
v -2.200000 3.400000 1.100000
v -2.200000 3.400000 0.700000
v -2.200000 3.700000 1.100000
v -2.200000 3.700000 0.700000
v -2.100000 1.900000 1.200000
v -2.158353 1.900000 1.145966
v -2.157173 1.900000 0.638695
v -2.100000 1.900000 0.600000
v -2.100000 2.200000 1.200000
v -2.158353 2.200000 1.145966
v -2.157173 2.200000 0.638695
v -2.100000 2.200000 0.600000
v -2.100000 2.400000 1.200000
v -2.155702 2.400000 1.146130
v -2.157173 2.400000 0.638695
v -2.100000 2.400000 0.600000
v -2.100000 3.200000 1.200000
v -2.155702 3.200000 1.146130
v -2.157173 3.200000 0.638695
v -2.100000 3.200000 0.600000
v -2.100000 3.400000 1.200000
v -2.166528 3.400000 1.144782
v -2.157173 3.400000 0.638695
v -2.100000 3.400000 0.600000
v -2.100000 3.700000 1.200000
v -2.166528 3.700000 1.144782
v -2.157173 3.700000 0.638695
v -2.100000 3.700000 0.600000
v -2.000000 1.900000 1.300000
v -2.058353 1.900000 1.245966
v -2.057173 1.900000 0.538695
v -2.000000 1.900000 0.500000
v -2.000000 2.200000 1.300000
v -2.058353 2.200000 1.245966
v -2.100692 2.200000 1.189366
v -2.096129 2.200000 0.599830
v -2.057173 2.200000 0.538695
v -2.000000 2.200000 0.500000
v -2.000000 2.400000 1.300000
v -2.055702 2.400000 1.246130
v -2.100692 2.400000 1.189366
v -2.096129 2.400000 0.599830
v -2.057173 2.400000 0.538695
v -2.000000 2.400000 0.500000
v -2.000000 3.200000 1.300000
v -2.055702 3.200000 1.246130
v -2.104995 3.200000 1.186328
v -2.096129 3.200000 0.599830
v -2.057173 3.200000 0.538695
v -2.000000 3.200000 0.500000
v -2.000000 3.400000 1.300000
v -2.066529 3.400000 1.244782
v -2.104995 3.400000 1.186328
v -2.096129 3.400000 0.599830
v -2.057173 3.400000 0.538695
v -2.000000 3.400000 0.500000
v -2.000000 3.700000 1.300000
v -2.066529 3.700000 1.244782
v -2.057173 3.700000 0.538695
v -2.000000 3.700000 0.500000
v -1.900000 1.900000 1.400000
v -1.958353 1.900000 1.345966
v -1.957174 1.900000 0.438695
v -1.900000 1.900000 0.400000
v -1.900000 2.200000 1.400000
v -1.958353 2.200000 1.345966
v -2.000691 2.200000 1.289366
v -1.996129 2.200000 0.499830
v -1.957174 2.200000 0.438695
v -1.900000 2.200000 0.400000
v -1.900000 2.400000 1.400000
v -1.955702 2.400000 1.346130
v -2.000691 2.400000 1.289366
v -1.996129 2.400000 0.499830
v -1.957174 2.400000 0.438695
v -1.900000 2.400000 0.400000
v -1.900000 3.200000 1.400000
v -1.955702 3.200000 1.346130
v -2.004995 3.200000 1.286328
v -1.996129 3.200000 0.499830
v -1.957174 3.200000 0.438695
v -1.900000 3.200000 0.400000
v -1.900000 3.400000 1.400000
v -1.966529 3.400000 1.344782
v -2.004995 3.400000 1.286328
v -1.996129 3.400000 0.499830
v -1.957174 3.400000 0.438695
v -1.900000 3.400000 0.400000
v -1.900000 3.700000 1.400000
v -1.966529 3.700000 1.344782
v -1.957174 3.700000 0.438695
v -1.900000 3.700000 0.400000
v -1.500000 1.900000 1.400000
v -1.446432 1.900000 1.371383
v -1.440186 1.900000 0.451887
v -1.500000 1.900000 0.400000
v -1.500000 2.200000 1.400000
v -1.446432 2.200000 1.371383
v -1.414304 2.200000 1.308953
v -1.401069 2.200000 0.505815
v -1.440186 2.200000 0.451887
v -1.500000 2.200000 0.400000
v -1.500000 2.400000 1.400000
v -1.446432 2.400000 1.371383
v -1.414304 2.400000 1.308953
v -1.401069 2.400000 0.505815
v -1.440186 2.400000 0.451887
v -1.500000 2.400000 0.400000
v -1.500000 3.200000 1.400000
v -1.446432 3.200000 1.371383
v -1.414304 3.200000 1.308953
v -1.401069 3.200000 0.505815
v -1.440186 3.200000 0.451887
v -1.500000 3.200000 0.400000
v -1.500000 3.400000 1.400000
v -1.446432 3.400000 1.371383
v -1.414304 3.400000 1.308953
v -1.401069 3.400000 0.505815
v -1.440186 3.400000 0.451887
v -1.500000 3.400000 0.400000
v -1.500000 3.700000 1.400000
v -1.446432 3.700000 1.371383
v -1.440186 3.700000 0.451887
v -1.500000 3.700000 0.400000
v -1.400000 1.900000 1.300000
v -1.346432 1.900000 1.271384
v -1.340186 1.900000 0.551887
v -1.400000 1.900000 0.500000
v -1.400000 2.200000 1.300000
v -1.346432 2.200000 1.271384
v -1.314304 2.200000 1.208953
v -1.301069 2.200000 0.605815
v -1.340186 2.200000 0.551887
v -1.400000 2.200000 0.500000
v -1.400000 2.400000 1.300000
v -1.346432 2.400000 1.271383
v -1.314304 2.400000 1.208953
v -1.301069 2.400000 0.605815
v -1.340186 2.400000 0.551887
v -1.400000 2.400000 0.500000
v -1.400000 3.200000 1.300000
v -1.346432 3.200000 1.271383
v -1.314304 3.200000 1.208953
v -1.301069 3.200000 0.605815
v -1.340186 3.200000 0.551887
v -1.400000 3.200000 0.500000
v -1.400000 3.400000 1.300000
v -1.346432 3.400000 1.271383
v -1.314304 3.400000 1.208953
v -1.301069 3.400000 0.605815
v -1.340186 3.400000 0.551887
v -1.400000 3.400000 0.500000
v -1.400000 3.700000 1.300000
v -1.346432 3.700000 1.271383
v -1.340186 3.700000 0.551887
v -1.400000 3.700000 0.500000
v -1.300000 1.900000 1.200000
v -1.246432 1.900000 1.171384
v -1.240186 1.900000 0.651887
v -1.300000 1.900000 0.600000
v -1.300000 2.200000 1.200000
v -1.246432 2.200000 1.171384
v -1.240186 2.200000 0.651887
v -1.300000 2.200000 0.600000
v -1.300000 2.400000 1.200000
v -1.246432 2.400000 1.171384
v -1.240186 2.400000 0.651887
v -1.300000 2.400000 0.600000
v -1.300000 3.200000 1.200000
v -1.246432 3.200000 1.171384
v -1.240186 3.200000 0.651887
v -1.300000 3.200000 0.600000
v -1.300000 3.400000 1.200000
v -1.246432 3.400000 1.171384
v -1.240186 3.400000 0.651887
v -1.300000 3.400000 0.600000
v -1.300000 3.700000 1.200000
v -1.246432 3.700000 1.171384
v -1.240186 3.700000 0.651887
v -1.300000 3.700000 0.600000
v -1.200000 1.900000 1.100000
v -1.200000 1.900000 0.700000
v -1.200000 2.200000 1.100000
v -1.200000 2.200000 0.700000
v -1.200000 2.400000 1.100000
v -1.200000 2.400000 0.700000
v -1.200000 2.600000 1.000000
v -1.200000 2.600000 0.800000
v -1.200000 2.700000 1.100000
v -1.200000 2.700000 1.000000
v -1.200000 2.700000 0.800000
v -1.200000 2.700000 0.700000
v -1.200000 2.900000 1.100000
v -1.200000 2.900000 1.000000
v -1.200000 2.900000 0.800000
v -1.200000 2.900000 0.700000
v -1.200000 3.000000 1.000000
v -1.200000 3.000000 0.800000
v -1.200000 3.200000 1.100000
v -1.200000 3.200000 0.700000
v -1.200000 3.400000 1.100000
v -1.200000 3.400000 0.700000
v -1.200000 3.700000 1.100000
v -1.200000 3.700000 0.700000
v -1.100000 2.693892 1.000000
v -1.100000 2.693892 0.800000
v -1.100000 2.700000 1.006498
v -1.100000 2.700000 1.000000
v -1.100000 2.700000 0.800000
v -1.100000 2.700000 0.794817
v -1.100000 2.900000 1.006498
v -1.100000 2.900000 1.000000
v -1.100000 2.900000 0.800000
v -1.100000 2.900000 0.794817
v -1.100000 2.904985 1.000000
v -1.100000 2.904985 0.800000
v 2.000000 2.700000 1.000000
v 2.000000 2.700000 0.800000
v 2.000000 2.900000 1.000000
v 2.000000 2.900000 0.800000
vn -1.0000 -0.0000 -0.0000
vn -0.6794 -0.0000 0.7337
vn -0.5605 -0.0000 -0.8282
vn -0.9999 0.0101 -0.0011
vn -1.0000 0.0032 0.0017
vn -0.9999 0.0133 -0.0023
vn -1.0000 -0.0000 0.0029
vn -0.6952 -0.0000 0.7188
vn -0.9992 -0.0412 -0.0022
vn -0.9998 -0.0130 -0.0134
vn -0.9985 -0.0540 0.0029
vn -0.9998 -0.0000 -0.0185
vn -0.6387 -0.0000 0.7695
vn -0.7875 0.0022 0.6164
vn -0.7970 0.0079 0.6039
vn -0.8007 0.0101 0.5990
vn -0.7837 -0.0000 0.6211
vn -0.8433 -0.0000 -0.5374
vn -0.8214 -0.0087 0.5704
vn -0.7857 -0.0295 0.6179
vn -0.7711 -0.0375 0.6356
vn -0.8354 -0.0000 0.5497
vn 0.4712 -0.0000 0.8820
vn 0.6553 -0.0000 -0.7554
vn 0.8892 -0.0000 0.4576
vn 0.8095 -0.0000 -0.5872
vn 0.9999 -0.0000 0.0120
vn 1.0000 -0.0000 -0.0000
vn -0.0000 -0.0000 1.0000
vn -0.7411 -0.0000 0.6714
vn -0.7213 -0.0000 0.6926
vn -0.8010 -0.0000 0.5987
vn -0.0495 -0.0000 0.9988
vn -0.0496 -0.0001 0.9988
vn -0.0496 -0.0002 0.9988
vn -0.0507 0.0009 0.9987
vn -0.0499 0.0031 0.9987
vn -0.0495 0.0041 0.9988
vn -0.0511 -0.0000 0.9987
vn 0.8383 -0.0000 0.5453
vn -0.6049 0.0057 0.7963
vn -0.6143 0.0016 0.7891
vn -0.6013 0.0073 0.7990
vn -0.6179 -0.0000 0.7862
vn -0.6074 -0.0219 0.7941
vn -0.5723 -0.0057 0.8200
vn -0.6210 -0.0283 0.7833
vn -0.5596 -0.0000 0.8288
vn 0.4843 -0.0000 0.8749
vn 0.7917 -0.0000 0.6110
vn 0.6830 -0.0000 0.7304
vn -0.0000 -0.0000 -1.0000
vn -0.8198 -0.0000 -0.5727
vn -0.5371 -0.0000 -0.8435
vn 0.6034 -0.0000 -0.7974
vn 0.7675 -0.0000 -0.6410
vn 0.7421 -0.0000 -0.6703
vn 0.6881 -0.0000 -0.7257
vn 0.0255 -0.0000 -0.9997
vn -0.0000 -1.0000 -0.0000
vn -0.0000 1.0000 -0.0000
vn -0.0000 1.0000 -0.0001
vn -0.0000 -1.0000 -0.0002
vn -0.0000 -1.0000 -0.0001
vn 0.6845 -0.7290 -0.0000
vn -0.0000 1.0000 0.0001
vn -0.0000 -1.0000 0.0001
vn -0.0000 -1.0000 0.0005
vn -0.0000 -1.0000 0.0004
vn 0.6888 0.7249 -0.0000
vn -0.0000 -1.0000 0.0003
vt 0.537109 0.500000
s 1
usemtl palette.002
f 3/1/1 2/1/1 1/1/1
f 4/1/1 2/1/1 3/1/1
f 7/1/1 6/1/1 5/1/1
f 8/1/1 6/1/1 7/1/1
f 11/1/1 10/1/1 9/1/1
f 12/1/1 10/1/1 11/1/1
f 17/1/2 14/1/2 13/1/2
f 18/1/2 14/1/2 17/1/2
f 19/1/3 16/1/3 15/1/3
f 20/1/3 16/1/3 19/1/3
f 22/1/4 19/1/5 18/1/6
f 23/1/7 19/1/5 22/1/4
f 25/1/8 22/1/8 21/1/8
f 26/1/8 22/1/8 25/1/8
f 27/1/3 24/1/3 23/1/3
f 28/1/3 24/1/3 27/1/3
f 30/1/9 27/1/10 26/1/11
f 31/1/12 27/1/10 30/1/9
f 33/1/13 30/1/13 29/1/13
f 34/1/13 30/1/13 33/1/13
f 35/1/3 32/1/3 31/1/3
f 36/1/3 32/1/3 35/1/3
f 41/1/2 38/1/2 37/1/2
f 42/1/2 38/1/2 41/1/2
f 45/1/3 40/1/3 39/1/3
f 46/1/3 40/1/3 45/1/3
f 48/1/14 43/1/15 42/1/16
f 49/1/17 43/1/15 48/1/14
f 50/1/18 45/1/18 44/1/18
f 51/1/18 45/1/18 50/1/18
f 53/1/8 48/1/8 47/1/8
f 54/1/8 48/1/8 53/1/8
f 57/1/3 52/1/3 51/1/3
f 58/1/3 52/1/3 57/1/3
f 60/1/19 55/1/20 54/1/21
f 61/1/22 55/1/20 60/1/19
f 62/1/18 57/1/18 56/1/18
f 63/1/18 57/1/18 62/1/18
f 65/1/13 60/1/13 59/1/13
f 66/1/13 60/1/13 65/1/13
f 67/1/3 64/1/3 63/1/3
f 68/1/3 64/1/3 67/1/3
f 73/1/2 70/1/2 69/1/2
f 74/1/2 70/1/2 73/1/2
f 77/1/3 72/1/3 71/1/3
f 78/1/3 72/1/3 77/1/3
f 80/1/14 75/1/15 74/1/16
f 81/1/17 75/1/15 80/1/14
f 82/1/18 77/1/18 76/1/18
f 83/1/18 77/1/18 82/1/18
f 85/1/8 80/1/8 79/1/8
f 86/1/8 80/1/8 85/1/8
f 89/1/3 84/1/3 83/1/3
f 90/1/3 84/1/3 89/1/3
f 92/1/19 87/1/20 86/1/21
f 93/1/22 87/1/20 92/1/19
f 94/1/18 89/1/18 88/1/18
f 95/1/18 89/1/18 94/1/18
f 97/1/13 92/1/13 91/1/13
f 98/1/13 92/1/13 97/1/13
f 99/1/3 96/1/3 95/1/3
f 100/1/3 96/1/3 99/1/3
f 101/1/23 102/1/23 105/1/23
f 105/1/23 102/1/23 106/1/23
f 103/1/24 104/1/24 109/1/24
f 109/1/24 104/1/24 110/1/24
f 106/1/25 107/1/25 112/1/25
f 112/1/25 107/1/25 113/1/25
f 108/1/26 109/1/26 114/1/26
f 114/1/26 109/1/26 115/1/26
f 111/1/23 112/1/23 117/1/23
f 117/1/23 112/1/23 118/1/23
f 115/1/24 116/1/24 121/1/24
f 121/1/24 116/1/24 122/1/24
f 118/1/25 119/1/25 124/1/25
f 124/1/25 119/1/25 125/1/25
f 120/1/26 121/1/26 126/1/26
f 126/1/26 121/1/26 127/1/26
f 123/1/23 124/1/23 129/1/23
f 129/1/23 124/1/23 130/1/23
f 127/1/24 128/1/24 131/1/24
f 131/1/24 128/1/24 132/1/24
f 133/1/23 134/1/23 137/1/23
f 137/1/23 134/1/23 138/1/23
f 135/1/24 136/1/24 141/1/24
f 141/1/24 136/1/24 142/1/24
f 138/1/25 139/1/25 144/1/25
f 144/1/25 139/1/25 145/1/25
f 140/1/26 141/1/26 146/1/26
f 146/1/26 141/1/26 147/1/26
f 143/1/23 144/1/23 149/1/23
f 149/1/23 144/1/23 150/1/23
f 147/1/24 148/1/24 153/1/24
f 153/1/24 148/1/24 154/1/24
f 150/1/25 151/1/25 156/1/25
f 156/1/25 151/1/25 157/1/25
f 152/1/26 153/1/26 158/1/26
f 158/1/26 153/1/26 159/1/26
f 155/1/23 156/1/23 161/1/23
f 161/1/23 156/1/23 162/1/23
f 159/1/24 160/1/24 163/1/24
f 163/1/24 160/1/24 164/1/24
f 165/1/23 166/1/23 169/1/23
f 169/1/23 166/1/23 170/1/23
f 167/1/24 168/1/24 171/1/24
f 171/1/24 168/1/24 172/1/24
f 170/1/27 171/1/27 174/1/27
f 174/1/27 171/1/27 175/1/27
f 173/1/23 174/1/23 177/1/23
f 177/1/23 174/1/23 178/1/23
f 175/1/24 176/1/24 179/1/24
f 179/1/24 176/1/24 180/1/24
f 178/1/27 179/1/27 182/1/27
f 182/1/27 179/1/27 183/1/27
f 181/1/23 182/1/23 185/1/23
f 185/1/23 182/1/23 186/1/23
f 183/1/24 184/1/24 187/1/24
f 187/1/24 184/1/24 188/1/24
f 189/1/28 190/1/28 191/1/28
f 191/1/28 190/1/28 192/1/28
f 193/1/28 194/1/28 195/1/28
f 195/1/28 194/1/28 196/1/28
f 193/1/28 195/1/28 197/1/28
f 197/1/28 195/1/28 198/1/28
f 196/1/28 194/1/28 199/1/28
f 199/1/28 194/1/28 200/1/28
f 201/1/28 202/1/28 205/1/28
f 203/1/28 204/1/28 206/1/28
f 201/1/28 205/1/28 207/1/28
f 205/1/28 206/1/28 207/1/28
f 206/1/28 204/1/28 208/1/28
f 207/1/28 206/1/28 208/1/28
f 209/1/28 210/1/28 211/1/28
f 211/1/28 210/1/28 212/1/28
f 213/1/28 214/1/28 216/1/28
f 216/1/28 214/1/28 217/1/28
f 215/1/28 216/1/28 219/1/28
f 219/1/28 216/1/28 220/1/28
f 217/1/28 218/1/28 221/1/28
f 221/1/28 218/1/28 222/1/28
f 220/1/28 221/1/28 223/1/28
f 223/1/28 221/1/28 224/1/28
f 225/1/28 226/1/28 227/1/28
f 227/1/28 226/1/28 228/1/28
f 101/1/29 73/1/29 69/1/29
f 105/1/29 73/1/29 101/1/29
f 111/1/29 85/1/29 79/1/29
f 117/1/29 85/1/29 111/1/29
f 123/1/29 97/1/29 91/1/29
f 129/1/29 97/1/29 123/1/29
f 70/1/30 41/1/30 37/1/30
f 74/1/30 41/1/30 70/1/30
f 80/1/31 53/1/31 47/1/31
f 86/1/31 53/1/31 80/1/31
f 92/1/32 65/1/32 59/1/32
f 98/1/32 65/1/32 92/1/32
f 106/1/33 80/1/34 74/1/35
f 112/1/33 80/1/34 106/1/33
f 118/1/36 92/1/37 86/1/38
f 124/1/39 92/1/37 118/1/36
f 133/1/40 106/1/40 102/1/40
f 137/1/40 106/1/40 133/1/40
f 143/1/40 118/1/40 112/1/40
f 149/1/40 118/1/40 143/1/40
f 155/1/40 130/1/40 124/1/40
f 161/1/40 130/1/40 155/1/40
f 38/1/30 17/1/30 13/1/30
f 42/1/30 17/1/30 38/1/30
f 48/1/31 25/1/31 21/1/31
f 54/1/31 25/1/31 48/1/31
f 60/1/32 33/1/32 29/1/32
f 66/1/32 33/1/32 60/1/32
f 75/1/41 48/1/42 42/1/43
f 81/1/44 48/1/42 75/1/41
f 87/1/45 60/1/46 54/1/47
f 93/1/48 60/1/46 87/1/45
f 138/1/49 113/1/49 107/1/49
f 144/1/49 113/1/49 138/1/49
f 150/1/49 125/1/49 119/1/49
f 156/1/49 125/1/49 150/1/49
f 165/1/40 138/1/40 134/1/40
f 169/1/40 138/1/40 165/1/40
f 173/1/40 150/1/40 144/1/40
f 177/1/40 150/1/40 173/1/40
f 181/1/40 162/1/40 156/1/40
f 185/1/40 162/1/40 181/1/40
f 14/1/30 3/1/30 1/1/30
f 18/1/30 3/1/30 14/1/30
f 22/1/31 7/1/31 5/1/31
f 26/1/31 7/1/31 22/1/31
f 30/1/32 11/1/32 9/1/32
f 34/1/32 11/1/32 30/1/32
f 43/1/41 22/1/42 18/1/43
f 49/1/44 22/1/42 43/1/41
f 55/1/45 30/1/46 26/1/47
f 61/1/48 30/1/46 55/1/45
f 170/1/49 145/1/49 139/1/49
f 174/1/49 145/1/49 170/1/49
f 178/1/49 157/1/49 151/1/49
f 182/1/49 157/1/49 178/1/49
f 189/1/40 170/1/40 166/1/40
f 191/1/40 170/1/40 189/1/40
f 193/1/40 178/1/40 174/1/40
f 197/1/50 178/1/40 193/1/40
f 201/1/50 178/1/40 197/1/50
f 207/1/40 178/1/40 201/1/50
f 209/1/40 186/1/40 182/1/40
f 211/1/40 186/1/40 209/1/40
f 215/1/51 201/1/50 197/1/50
f 219/1/51 201/1/50 215/1/51
f 213/1/29 198/1/29 195/1/29
f 216/1/29 198/1/29 213/1/29
f 220/1/29 205/1/29 202/1/29
f 223/1/29 205/1/29 220/1/29
f 225/1/29 220/1/29 216/1/29
f 227/1/29 220/1/29 225/1/29
f 196/1/52 199/1/52 214/1/52
f 214/1/52 199/1/52 217/1/52
f 203/1/52 206/1/52 221/1/52
f 221/1/52 206/1/52 224/1/52
f 217/1/52 221/1/52 226/1/52
f 226/1/52 221/1/52 228/1/52
f 2/1/53 4/1/53 15/1/53
f 15/1/53 4/1/53 19/1/53
f 6/1/53 8/1/53 23/1/53
f 23/1/53 8/1/53 27/1/53
f 10/1/53 12/1/53 31/1/53
f 31/1/53 12/1/53 35/1/53
f 19/1/54 23/1/54 44/1/54
f 44/1/54 23/1/54 50/1/54
f 27/1/54 31/1/54 56/1/54
f 56/1/54 31/1/54 62/1/54
f 140/1/55 146/1/55 171/1/55
f 171/1/55 146/1/55 175/1/55
f 152/1/55 158/1/55 179/1/55
f 179/1/55 158/1/55 183/1/55
f 167/1/56 171/1/56 190/1/56
f 190/1/56 171/1/56 192/1/56
f 175/1/56 179/1/56 194/1/56
f 194/1/56 179/1/56 200/1/57
f 200/1/57 179/1/56 204/1/57
f 204/1/57 179/1/56 208/1/56
f 183/1/56 187/1/56 210/1/56
f 210/1/56 187/1/56 212/1/56
f 200/1/57 204/1/57 218/1/58
f 218/1/58 204/1/57 222/1/58
f 16/1/53 20/1/53 39/1/53
f 39/1/53 20/1/53 45/1/53
f 24/1/53 28/1/53 51/1/53
f 51/1/53 28/1/53 57/1/53
f 32/1/53 36/1/53 63/1/53
f 63/1/53 36/1/53 67/1/53
f 45/1/54 51/1/54 76/1/54
f 76/1/54 51/1/54 82/1/54
f 57/1/54 63/1/54 88/1/54
f 88/1/54 63/1/54 94/1/54
f 108/1/55 114/1/55 141/1/55
f 141/1/55 114/1/55 147/1/55
f 120/1/55 126/1/55 153/1/55
f 153/1/55 126/1/55 159/1/55
f 135/1/56 141/1/56 168/1/56
f 168/1/56 141/1/56 172/1/56
f 147/1/56 153/1/56 176/1/56
f 176/1/56 153/1/56 180/1/56
f 159/1/56 163/1/56 184/1/56
f 184/1/56 163/1/56 188/1/56
f 40/1/53 46/1/53 71/1/53
f 71/1/53 46/1/53 77/1/53
f 52/1/53 58/1/53 83/1/53
f 83/1/53 58/1/53 89/1/53
f 64/1/53 68/1/53 95/1/53
f 95/1/53 68/1/53 99/1/53
f 77/1/59 83/1/59 109/1/59
f 109/1/59 83/1/59 115/1/59
f 89/1/59 95/1/59 121/1/59
f 121/1/59 95/1/59 127/1/59
f 103/1/56 109/1/56 136/1/56
f 136/1/56 109/1/56 142/1/56
f 115/1/56 121/1/56 148/1/56
f 148/1/56 121/1/56 154/1/56
f 127/1/56 131/1/56 160/1/56
f 160/1/56 131/1/56 164/1/56
f 72/1/52 78/1/52 104/1/52
f 104/1/52 78/1/52 110/1/52
f 84/1/52 90/1/52 116/1/52
f 116/1/52 90/1/52 122/1/52
f 96/1/52 100/1/52 128/1/52
f 128/1/52 100/1/52 132/1/52
f 70/1/60 101/1/60 69/1/60
f 102/1/60 101/1/60 70/1/60
f 38/1/60 70/1/60 37/1/61
f 38/1/60 133/1/60 102/1/60
f 38/1/60 102/1/60 70/1/60
f 134/1/60 133/1/60 38/1/60
f 14/1/60 38/1/60 13/1/61
f 14/1/60 165/1/60 134/1/60
f 14/1/60 134/1/60 38/1/60
f 166/1/60 165/1/60 14/1/60
f 2/1/60 14/1/60 1/1/60
f 2/1/60 189/1/60 166/1/60
f 2/1/60 166/1/60 14/1/60
f 15/1/60 189/1/60 2/1/60
f 167/1/60 189/1/60 15/1/60
f 190/1/60 189/1/60 167/1/60
f 16/1/60 167/1/60 15/1/60
f 39/1/60 167/1/60 16/1/60
f 135/1/60 167/1/60 39/1/60
f 168/1/61 167/1/60 135/1/60
f 40/1/60 135/1/60 39/1/60
f 71/1/60 135/1/60 40/1/60
f 103/1/60 135/1/60 71/1/60
f 136/1/61 135/1/60 103/1/60
f 72/1/60 103/1/60 71/1/60
f 104/1/60 103/1/60 72/1/60
f 80/1/60 111/1/60 79/1/60
f 112/1/60 111/1/60 80/1/60
f 48/1/60 80/1/60 47/1/61
f 81/1/60 80/1/60 48/1/60
f 113/1/60 143/1/61 112/1/60
f 144/1/61 143/1/61 113/1/60
f 22/1/60 48/1/60 21/1/62
f 49/1/60 48/1/60 22/1/60
f 145/1/60 173/1/61 144/1/60
f 174/1/61 173/1/61 145/1/60
f 6/1/60 22/1/60 5/1/60
f 23/1/60 22/1/60 6/1/60
f 175/1/60 193/1/60 174/1/60
f 194/1/60 193/1/60 175/1/60
f 24/1/63 50/1/64 23/1/63
f 51/1/60 50/1/64 24/1/63
f 147/1/60 175/1/60 146/1/60
f 176/1/61 175/1/60 147/1/60
f 52/1/63 82/1/64 51/1/63
f 83/1/60 82/1/64 52/1/63
f 115/1/60 147/1/60 114/1/60
f 148/1/61 147/1/60 115/1/60
f 84/1/60 115/1/60 83/1/60
f 116/1/60 115/1/60 84/1/60
f 196/1/65 213/1/65 195/1/65
f 214/1/65 213/1/65 196/1/65
f 198/1/60 215/1/60 197/1/60
f 216/1/60 215/1/60 198/1/60
f 217/1/60 225/1/60 216/1/60
f 226/1/60 225/1/60 217/1/60
f 200/1/60 217/1/60 199/1/60
f 218/1/60 217/1/60 200/1/60
f 92/1/60 123/1/60 91/1/60
f 124/1/60 123/1/60 92/1/60
f 60/1/60 92/1/60 59/1/61
f 93/1/60 92/1/60 60/1/60
f 125/1/60 155/1/66 124/1/60
f 156/1/66 155/1/66 125/1/60
f 30/1/60 60/1/60 29/1/61
f 61/1/60 60/1/60 30/1/60
f 157/1/60 181/1/66 156/1/60
f 182/1/66 181/1/66 157/1/60
f 10/1/60 30/1/60 9/1/60
f 31/1/60 30/1/60 10/1/60
f 183/1/60 209/1/60 182/1/60
f 210/1/60 209/1/60 183/1/60
f 32/1/60 62/1/60 31/1/60
f 63/1/60 62/1/60 32/1/60
f 159/1/67 183/1/67 158/1/60
f 184/1/66 183/1/67 159/1/67
f 64/1/60 94/1/60 63/1/60
f 95/1/60 94/1/60 64/1/60
f 127/1/67 159/1/67 126/1/60
f 160/1/66 159/1/67 127/1/67
f 96/1/60 127/1/60 95/1/60
f 128/1/60 127/1/60 96/1/60
f 73/1/61 105/1/61 74/1/61
f 74/1/61 105/1/61 106/1/61
f 41/1/67 74/1/61 42/1/61
f 42/1/61 74/1/61 75/1/61
f 106/1/61 137/1/68 107/1/61
f 107/1/61 137/1/68 138/1/69
f 17/1/60 42/1/61 18/1/61
f 18/1/61 42/1/61 43/1/61
f 138/1/61 169/1/68 139/1/61
f 139/1/61 169/1/68 170/1/69
f 3/1/61 18/1/61 4/1/61
f 4/1/61 18/1/61 19/1/61
f 170/1/61 191/1/61 171/1/61
f 171/1/61 191/1/61 192/1/61
f 19/1/66 44/1/61 20/1/66
f 20/1/66 44/1/61 45/1/61
f 140/1/61 171/1/61 141/1/61
f 141/1/61 171/1/61 172/1/60
f 45/1/66 76/1/61 46/1/66
f 46/1/66 76/1/61 77/1/61
f 108/1/61 141/1/61 109/1/61
f 109/1/61 141/1/61 142/1/60
f 77/1/61 109/1/61 78/1/61
f 78/1/61 109/1/61 110/1/61
f 201/1/61 219/1/61 202/1/61
f 202/1/61 219/1/61 220/1/61
f 220/1/61 227/1/61 221/1/61
f 221/1/61 227/1/61 228/1/61
f 203/1/61 221/1/61 204/1/61
f 204/1/61 221/1/61 222/1/61
f 205/1/70 223/1/70 206/1/70
f 206/1/70 223/1/70 224/1/70
f 85/1/61 117/1/61 86/1/61
f 86/1/61 117/1/61 118/1/61
f 53/1/71 86/1/66 54/1/61
f 54/1/61 86/1/66 87/1/61
f 118/1/61 149/1/68 119/1/61
f 119/1/61 149/1/68 150/1/69
f 25/1/71 54/1/66 26/1/66
f 26/1/66 54/1/66 55/1/61
f 150/1/61 177/1/68 151/1/61
f 151/1/61 177/1/68 178/1/69
f 7/1/61 26/1/61 8/1/61
f 8/1/61 26/1/61 27/1/61
f 178/1/61 207/1/61 179/1/61
f 179/1/61 207/1/61 208/1/61
f 27/1/66 56/1/61 28/1/66
f 28/1/66 56/1/61 57/1/61
f 152/1/61 179/1/61 153/1/61
f 153/1/61 179/1/61 180/1/60
f 57/1/66 88/1/61 58/1/66
f 58/1/66 88/1/61 89/1/61
f 120/1/61 153/1/61 121/1/61
f 121/1/61 153/1/61 154/1/60
f 89/1/61 121/1/61 90/1/61
f 90/1/61 121/1/61 122/1/61
f 97/1/61 129/1/61 98/1/61
f 98/1/61 129/1/61 130/1/61
f 65/1/60 98/1/61 66/1/61
f 130/1/61 161/1/61 66/1/61
f 98/1/61 130/1/61 66/1/61
f 66/1/61 161/1/61 162/1/61
f 33/1/60 66/1/61 34/1/61
f 162/1/61 185/1/61 34/1/61
f 66/1/61 162/1/61 34/1/61
f 34/1/61 185/1/61 186/1/61
f 11/1/61 34/1/61 12/1/61
f 186/1/61 211/1/61 12/1/61
f 34/1/61 186/1/61 12/1/61
f 12/1/61 211/1/61 35/1/61
f 35/1/61 211/1/61 187/1/61
f 187/1/61 211/1/61 212/1/61
f 35/1/61 187/1/61 36/1/61
f 36/1/61 187/1/61 67/1/61
f 67/1/61 187/1/61 163/1/61
f 163/1/61 187/1/61 188/1/60
f 67/1/61 163/1/61 68/1/61
f 68/1/61 163/1/61 99/1/61
f 99/1/61 163/1/61 131/1/61
f 131/1/61 163/1/61 164/1/60
f 99/1/61 131/1/61 100/1/61
f 100/1/61 131/1/61 132/1/61
