# Blender 5.1.2
# www.blender.org
mtllib Knife.mtl
o Untitled
v -0.200000 0.200000 -0.200000
v -0.200000 0.201438 -0.400000
v -0.200000 0.300000 -0.500000
v -0.200000 0.400000 -0.200000
v -0.200000 0.507781 -0.300000
v -0.200000 2.400000 -0.200000
v -0.200000 2.294508 -0.300000
v -0.200000 2.800000 -0.200000
v -0.200000 2.800000 -0.500000
v -0.100000 -0.000000 -0.100000
v -0.100000 0.001438 -0.400000
v -0.100000 0.200000 -0.200000
v -0.100000 0.201438 -0.400000
v -0.100000 0.101438 -0.500000
v -0.100000 0.200000 -0.600000
v -0.100000 0.300000 -0.500000
v -0.100000 0.400000 -0.200000
v -0.100000 0.507781 -0.300000
v -0.100000 2.400000 -0.200000
v -0.100000 2.294508 -0.300000
v -0.100000 2.294508 -0.600000
v -0.100000 2.400000 -0.700000
v -0.100000 2.500000 -0.000000
v -0.100000 2.394508 -0.100000
v -0.100000 2.800000 -0.000000
v -0.100000 2.800000 -0.200000
v -0.100000 2.800000 -0.500000
v -0.100000 2.800000 -0.700000
v -0.100000 5.200000 -0.200000
v -0.100000 5.296646 -0.300000
v -0.100000 5.296646 -0.400000
v -0.100000 5.200000 -0.500000
v -0.100000 6.000000 -0.300000
v -0.100000 6.000000 -0.400000
v 0.000000 0.100000 -0.000000
v 0.000000 0.002876 -0.100000
v 0.000000 0.300000 -0.000000
v 0.000000 0.368311 -0.100000
v 0.000000 2.194508 -0.600000
v 0.000000 2.300000 -0.700000
v 0.000000 2.294508 -0.600000
v 0.000000 2.400000 -0.700000
v 0.000000 2.600000 0.100000
v 0.000000 2.494508 -0.000000
v 0.000000 2.494508 -0.700000
v 0.000000 2.600000 -0.800000
v 0.000000 2.800000 0.100000
v 0.000000 2.800000 -0.000000
v 0.000000 2.800000 -0.200000
v 0.000000 2.800000 -0.500000
v 0.000000 2.800000 -0.700000
v 0.000000 2.800000 -0.800000
v 0.000000 4.400001 -0.000000
v 0.000000 4.496646 -0.100000
v 0.000000 4.496646 -0.600000
v 0.000000 4.400001 -0.700000
v 0.000000 5.200000 -0.200000
v 0.000000 5.296646 -0.300000
v 0.000000 5.296646 -0.400000
v 0.000000 5.200000 -0.500000
v 0.000000 5.700000 -0.100000
v 0.000000 5.796646 -0.200000
v 0.000000 5.796646 -0.500000
v 0.000000 5.700000 -0.600000
v 0.000000 6.000000 -0.200000
v 0.000000 6.098323 -0.300000
v 0.000000 6.000000 -0.500000
v 0.000000 6.098323 -0.400000
v 0.100000 0.100000 -0.000000
v 0.100000 0.002876 -0.100000
v 0.100000 0.300000 -0.000000
v 0.100000 0.368311 -0.100000
v 0.100000 2.194508 -0.600000
v 0.100000 2.300000 -0.700000
v 0.100000 2.294508 -0.600000
v 0.100000 2.400000 -0.700000
v 0.100000 2.600000 0.100000
v 0.100000 2.494508 -0.000000
v 0.100000 2.494508 -0.700000
v 0.100000 2.600000 -0.800000
v 0.100000 2.800000 0.100000
v 0.100000 2.800000 -0.000000
v 0.100000 2.800000 -0.200000
v 0.100000 2.800000 -0.500000
v 0.100000 2.800000 -0.700000
v 0.100000 2.800000 -0.800000
v 0.100000 4.400001 -0.000000
v 0.100000 4.496646 -0.100000
v 0.100000 4.496646 -0.600000
v 0.100000 4.400001 -0.700000
v 0.100000 5.200000 -0.200000
v 0.100000 5.296646 -0.300000
v 0.100000 5.296646 -0.400000
v 0.100000 5.200000 -0.500000
v 0.100000 5.700000 -0.100000
v 0.100000 5.796646 -0.200000
v 0.100000 5.796646 -0.500000
v 0.100000 5.700000 -0.600000
v 0.100000 6.000000 -0.200000
v 0.100000 6.098323 -0.400000
v 0.100000 6.000000 -0.500000
v 0.100000 6.098323 -0.300000
v 0.200000 -0.000000 -0.100000
v 0.200000 0.001438 -0.400000
v 0.200000 0.101438 -0.500000
v 0.200000 0.200000 -0.200000
v 0.200000 0.200000 -0.600000
v 0.200000 0.201438 -0.400000
v 0.200000 0.300000 -0.500000
v 0.200000 0.400000 -0.200000
v 0.200000 0.507781 -0.300000
v 0.200000 2.400000 -0.200000
v 0.200000 2.294508 -0.300000
v 0.200000 2.294508 -0.600000
v 0.200000 2.400000 -0.700000
v 0.200000 2.500000 -0.000000
v 0.200000 2.394508 -0.100000
v 0.200000 2.800000 -0.000000
v 0.200000 2.800000 -0.200000
v 0.200000 2.800000 -0.500000
v 0.200000 2.800000 -0.700000
v 0.200000 5.200000 -0.200000
v 0.200000 5.296646 -0.300000
v 0.200000 5.296646 -0.400000
v 0.200000 5.200000 -0.500000
v 0.200000 6.000000 -0.300000
v 0.200000 6.000000 -0.400000
v 0.300000 0.200000 -0.200000
v 0.300000 0.201438 -0.400000
v 0.300000 0.300000 -0.500000
v 0.300000 0.400000 -0.200000
v 0.300000 0.507781 -0.300000
v 0.300000 2.400000 -0.200000
v 0.300000 2.294508 -0.300000
v 0.300000 2.800000 -0.200000
v 0.300000 2.800000 -0.500000
vn -1.0000 -0.0000 -0.0000
vn 1.0000 -0.0000 -0.0000
vn -0.0000 -0.0000 1.0000
vn -0.0000 -0.0000 -1.0000
vn -0.0000 -1.0000 -0.0000
vn -0.0000 -0.7173 0.6967
vn -0.0000 -0.7173 -0.6967
vn -0.0000 -0.6880 -0.7257
vn -0.0000 -0.6880 0.7257
vn -0.0000 0.8257 0.5641
vn -0.0000 0.6802 0.7331
vn -0.0000 1.0000 -0.0000
vn -0.0000 0.7191 0.6949
vn -0.0000 0.7191 -0.6949
vn -0.0000 0.7190 0.6950
vn -0.0000 0.7191 0.6950
vn -0.6950 0.7191 -0.0000
vn 0.6950 0.7191 -0.0000
vn -0.0000 0.7191 -0.6950
vn -0.0000 0.7190 -0.6950
vt 0.373047 0.500000
vt 0.982422 0.500000
s 1
usemtl palette.003
f 4/1/1 2/1/1 1/1/1
f 4/1/1 3/1/1 2/1/1
f 5/1/1 3/1/1 4/1/1
f 7/1/1 3/1/1 5/1/1
f 8/1/1 7/1/1 6/1/1
f 9/1/1 3/1/1 7/1/1
f 9/1/1 7/1/1 8/1/1
f 12/1/1 11/1/1 10/1/1
f 12/1/1 14/1/1 11/1/1
f 13/1/1 14/1/1 12/1/1
f 13/1/1 15/1/1 14/1/1
f 16/1/1 15/1/1 13/1/1
f 17/1/1 12/1/1 10/1/1
f 19/1/1 17/1/1 10/1/1
f 19/1/1 18/1/1 17/1/1
f 20/1/1 18/1/1 19/1/1
f 21/1/1 15/1/1 16/1/1
f 24/1/1 19/1/1 10/1/1
f 25/1/1 24/1/1 23/1/1
f 26/1/1 19/1/1 24/1/1
f 26/1/1 24/1/1 25/1/1
f 27/1/1 22/1/1 21/1/1
f 27/1/1 21/1/1 16/1/1
f 28/1/1 22/1/1 27/1/1
f 29/2/1 27/2/1 26/2/1
f 30/2/1 27/2/1 29/2/1
f 31/2/1 27/2/1 30/2/1
f 32/2/1 27/2/1 31/2/1
f 33/2/1 31/2/1 30/2/1
f 34/2/1 31/2/1 33/2/1
f 37/1/1 36/1/1 35/1/1
f 38/1/1 36/1/1 37/1/1
f 41/1/1 40/1/1 39/1/1
f 42/1/1 40/1/1 41/1/1
f 47/1/1 44/1/1 43/1/1
f 48/1/1 44/1/1 47/1/1
f 51/1/1 46/1/1 45/1/1
f 52/1/1 46/1/1 51/1/1
f 53/2/1 49/2/1 48/2/1
f 54/2/1 49/2/1 53/2/1
f 55/2/1 51/2/1 50/2/1
f 56/2/1 51/2/1 55/2/1
f 57/2/1 49/2/1 54/2/1
f 60/2/1 55/2/1 50/2/1
f 61/2/1 58/2/1 57/2/1
f 61/2/1 57/2/1 54/2/1
f 62/2/1 58/2/1 61/2/1
f 63/2/1 60/2/1 59/2/1
f 63/2/1 55/2/1 60/2/1
f 64/2/1 55/2/1 63/2/1
f 65/2/1 58/2/1 62/2/1
f 66/2/1 58/2/1 65/2/1
f 68/2/1 63/2/1 59/2/1
f 67/2/1 63/2/1 68/2/1
f 69/1/2 70/1/2 71/1/2
f 71/1/2 70/1/2 72/1/2
f 73/1/2 74/1/2 75/1/2
f 75/1/2 74/1/2 76/1/2
f 77/1/2 78/1/2 81/1/2
f 81/1/2 78/1/2 82/1/2
f 79/1/2 80/1/2 85/1/2
f 85/1/2 80/1/2 86/1/2
f 82/2/2 83/2/2 87/2/2
f 87/2/2 83/2/2 88/2/2
f 84/2/2 85/2/2 89/2/2
f 89/2/2 85/2/2 90/2/2
f 88/2/2 83/2/2 91/2/2
f 84/2/2 89/2/2 94/2/2
f 91/2/2 92/2/2 95/2/2
f 88/2/2 91/2/2 95/2/2
f 95/2/2 92/2/2 96/2/2
f 93/2/2 94/2/2 97/2/2
f 94/2/2 89/2/2 97/2/2
f 97/2/2 89/2/2 98/2/2
f 96/2/2 92/2/2 99/2/2
f 99/2/2 92/2/2 102/2/2
f 93/2/2 97/2/2 100/2/2
f 100/2/2 97/2/2 101/2/2
f 103/1/2 104/1/2 106/1/2
f 104/1/2 105/1/2 106/1/2
f 106/1/2 105/1/2 108/1/2
f 105/1/2 107/1/2 108/1/2
f 108/1/2 107/1/2 109/1/2
f 103/1/2 106/1/2 110/1/2
f 103/1/2 110/1/2 112/1/2
f 110/1/2 111/1/2 112/1/2
f 112/1/2 111/1/2 113/1/2
f 109/1/2 107/1/2 114/1/2
f 103/1/2 112/1/2 117/1/2
f 116/1/2 117/1/2 118/1/2
f 117/1/2 112/1/2 119/1/2
f 118/1/2 117/1/2 119/1/2
f 114/1/2 115/1/2 120/1/2
f 109/1/2 114/1/2 120/1/2
f 120/1/2 115/1/2 121/1/2
f 119/2/2 120/2/2 122/2/2
f 122/2/2 120/2/2 123/2/2
f 123/2/2 120/2/2 124/2/2
f 124/2/2 120/2/2 125/2/2
f 123/2/2 124/2/2 126/2/2
f 126/2/2 124/2/2 127/2/2
f 128/1/2 129/1/2 131/1/2
f 129/1/2 130/1/2 131/1/2
f 131/1/2 130/1/2 132/1/2
f 132/1/2 130/1/2 134/1/2
f 133/1/2 134/1/2 135/1/2
f 134/1/2 130/1/2 136/1/2
f 135/1/2 134/1/2 136/1/2
f 77/1/3 47/1/3 43/1/3
f 81/1/3 47/1/3 77/1/3
f 44/1/4 25/1/3 23/1/3
f 48/1/3 25/1/3 44/1/4
f 69/1/3 37/1/3 35/1/3
f 71/1/3 37/1/3 69/1/3
f 78/1/4 44/1/4 23/1/3
f 82/2/3 53/2/3 48/2/3
f 87/2/3 53/2/3 82/2/3
f 116/1/3 78/1/4 23/1/3
f 116/1/3 82/1/3 78/1/4
f 118/1/3 82/1/3 116/1/3
f 36/1/3 24/1/3 10/1/3
f 38/1/3 24/1/3 36/1/3
f 70/1/3 36/1/3 10/1/3
f 72/1/3 24/1/3 38/1/3
f 88/2/3 61/2/3 54/2/3
f 95/2/3 61/2/3 88/2/3
f 103/1/3 72/1/3 70/1/3
f 103/1/3 70/1/3 10/1/3
f 117/1/3 24/1/3 72/1/3
f 117/1/3 72/1/3 103/1/3
f 12/1/3 4/1/3 1/1/3
f 17/1/3 4/1/3 12/1/3
f 19/1/3 8/1/3 6/1/3
f 26/1/3 8/1/3 19/1/3
f 49/2/3 29/2/3 26/2/3
f 57/2/3 29/2/3 49/2/3
f 96/2/3 65/2/3 62/2/3
f 99/2/3 65/2/3 96/2/3
f 119/2/3 91/2/3 83/2/3
f 122/2/3 91/2/3 119/2/3
f 128/1/3 110/1/3 106/1/3
f 131/1/3 110/1/3 128/1/3
f 133/1/3 119/1/3 112/1/3
f 135/1/3 119/1/3 133/1/3
f 18/1/3 7/1/3 5/1/3
f 20/1/3 7/1/3 18/1/3
f 58/2/3 33/2/3 30/2/3
f 66/2/3 33/2/3 58/2/3
f 123/2/3 102/2/3 92/2/3
f 126/2/3 102/2/3 123/2/3
f 132/1/3 113/1/3 111/1/3
f 134/1/3 113/1/3 132/1/3
f 31/2/4 34/2/4 59/2/4
f 59/2/4 34/2/4 68/2/4
f 93/2/4 100/2/4 124/2/4
f 124/2/4 100/2/4 127/2/4
f 3/1/4 9/1/4 16/1/4
f 16/1/4 9/1/4 27/1/4
f 27/2/4 32/2/4 50/2/4
f 50/2/4 32/2/4 60/2/4
f 63/2/4 67/2/4 97/2/4
f 97/2/4 67/2/4 101/2/4
f 84/2/4 94/2/4 120/2/4
f 120/2/4 94/2/4 125/2/4
f 109/1/4 120/1/4 130/1/4
f 130/1/4 120/1/4 136/1/4
f 15/1/4 21/1/4 39/1/4
f 39/1/4 21/1/4 41/1/4
f 15/1/4 39/1/4 73/1/4
f 55/2/4 64/2/4 89/2/4
f 89/2/4 64/2/4 98/2/4
f 73/1/4 75/1/4 107/1/4
f 15/1/4 73/1/4 107/1/4
f 107/1/4 75/1/4 114/1/4
f 22/1/4 28/1/4 42/1/4
f 42/1/4 28/1/4 45/1/4
f 45/1/4 28/1/4 51/1/4
f 40/1/4 42/1/4 74/1/4
f 42/1/4 45/1/4 74/1/4
f 74/1/4 45/1/4 76/1/4
f 76/1/4 45/1/4 79/1/4
f 51/2/4 56/2/4 85/2/4
f 85/2/4 56/2/4 90/2/4
f 76/1/4 79/1/4 115/1/4
f 79/1/4 85/1/4 115/1/4
f 115/1/4 85/1/4 121/1/4
f 46/1/4 52/1/4 80/1/4
f 80/1/4 52/1/4 86/1/4
f 11/1/5 103/1/5 10/1/5
f 104/1/5 103/1/5 11/1/5
f 36/1/6 69/1/6 35/1/6
f 70/1/6 69/1/6 36/1/6
f 14/1/7 104/1/7 11/1/7
f 105/1/7 104/1/7 14/1/7
f 2/1/5 12/1/5 1/1/5
f 13/1/5 12/1/5 2/1/5
f 108/1/5 128/1/5 106/1/5
f 129/1/5 128/1/5 108/1/5
f 15/1/7 105/1/7 14/1/7
f 107/1/7 105/1/7 15/1/7
f 3/1/7 13/1/7 2/1/7
f 16/1/7 13/1/7 3/1/7
f 109/1/7 129/1/7 108/1/7
f 130/1/7 129/1/7 109/1/7
f 40/1/8 73/1/8 39/1/8
f 74/1/8 73/1/8 40/1/8
f 7/1/9 19/1/9 6/1/9
f 20/1/9 19/1/9 7/1/9
f 113/1/9 133/1/9 112/1/9
f 134/1/9 133/1/9 113/1/9
f 22/1/8 41/1/8 21/1/8
f 42/1/8 41/1/8 22/1/8
f 76/1/8 114/1/8 75/1/8
f 115/1/8 114/1/8 76/1/8
f 24/1/9 116/1/9 23/1/9
f 117/1/9 116/1/9 24/1/9
f 44/1/9 77/1/9 43/1/9
f 78/1/9 77/1/9 44/1/9
f 46/1/8 79/1/8 45/1/8
f 80/1/8 79/1/8 46/1/8
f 37/1/10 71/1/10 38/1/10
f 38/1/10 71/1/10 72/1/10
f 4/1/11 17/1/11 5/1/11
f 5/1/11 17/1/11 18/1/11
f 110/1/11 131/1/11 111/1/11
f 111/1/11 131/1/11 132/1/11
f 47/1/12 81/1/12 48/1/12
f 48/1/12 81/1/12 82/1/12
f 25/1/12 48/1/12 26/1/12
f 26/1/12 48/1/12 49/1/12
f 82/1/12 118/1/12 83/1/12
f 83/1/12 118/1/12 119/1/12
f 8/1/12 26/1/12 9/1/12
f 9/1/12 26/1/12 27/1/12
f 119/1/12 135/1/12 120/1/12
f 120/1/12 135/1/12 136/1/12
f 27/1/12 50/1/12 28/1/12
f 28/1/12 50/1/12 51/1/12
f 84/1/12 120/1/12 85/1/12
f 85/1/12 120/1/12 121/1/12
f 51/1/12 85/1/12 52/1/12
f 52/1/12 85/1/12 86/1/12
f 53/2/13 87/2/13 54/2/13
f 54/2/13 87/2/13 88/2/13
f 55/2/14 89/2/14 56/2/14
f 56/2/14 89/2/14 90/2/14
f 29/2/13 57/2/13 30/2/13
f 30/2/13 57/2/13 58/2/13
f 91/2/13 122/2/13 92/2/13
f 92/2/13 122/2/13 123/2/13
f 31/2/14 59/2/14 32/2/14
f 32/2/14 59/2/14 60/2/14
f 93/2/14 124/2/14 94/2/14
f 94/2/14 124/2/14 125/2/14
f 61/2/13 95/2/13 62/2/13
f 62/2/13 95/2/13 96/2/13
f 63/2/14 97/2/14 64/2/14
f 64/2/14 97/2/14 98/2/14
f 65/2/15 99/2/15 66/2/16
f 66/2/16 99/2/15 102/2/16
f 33/2/17 66/2/17 34/2/17
f 34/2/17 66/2/17 68/2/17
f 102/2/18 126/2/18 100/2/18
f 100/2/18 126/2/18 127/2/18
f 68/2/19 100/2/20 67/2/20
f 67/2/20 100/2/20 101/2/20
f 66/2/12 102/2/12 68/2/12
f 68/2/12 102/2/12 100/2/12
