# Blender 5.1.2
# www.blender.org
mtllib Revolver.mtl
o Untitled
v -5.500000 0.000000 0.200000
v -5.500000 0.000000 0.100000
v -5.500000 -0.000000 -0.100000
v -5.500000 -0.000000 -0.200000
v -5.500000 0.300000 0.200000
v -5.500000 0.300000 0.100000
v -5.500000 0.300000 -0.100000
v -5.500000 0.300000 -0.200000
v -5.400001 0.000000 0.300000
v -5.400001 0.000000 0.200000
v -5.400001 -0.000000 -0.200000
v -5.400001 -0.000000 -0.300000
v -5.400001 0.300000 0.300000
v -5.400001 0.398916 0.200000
v -5.400000 0.398916 0.100000
v -5.400000 0.398916 -0.100000
v -5.400001 0.398916 -0.200000
v -5.400001 0.300000 -0.300000
v -5.400001 0.600000 0.200000
v -5.400000 0.600000 0.100000
v -5.400000 0.600000 -0.100000
v -5.400001 0.600000 -0.200000
v -5.300000 0.000000 0.400000
v -5.300000 0.000000 0.300000
v -5.300000 -0.000000 -0.300000
v -5.300000 -0.000000 -0.400000
v -5.300000 0.300000 0.400000
v -5.300000 0.300000 0.300000
v -5.300000 0.398916 0.200000
v -5.300000 0.398916 -0.200000
v -5.300000 0.300000 -0.300000
v -5.300000 0.300000 -0.400000
v -5.300000 0.600000 0.300000
v -5.300000 0.698916 0.200000
v -5.300000 0.698916 0.100000
v -5.300000 0.698916 -0.100000
v -5.300000 0.698916 -0.200000
v -5.300000 0.600000 -0.300000
v -5.300000 0.900000 0.200000
v -5.300000 0.900000 0.100000
v -5.300000 0.900000 -0.100000
v -5.300000 0.900000 -0.200000
v -5.200000 0.398916 0.400000
v -5.200000 0.398916 0.300000
v -5.200000 0.398916 -0.300000
v -5.200000 0.398916 -0.400000
v -5.200000 0.600000 0.400000
v -5.200000 0.600000 0.300000
v -5.200000 0.698916 0.200000
v -5.200000 0.698916 -0.200000
v -5.200000 0.600000 -0.300000
v -5.200000 0.600000 -0.400000
v -5.200000 0.900000 0.300000
v -5.200000 0.998916 0.200000
v -5.200000 0.998916 0.100000
v -5.200000 0.998916 -0.100000
v -5.200000 0.998916 -0.200000
v -5.200000 0.900000 -0.300000
v -5.200000 1.100000 0.200000
v -5.200000 1.100000 0.100000
v -5.200000 1.100000 -0.100000
v -5.200000 1.100000 -0.200000
v -5.100000 0.698916 0.400000
v -5.100000 0.698916 0.300000
v -5.100000 0.698916 -0.300000
v -5.100000 0.698916 -0.400000
v -5.100000 0.900000 0.400000
v -5.100000 0.900000 0.300000
v -5.100000 0.998916 0.200000
v -5.100000 0.998916 -0.200000
v -5.100000 0.900000 -0.300000
v -5.100000 0.900000 -0.400000
v -5.100000 1.100000 0.300000
v -5.100000 1.198916 0.200000
v -5.100000 1.198916 0.100000
v -5.100000 1.198916 -0.100000
v -5.100000 1.198916 -0.200000
v -5.100000 1.100000 -0.300000
v -5.100000 1.300000 0.200000
v -5.100000 1.300000 0.100000
v -5.100000 1.300000 -0.100000
v -5.100000 1.300000 -0.200000
v -5.000000 0.998916 0.400000
v -5.000000 0.998916 0.300000
v -5.000000 0.998916 -0.300000
v -5.000000 0.998916 -0.400000
v -5.000000 1.100000 0.400000
v -5.000000 1.100000 0.300000
v -5.000000 1.198916 0.200000
v -5.000000 1.198916 -0.200000
v -5.000000 1.100000 -0.300000
v -5.000000 1.100000 -0.400000
v -5.000000 1.300000 0.300000
v -5.000000 1.398916 0.200000
v -5.000000 1.398916 0.100000
v -5.000000 1.398916 -0.100000
v -5.000000 1.398916 -0.200000
v -5.000000 1.300000 -0.300000
v -5.000000 1.500000 0.200000
v -5.000000 1.500000 0.100000
v -5.000000 1.500000 -0.100000
v -5.000000 1.500000 -0.200000
v -4.900001 1.198916 0.400000
v -4.900001 1.198916 0.300000
v -4.900001 1.198916 -0.300000
v -4.900001 1.198916 -0.400000
v -4.900001 1.300000 0.400000
v -4.900001 1.300000 0.300000
v -4.900001 1.398916 0.200000
v -4.900001 1.398916 -0.200000
v -4.900001 1.300000 -0.300000
v -4.900001 1.300000 -0.400000
v -4.900001 1.500000 0.300000
v -4.900001 1.598916 0.200000
v -4.900000 1.598916 0.100000
v -4.900000 1.598916 -0.100000
v -4.900001 1.598916 -0.200000
v -4.900001 1.500000 -0.300000
v -4.900001 1.700000 0.200000
v -4.900000 1.700000 0.100000
v -4.900000 1.700000 -0.100000
v -4.900001 1.700000 -0.200000
v -4.800000 1.398916 0.400000
v -4.800000 1.398916 0.300000
v -4.800000 1.398916 -0.300000
v -4.800000 1.398916 -0.400000
v -4.800000 1.500000 0.400000
v -4.800000 1.500000 0.300000
v -4.800000 1.598916 0.200000
v -4.800000 1.598916 -0.200000
v -4.800000 1.500000 -0.300000
v -4.800000 1.500000 -0.400000
v -4.800000 1.700000 0.300000
v -4.800000 1.798916 0.200000
v -4.800000 1.798916 0.100000
v -4.800000 1.798916 -0.100000
v -4.800000 1.798916 -0.200000
v -4.800000 1.700000 -0.300000
v -4.800000 1.900000 0.200000
v -4.800000 1.900000 0.100000
v -4.800000 1.900000 -0.100000
v -4.800000 1.900000 -0.200000
v -4.700000 1.598916 0.400000
v -4.700000 1.598916 0.300000
v -4.700000 1.598916 -0.300000
v -4.700000 1.598916 -0.400000
v -4.700000 1.700000 0.300000
v -4.700000 1.798916 0.200000
v -4.700000 1.798916 -0.200000
v -4.700000 1.700000 -0.300000
v -4.700000 1.800000 0.400000
v -4.700000 1.800000 0.300000
v -4.700000 1.800000 -0.300000
v -4.700000 1.800000 -0.400000
v -4.700000 1.900000 0.300000
v -4.700000 1.999458 0.200000
v -4.700000 1.999458 0.100000
v -4.700000 1.999458 -0.100000
v -4.700000 1.999458 -0.200000
v -4.700000 1.900000 -0.300000
v -4.600000 1.899458 0.400000
v -4.600000 1.899458 -0.400000
v -4.600000 1.899458 0.300000
v -4.600000 1.998916 0.200000
v -4.600000 1.998916 -0.200000
v -4.600000 1.899458 -0.300000
v -4.600000 2.000000 0.300000
v -4.600000 2.099458 0.200000
v -4.600000 2.099458 -0.200000
v -4.600000 2.000000 -0.300000
v -4.600000 2.099458 0.100000
v -4.600000 2.099458 -0.100000
v -4.500000 1.999458 0.400000
v -4.500000 1.999458 -0.300000
v -4.500000 1.999458 -0.400000
v -4.500000 1.999458 0.300000
v -4.500000 2.098916 0.200000
v -4.500000 2.098916 -0.200000
v -4.500000 2.100000 0.300000
v -4.500000 2.199458 0.200000
v -4.500000 2.199458 -0.100000
v -4.500000 2.199458 -0.200000
v -4.500000 2.100000 -0.300000
v -4.500000 2.199458 0.100000
v -4.400001 2.099458 0.400000
v -4.400001 2.099458 0.300000
v -4.400001 2.198916 0.200000
v -4.400001 2.198916 -0.200000
v -4.400001 2.099458 -0.300000
v -4.400001 2.099458 -0.400000
v -4.400001 2.200000 0.300000
v -4.400000 2.299458 0.100000
v -4.400000 2.299458 -0.100000
v -4.400001 2.299458 -0.200000
v -4.400001 2.200000 -0.300000
v -4.400001 2.299458 0.200000
v -4.300000 2.199458 -0.300000
v -4.300000 2.199458 0.400000
v -4.300000 2.199458 0.300000
v -4.300000 2.298916 0.200000
v -4.300000 2.298916 -0.200000
v -4.300000 2.199458 -0.400000
v -4.300000 2.300000 0.300000
v -4.300000 2.399458 0.100000
v -4.300000 2.399458 -0.200000
v -4.300000 2.300000 -0.300000
v -4.300000 2.399458 0.200000
v -4.300000 2.399458 -0.100000
v -4.200000 2.299458 0.400000
v -4.200000 2.299458 0.300000
v -4.200000 2.299458 -0.400000
v -4.200000 2.398916 0.200000
v -4.200000 2.398916 -0.200000
v -4.200000 2.299458 -0.300000
v -4.200000 2.400000 0.300000
v -4.200000 2.400000 -0.300000
v -4.200000 2.499458 0.200000
v -4.200000 2.499458 0.100000
v -4.200000 2.499458 -0.100000
v -4.200000 2.499458 -0.200000
v -4.100000 2.399458 0.400000
v -4.100000 2.399458 0.300000
v -4.100000 2.498916 0.200000
v -4.100000 2.498916 -0.200000
v -4.100000 2.399458 -0.300000
v -4.100000 2.399458 -0.400000
v -4.100000 2.500000 0.300000
v -4.100000 2.599458 0.200000
v -4.100000 2.599458 0.100000
v -4.100000 2.599458 -0.100000
v -4.100000 2.500000 -0.300000
v -4.100000 2.599458 -0.200000
v -4.000000 2.499458 0.300000
v -4.000000 2.499458 -0.300000
v -4.000000 2.499458 -0.400000
v -4.000000 2.499458 0.400000
v -4.000000 2.598916 0.200000
v -4.000000 2.598916 -0.200000
v -4.000000 2.600000 0.300000
v -4.000000 2.699458 0.200000
v -4.000000 2.600000 -0.300000
v -4.000000 2.699458 0.100000
v -4.000000 2.699458 -0.100000
v -4.000000 2.699458 -0.200000
v -3.800000 2.599458 0.400000
v -3.800000 2.599458 -0.300000
v -3.800000 2.599458 -0.400000
v -3.800000 2.599458 0.300000
v -3.800000 2.698916 0.200000
v -3.800000 2.698916 -0.200000
v -3.800000 2.700000 0.300000
v -3.800000 2.799458 0.100000
v -3.800000 2.799458 -0.100000
v -3.800000 2.799458 -0.200000
v -3.800000 2.700000 -0.300000
v -3.800000 2.799458 0.200000
v -3.500000 2.700000 0.300000
v -3.500000 2.799458 0.200000
v -3.500000 2.700000 -0.300000
v -3.500000 2.800000 0.300000
v -3.500000 2.799458 -0.200000
v -3.500000 2.800000 -0.300000
v -3.500000 4.100000 0.100000
v -3.500000 4.100000 -0.100000
v -3.500000 4.200000 0.100000
v -3.500000 4.200000 -0.100000
v -3.400000 1.800000 0.200000
v -3.400000 1.800000 -0.200000
v -3.400000 1.900000 0.200000
v -3.400000 1.900000 -0.200000
v -3.400000 2.802245 0.300000
v -3.400000 2.800000 0.200000
v -3.400000 2.800000 -0.200000
v -3.400000 2.802245 -0.300000
v -3.400000 3.900000 0.100000
v -3.400000 3.900000 -0.100000
v -3.400000 4.100000 0.200000
v -3.400000 3.995634 0.100000
v -3.400000 3.995634 -0.100000
v -3.400000 4.100000 -0.200000
v -3.400000 4.200000 0.200000
v -3.400000 4.200000 -0.200000
v -3.400000 4.297861 0.100000
v -3.400000 4.297861 -0.100000
v -3.300000 2.900000 0.300000
v -3.300000 2.900000 0.200000
v -3.300000 2.900000 -0.200000
v -3.300000 2.900000 -0.300000
v -3.300000 2.997923 0.300000
v -3.300000 2.997923 0.200000
v -3.300000 2.997923 -0.200000
v -3.300000 2.997923 -0.300000
v -3.300000 3.600000 0.100000
v -3.300000 3.600000 -0.100000
v -3.300000 3.900000 0.200000
v -3.300000 3.795635 0.100000
v -3.300000 3.795635 -0.100000
v -3.300000 3.900000 -0.200000
v -3.300000 4.100000 0.200000
v -3.300000 3.995634 0.100000
v -3.300000 3.995634 -0.100000
v -3.300000 4.100000 -0.200000
v -3.200000 3.101828 0.200000
v -3.200000 3.200000 0.100000
v -3.200000 3.200000 -0.100000
v -3.200000 3.101828 -0.200000
v -3.200000 3.600000 0.200000
v -3.200000 3.495634 0.100000
v -3.200000 3.495634 -0.100000
v -3.200000 3.600000 -0.200000
v -3.200000 3.900000 0.200000
v -3.200000 3.795635 0.100000
v -3.200000 3.795635 -0.100000
v -3.200000 3.900000 -0.200000
v -3.100000 3.101828 0.300000
v -3.100000 3.101828 -0.200000
v -3.100000 3.101828 -0.300000
v -3.100000 3.101828 0.200000
v -3.100000 3.200000 0.100000
v -3.100000 3.200000 -0.100000
v -3.100000 3.600000 0.200000
v -3.100000 3.495634 0.100000
v -3.100000 3.495634 -0.100000
v -3.100000 3.600000 -0.200000
v -2.900000 1.500000 0.200000
v -2.900000 1.500000 -0.200000
v -2.900000 1.700000 0.200000
v -2.900000 1.700000 -0.200000
v -2.900000 3.100000 0.400000
v -2.900000 3.100000 0.300000
v -2.900000 3.100000 -0.300000
v -2.900000 3.100000 -0.400000
v -2.900000 3.200000 0.300000
v -2.900000 3.200000 0.200000
v -2.900000 3.200000 -0.200000
v -2.900000 3.200000 -0.300000
v -2.900000 3.700000 0.400000
v -2.900000 3.798172 0.300000
v -2.900000 3.798465 -0.300000
v -2.900000 3.700000 -0.400000
v -2.900000 3.898172 0.200000
v -2.900000 3.898172 0.100000
v -2.900000 3.898465 -0.100000
v -2.900000 3.898465 -0.200000
v -2.800000 1.401190 0.200000
v -2.800000 1.401190 -0.200000
v -2.800000 2.900000 0.400000
v -2.800000 2.900000 0.300000
v -2.800000 2.900000 -0.300000
v -2.800000 2.900000 -0.400000
v -2.800000 3.100000 0.499438
v -2.800000 3.100000 0.300000
v -2.800000 3.100000 -0.300000
v -2.800000 3.100000 -0.499755
v -2.800000 3.700000 0.499438
v -2.800000 3.798172 0.300000
v -2.800000 3.798465 -0.300000
v -2.800000 3.700000 -0.499755
v -2.800000 3.898172 0.200000
v -2.800000 3.898465 -0.200000
v -2.800000 3.900000 0.400000
v -2.800000 3.900000 -0.400000
v -2.700000 1.301190 0.200000
v -2.700000 1.301190 -0.200000
v -2.700000 2.800000 0.400000
v -2.700000 2.800000 0.300000
v -2.700000 2.800000 -0.300000
v -2.700000 2.800000 -0.400000
v -2.700000 2.900000 0.499438
v -2.700000 2.900000 0.300000
v -2.700000 2.900000 -0.300000
v -2.700000 2.900000 -0.499755
v -2.700000 3.100000 0.597342
v -2.700000 3.100000 -0.599669
v -2.700000 3.700000 0.598506
v -2.700000 3.700000 -0.600438
v -2.700000 3.900000 0.499438
v -2.700000 3.900000 0.100000
v -2.700000 3.900000 -0.100000
v -2.700000 3.900000 -0.499755
v -2.700000 4.000000 0.400000
v -2.700000 4.000000 -0.400000
v -2.600000 1.700000 0.100000
v -2.600000 1.700000 -0.100000
v -2.600000 1.803227 0.100000
v -2.600000 1.803227 -0.100000
v -2.600000 2.700000 0.400000
v -2.600000 2.700000 0.300000
v -2.600000 2.700000 -0.300000
v -2.600000 2.700000 -0.400000
v -2.600000 2.800000 0.499438
v -2.600000 2.800000 0.300000
v -2.600000 2.800000 -0.300000
v -2.600000 2.800000 -0.499755
v -2.600000 2.900000 0.597342
v -2.600000 2.900000 -0.599669
v -2.600000 3.100000 0.697342
v -2.600000 3.100000 -0.699669
v -2.600000 3.700000 0.698506
v -2.600000 3.700000 -0.700438
v -2.600000 3.900000 0.598506
v -2.600000 3.900000 -0.600438
v -2.600000 4.000000 0.500000
v -2.600000 4.000000 0.400000
v -2.600000 4.000000 -0.400000
v -2.600000 4.000000 -0.500000
v -2.600000 4.099217 0.300000
v -2.600000 4.099217 -0.300000
v -2.500000 1.601614 0.100000
v -2.500000 1.601614 -0.100000
v -2.400000 1.501614 0.100000
v -2.400000 1.501614 -0.100000
v -2.300000 2.800000 0.400000
v -2.300000 2.800000 -0.400000
v -2.300000 2.900000 0.500000
v -2.300000 2.900000 0.400000
v -2.300000 2.900000 -0.400000
v -2.300000 2.900000 -0.500000
v -2.300000 3.100000 0.600000
v -2.300000 3.100000 0.500000
v -2.300000 3.100000 -0.500000
v -2.300000 3.100000 -0.600000
v -2.300000 3.300000 0.200000
v -2.300000 3.202117 0.100000
v -2.300000 3.202117 -0.100000
v -2.300000 3.300000 -0.200000
v -2.300000 3.500000 0.200000
v -2.300000 3.588823 0.100000
v -2.300000 3.588823 -0.100000
v -2.300000 3.500000 -0.200000
v -2.300000 3.700000 0.600000
v -2.300000 3.700000 0.500000
v -2.300000 3.700000 -0.500000
v -2.300000 3.700000 -0.600000
v -2.300000 3.800000 0.100000
v -2.300000 3.800000 -0.100000
v -2.300000 3.900000 0.500000
v -2.300000 3.900000 0.300000
v -2.300000 3.900000 -0.300000
v -2.300000 3.900000 -0.500000
v -2.300000 4.000000 0.300000
v -2.300000 4.000000 -0.300000
v -2.200000 2.702386 0.300000
v -2.200000 2.702386 -0.300000
v -2.200000 2.801555 0.500000
v -2.200000 2.801555 0.400000
v -2.200000 2.801555 -0.500000
v -2.200000 2.900000 0.600000
v -2.200000 2.801555 -0.400000
v -2.200000 2.900000 -0.600000
v -2.200000 3.100000 0.700000
v -2.200000 3.003109 0.600000
v -2.200000 3.003109 0.500000
v -2.200000 3.003109 -0.500000
v -2.200000 3.003109 -0.600000
v -2.200000 3.100000 -0.700000
v -2.200000 3.700000 0.700000
v -2.200000 3.789371 0.600000
v -2.200000 3.789371 0.500000
v -2.200000 3.789371 -0.500000
v -2.200000 3.789371 -0.600000
v -2.200000 3.700000 -0.700000
v -2.200000 3.900000 0.600000
v -2.200000 3.989371 0.500000
v -2.200000 3.989371 0.300000
v -2.200000 3.989371 -0.300000
v -2.200000 3.989371 -0.500000
v -2.200000 3.900000 -0.600000
v -2.200000 4.000000 0.500000
v -2.200000 4.089370 0.300000
v -2.200000 4.089370 -0.300000
v -2.200000 4.000000 -0.500000
v -2.200000 4.100000 0.300000
v -2.200000 4.100000 -0.300000
v -1.891598 1.400000 0.200000
v -1.891598 1.400000 -0.200000
v -1.800000 1.500000 0.200000
v -1.800000 1.500000 -0.200000
v -1.700000 1.599110 0.200000
v -1.700000 1.599110 -0.200000
v -1.600000 1.698220 0.200000
v -1.600000 1.698220 -0.200000
v -1.600000 2.100000 0.200000
v -1.600000 2.100000 -0.200000
v -0.600000 2.700000 0.300000
v -0.600000 2.700000 -0.300000
v -0.600000 3.300000 0.200000
v -0.600000 3.201294 0.100000
v -0.600000 3.201294 -0.100000
v -0.600000 3.300000 -0.200000
v -0.600000 3.400000 0.200000
v -0.600000 3.499151 0.100000
v -0.600000 3.400000 -0.200000
v -0.600000 3.503209 0.200000
v -0.600000 3.499151 -0.100000
v -0.600000 3.503209 -0.200000
v -0.600000 3.600000 0.300000
v -0.600000 3.600000 -0.300000
v -0.600000 3.900000 0.300000
v -0.600000 3.900000 0.200000
v -0.600000 3.900000 -0.200000
v -0.600000 3.900000 -0.300000
v -0.600000 4.000000 0.300000
v -0.600000 4.098527 0.200000
v -0.600000 4.000000 -0.300000
v -0.600000 4.098527 -0.200000
v 1.003481 2.500000 0.200000
v 1.003481 2.500000 -0.200000
v 0.900000 2.600000 0.100000
v 0.900000 2.600000 -0.100000
v 0.900000 2.700000 0.200000
v 0.900000 2.645305 0.150871
v 0.900000 2.652255 -0.151974
v 0.900000 2.700000 -0.200000
v 5.000000 4.100000 0.100000
v 5.000000 4.100000 -0.100000
v 5.000000 4.300000 0.100000
v 5.000000 4.300000 -0.100000
v -4.000000 0.627056 0.400000
v -4.000000 0.627056 0.300000
v -4.000000 0.627056 -0.300000
v -4.000000 0.627056 -0.400000
v -4.000000 1.002775 0.400000
v -4.000000 1.002775 0.300000
v -4.000000 1.100000 -0.300000
v -4.000000 1.100000 -0.400000
v -3.900000 0.427056 0.400000
v -3.900000 0.427056 0.300000
v -3.900000 0.427056 -0.300000
v -3.900000 0.427056 -0.400000
v -3.900000 0.500000 0.400000
v -3.900000 0.500000 0.300000
v -3.900000 0.627056 0.200000
v -3.900000 0.627056 -0.200000
v -3.900000 0.500000 -0.300000
v -3.900000 0.500000 -0.400000
v -3.900000 1.100000 0.400000
v -3.900000 1.100000 0.300000
v -3.900000 1.100000 0.200000
v -3.900000 1.100000 -0.200000
v -3.900000 1.100000 -0.300000
v -3.900000 1.100000 -0.400000
v -3.900000 1.302775 0.400000
v -3.900000 1.302775 0.300000
v -3.900000 1.302775 -0.300000
v -3.900000 1.302775 -0.400000
v -3.800000 0.000000 0.400000
v -3.800000 0.000000 0.300000
v -3.800000 -0.000000 -0.300000
v -3.800000 -0.000000 -0.400000
v -3.800000 0.300000 0.400000
v -3.800000 0.300000 0.300000
v -3.800000 0.427056 0.200000
v -3.800000 0.427056 -0.200000
v -3.800000 0.300000 -0.300000
v -3.800000 0.300000 -0.400000
v -3.800000 0.500000 0.300000
v -3.800000 0.627056 0.200000
v -3.800000 0.627056 0.100000
v -3.800000 0.627056 -0.100000
v -3.800000 0.627056 -0.200000
v -3.800000 0.500000 -0.300000
v -3.800000 1.100000 0.300000
v -3.800000 1.100000 0.200000
v -3.800000 1.100000 0.100000
v -3.800000 1.100000 -0.100000
v -3.800000 1.100000 -0.200000
v -3.800000 1.100000 -0.300000
v -3.800000 1.401387 0.400000
v -3.800000 1.303408 0.200000
v -3.800000 1.303408 -0.200000
v -3.800000 1.401387 -0.300000
v -3.800000 1.401387 -0.400000
v -3.800000 1.401387 0.300000
v -3.700000 0.000000 0.300000
v -3.700000 0.000000 0.200000
v -3.700000 -0.000000 -0.200000
v -3.700000 -0.000000 -0.300000
v -3.700000 0.300000 0.300000
v -3.700000 0.427056 0.200000
v -3.700000 0.427056 0.100000
v -3.700000 0.427056 -0.100000
v -3.700000 0.427056 -0.200000
v -3.700000 0.300000 -0.300000
v -3.700000 0.500000 0.200000
v -3.700000 0.500000 0.100000
v -3.700000 0.500000 -0.100000
v -3.700000 0.500000 -0.200000
v -3.700000 1.100000 0.200000
v -3.700000 1.100000 0.100000
v -3.700000 1.100000 -0.100000
v -3.700000 1.100000 -0.200000
v -3.700000 1.400000 0.300000
v -3.700000 1.303408 0.200000
v -3.700000 1.303408 0.100000
v -3.700000 1.303408 -0.100000
v -3.700000 1.303408 -0.200000
v -3.700000 1.400000 -0.300000
v -3.700000 1.501387 0.400000
v -3.700000 1.403408 0.200000
v -3.700000 1.403408 -0.200000
v -3.700000 1.501387 0.300000
v -3.700000 1.501387 -0.300000
v -3.700000 1.501387 -0.400000
v -3.600000 0.000000 0.200000
v -3.600000 0.000000 0.100000
v -3.600000 -0.000000 -0.100000
v -3.600000 -0.000000 -0.200000
v -3.600000 0.300000 0.200000
v -3.600000 0.300000 0.100000
v -3.600000 0.300000 -0.100000
v -3.600000 0.300000 -0.200000
v -3.600000 1.401704 0.200000
v -3.600000 1.401704 -0.100000
v -3.600000 1.500000 0.300000
v -3.600000 1.401704 0.100000
v -3.600000 1.401704 -0.200000
v -3.600000 1.500000 -0.300000
v -3.600000 1.503408 0.200000
v -3.600000 1.503408 -0.200000
v -3.600000 1.601388 -0.400000
v -3.600000 1.601388 0.400000
v -3.600000 1.601388 0.300000
v -3.600000 1.601388 -0.300000
v -3.500000 1.600000 0.300000
v -3.500000 1.501704 0.200000
v -3.500000 1.501704 0.100000
v -3.500000 1.501704 -0.100000
v -3.500000 1.501704 -0.200000
v -3.500000 1.600000 -0.300000
v -3.500000 1.701387 0.400000
v -3.500000 1.601658 0.200000
v -3.500000 1.601658 -0.200000
v -3.500000 1.701387 -0.300000
v -3.500000 1.701387 -0.400000
v -3.500000 1.701387 0.300000
v -3.500000 1.800000 0.200000
v -3.500000 1.800000 0.100000
v -3.500000 1.800000 -0.100000
v -3.500000 1.800000 -0.200000
v -3.500000 1.900000 0.200000
v -3.500000 1.900000 0.100000
v -3.500000 1.900000 -0.100000
v -3.500000 1.900000 -0.200000
v -3.400000 1.600829 0.200000
v -3.400000 1.600829 -0.200000
v -3.400000 1.700000 0.300000
v -3.400000 1.700000 -0.300000
v -3.400000 1.801387 0.400000
v -3.400000 1.801387 -0.300000
v -3.400000 1.801387 0.300000
v -3.400000 1.801387 -0.400000
v -3.200000 1.900000 0.400000
v -3.200000 1.900000 0.300000
v -3.200000 1.900000 -0.300000
v -3.200000 1.900000 -0.400000
v -3.200000 2.000000 0.400000
v -3.200000 2.000000 0.300000
v -3.200000 2.000000 -0.300000
v -3.200000 2.000000 -0.400000
v -3.200000 2.582267 0.400000
v -3.200000 2.582267 0.300000
v -3.200000 2.597369 -0.300000
v -3.200000 2.597369 -0.400000
v -3.200000 2.600000 0.400000
v -3.200000 2.600000 0.300000
v -3.200000 4.100000 0.200000
v -3.200000 4.198451 0.100000
v -3.200000 4.198451 -0.100000
v -3.200000 4.100000 -0.200000
v -3.200000 4.200000 0.200000
v -3.200000 4.200000 -0.200000
v -3.200000 4.297861 0.100000
v -3.200000 4.297861 -0.100000
v -3.100000 2.000000 0.400000
v -3.100000 2.000000 0.300000
v -3.100000 2.000000 -0.300000
v -3.100000 2.000000 -0.400000
v -3.100000 2.500000 0.400000
v -3.100000 2.500000 0.300000
v -3.100000 2.500000 -0.300000
v -3.100000 2.500000 -0.400000
v -3.100000 3.998451 0.200000
v -3.100000 3.998451 0.100000
v -3.100000 3.998451 -0.100000
v -3.100000 3.998451 -0.200000
v -3.100000 4.100000 0.200000
v -3.100000 4.199225 -0.100000
v -3.100000 4.100000 -0.200000
v -3.100000 4.199225 0.100000
v -3.000000 3.800000 0.200000
v -3.000000 3.800000 0.100000
v -3.000000 3.800000 -0.100000
v -3.000000 3.800000 -0.200000
v -3.000000 3.900000 0.200000
v -3.000000 3.900000 0.100000
v -3.000000 3.900000 -0.100000
v -3.000000 3.900000 -0.200000
v -3.000000 4.100000 0.100000
v -3.000000 4.100000 -0.100000
v -2.923947 1.800000 0.300000
v -2.923947 1.800000 0.200000
v -2.939415 1.800000 -0.200000
v -2.939415 1.800000 -0.300000
v -2.900000 1.900000 0.300000
v -2.900000 1.900000 0.200000
v -2.900000 1.900000 -0.200000
v -2.900000 1.900000 -0.300000
v -2.800000 1.697731 0.200000
v -2.800000 1.697731 -0.200000
v -2.800000 1.900000 0.200000
v -2.800000 1.900000 -0.200000
v -2.700000 1.598865 0.200000
v -2.700000 1.598865 -0.200000
v -2.700000 1.900000 0.300000
v -2.700000 1.900000 0.100000
v -2.700000 1.900000 -0.100000
v -2.700000 1.900000 -0.300000
v -2.591082 2.000000 0.300000
v -2.591082 2.000000 0.100000
v -2.591082 2.000000 -0.100000
v -2.591082 2.000000 -0.300000
v -2.516844 1.400000 0.200000
v -2.516844 1.400000 -0.200000
v -2.600000 1.500000 0.200000
v -2.600000 1.500000 -0.200000
v -2.400000 1.875152 0.100000
v -2.400000 1.875152 -0.100000
v -2.400000 2.000000 0.100000
v -2.400000 2.000000 -0.100000
v -2.400000 2.700000 0.400000
v -2.400000 2.700000 0.300000
v -2.400000 2.700000 -0.300000
v -2.400000 2.700000 -0.400000
v -2.400000 2.800000 0.499438
v -2.400000 2.800000 -0.499755
v -2.400000 2.900000 0.599438
v -2.400000 2.900000 -0.599755
v -2.400000 3.100000 0.698123
v -2.400000 3.100000 -0.699755
v -2.400000 3.202117 0.100000
v -2.400000 3.300000 0.200000
v -2.400000 3.202117 -0.100000
v -2.400000 3.300000 -0.200000
v -2.400000 3.500000 0.200000
v -2.400000 3.588823 0.100000
v -2.400000 3.588823 -0.100000
v -2.400000 3.500000 -0.200000
v -2.400000 3.700000 0.698882
v -2.400000 3.700000 -0.699755
v -2.400000 3.800000 0.100000
v -2.400000 3.800000 -0.100000
v -2.400000 3.900000 0.599438
v -2.400000 3.900000 -0.599755
v -2.400000 4.000000 0.500000
v -2.400000 4.099217 0.300000
v -2.400000 4.099217 -0.300000
v -2.400000 4.000000 -0.500000
v -2.300000 1.675152 0.100000
v -2.300000 1.675152 -0.100000
v -2.300000 1.800000 0.100000
v -2.300000 1.800000 -0.100000
v -2.200000 1.500000 0.100000
v -2.200000 1.500000 -0.100000
v -2.200000 1.600000 0.100000
v -2.200000 1.600000 -0.100000
v -2.100000 2.000000 0.300000
v -2.100000 2.000000 -0.300000
v -1.966881 2.100000 0.300000
v -1.966881 2.100000 -0.300000
v -1.700000 1.300249 0.200000
v -1.700000 1.300249 -0.200000
v -1.600000 1.400249 0.200000
v -1.600000 1.400249 -0.200000
v -1.500000 1.500000 0.200000
v -1.500000 1.500000 -0.200000
v -1.500000 1.904560 0.200000
v -1.500000 1.904560 -0.200000
v -1.400000 2.002280 0.200000
v -1.400000 2.002280 -0.200000
v -1.300000 2.102280 0.300000
v -1.300000 2.102280 -0.300000
v -0.900000 2.202280 0.300000
v -0.900000 2.202280 -0.300000
v -0.700000 2.801555 0.500000
v -0.700000 2.702386 0.300000
v -0.700000 2.702386 -0.300000
v -0.700000 2.801555 -0.500000
v -0.700000 2.900000 0.600000
v -0.700000 2.900000 -0.600000
v -0.700000 3.100000 0.700000
v -0.700000 3.003109 0.600000
v -0.700000 3.003109 -0.600000
v -0.700000 3.100000 -0.700000
v -0.700000 3.300000 0.200000
v -0.700000 3.201294 0.100000
v -0.700000 3.201294 -0.100000
v -0.700000 3.300000 -0.200000
v -0.700000 3.400000 0.200000
v -0.700000 3.499151 -0.100000
v -0.700000 3.400000 -0.200000
v -0.700000 3.503209 0.200000
v -0.700000 3.499151 0.100000
v -0.700000 3.600000 0.300000
v -0.700000 3.503209 -0.200000
v -0.700000 3.600000 -0.300000
v -0.700000 3.700000 0.700000
v -0.700000 3.789371 0.600000
v -0.700000 3.789371 -0.600000
v -0.700000 3.700000 -0.700000
v -0.700000 3.900000 0.600000
v -0.700000 3.989371 0.500000
v -0.700000 3.900000 0.300000
v -0.700000 3.900000 0.200000
v -0.700000 3.900000 -0.200000
v -0.700000 3.900000 -0.300000
v -0.700000 3.989371 -0.500000
v -0.700000 3.900000 -0.600000
v -0.700000 4.000000 0.500000
v -0.700000 4.089370 0.300000
v -0.700000 4.000000 0.200000
v -0.700000 4.000000 -0.200000
v -0.700000 4.089370 -0.300000
v -0.700000 4.000000 -0.500000
v -0.700000 4.100000 0.300000
v -0.700000 4.100000 -0.300000
v -0.600000 2.302280 0.300000
v -0.600000 2.302280 -0.300000
v -0.300000 2.402280 0.300000
v -0.300000 2.402280 -0.300000
v -0.200000 2.502361 0.200000
v -0.200000 2.502361 -0.200000
v -0.200000 2.502361 0.300000
v -0.200000 2.502361 -0.300000
v -0.100000 2.597583 0.200000
v -0.100000 2.597583 -0.200000
v -0.100000 2.600000 0.300000
v -0.100000 2.600000 0.100000
v -0.100000 2.600000 -0.100000
v -0.100000 2.600000 -0.300000
v -0.100000 2.700000 0.200000
v -0.100000 2.645305 0.150871
v -0.100000 2.652255 -0.151974
v -0.100000 2.700000 -0.200000
v -0.095591 2.800000 0.300000
v -0.095591 2.800000 0.200000
v -0.095591 2.800000 -0.300000
v -0.095591 2.800000 -0.200000
v 0.200000 2.900000 0.300000
v 0.200000 2.900000 0.200000
v 0.200000 2.900000 -0.200000
v 0.200000 2.900000 -0.300000
v 1.000000 2.901358 0.300000
v 1.000000 2.901358 -0.300000
v 1.000000 2.901358 0.200000
v 1.000000 2.901358 -0.200000
v 1.100000 3.000000 0.300000
v 1.100000 3.000000 0.200000
v 1.100000 3.000000 -0.200000
v 1.100000 3.000000 -0.300000
v 1.100000 3.306531 0.300000
v 1.100000 3.306531 0.200000
v 1.100000 3.306531 -0.200000
v 1.100000 3.306531 -0.300000
v 1.200000 3.403265 0.300000
v 1.200000 3.403265 0.200000
v 1.200000 3.403265 -0.300000
v 1.200000 3.403265 -0.200000
v 1.300000 2.501966 -0.200000
v 1.300000 2.501966 0.200000
v 1.400000 2.600000 0.200000
v 1.400000 2.600000 -0.200000
v 1.400000 2.703932 0.200000
v 1.400000 2.703932 -0.200000
v 1.500000 2.801966 -0.200000
v 1.500000 2.801966 0.200000
v 1.700000 2.901966 0.200000
v 1.700000 2.901966 -0.200000
v 1.700000 3.300000 0.200000
v 1.700000 3.300000 0.100000
v 1.700000 3.300000 -0.100000
v 1.700000 3.300000 -0.200000
v 1.700000 3.400000 0.200000
v 1.700000 3.400000 0.100000
v 1.700000 3.400000 -0.100000
v 1.700000 3.400000 -0.200000
v 2.000000 3.000000 0.200000
v 2.000000 3.001628 -0.100000
v 2.000000 3.000000 -0.200000
v 2.000000 3.100000 0.200000
v 2.000000 3.001628 0.100000
v 2.000000 3.100000 -0.200000
v 4.600000 3.100000 0.200000
v 4.600000 3.003255 0.100000
v 4.600000 3.003255 -0.100000
v 4.600000 3.100000 -0.200000
v 4.600000 3.200000 0.200000
v 4.600000 3.101020 0.100000
v 4.600000 3.101020 -0.100000
v 4.600000 3.200000 -0.200000
v 4.800000 3.000510 0.100000
v 4.800000 3.000510 -0.100000
v 4.800000 3.200000 0.200000
v 4.800000 3.101020 0.100000
v 4.800000 3.101020 -0.100000
v 4.800000 3.200000 -0.200000
v 4.800000 3.300000 0.200000
v 4.800000 3.300000 0.100000
v 4.800000 3.300000 -0.100000
v 4.800000 3.300000 -0.200000
v 5.000000 3.100510 0.100000
v 5.000000 3.100510 -0.100000
v 5.100000 3.200000 0.100000
v 5.100000 3.200000 -0.100000
v 5.100000 3.400000 0.100000
v 5.100000 3.400000 -0.100000
v 5.200000 4.298681 0.100000
v 5.200000 4.298681 -0.100000
v 5.300000 4.100000 0.100000
v 5.300000 4.100000 -0.100000
v 5.300000 4.200000 0.100000
v 5.300000 4.200000 -0.100000
v 5.500000 3.500000 0.300000
v 5.500000 3.398870 0.200000
v 5.500000 3.399006 -0.200000
v 5.500000 3.500000 -0.300000
v 5.500000 4.000000 0.300000
v 5.500000 4.098527 0.200000
v 5.500000 4.098527 -0.200000
v 5.500000 4.000000 -0.300000
v -3.400000 2.700000 0.300000
v -3.200000 1.800000 0.300000
v -3.200000 2.700000 0.300000
v -3.100000 1.900000 0.300000
v -3.100000 2.600000 0.300000
v -3.000000 2.000000 0.300000
v -3.000000 2.500000 0.300000
v -3.200000 1.800000 0.200000
v -3.200000 1.800000 -0.200000
v -3.400000 2.700000 -0.300000
v -3.200000 1.800000 -0.300000
v -3.200000 2.700000 -0.300000
v -3.100000 1.900000 -0.300000
v -3.100000 2.600000 -0.300000
v -3.000000 2.000000 -0.300000
v -3.000000 2.500000 -0.300000
v -5.400000 0.000000 0.100000
v -3.700000 0.000000 0.100000
v -5.400000 -0.000000 -0.100000
v -3.700000 -0.000000 -0.100000
v -3.500000 2.800000 0.100000
v -3.500000 2.800000 -0.100000
v -2.800000 3.900000 0.100000
v -2.800000 3.900000 -0.100000
vn -1.0000 -0.0000 -0.0000
vn -1.0000 0.0007 -0.0000
vn -1.0000 -0.0002 -0.0000
vn 1.0000 -0.0000 -0.0000
vn -0.7374 0.6754 -0.0000
vn -0.7617 -0.6215 0.1834
vn -0.7677 -0.6154 -0.1787
vn -0.7676 -0.6155 0.1788
vn -0.7685 -0.6134 -0.1819
vn -0.7845 -0.4385 0.4385
vn -0.8075 -0.4174 -0.4167
vn -0.8078 -0.4180 -0.4155
vn 0.9725 -0.2329 -0.0000
vn 0.9303 -0.3667 -0.0000
vn 0.6763 -0.7366 -0.0000
vn 0.7689 0.6394 -0.0000
vn 0.6006 -0.7995 -0.0000
vn 0.3248 -0.9458 -0.0000
vn -0.0000 -0.0000 1.0000
vn -0.7031 -0.0000 0.7111
vn -0.7032 -0.0001 0.7110
vn 0.0055 -0.4387 0.8986
vn 0.0063 -0.4381 0.8989
vn -0.0000 -0.4432 0.8964
vn 0.0119 -0.4336 0.9010
vn 0.0027 0.4413 0.8973
vn 0.0023 0.4410 0.8975
vn 0.0050 0.4432 0.8964
vn -0.0000 0.4392 0.8984
vn -0.6585 -0.3292 0.6767
vn -0.6519 -0.3260 0.6846
vn -0.6628 -0.3314 0.6715
vn -0.6489 -0.3244 0.6883
vn -0.6610 0.3315 0.6732
vn -0.6628 0.3295 0.6724
vn -0.6603 0.3321 0.6736
vn -0.6641 0.3283 0.6717
vn -0.0000 -0.7031 0.7111
vn -0.0000 0.7031 0.7111
vn -0.0000 0.7031 0.7110
vn -0.6585 -0.3293 0.6767
vn -0.6538 -0.3269 0.6824
vn -0.6633 -0.3317 0.6708
vn -0.6623 0.3302 0.6726
vn -0.6591 0.3333 0.6742
vn -0.5705 -0.5705 0.5908
vn -0.5752 -0.5752 0.5817
vn -0.5657 -0.5657 0.6000
vn -0.3355 0.7598 0.5569
vn -0.1891 0.8331 0.5198
vn -0.5708 0.5773 0.5839
vn -0.0000 0.8914 0.4533
vn -0.0000 -0.7031 0.7110
vn -0.0000 -0.0000 -1.0000
vn -0.0000 -0.7468 0.6651
vn -0.0000 -0.7052 -0.7090
vn -0.0000 -0.0003 1.0000
vn -0.7054 -0.0000 -0.7088
vn -0.6652 -0.3326 -0.6685
vn -0.6659 -0.3330 -0.6676
vn -0.6657 -0.3329 -0.6678
vn -0.6654 -0.3327 -0.6682
vn -0.6664 -0.3332 -0.6670
vn -0.6665 -0.3333 -0.6669
vn -0.6754 0.3285 -0.6603
vn -0.6677 0.3362 -0.6642
vn -0.6709 0.3331 -0.6626
vn -0.6631 0.3408 -0.6664
vn -0.5764 -0.5764 -0.5792
vn -0.5769 -0.5769 -0.5783
vn -0.5774 -0.5774 -0.5773
vn -0.5870 0.5711 -0.5739
vn -0.1937 0.8375 -0.5110
vn -0.3452 0.7616 -0.5485
vn -0.0000 0.8960 -0.4440
vn -0.0000 -0.7053 -0.7089
vn -0.0000 -0.7054 -0.7089
vn -0.0000 -0.7054 -0.7088
vn -0.7053 -0.0000 -0.7089
vn -0.7054 -0.0000 -0.7089
vn -0.6657 -0.3328 -0.6679
vn -0.6667 -0.3333 -0.6667
vn -0.6754 0.3285 -0.6602
vn -0.6677 0.3363 -0.6641
vn -0.0000 0.7054 -0.7088
vn -0.0000 0.7054 -0.7089
vn -0.0000 0.7053 -0.7089
vn -0.0000 -0.4454 -0.8953
vn -0.0000 0.4455 -0.8953
vn -0.0000 -1.0000 -0.0000
vn 0.6971 -0.7170 -0.0000
vn -0.0001 -1.0000 -0.0000
vn -0.0000 -0.7193 0.6947
vn 0.6948 -0.7192 -0.0000
vn -0.6985 -0.7156 -0.0000
vn 0.7053 -0.7089 -0.0000
vn -0.0000 -0.7192 -0.6948
vn -0.0000 -0.7193 -0.6947
vn 0.6947 -0.7193 -0.0000
vn -0.6986 -0.7156 -0.0000
vn 0.7054 -0.7088 -0.0000
vn -0.0000 -0.7192 0.6948
vn -0.0000 -0.7193 0.6948
vn -0.6954 -0.7186 -0.0000
vn -0.0000 -0.7130 0.7012
vn 0.1930 -0.9812 -0.0000
vn -0.0000 -0.7130 -0.7012
vn 0.4372 -0.8994 -0.0000
vn 0.4372 -0.8993 -0.0000
vn -0.2478 -0.9688 -0.0000
vn 0.6904 -0.7234 -0.0000
vn -0.0304 -0.9954 0.0911
vn 0.2875 -0.8855 0.3650
vn 0.3231 -0.8248 0.4641
vn -0.1566 -0.8034 0.5745
vn 0.3962 -0.8692 -0.2957
vn -0.0276 -0.9996 -0.0041
vn 0.3955 -0.8289 -0.3955
vn 0.3956 -0.8289 -0.3956
vn 0.2321 -0.9727 -0.0000
vn 0.3032 -0.9529 -0.0000
vn 0.3031 -0.9529 -0.0000
vn 0.6900 -0.7238 -0.0000
vn 0.6901 -0.7237 -0.0000
vn 0.6901 -0.7238 -0.0000
vn 0.6895 -0.7243 -0.0000
vn 0.6897 -0.7241 -0.0000
vn 0.6898 -0.7240 -0.0000
vn 0.6928 -0.7211 -0.0000
vn -0.0000 -0.6682 0.7440
vn -0.0000 -0.7092 -0.7050
vn -0.0169 -0.8662 0.4994
vn -0.0027 -0.9030 0.4297
vn -0.4080 -0.8291 0.3823
vn -0.3949 -0.8295 0.3950
vn -0.0000 -0.9029 0.4299
vn -0.3950 -0.8295 -0.3950
vn -0.3949 -0.8295 -0.3949
vn -0.0027 -0.9028 -0.4301
vn -0.0237 -0.8769 -0.4800
vn -0.0580 -0.9975 -0.0401
vn -0.0000 -0.9029 -0.4299
vn -0.0579 -0.9975 -0.0401
vn -0.0000 -0.7182 0.6959
vn -0.6959 -0.7182 -0.0000
vn 0.4330 -0.9014 -0.0000
vn -0.0000 -0.7182 -0.6959
vn 0.6973 -0.7168 -0.0000
vn 0.2055 -0.9787 -0.0000
vn 0.3050 -0.9524 -0.0000
vn 0.0001 -1.0000 -0.0000
vn -0.0000 -0.7187 0.6953
vn -0.0001 -0.7187 0.6953
vn 0.4436 -0.8962 -0.0000
vn -0.0000 -0.7187 -0.6953
vn -0.0000 -0.7107 0.7035
vn 0.7035 -0.7107 -0.0000
vn -0.0000 -0.7107 -0.7035
vn -0.0000 -0.7222 0.6917
vn -0.0000 -0.7163 0.6978
vn -0.0000 -0.7222 -0.6916
vn -0.0000 -0.7222 -0.6917
vn -0.0000 -0.7163 -0.6978
vn 0.6829 -0.7305 -0.0000
vn 0.6828 -0.7306 -0.0000
vn 0.0001 -1.0000 0.0001
vn 0.0002 -1.0000 -0.0000
vn -0.0000 -1.0000 -0.0002
vn 0.0215 -0.9997 0.0151
vn -0.0011 -0.7068 0.7074
vn 0.0218 -0.9998 -0.0000
vn -0.0014 -0.6992 0.7150
vn -0.0016 -0.9999 -0.0151
vn 0.0150 -0.7075 -0.7065
vn -0.0019 -1.0000 -0.0000
vn 0.0152 -0.7000 -0.7139
vn -0.0000 -0.7301 0.6833
vn -0.0000 -0.6918 0.7220
vn -0.7220 -0.6918 -0.0000
vn -0.0000 -0.6918 -0.7220
vn -0.0000 -0.6918 -0.7221
vn -0.0000 -0.7301 -0.6833
vn -0.7221 -0.6918 -0.0000
vn -0.7032 0.7110 -0.0000
vn 0.7858 0.6185 -0.0000
vn -0.0000 0.7110 0.7032
vn -0.0000 0.7109 0.7032
vn -0.0000 0.6185 0.7858
vn -0.7032 0.7109 -0.0000
vn -0.0000 0.7109 -0.7032
vn -0.0000 0.6185 -0.7858
vn -0.0000 0.7110 -0.7032
vn -0.0000 1.0000 -0.0000
vn 0.6990 0.7152 -0.0000
vn -0.7007 0.7134 -0.0000
vn 0.6008 0.7994 -0.0000
vn -0.7033 0.7109 -0.0000
vn -0.0000 0.7109 -0.7033
vn -0.0000 0.7109 0.7033
vn -0.4433 0.8964 -0.0000
vn 0.6353 0.7723 -0.0000
vn 0.6878 0.7259 -0.0000
vn 0.0001 1.0000 -0.0000
vn -0.4434 0.8963 -0.0000
vn -0.0001 1.0000 -0.0000
vn -0.6907 0.7231 -0.0000
vn -0.4546 0.8907 -0.0000
vn -0.3168 0.9281 0.1956
vn -0.6239 0.7754 0.0974
vn -0.6240 0.7754 0.0974
vn -0.3167 0.9281 0.1957
vn -0.5772 0.7595 0.2999
vn -0.7143 0.6998 -0.0000
vn -0.4139 0.8108 -0.4139
vn -0.5573 0.8158 -0.1544
vn -0.3246 0.9051 -0.2747
vn -0.4340 0.9009 -0.0000
vn -0.0000 0.7201 0.6938
vn -0.0000 0.7201 -0.6938
vn -0.0000 0.7131 0.7010
vn -0.0000 0.7131 -0.7010
vn -0.0000 0.7477 0.6641
vn -0.0000 0.7477 -0.6641
vn -0.0000 0.7456 0.6664
vn -0.6664 0.7456 -0.0000
vn -0.5657 0.5938 0.5721
vn -0.3284 0.7747 0.5404
vn -0.1863 0.8442 0.5026
vn -0.1862 0.8442 0.5026
vn -0.3283 0.7747 0.5404
vn -0.0000 0.9000 0.4360
vn -0.0000 0.7181 -0.6960
vn -0.1734 0.7881 -0.5906
vn -0.2932 0.8162 -0.4979
vn -0.3988 0.8249 -0.4007
vn -0.0000 0.7456 -0.6664
vn -0.6938 0.7201 -0.0000
vn -0.6960 0.7180 -0.0000
vn -0.0000 0.7180 -0.6960
vn 0.7016 0.7126 -0.0000
vn -0.0971 0.9113 0.4002
vn -0.1470 0.8206 0.5523
vn -0.4524 0.8270 0.3338
vn -0.4039 0.8208 0.4039
vn -0.0000 0.8972 0.4416
vn -0.0000 0.9130 0.4080
vn -0.0000 0.7176 0.6965
vn -0.6965 0.7176 -0.0000
vn -0.4040 0.8207 -0.4040
vn -0.0000 0.7176 -0.6965
vn -0.0871 0.8732 -0.4794
vn -0.4040 0.8208 -0.4040
vn -0.2146 0.8756 -0.4328
vn -0.2324 0.9444 -0.2324
vn -0.0000 0.8972 -0.4416
vn -0.0000 0.9130 -0.4080
vn -0.0000 0.7126 0.7016
vn -0.0003 1.0000 0.0002
vn 0.6936 0.7203 -0.0000
vn 0.6948 0.7192 -0.0000
vn -0.0000 0.7126 -0.7015
vn -0.0000 0.7126 -0.7016
vn -0.0000 0.7224 0.6915
vn -0.6915 0.7224 -0.0000
vn 0.6915 0.7224 -0.0000
vn 0.6976 0.7165 -0.0000
vn -0.0000 0.7224 -0.6915
vt 0.537109 0.500000
vt 0.982422 0.500000
vt 0.986328 0.500000
s 1
usemtl palette.004
f 5/1/1 2/1/1 1/1/1
f 6/2/1 3/2/1 2/2/1
f 6/1/1 2/1/1 5/1/1
f 7/1/1 4/1/1 3/1/1
f 7/2/1 3/2/1 6/2/1
f 8/1/1 4/1/1 7/1/1
f 13/1/1 10/1/1 9/1/1
f 14/1/1 10/1/1 13/1/1
f 17/1/1 12/1/1 11/1/1
f 18/1/1 12/1/1 17/1/1
f 19/1/1 15/1/1 14/1/1
f 20/2/1 16/2/1 15/2/1
f 20/1/1 15/1/1 19/1/1
f 21/1/1 17/1/1 16/1/1
f 21/2/1 16/2/1 20/2/1
f 22/1/1 17/1/1 21/1/1
f 27/1/1 24/1/1 23/1/1
f 28/1/1 24/1/1 27/1/1
f 31/1/1 26/1/1 25/1/1
f 32/1/1 26/1/1 31/1/1
f 33/1/1 29/1/1 28/1/1
f 34/1/1 29/1/1 33/1/1
f 37/1/1 31/1/1 30/1/1
f 38/1/1 31/1/1 37/1/1
f 39/1/1 35/1/1 34/1/1
f 40/2/1 36/2/1 35/2/1
f 40/1/1 35/1/1 39/1/1
f 41/1/1 37/1/1 36/1/1
f 41/2/1 36/2/1 40/2/1
f 42/1/1 37/1/1 41/1/1
f 47/1/1 44/1/1 43/1/1
f 48/1/1 44/1/1 47/1/1
f 51/1/1 46/1/1 45/1/1
f 52/1/1 46/1/1 51/1/1
f 53/1/1 49/1/1 48/1/1
f 54/1/1 49/1/1 53/1/1
f 57/1/1 51/1/1 50/1/1
f 58/1/1 51/1/1 57/1/1
f 59/1/1 55/1/1 54/1/1
f 60/2/1 56/2/1 55/2/1
f 60/1/1 55/1/1 59/1/1
f 61/1/1 57/1/1 56/1/1
f 61/2/1 56/2/1 60/2/1
f 62/1/1 57/1/1 61/1/1
f 67/1/1 64/1/1 63/1/1
f 68/1/1 64/1/1 67/1/1
f 71/1/1 66/1/1 65/1/1
f 72/1/1 66/1/1 71/1/1
f 73/1/1 69/1/1 68/1/1
f 74/1/1 69/1/1 73/1/1
f 77/1/1 71/1/1 70/1/1
f 78/1/1 71/1/1 77/1/1
f 79/1/1 75/1/1 74/1/1
f 80/2/1 76/2/1 75/2/1
f 80/1/1 75/1/1 79/1/1
f 81/1/1 77/1/1 76/1/1
f 81/2/1 76/2/1 80/2/1
f 82/1/1 77/1/1 81/1/1
f 87/1/1 84/1/1 83/1/1
f 88/1/1 84/1/1 87/1/1
f 91/1/1 86/1/1 85/1/1
f 92/1/1 86/1/1 91/1/1
f 93/1/1 89/1/1 88/1/1
f 94/1/1 89/1/1 93/1/1
f 97/1/1 91/1/1 90/1/1
f 98/1/1 91/1/1 97/1/1
f 99/1/1 95/1/1 94/1/1
f 100/2/1 96/2/1 95/2/1
f 100/1/1 95/1/1 99/1/1
f 101/1/1 97/1/1 96/1/1
f 101/2/1 96/2/1 100/2/1
f 102/1/1 97/1/1 101/1/1
f 107/1/1 104/1/1 103/1/1
f 108/1/1 104/1/1 107/1/1
f 111/1/1 106/1/1 105/1/1
f 112/1/1 106/1/1 111/1/1
f 113/1/1 109/1/1 108/1/1
f 114/1/1 109/1/1 113/1/1
f 117/1/1 111/1/1 110/1/1
f 118/1/1 111/1/1 117/1/1
f 119/1/1 115/1/1 114/1/1
f 120/2/1 116/2/1 115/2/1
f 120/1/1 115/1/1 119/1/1
f 121/1/1 117/1/1 116/1/1
f 121/2/1 116/2/1 120/2/1
f 122/1/1 117/1/1 121/1/1
f 127/1/1 124/1/1 123/1/1
f 128/1/1 124/1/1 127/1/1
f 131/1/1 126/1/1 125/1/1
f 132/1/1 126/1/1 131/1/1
f 133/1/1 129/1/1 128/1/1
f 134/1/1 129/1/1 133/1/1
f 137/1/1 131/1/1 130/1/1
f 138/1/1 131/1/1 137/1/1
f 139/1/1 135/1/1 134/1/1
f 140/2/1 136/2/1 135/2/1
f 140/1/1 135/1/1 139/1/1
f 141/1/1 137/1/1 136/1/1
f 141/2/1 136/2/1 140/2/1
f 142/1/1 137/1/1 141/1/1
f 147/1/1 144/1/1 143/1/1
f 150/1/1 146/1/1 145/1/1
f 151/1/1 148/1/1 147/1/1
f 151/1/1 147/1/1 143/1/1
f 152/1/2 148/1/1 151/1/1
f 153/1/1 150/1/1 149/1/1
f 153/1/1 146/1/1 150/1/1
f 154/1/1 146/1/1 153/1/1
f 155/1/1 148/1/1 152/1/2
f 156/1/1 148/1/1 155/1/1
f 159/1/1 153/1/1 149/1/1
f 160/1/1 153/1/1 159/1/1
f 167/1/1 164/1/1 163/1/1
f 168/1/1 164/1/1 167/1/1
f 169/1/1 166/1/1 165/1/1
f 170/1/1 166/1/1 169/1/1
f 179/1/1 177/1/1 176/1/1
f 180/1/1 177/1/1 179/1/1
f 182/1/1 174/1/1 178/1/1
f 183/1/1 174/1/1 182/1/1
f 191/1/1 187/1/1 186/1/1
f 196/1/1 187/1/1 191/1/1
f 194/1/1 189/1/1 188/1/1
f 195/1/1 189/1/1 194/1/1
f 203/1/1 200/1/1 199/1/1
f 207/1/1 200/1/1 203/1/1
f 205/1/1 197/1/1 201/1/1
f 206/1/1 197/1/1 205/1/1
f 215/1/1 212/1/1 210/1/1
f 217/1/1 212/1/1 215/1/1
f 220/1/1 214/1/1 213/1/1
f 216/1/1 214/1/1 220/1/1
f 227/1/1 223/1/1 222/1/1
f 228/1/1 223/1/1 227/1/1
f 232/1/1 225/1/1 224/1/1
f 231/1/1 225/1/1 232/1/1
f 239/1/1 237/1/1 233/1/1
f 240/1/1 237/1/1 239/1/1
f 244/1/1 234/1/1 238/1/1
f 241/1/1 234/1/1 244/1/1
f 251/1/1 249/1/1 248/1/1
f 256/1/1 249/1/1 251/1/1
f 254/1/1 246/1/1 250/1/1
f 255/1/1 246/1/1 254/1/1
f 260/1/1 258/1/1 257/1/1
f 262/1/1 259/1/1 261/1/1
f 265/3/1 264/3/1 263/3/1
f 266/3/1 264/3/1 265/3/1
f 269/1/1 268/1/1 267/1/1
f 270/1/1 268/1/1 269/1/1
f 271/2/1 273/2/3 272/2/1
f 271/2/1 274/2/3 273/2/3
f 278/3/1 276/3/1 275/3/1
f 279/3/1 276/3/1 278/3/1
f 281/3/1 278/3/1 277/3/1
f 283/3/1 278/3/1 281/3/1
f 284/3/1 280/3/1 279/3/1
f 282/3/1 280/3/1 284/3/1
f 289/2/1 286/2/1 285/2/1
f 290/3/1 287/3/1 286/3/1
f 290/2/1 286/2/1 289/2/1
f 291/2/1 288/2/1 287/2/1
f 291/3/1 287/3/1 290/3/1
f 292/2/1 288/2/1 291/2/1
f 296/3/1 294/3/1 293/3/1
f 297/3/1 294/3/1 296/3/1
f 299/3/1 296/3/1 295/3/1
f 300/3/1 296/3/1 299/3/1
f 301/3/1 298/3/1 297/3/1
f 302/3/1 298/3/1 301/3/1
f 304/3/1 306/3/1 303/3/1
f 305/3/1 306/3/1 304/3/1
f 308/3/1 305/3/1 304/3/1
f 309/3/1 305/3/1 308/3/1
f 311/3/1 308/3/1 307/3/1
f 312/3/1 308/3/1 311/3/1
f 313/3/1 310/3/1 309/3/1
f 314/3/1 310/3/1 313/3/1
f 321/3/1 319/3/1 318/3/1
f 322/3/1 319/3/1 321/3/1
f 323/3/1 316/3/1 320/3/1
f 324/3/1 316/3/1 323/3/1
f 327/2/1 326/2/1 325/2/1
f 328/2/1 326/2/1 327/2/1
f 333/2/1 330/2/1 329/2/1
f 336/2/1 332/2/1 331/2/1
f 337/2/1 334/2/1 333/2/1
f 337/2/1 333/2/1 329/2/1
f 338/2/1 334/2/1 337/2/1
f 339/2/1 336/2/1 335/2/1
f 339/2/1 332/2/1 336/2/1
f 340/2/1 332/2/1 339/2/1
f 341/2/1 334/2/1 338/2/1
f 344/2/1 339/2/1 335/2/1
f 351/2/1 348/2/1 347/2/1
f 352/2/1 348/2/1 351/2/1
f 353/2/1 350/2/1 349/2/1
f 354/2/1 350/2/1 353/2/1
f 361/2/1 359/2/1 356/2/1
f 361/2/1 356/2/1 355/2/1
f 362/2/1 358/2/1 357/2/1
f 362/2/1 357/2/1 360/2/1
f 369/2/1 366/2/1 365/2/1
f 370/2/1 366/2/1 369/2/1
f 371/2/1 368/2/1 367/2/1
f 372/2/1 368/2/1 371/2/1
f 381/2/1 379/2/1 378/2/1
f 381/2/1 380/2/1 379/2/1
f 381/2/1 378/2/1 377/2/1
f 382/2/1 380/2/1 381/2/1
f 385/3/1 384/3/1 383/3/1
f 386/3/1 384/3/1 385/3/1
f 391/2/1 388/2/1 387/2/1
f 392/2/1 388/2/1 391/2/1
f 393/2/1 390/2/1 389/2/1
f 394/2/1 390/2/1 393/2/1
f 404/2/1 401/2/1 403/2/1
f 406/2/1 402/2/4 405/2/1
f 416/3/1 414/3/1 413/3/1
f 417/3/1 414/3/1 416/3/1
f 420/3/1 416/3/1 415/3/1
f 420/3/1 418/3/1 417/3/1
f 420/3/1 417/3/1 416/3/1
f 421/3/1 418/3/1 420/3/1
f 424/3/1 420/3/1 419/3/1
f 424/3/1 422/3/1 421/3/1
f 424/3/1 421/3/1 420/3/1
f 425/3/1 422/3/1 424/3/1
f 423/3/1 424/3/1 419/3/1
f 426/3/1 422/3/1 425/3/1
f 427/3/1 423/3/1 419/3/1
f 430/3/1 422/3/1 426/3/1
f 431/3/1 428/3/1 427/3/1
f 431/3/1 427/3/1 419/3/1
f 432/3/1 428/3/1 431/3/1
f 433/3/1 430/3/1 429/3/1
f 433/3/1 422/3/1 430/3/1
f 434/3/1 422/3/1 433/3/1
f 435/3/1 428/3/1 432/3/1
f 436/3/1 433/3/1 429/3/1
f 437/3/1 435/3/1 432/3/1
f 437/3/1 436/3/1 435/3/1
f 438/3/1 436/3/1 437/3/1
f 439/3/1 433/3/1 436/3/1
f 439/3/1 436/3/1 438/3/1
f 440/3/1 433/3/1 439/3/1
f 441/3/1 439/3/1 438/3/1
f 442/3/1 439/3/1 441/3/1
f 452/3/1 445/3/1 448/3/1
f 453/3/1 445/3/1 452/3/1
f 454/3/1 450/3/1 447/3/1
f 455/3/1 450/3/1 454/3/1
f 457/3/1 452/3/1 451/3/1
f 458/3/1 452/3/1 457/3/1
f 461/3/1 456/3/1 455/3/1
f 462/3/1 456/3/1 461/3/1
f 463/3/1 459/3/1 458/3/1
f 464/3/1 459/3/1 463/3/1
f 467/3/1 461/3/1 460/3/1
f 468/3/1 461/3/1 467/3/1
f 469/3/1 465/3/1 464/3/1
f 470/3/1 465/3/1 469/3/1
f 471/3/1 467/3/1 466/3/1
f 472/3/1 467/3/1 471/3/1
f 473/3/1 471/3/1 470/3/1
f 474/3/1 471/3/1 473/3/1
f 477/2/5 476/2/5 475/2/5
f 478/2/5 476/2/5 477/2/5
f 483/2/1 482/2/1 481/2/1
f 484/2/1 482/2/1 483/2/1
f 488/2/1 486/2/1 485/2/1
f 489/2/1 486/2/1 488/2/1
f 487/2/1 488/2/1 485/2/1
f 490/2/1 486/2/1 489/2/1
f 491/2/1 487/2/1 485/2/1
f 493/2/1 486/2/1 490/2/1
f 494/2/1 492/2/1 491/2/1
f 494/2/1 491/2/1 485/2/1
f 496/2/1 486/2/1 493/2/1
f 496/2/1 493/2/1 495/2/1
f 497/2/1 494/2/1 485/2/1
f 498/2/1 486/2/1 496/2/1
f 503/2/1 500/2/1 499/2/1
f 504/2/1 500/2/1 503/2/1
f 506/2/1 502/2/1 501/2/1
f 505/2/1 502/2/1 506/2/1
f 509/3/6 508/3/7 507/3/8
f 510/3/9 508/3/7 509/3/6
f 511/3/10 509/3/6 507/3/8
f 512/3/4 509/3/6 511/3/10
f 513/3/11 508/3/7 510/3/9
f 514/3/12 508/3/7 513/3/11
f 517/3/1 516/3/1 515/3/1
f 518/3/1 516/3/1 517/3/1
f 519/1/4 520/1/4 523/1/4
f 523/1/4 520/1/4 524/1/4
f 521/1/4 522/1/4 525/1/4
f 525/1/4 522/1/4 526/1/4
f 527/1/4 528/1/4 531/1/4
f 531/1/4 528/1/4 532/1/4
f 529/1/4 530/1/4 535/1/4
f 535/1/4 530/1/4 536/1/4
f 532/1/4 533/1/4 538/1/4
f 538/1/4 533/1/4 539/1/4
f 534/1/4 535/1/4 540/1/4
f 540/1/4 535/1/4 541/1/4
f 537/1/4 538/1/4 543/1/4
f 543/1/4 538/1/4 544/1/4
f 541/1/4 542/1/4 545/1/4
f 545/1/4 542/1/4 546/1/4
f 547/1/4 548/1/4 551/1/4
f 551/1/4 548/1/4 552/1/4
f 549/1/4 550/1/4 555/1/4
f 555/1/4 550/1/4 556/1/4
f 552/1/4 553/1/4 557/1/4
f 557/1/4 553/1/4 558/1/4
f 554/1/4 555/1/4 561/1/4
f 561/1/4 555/1/4 562/1/4
f 558/1/4 559/1/4 564/1/4
f 559/2/4 560/2/4 565/2/4
f 564/1/4 559/1/4 565/1/4
f 560/1/4 561/1/4 566/1/4
f 565/2/4 560/2/4 566/2/4
f 566/1/4 561/1/4 567/1/4
f 563/1/4 564/1/4 574/1/4
f 574/1/4 564/1/4 570/1/4
f 567/1/4 568/1/4 571/1/4
f 571/1/4 568/1/4 572/1/4
f 575/1/4 576/1/4 579/1/4
f 579/1/4 576/1/4 580/1/4
f 577/1/4 578/1/4 583/1/4
f 583/1/4 578/1/4 584/1/4
f 580/1/4 581/1/4 585/1/4
f 581/2/4 582/2/4 586/2/4
f 585/1/4 581/1/4 586/1/4
f 582/1/4 583/1/4 587/1/4
f 586/2/4 582/2/4 587/2/4
f 587/1/4 583/1/4 588/1/4
f 589/1/4 590/1/4 594/1/4
f 590/2/4 591/2/4 595/2/4
f 594/1/4 590/1/4 595/1/4
f 591/1/4 592/1/4 596/1/4
f 595/2/4 591/2/4 596/2/4
f 596/1/4 592/1/4 597/1/4
f 593/1/4 594/1/4 602/1/4
f 602/1/4 594/1/4 600/1/4
f 597/1/4 598/1/4 601/1/4
f 601/1/4 598/1/4 603/1/4
f 605/1/4 606/1/4 609/1/4
f 606/2/4 607/2/4 610/2/4
f 609/1/4 606/1/4 610/1/4
f 607/1/4 608/1/4 611/1/4
f 610/2/4 607/2/4 611/2/4
f 611/1/4 608/1/4 612/1/4
f 615/1/4 613/1/4 623/1/4
f 623/1/4 613/1/4 619/1/4
f 617/1/4 618/1/4 620/1/4
f 620/1/4 618/1/4 624/1/4
f 625/1/4 626/1/4 636/1/4
f 636/1/4 626/1/4 632/1/4
f 629/1/4 630/1/4 633/1/4
f 633/1/4 630/1/4 634/1/4
f 637/1/4 638/1/4 641/1/4
f 638/2/4 639/2/4 642/2/4
f 641/1/4 638/1/4 642/1/4
f 639/1/4 640/1/4 643/1/4
f 642/2/4 639/2/4 643/2/4
f 643/1/4 640/1/4 644/1/4
f 647/1/4 645/1/4 651/1/4
f 651/1/4 645/1/4 267/1/4
f 646/1/4 648/1/4 268/1/4
f 268/1/4 648/1/4 650/1/4
f 653/1/4 654/1/4 657/1/4
f 657/1/4 654/1/4 658/1/4
f 655/1/4 656/1/4 659/1/4
f 659/1/4 656/1/4 660/1/4
f 661/1/4 662/1/4 665/1/4
f 665/1/4 662/1/4 666/1/4
f 667/3/4 668/3/4 671/3/4
f 671/3/4 668/3/4 673/3/4
f 669/3/4 670/3/4 674/3/4
f 674/3/4 670/3/4 672/3/4
f 675/1/4 676/1/4 679/1/4
f 679/1/4 676/1/4 680/1/4
f 677/1/4 678/1/4 681/1/4
f 681/1/4 678/1/4 682/1/4
f 683/3/4 684/3/4 687/3/4
f 687/3/4 684/3/4 690/3/4
f 685/3/4 686/3/4 688/3/4
f 688/3/4 686/3/4 689/3/4
f 691/3/4 692/3/4 695/3/4
f 695/3/4 692/3/4 696/3/4
f 693/3/4 694/3/4 697/3/4
f 697/3/4 694/3/4 698/3/4
f 696/3/4 697/3/4 699/3/4
f 699/3/4 697/3/4 700/3/4
f 701/2/13 702/2/13 705/2/13
f 705/2/13 702/2/13 706/2/13
f 703/2/14 704/2/14 707/2/14
f 707/2/14 704/2/14 708/2/14
f 709/2/4 710/2/4 711/2/4
f 711/2/4 710/2/4 712/2/4
f 715/2/15 716/2/15 719/2/15
f 719/2/15 716/2/15 720/2/15
f 717/2/15 718/2/15 721/2/15
f 721/2/15 718/2/15 722/2/15
f 723/2/16 724/2/16 725/2/16
f 725/2/16 724/2/16 726/2/16
f 727/3/4 728/3/4 729/3/4
f 729/3/4 728/3/4 730/3/4
f 731/2/4 732/2/4 735/2/4
f 733/2/4 734/2/4 735/2/4
f 732/2/4 733/2/4 735/2/4
f 735/2/4 734/2/4 736/2/4
f 735/2/4 736/2/4 737/2/4
f 737/2/4 736/2/4 738/2/4
f 737/2/4 738/2/4 739/2/4
f 739/2/4 738/2/4 740/2/4
f 739/2/4 740/2/4 741/2/4
f 741/2/4 740/2/4 743/2/4
f 739/2/4 741/2/4 742/2/4
f 743/2/4 740/2/4 744/2/4
f 739/2/4 742/2/4 745/2/4
f 744/2/4 740/2/4 748/2/4
f 745/2/4 746/2/4 749/2/4
f 739/2/4 745/2/4 749/2/4
f 747/2/4 748/2/4 750/2/4
f 748/2/4 740/2/4 750/2/4
f 749/2/4 746/2/4 751/2/4
f 747/2/4 750/2/4 752/2/4
f 749/2/4 751/2/4 753/2/4
f 751/2/4 752/2/4 753/2/4
f 752/2/4 750/2/4 754/2/4
f 753/2/4 752/2/4 754/2/4
f 753/2/4 754/2/4 755/2/4
f 755/2/4 754/2/4 756/2/4
f 756/2/4 754/2/4 757/2/4
f 757/2/4 754/2/4 758/2/4
f 759/3/4 760/3/4 761/3/4
f 761/3/4 760/3/4 762/3/4
f 763/3/4 764/3/4 765/3/4
f 765/3/4 764/3/4 766/3/4
f 767/2/17 768/2/17 769/2/17
f 769/2/17 768/2/17 770/2/17
f 775/2/4 776/2/4 777/2/4
f 777/2/4 776/2/4 778/2/4
f 787/3/4 788/3/4 785/3/4
f 786/3/4 787/3/4 785/3/4
f 789/3/4 785/3/4 792/3/4
f 788/3/4 790/3/4 792/3/4
f 785/3/4 788/3/4 792/3/4
f 792/3/4 790/3/4 793/3/4
f 791/3/4 792/3/4 796/3/4
f 793/3/4 794/3/4 796/3/4
f 792/3/4 793/3/4 796/3/4
f 796/3/4 794/3/4 797/3/4
f 791/3/4 796/3/4 795/3/4
f 797/3/4 794/3/4 798/3/4
f 791/3/4 795/3/4 799/3/4
f 798/3/4 794/3/4 801/3/4
f 799/3/4 803/3/4 802/3/4
f 791/3/4 799/3/4 802/3/4
f 801/3/4 794/3/4 805/3/4
f 800/3/4 801/3/4 805/3/4
f 791/3/4 802/3/4 804/3/4
f 805/3/4 794/3/4 806/3/4
f 791/3/4 804/3/4 807/3/4
f 807/3/4 804/3/4 808/3/4
f 806/3/4 794/3/4 809/3/4
f 809/3/4 794/3/4 810/3/4
f 808/3/4 804/3/4 811/3/4
f 811/3/4 804/3/4 812/3/4
f 812/3/4 804/3/4 813/3/4
f 806/3/4 809/3/4 816/3/4
f 816/3/4 809/3/4 817/3/4
f 817/3/4 809/3/4 818/3/4
f 813/3/4 814/3/4 819/3/4
f 812/3/4 813/3/4 819/3/4
f 819/3/4 814/3/4 820/3/4
f 820/3/4 814/3/4 821/3/4
f 816/3/4 817/3/4 822/3/4
f 815/3/4 816/3/4 822/3/4
f 822/3/4 817/3/4 823/3/4
f 823/3/4 817/3/4 824/3/4
f 820/3/4 821/3/4 825/3/4
f 822/3/4 823/3/4 825/3/4
f 821/3/4 822/3/4 825/3/4
f 825/3/4 823/3/4 826/3/4
f 835/2/4 836/2/4 838/2/4
f 838/2/4 836/2/4 839/2/4
f 837/2/4 835/2/4 841/2/4
f 835/2/4 838/2/4 841/2/4
f 841/2/4 838/2/4 842/2/1
f 836/2/4 840/2/4 843/2/4
f 839/2/4 836/2/4 843/2/4
f 843/2/4 840/2/4 844/2/4
f 837/2/4 841/2/4 845/2/4
f 845/2/4 841/2/4 846/2/4
f 844/2/4 840/2/4 848/2/4
f 848/2/4 840/2/4 847/2/4
f 845/2/18 846/2/18 849/2/18
f 849/2/18 846/2/18 850/2/18
f 848/2/18 847/2/18 851/2/18
f 851/2/18 847/2/18 852/2/18
f 857/2/4 858/2/4 861/2/4
f 861/2/4 858/2/4 862/2/4
f 859/2/4 860/2/4 863/2/4
f 863/2/4 860/2/4 864/2/4
f 871/3/4 872/3/4 873/3/4
f 873/3/4 872/3/4 874/3/4
f 879/3/4 880/3/4 883/3/4
f 883/3/4 880/3/4 884/3/4
f 881/3/4 882/3/4 885/3/4
f 885/3/4 882/3/4 886/3/4
f 887/3/4 891/3/4 890/3/4
f 888/3/4 889/3/4 892/3/4
f 893/3/4 894/3/4 897/3/4
f 897/3/4 894/3/4 898/3/4
f 895/3/4 896/3/4 899/3/4
f 899/3/4 896/3/4 900/3/4
f 903/3/4 904/3/4 907/3/4
f 907/3/4 904/3/4 908/3/4
f 905/3/4 906/3/4 909/3/4
f 909/3/4 906/3/4 910/3/4
f 913/3/4 914/3/4 915/3/4
f 915/3/4 914/3/4 916/3/4
f 919/3/4 920/3/4 921/3/4
f 921/3/4 920/3/4 922/3/4
f 923/2/4 924/2/4 927/2/4
f 925/2/4 926/2/4 927/2/4
f 924/2/4 925/2/4 927/2/4
f 927/2/4 926/2/4 928/2/4
f 928/2/4 926/2/4 929/2/4
f 929/2/4 926/2/4 930/2/4
f 739/2/19 399/2/19 397/2/19
f 749/2/19 399/2/19 739/2/19
f 791/3/19 457/3/19 451/3/19
f 807/3/19 457/3/19 791/3/19
f 397/2/20 375/2/20 373/2/21
f 399/2/20 375/2/20 397/2/20
f 737/2/22 397/2/23 395/2/24
f 739/2/25 397/2/23 737/2/22
f 749/2/26 401/2/27 399/2/28
f 753/2/29 401/2/27 749/2/26
f 452/3/19 431/3/19 419/3/19
f 458/3/19 431/3/19 452/3/19
f 789/3/19 452/3/19 448/3/19
f 792/3/19 452/3/19 789/3/19
f 808/3/19 463/3/19 458/3/19
f 811/3/19 463/3/19 808/3/19
f 373/2/21 355/2/20 351/2/20
f 375/2/20 355/2/20 373/2/21
f 395/2/30 373/2/31 369/2/32
f 397/2/33 373/2/31 395/2/30
f 399/2/34 377/2/35 375/2/36
f 401/2/37 377/2/35 399/2/34
f 735/2/38 395/2/38 391/2/38
f 737/2/38 395/2/38 735/2/38
f 753/2/39 403/2/39 401/2/39
f 755/2/40 403/2/40 753/2/40
f 445/3/19 420/3/19 415/3/19
f 453/3/19 420/3/19 445/3/19
f 459/3/19 437/3/19 432/3/19
f 464/3/19 437/3/19 459/3/19
f 812/3/19 469/3/19 464/3/19
f 819/3/19 469/3/19 812/3/19
f 43/1/19 27/1/19 23/1/19
f 63/1/19 47/1/19 43/1/19
f 83/1/19 67/1/19 63/1/19
f 103/1/19 87/1/19 83/1/19
f 123/1/19 107/1/19 103/1/19
f 143/1/19 127/1/19 123/1/19
f 161/1/19 151/1/19 143/1/19
f 519/1/19 63/1/19 43/1/19
f 519/1/19 221/1/19 209/1/19
f 519/1/19 209/1/19 198/1/19
f 519/1/19 198/1/19 185/1/19
f 519/1/19 185/1/19 173/1/19
f 519/1/19 173/1/19 161/1/19
f 519/1/19 161/1/19 143/1/19
f 519/1/19 143/1/19 123/1/19
f 519/1/19 123/1/19 103/1/19
f 519/1/19 103/1/19 83/1/19
f 519/1/19 83/1/19 63/1/19
f 523/1/19 221/1/19 519/1/19
f 236/1/19 221/1/19 523/1/19
f 527/1/19 43/1/19 23/1/19
f 527/1/19 519/1/19 43/1/19
f 531/1/19 519/1/19 527/1/19
f 537/1/19 236/1/19 523/1/19
f 543/1/19 236/1/19 537/1/19
f 547/1/19 527/1/19 23/1/19
f 551/1/19 527/1/19 547/1/19
f 569/1/19 236/1/19 543/1/19
f 245/1/19 236/1/19 569/1/19
f 599/1/19 245/1/19 569/1/19
f 622/1/19 245/1/19 599/1/19
f 631/1/19 245/1/19 622/1/19
f 649/1/19 245/1/19 631/1/19
f 653/1/19 245/1/19 649/1/19
f 657/1/19 245/1/19 653/1/19
f 661/1/19 245/1/19 657/1/19
f 665/1/19 245/1/19 661/1/19
f 675/1/19 661/1/19 657/1/19
f 679/1/19 661/1/19 675/1/19
f 351/2/20 337/2/20 329/2/20
f 355/2/20 337/2/20 351/2/20
f 369/2/41 351/2/42 347/2/43
f 373/2/31 351/2/42 369/2/32
f 375/2/36 361/2/44 355/2/45
f 377/2/35 361/2/44 375/2/36
f 391/2/46 369/2/46 365/2/47
f 395/2/48 369/2/46 391/2/46
f 401/2/49 381/2/50 377/2/51
f 404/2/52 381/2/50 401/2/49
f 731/2/38 391/2/38 387/2/53
f 735/2/38 391/2/38 731/2/38
f 446/3/19 416/3/19 413/3/19
f 24/1/19 13/1/19 9/1/19
f 28/1/19 13/1/19 24/1/19
f 44/1/19 33/1/19 28/1/19
f 48/1/19 33/1/19 44/1/19
f 64/1/19 53/1/19 48/1/19
f 68/1/19 53/1/19 64/1/19
f 84/1/19 73/1/19 68/1/19
f 88/1/19 73/1/19 84/1/19
f 104/1/19 93/1/19 88/1/19
f 108/1/19 93/1/19 104/1/19
f 124/1/19 113/1/19 108/1/19
f 128/1/19 113/1/19 124/1/19
f 144/1/19 133/1/19 128/1/19
f 147/1/19 133/1/19 144/1/19
f 163/1/19 155/1/19 152/1/19
f 176/1/19 167/1/19 163/1/19
f 186/1/19 179/1/19 176/1/19
f 199/1/19 191/1/19 186/1/19
f 210/1/19 203/1/19 199/1/19
f 222/1/19 215/1/19 210/1/19
f 233/1/19 227/1/19 222/1/19
f 532/1/19 524/1/19 520/1/19
f 538/1/19 524/1/19 532/1/19
f 552/1/19 532/1/19 528/1/19
f 557/1/19 532/1/19 552/1/19
f 563/1/19 544/1/19 538/1/19
f 574/1/19 544/1/19 563/1/19
f 248/1/19 239/1/19 233/1/19
f 575/1/19 552/1/19 548/1/19
f 579/1/19 552/1/19 575/1/19
f 602/1/19 574/1/19 593/1/19
f 623/1/19 602/1/19 615/1/19
f 636/1/19 623/1/19 625/1/19
f 257/1/19 251/1/19 248/1/19
f 651/1/19 636/1/19 647/1/19
f 931/1/19 260/1/19 257/1/19
f 931/1/19 257/1/19 248/1/19
f 271/1/19 260/1/19 931/1/19
f 285/2/19 271/2/19 931/2/19
f 654/1/19 651/1/19 932/1/19
f 666/1/19 931/1/19 248/1/19
f 933/2/19 289/2/19 285/2/19
f 933/2/19 285/2/19 931/2/19
f 933/1/19 931/1/19 666/1/19
f 934/1/19 658/1/19 654/1/19
f 934/2/19 654/2/19 932/2/19
f 676/1/19 658/1/19 934/1/19
f 680/1/19 666/1/19 662/1/19
f 935/2/19 933/2/19 666/2/19
f 935/1/19 666/1/19 680/1/19
f 315/2/19 289/2/19 933/2/19
f 315/2/19 933/2/19 935/2/19
f 936/2/19 676/2/19 934/2/19
f 936/1/19 680/1/19 676/1/19
f 937/1/19 680/1/19 936/1/19
f 937/2/19 935/2/19 680/2/19
f 937/2/19 315/2/19 935/2/19
f 701/2/19 936/2/19 934/2/19
f 701/2/19 934/2/19 932/2/19
f 701/2/19 937/2/19 936/2/19
f 705/2/19 937/2/19 701/2/19
f 330/2/19 315/2/19 937/2/19
f 330/2/19 937/2/19 705/2/19
f 333/2/19 315/2/19 330/2/19
f 348/2/19 330/2/19 705/2/19
f 352/2/19 330/2/19 348/2/19
f 715/2/19 348/2/19 705/2/19
f 719/2/19 348/2/19 715/2/19
f 366/2/19 348/2/19 719/2/19
f 370/2/19 348/2/19 366/2/19
f 388/2/19 366/2/19 719/2/19
f 392/2/19 366/2/19 388/2/19
f 732/2/19 388/2/19 719/2/19
f 443/2/19 732/2/19 719/2/19
f 465/3/19 441/3/19 438/3/19
f 470/3/19 441/3/19 465/3/19
f 767/2/19 443/2/19 719/2/19
f 769/2/19 443/2/19 767/2/19
f 781/2/19 443/2/19 769/2/19
f 783/2/19 443/2/19 781/2/19
f 786/2/19 443/2/19 783/2/19
f 820/3/19 473/3/19 470/3/19
f 825/3/19 473/3/19 820/3/19
f 827/2/19 786/2/19 783/2/19
f 485/2/19 786/2/19 827/2/19
f 497/2/19 813/2/19 804/2/19
f 499/2/19 813/2/19 497/2/19
f 829/2/19 485/2/19 827/2/19
f 829/2/19 503/2/19 499/2/19
f 829/2/19 499/2/19 497/2/19
f 829/2/19 497/2/19 485/2/19
f 833/2/19 503/2/19 829/2/19
f 837/2/19 503/2/19 833/2/19
f 845/2/19 503/2/19 837/2/19
f 849/2/19 503/2/19 845/2/19
f 853/2/19 503/2/19 849/2/19
f 857/2/19 503/2/19 853/2/19
f 861/2/19 503/2/19 857/2/19
f 865/2/19 503/2/19 861/2/19
f 923/2/19 503/2/19 865/2/19
f 927/2/19 503/2/19 923/2/19
f 10/1/19 5/1/19 1/1/19
f 14/1/19 5/1/19 10/1/19
f 29/1/19 19/1/19 14/1/19
f 34/1/19 19/1/19 29/1/19
f 49/1/19 39/1/19 34/1/19
f 54/1/19 39/1/19 49/1/19
f 69/1/19 59/1/19 54/1/19
f 74/1/19 59/1/19 69/1/19
f 89/1/19 79/1/19 74/1/19
f 94/1/19 79/1/19 89/1/19
f 109/1/19 99/1/19 94/1/19
f 114/1/19 99/1/19 109/1/19
f 129/1/19 119/1/19 114/1/19
f 134/1/19 119/1/19 129/1/19
f 148/1/19 139/1/19 134/1/19
f 156/1/19 139/1/19 148/1/19
f 168/1/19 156/1/19 164/1/19
f 180/1/19 168/1/19 177/1/19
f 196/1/19 180/1/19 187/1/19
f 207/1/19 196/1/19 200/1/19
f 217/1/19 207/1/19 212/1/19
f 228/1/19 217/1/19 223/1/19
f 240/1/19 228/1/19 237/1/19
f 558/1/19 539/1/19 533/1/19
f 564/1/19 539/1/19 558/1/19
f 256/1/19 240/1/19 249/1/19
f 580/1/19 558/1/19 553/1/19
f 585/1/19 558/1/19 580/1/19
f 589/1/19 570/1/19 564/1/19
f 594/1/19 570/1/19 589/1/19
f 605/1/19 580/1/19 576/1/19
f 609/1/19 580/1/19 605/1/19
f 613/1/19 600/1/19 594/1/19
f 626/1/19 619/1/19 613/1/19
f 645/2/19 632/2/19 626/2/19
f 299/3/19 281/3/19 277/3/19
f 938/2/19 267/2/19 645/2/19
f 311/3/19 299/3/19 295/3/19
f 667/3/19 281/3/19 299/3/19
f 667/3/19 299/3/19 311/3/19
f 671/3/19 281/3/19 667/3/19
f 321/3/19 311/3/19 307/3/19
f 321/3/19 667/3/19 311/3/19
f 683/3/19 667/3/19 321/3/19
f 687/3/19 667/3/19 683/3/19
f 691/3/19 321/3/19 318/3/19
f 691/3/19 683/3/19 321/3/19
f 695/3/19 683/3/19 691/3/19
f 327/2/19 938/2/19 645/2/19
f 702/2/19 938/2/19 327/2/19
f 334/3/19 691/3/19 318/3/19
f 341/3/19 691/3/19 334/3/19
f 345/2/19 706/2/19 702/2/19
f 345/2/19 327/2/19 325/2/19
f 345/2/19 702/2/19 327/2/19
f 709/2/19 706/2/19 345/2/19
f 711/2/19 706/2/19 709/2/19
f 363/2/19 709/2/19 345/2/19
f 713/2/19 709/2/19 363/2/19
f 723/2/19 713/2/19 363/2/19
f 725/2/19 713/2/19 723/2/19
f 423/3/19 745/3/19 742/3/19
f 427/3/19 745/3/19 423/3/19
f 475/2/19 723/2/19 363/2/19
f 771/2/19 475/2/19 363/2/19
f 771/2/19 477/2/19 475/2/19
f 479/2/19 477/2/19 771/2/19
f 773/2/19 479/2/19 771/2/19
f 481/2/19 479/2/19 773/2/19
f 775/2/19 483/2/19 481/2/19
f 775/2/19 481/2/19 773/2/19
f 777/2/19 483/2/19 775/2/19
f 779/2/19 483/2/19 777/2/19
f 487/3/19 799/3/19 795/3/19
f 491/3/19 799/3/19 487/3/19
f 500/2/19 821/2/19 814/2/19
f 504/2/19 821/2/19 500/2/19
f 511/3/19 846/3/19 841/3/19
f 511/3/19 850/3/19 846/3/19
f 855/3/19 850/3/19 511/3/19
f 855/3/19 511/3/19 507/3/19
f 866/3/19 862/3/19 858/3/19
f 870/3/19 855/3/19 507/3/19
f 870/3/19 858/3/19 855/3/19
f 870/3/19 866/3/19 858/3/19
f 871/3/19 866/3/19 870/3/19
f 873/3/19 866/3/19 871/3/19
f 876/3/19 866/3/19 873/3/19
f 877/3/19 866/3/19 876/3/19
f 879/3/19 866/3/19 877/3/19
f 883/3/19 866/3/19 879/3/19
f 887/3/19 879/3/19 877/3/19
f 890/3/19 879/3/19 887/3/19
f 893/3/19 879/3/19 890/3/19
f 897/3/19 879/3/19 893/3/19
f 903/3/19 879/3/19 897/3/19
f 907/3/19 879/3/19 903/3/19
f 924/2/54 866/2/19 883/2/19
f 278/3/19 265/3/19 263/3/19
f 283/3/19 265/3/19 278/3/19
f 296/3/19 278/3/19 275/3/19
f 300/3/19 278/3/19 296/3/19
f 308/3/19 296/3/19 293/3/19
f 312/3/19 296/3/19 308/3/19
f 319/3/19 308/3/19 304/3/19
f 322/3/19 308/3/19 319/3/19
f 690/3/19 673/3/19 668/3/19
f 696/3/19 690/3/19 684/3/19
f 699/3/19 690/3/19 696/3/19
f 342/3/19 696/3/19 692/3/19
f 385/3/19 720/3/19 716/3/19
f 409/3/19 385/3/19 383/3/19
f 727/3/19 385/3/19 409/3/19
f 727/3/19 409/3/19 411/3/19
f 729/3/19 720/3/19 385/3/19
f 729/3/19 385/3/19 727/3/19
f 759/3/19 727/3/19 411/3/19
f 761/3/19 727/3/19 759/3/19
f 428/3/19 751/3/19 746/3/19
f 435/3/19 751/3/19 428/3/19
f 763/3/19 759/3/19 411/3/19
f 765/3/19 759/3/19 763/3/19
f 509/3/55 842/3/55 838/3/55
f 512/3/55 842/3/55 509/3/55
f 901/3/19 894/3/19 891/3/19
f 901/3/19 898/3/19 894/3/19
f 904/3/19 898/3/19 901/3/19
f 908/3/19 884/3/19 880/3/19
f 911/3/19 904/3/19 901/3/19
f 911/3/19 908/3/19 904/3/19
f 913/3/19 908/3/19 911/3/19
f 915/3/19 884/3/19 908/3/19
f 915/3/19 908/3/19 913/3/19
f 917/3/19 517/3/19 515/3/19
f 919/3/19 917/3/19 515/3/19
f 921/3/19 917/3/19 919/3/19
f 268/1/19 644/1/19 640/1/19
f 270/1/19 644/1/19 268/1/19
f 637/1/54 641/1/54 267/1/54
f 267/1/54 641/1/54 269/1/54
f 264/3/54 266/3/54 279/3/54
f 279/3/54 266/3/54 284/3/54
f 276/3/54 279/3/54 297/3/54
f 297/3/54 279/3/54 301/3/54
f 294/3/54 297/3/54 309/3/54
f 309/3/54 297/3/54 313/3/54
f 305/3/54 309/3/54 320/3/54
f 320/3/54 309/3/54 323/3/54
f 669/3/54 674/3/54 688/3/54
f 685/3/54 688/3/54 697/3/54
f 697/3/54 688/3/54 700/3/54
f 693/3/54 697/3/54 343/3/54
f 717/3/54 721/3/54 386/3/54
f 384/3/54 386/3/54 410/3/54
f 410/3/54 386/3/54 728/3/54
f 412/3/54 410/3/54 728/3/54
f 386/3/54 721/3/54 730/3/54
f 728/3/54 386/3/54 730/3/54
f 412/3/54 728/3/54 760/3/54
f 760/3/54 728/3/54 762/3/54
f 747/3/54 752/3/54 429/3/54
f 429/3/54 752/3/54 436/3/54
f 412/3/54 760/3/54 764/3/54
f 764/3/54 760/3/54 766/3/54
f 839/3/56 843/3/56 510/3/56
f 510/3/56 843/3/56 513/3/56
f 888/3/54 895/3/54 902/3/54
f 895/3/54 899/3/54 902/3/54
f 902/3/54 899/3/54 905/3/54
f 881/3/54 885/3/54 909/3/54
f 902/3/54 905/3/54 912/3/54
f 905/3/54 909/3/54 912/3/54
f 912/3/54 909/3/54 914/3/54
f 909/3/54 885/3/54 916/3/54
f 914/3/54 909/3/54 916/3/54
f 516/3/54 518/3/54 918/3/54
f 516/3/54 918/3/54 920/3/54
f 920/3/54 918/3/54 922/3/54
f 4/1/54 8/1/54 11/1/54
f 11/1/54 8/1/54 17/1/54
f 17/1/54 22/1/54 30/1/54
f 30/1/54 22/1/54 37/1/54
f 37/1/54 42/1/54 50/1/54
f 50/1/54 42/1/54 57/1/54
f 57/1/54 62/1/54 70/1/54
f 70/1/54 62/1/54 77/1/54
f 77/1/54 82/1/54 90/1/54
f 90/1/54 82/1/54 97/1/54
f 97/1/54 102/1/54 110/1/54
f 110/1/54 102/1/54 117/1/54
f 117/1/54 122/1/54 130/1/54
f 130/1/54 122/1/54 137/1/54
f 137/1/54 142/1/54 149/1/54
f 149/1/54 142/1/54 159/1/54
f 165/1/54 159/1/54 169/1/54
f 178/1/54 169/1/54 182/1/54
f 188/1/54 182/1/54 194/1/54
f 201/1/54 194/1/54 205/1/54
f 213/1/54 205/1/54 220/1/54
f 224/1/54 220/1/54 232/1/54
f 238/1/54 232/1/54 244/1/54
f 534/1/54 540/1/54 561/1/54
f 561/1/54 540/1/54 567/1/54
f 250/1/54 244/1/54 254/1/54
f 554/1/54 561/1/54 583/1/54
f 583/1/54 561/1/54 588/1/54
f 567/1/54 571/1/54 592/1/54
f 592/1/54 571/1/54 597/1/54
f 577/1/54 583/1/54 608/1/54
f 608/1/54 583/1/54 612/1/54
f 597/1/54 601/1/54 617/1/54
f 617/1/54 620/1/54 629/1/54
f 629/2/54 633/2/54 646/2/54
f 280/3/54 282/3/54 302/3/54
f 646/2/54 268/2/54 939/2/54
f 298/3/54 302/3/54 314/3/54
f 302/3/54 282/3/54 670/3/54
f 314/3/54 302/3/54 670/3/54
f 670/3/54 282/3/54 672/3/54
f 310/3/54 314/3/54 324/3/54
f 314/3/54 670/3/54 324/3/54
f 324/3/54 670/3/54 686/3/54
f 686/3/54 670/3/54 689/3/54
f 316/3/54 324/3/54 694/3/54
f 324/3/54 686/3/54 694/3/54
f 694/3/54 686/3/54 698/3/54
f 646/2/54 939/2/54 328/2/19
f 328/2/19 939/2/54 703/2/54
f 316/3/54 694/3/54 335/3/54
f 335/3/54 694/3/54 344/3/54
f 703/2/54 707/2/54 346/2/54
f 326/2/54 328/2/19 346/2/54
f 328/2/19 703/2/54 346/2/54
f 346/2/54 707/2/54 710/2/54
f 710/2/54 707/2/54 712/2/54
f 346/2/54 710/2/54 364/2/54
f 364/2/54 710/2/54 714/2/54
f 364/2/54 714/2/54 724/2/54
f 724/2/54 714/2/54 726/2/54
f 744/3/54 748/3/54 426/3/54
f 426/3/54 748/3/54 430/3/54
f 364/2/54 724/2/54 476/2/54
f 364/2/54 476/2/54 772/2/54
f 476/2/54 478/2/54 772/2/54
f 772/2/54 478/2/54 480/2/54
f 772/2/54 480/2/54 774/2/54
f 774/2/54 480/2/54 482/2/54
f 482/2/54 484/2/54 776/2/54
f 774/2/54 482/2/54 776/2/54
f 776/2/54 484/2/54 778/2/54
f 778/2/54 484/2/54 780/2/54
f 798/3/54 801/3/54 490/3/54
f 490/3/54 801/3/54 493/3/54
f 815/2/54 822/2/54 501/2/54
f 501/2/54 822/2/54 506/2/54
f 844/3/54 848/3/54 514/3/54
f 848/3/54 851/3/54 514/3/54
f 514/3/54 851/3/54 856/3/54
f 508/3/54 514/3/54 856/3/54
f 859/3/54 863/3/54 868/3/54
f 508/3/54 856/3/54 869/3/54
f 856/3/54 859/3/54 869/3/54
f 859/3/54 868/3/54 869/3/54
f 869/3/54 868/3/54 872/3/54
f 872/3/54 868/3/54 874/3/54
f 874/3/54 868/3/54 875/3/54
f 875/3/54 868/3/54 878/3/54
f 878/3/54 868/3/54 882/3/54
f 882/3/54 868/3/54 886/3/54
f 878/3/54 882/3/54 889/3/54
f 889/3/54 882/3/54 892/3/54
f 892/3/54 882/3/54 896/3/54
f 896/3/54 882/3/54 900/3/54
f 900/3/54 882/3/54 906/3/54
f 906/3/54 882/3/54 910/3/54
f 886/2/54 868/2/54 925/2/57
f 12/1/54 18/1/54 25/1/54
f 25/1/54 18/1/54 31/1/54
f 31/1/54 38/1/54 45/1/54
f 45/1/54 38/1/54 51/1/54
f 51/1/54 58/1/54 65/1/54
f 65/1/54 58/1/54 71/1/54
f 71/1/54 78/1/54 85/1/54
f 85/1/54 78/1/54 91/1/54
f 91/1/54 98/1/54 105/1/54
f 105/1/54 98/1/54 111/1/54
f 111/1/54 118/1/54 125/1/54
f 125/1/54 118/1/54 131/1/54
f 131/1/54 138/1/54 145/1/54
f 145/1/54 138/1/54 150/1/54
f 153/1/54 160/1/54 166/1/54
f 166/1/54 170/1/54 174/1/54
f 174/1/54 183/1/54 189/1/54
f 189/1/54 195/1/54 197/1/54
f 197/1/54 206/1/54 214/1/54
f 214/1/54 216/1/54 225/1/54
f 225/1/54 231/1/54 234/1/54
f 521/1/54 525/1/54 535/1/54
f 535/1/54 525/1/54 541/1/54
f 529/1/54 535/1/54 555/1/54
f 555/1/54 535/1/54 562/1/54
f 541/1/54 545/1/54 568/1/54
f 568/1/54 545/1/54 572/1/54
f 234/1/54 241/1/54 246/1/54
f 549/1/54 555/1/54 578/1/54
f 578/1/54 555/1/54 584/1/54
f 598/1/54 572/1/54 603/1/54
f 618/1/54 603/1/54 624/1/54
f 630/1/54 624/1/54 634/1/54
f 246/1/54 255/1/54 259/1/54
f 648/1/54 634/1/54 650/1/54
f 259/1/54 262/1/54 940/1/54
f 246/1/54 259/1/54 940/1/54
f 940/1/54 262/1/54 274/1/54
f 940/2/54 274/2/54 288/2/54
f 941/1/54 650/1/54 655/1/54
f 246/1/54 940/1/54 663/1/54
f 288/2/54 292/2/54 942/2/54
f 940/2/54 288/2/54 942/2/54
f 663/1/54 940/1/54 942/1/54
f 655/1/54 659/1/54 943/1/54
f 941/2/54 655/2/54 943/2/54
f 943/1/54 659/1/54 677/1/54
f 663/2/54 942/2/54 944/2/54
f 681/1/54 663/1/54 944/1/54
f 942/2/54 292/2/54 317/2/54
f 944/2/54 942/2/54 317/2/54
f 943/2/54 677/2/54 945/2/54
f 677/1/54 681/1/54 945/1/54
f 945/1/54 681/1/54 946/1/54
f 681/2/54 944/2/54 946/2/54
f 944/2/54 317/2/54 946/2/54
f 943/2/54 945/2/54 704/2/54
f 941/2/54 943/2/54 704/2/54
f 945/2/54 946/2/54 704/2/54
f 704/2/54 946/2/54 708/2/54
f 946/2/54 317/2/54 331/2/54
f 708/2/54 946/2/54 331/2/54
f 331/2/54 317/2/54 336/2/54
f 708/2/54 331/2/54 349/2/54
f 349/2/54 331/2/54 353/2/54
f 708/2/54 349/2/54 718/2/54
f 718/2/54 349/2/54 722/2/54
f 722/2/54 349/2/54 367/2/54
f 367/2/54 349/2/54 371/2/54
f 722/2/54 367/2/54 389/2/54
f 389/2/54 367/2/54 393/2/54
f 722/2/54 389/2/54 733/2/54
f 722/2/54 733/2/54 444/2/54
f 439/3/54 442/3/54 466/3/54
f 466/3/54 442/3/54 471/3/54
f 722/2/54 444/2/54 768/2/54
f 768/2/54 444/2/54 770/2/54
f 770/2/54 444/2/54 782/2/54
f 782/2/54 444/2/54 784/2/54
f 784/2/54 444/2/54 787/2/54
f 471/3/54 474/3/54 823/3/54
f 823/3/54 474/3/54 826/3/54
f 784/2/54 787/2/54 828/2/54
f 828/2/54 787/2/54 486/2/54
f 806/2/54 816/2/54 498/2/54
f 498/2/54 816/2/54 502/2/54
f 828/2/54 486/2/54 830/2/54
f 502/2/54 505/2/54 830/2/54
f 498/2/54 502/2/54 830/2/54
f 486/2/54 498/2/54 830/2/54
f 830/2/54 505/2/54 834/2/54
f 834/2/54 505/2/54 840/2/54
f 840/2/54 505/2/54 847/2/54
f 847/2/54 505/2/54 852/2/54
f 852/2/54 505/2/54 854/2/54
f 854/2/54 505/2/54 860/2/54
f 860/2/54 505/2/54 864/2/54
f 864/2/54 505/2/54 867/2/54
f 867/2/54 505/2/54 926/2/54
f 926/2/54 505/2/54 930/2/54
f 26/1/54 32/1/54 46/1/54
f 46/1/54 52/1/54 66/1/54
f 66/1/54 72/1/54 86/1/54
f 86/1/54 92/1/54 106/1/54
f 106/1/54 112/1/54 126/1/54
f 126/1/54 132/1/54 146/1/54
f 146/1/54 154/1/54 162/1/54
f 46/1/54 66/1/54 522/1/54
f 211/1/54 226/1/54 522/1/54
f 202/1/54 211/1/54 522/1/54
f 190/1/54 202/1/54 522/1/54
f 175/1/54 190/1/54 522/1/54
f 162/1/54 175/1/54 522/1/54
f 146/1/54 162/1/54 522/1/54
f 126/1/54 146/1/54 522/1/54
f 106/1/54 126/1/54 522/1/54
f 86/1/54 106/1/54 522/1/54
f 66/1/54 86/1/54 522/1/54
f 522/1/54 226/1/54 526/1/54
f 526/1/54 226/1/54 235/1/54
f 26/1/54 46/1/54 530/1/54
f 46/1/54 522/1/54 530/1/54
f 530/1/54 522/1/54 536/1/54
f 526/1/54 235/1/54 542/1/54
f 542/1/54 235/1/54 546/1/54
f 26/1/54 530/1/54 550/1/54
f 550/1/54 530/1/54 556/1/54
f 546/1/54 235/1/54 573/1/54
f 573/1/54 235/1/54 247/1/54
f 573/1/54 247/1/54 604/1/54
f 604/1/54 247/1/54 621/1/54
f 621/1/54 247/1/54 635/1/54
f 635/1/54 247/1/54 652/1/54
f 652/1/54 247/1/54 656/1/54
f 656/1/54 247/1/54 660/1/54
f 660/1/54 247/1/54 664/1/54
f 660/1/54 664/1/54 678/1/54
f 678/1/54 664/1/54 682/1/54
f 332/2/58 340/2/58 354/2/58
f 354/2/58 340/2/58 358/2/58
f 350/2/59 354/2/60 372/2/61
f 372/2/62 354/2/63 374/2/64
f 358/2/65 362/2/66 376/2/67
f 376/2/67 362/2/66 380/2/68
f 368/2/69 372/2/70 394/2/70
f 394/2/70 372/2/70 396/2/71
f 380/2/72 382/2/73 402/2/74
f 402/2/74 382/2/73 405/2/75
f 390/2/76 394/2/76 734/2/76
f 734/2/76 394/2/77 736/2/78
f 414/3/54 417/3/54 449/3/54
f 354/2/79 358/2/80 374/2/58
f 374/2/58 358/2/80 376/2/58
f 372/2/62 374/2/64 396/2/81
f 396/2/81 374/2/64 398/2/82
f 376/2/83 380/2/84 400/2/67
f 400/2/67 380/2/84 402/2/68
f 394/2/77 396/2/78 736/2/78
f 736/2/78 396/2/78 738/2/78
f 402/2/85 406/2/86 754/2/87
f 754/2/87 406/2/86 758/2/85
f 418/3/54 421/3/54 447/3/54
f 447/3/54 421/3/54 454/3/54
f 433/3/54 440/3/54 460/3/54
f 460/3/54 440/3/54 467/3/54
f 467/3/54 472/3/54 817/3/54
f 817/3/54 472/3/54 824/3/54
f 374/2/58 376/2/58 398/2/80
f 398/2/80 376/2/58 400/2/58
f 396/2/88 398/2/88 738/2/88
f 738/2/88 398/2/88 740/2/88
f 400/2/89 402/2/89 750/2/89
f 750/2/89 402/2/89 754/2/89
f 422/3/54 434/3/54 455/3/54
f 455/3/54 434/3/54 461/3/54
f 450/3/54 455/3/54 790/3/54
f 790/3/54 455/3/54 793/3/54
f 461/3/54 468/3/54 809/3/54
f 809/3/54 468/3/54 818/3/54
f 398/2/54 400/2/54 740/2/54
f 740/2/54 400/2/54 750/2/54
f 456/3/54 462/3/54 794/3/54
f 794/3/54 462/3/54 810/3/54
f 24/1/90 547/1/90 23/1/90
f 548/1/90 547/1/90 24/1/90
f 10/1/90 24/1/90 9/1/90
f 10/1/90 575/1/90 548/1/90
f 10/1/90 548/1/90 24/1/90
f 576/1/90 575/1/90 10/1/90
f 2/1/90 10/1/90 1/1/90
f 2/1/90 605/1/90 576/1/90
f 2/1/90 576/1/90 10/1/90
f 947/1/90 605/1/90 2/1/90
f 948/1/90 605/1/90 947/1/90
f 606/1/90 605/1/90 948/1/90
f 3/2/90 947/2/90 2/2/90
f 949/1/90 948/1/90 947/1/90
f 949/2/90 947/2/90 3/2/90
f 950/2/90 606/2/90 948/2/90
f 950/1/90 948/1/90 949/1/90
f 607/2/90 606/2/90 950/2/90
f 4/1/90 949/1/90 3/1/90
f 4/1/90 950/1/90 949/1/90
f 4/1/90 607/1/90 950/1/90
f 11/1/90 607/1/90 4/1/90
f 577/1/90 607/1/90 11/1/90
f 608/1/90 607/1/90 577/1/90
f 12/1/90 577/1/90 11/1/90
f 25/1/90 577/1/90 12/1/90
f 549/1/90 577/1/90 25/1/90
f 578/1/90 577/1/90 549/1/90
f 26/1/90 549/1/90 25/1/90
f 550/1/90 549/1/90 26/1/90
f 524/1/91 537/1/91 523/1/91
f 538/1/91 537/1/91 524/1/91
f 539/1/90 563/1/90 538/1/90
f 564/1/90 563/1/90 539/1/90
f 565/1/90 589/1/90 564/1/90
f 590/1/90 589/1/90 565/1/90
f 566/2/90 590/2/90 565/2/90
f 591/2/90 590/2/90 566/2/90
f 567/1/90 591/1/90 566/1/90
f 592/1/90 591/1/90 567/1/90
f 541/1/90 567/1/90 540/1/90
f 568/1/90 567/1/90 541/1/90
f 526/1/90 541/1/90 525/1/90
f 542/1/90 541/1/90 526/1/90
f 364/2/90 771/2/90 363/2/92
f 772/2/92 771/2/90 364/2/90
f 544/1/91 569/1/91 543/1/91
f 574/1/91 569/1/91 544/1/91
f 570/1/93 593/1/93 574/1/93
f 594/1/93 593/1/93 570/1/93
f 595/1/94 613/1/94 594/1/94
f 616/1/94 613/1/94 595/1/94
f 596/2/94 616/2/94 595/2/94
f 614/2/94 616/2/94 596/2/94
f 597/1/94 614/1/94 596/1/94
f 617/1/94 614/1/94 597/1/94
f 346/2/95 363/2/95 345/2/95
f 364/2/95 363/2/95 346/2/95
f 772/2/96 773/2/96 771/2/96
f 774/2/96 773/2/96 772/2/96
f 572/1/97 597/1/97 571/1/97
f 598/1/98 597/1/98 572/1/98
f 546/1/91 572/1/91 545/1/91
f 573/1/91 572/1/91 546/1/91
f 574/1/91 599/1/91 569/1/91
f 602/1/91 599/1/91 574/1/91
f 600/1/93 615/1/93 602/1/93
f 613/1/93 615/1/93 600/1/93
f 616/1/94 626/1/99 613/1/94
f 627/1/99 626/1/99 616/1/94
f 614/2/94 627/2/99 616/2/94
f 628/2/99 627/2/99 614/2/94
f 412/3/90 763/3/90 411/3/90
f 764/3/90 763/3/90 412/3/90
f 617/1/94 628/1/99 614/1/94
f 629/1/99 628/1/99 617/1/94
f 326/2/100 345/2/95 325/2/100
f 346/2/95 345/2/95 326/2/100
f 774/2/96 775/2/96 773/2/96
f 776/2/101 775/2/96 774/2/96
f 603/1/98 617/1/98 601/1/98
f 618/1/97 617/1/97 603/1/97
f 573/1/91 603/1/91 572/1/91
f 604/1/91 603/1/91 573/1/91
f 602/1/91 622/1/91 599/1/91
f 623/1/91 622/1/91 602/1/91
f 619/1/102 625/1/102 623/1/102
f 626/1/93 625/1/103 619/1/93
f 627/2/99 645/2/99 626/2/99
f 628/2/99 645/2/99 627/2/99
f 410/3/104 411/3/104 409/3/104
f 412/3/104 411/3/104 410/3/104
f 629/2/99 645/2/99 628/2/99
f 646/2/99 645/2/99 629/2/99
f 624/1/98 629/1/98 620/1/98
f 630/1/97 629/1/97 624/1/97
f 604/1/91 624/1/91 603/1/91
f 621/1/91 624/1/91 604/1/91
f 623/1/91 631/1/91 622/1/91
f 636/1/91 631/1/91 623/1/91
f 632/1/105 647/1/105 636/1/105
f 645/1/105 647/1/105 632/1/105
f 384/3/104 409/3/104 383/3/104
f 410/3/104 409/3/104 384/3/104
f 646/2/106 327/2/106 645/2/106
f 328/2/106 327/2/106 646/2/106
f 634/1/107 646/1/107 633/1/107
f 648/1/107 646/1/107 634/1/107
f 621/1/91 634/1/91 624/1/91
f 635/1/91 634/1/91 621/1/91
f 636/1/91 649/1/91 631/1/91
f 651/1/91 649/1/91 636/1/91
f 267/1/90 932/1/90 651/1/90
f 938/2/90 701/2/90 932/2/90
f 938/1/90 932/1/90 267/1/90
f 702/2/90 701/2/90 938/2/90
f 650/1/90 939/1/90 268/1/90
f 941/2/90 703/2/90 939/2/90
f 941/1/90 939/1/90 650/1/90
f 704/2/90 703/2/90 941/2/90
f 635/1/91 650/1/91 634/1/91
f 652/1/91 650/1/91 635/1/91
f 651/1/108 653/1/108 649/1/109
f 654/1/109 653/1/108 651/1/108
f 706/2/90 715/2/90 705/2/90
f 711/2/90 715/2/90 706/2/90
f 642/1/90 269/1/90 641/1/90
f 716/2/110 715/2/90 711/2/90
f 643/1/90 269/1/90 642/1/90
f 717/3/110 385/3/104 716/3/110
f 717/2/110 716/2/110 711/2/90
f 386/3/104 385/3/104 717/3/110
f 644/1/90 269/1/90 643/1/90
f 270/1/90 269/1/90 644/1/90
f 712/2/90 717/2/110 711/2/90
f 708/2/90 712/2/90 707/2/90
f 718/2/90 717/2/110 712/2/90
f 718/2/90 712/2/90 708/2/90
f 652/1/108 655/1/108 650/1/109
f 656/1/109 655/1/108 652/1/108
f 658/1/90 675/1/90 657/1/90
f 676/1/90 675/1/90 658/1/90
f 720/2/90 767/2/90 719/2/90
f 729/2/90 767/2/90 720/2/90
f 730/2/90 767/2/90 729/2/90
f 778/2/111 779/2/111 777/2/111
f 780/2/111 779/2/111 778/2/111
f 722/2/90 730/2/90 721/2/90
f 768/2/90 767/2/90 730/2/90
f 768/2/90 730/2/90 722/2/90
f 660/1/90 677/1/90 659/1/90
f 678/1/90 677/1/90 660/1/90
f 483/2/112 781/2/113 769/2/90
f 779/2/114 781/2/113 483/2/112
f 484/2/115 483/2/112 769/2/90
f 780/2/116 781/2/113 779/2/114
f 770/2/117 484/2/115 769/2/90
f 770/2/117 780/2/116 484/2/115
f 782/2/118 781/2/113 780/2/116
f 782/2/119 780/2/116 770/2/117
f 782/2/120 783/2/120 781/2/120
f 784/2/120 783/2/120 782/2/120
f 784/2/121 827/2/121 783/2/121
f 828/2/121 827/2/121 784/2/121
f 828/2/121 829/2/122 827/2/121
f 830/2/122 829/2/122 828/2/121
f 831/2/123 833/2/124 829/2/111
f 832/2/125 831/2/123 829/2/111
f 832/2/125 835/2/126 831/2/123
f 836/2/127 835/2/126 832/2/125
f 508/3/90 870/3/90 507/3/90
f 869/3/90 870/3/90 508/3/90
f 830/2/111 832/2/125 829/2/111
f 834/2/123 832/2/125 830/2/111
f 831/2/123 837/2/128 833/2/124
f 835/2/126 837/2/128 831/2/123
f 839/3/90 509/3/90 838/3/90
f 510/3/90 509/3/90 839/3/90
f 869/3/129 871/3/129 870/3/129
f 872/3/129 871/3/129 869/3/129
f 834/2/123 836/2/127 832/2/125
f 840/2/128 836/2/127 834/2/123
f 388/2/90 731/2/90 387/2/90
f 732/2/90 731/2/90 388/2/90
f 842/3/130 511/3/130 841/3/130
f 512/3/130 511/3/130 842/3/130
f 844/3/131 513/3/131 843/3/131
f 514/3/131 513/3/131 844/3/131
f 390/2/90 733/2/90 389/2/90
f 734/2/90 733/2/90 390/2/90
f 446/3/132 785/3/133 445/3/90
f 366/2/90 391/2/90 365/2/90
f 392/2/90 391/2/90 366/2/90
f 443/3/134 446/3/132 413/3/135
f 443/3/134 785/3/133 446/3/132
f 786/3/136 785/3/133 443/3/134
f 874/3/129 876/3/129 873/3/129
f 875/3/129 876/3/129 874/3/129
f 444/3/137 443/3/134 413/3/135
f 368/2/90 393/2/90 367/2/90
f 394/2/90 393/2/90 368/2/90
f 414/3/138 787/3/139 444/3/137
f 414/3/138 444/3/137 413/3/135
f 449/3/140 787/3/139 414/3/138
f 447/3/141 787/3/139 449/3/140
f 788/3/142 787/3/139 447/3/143
f 445/3/144 789/3/144 448/3/144
f 785/3/144 789/3/144 445/3/144
f 416/3/145 445/3/145 415/3/145
f 446/3/145 445/3/145 416/3/145
f 348/2/90 369/2/90 347/2/90
f 370/2/90 369/2/90 348/2/90
f 850/2/90 853/2/90 849/2/90
f 855/2/90 853/2/90 850/2/90
f 875/3/146 877/3/146 876/3/146
f 878/3/146 877/3/146 875/3/146
f 852/2/90 856/2/90 851/2/90
f 854/2/90 856/2/90 852/2/90
f 350/2/90 371/2/90 349/2/90
f 372/2/90 371/2/90 350/2/90
f 418/3/145 449/3/145 417/3/145
f 447/3/145 449/3/145 418/3/145
f 450/3/147 788/3/147 447/3/147
f 790/3/147 788/3/147 450/3/147
f 855/2/148 857/2/148 853/2/148
f 858/2/148 857/2/148 855/2/148
f 891/3/149 887/3/150 877/3/150
f 888/3/149 891/3/149 877/3/150
f 888/3/149 901/3/151 891/3/149
f 902/3/151 901/3/151 888/3/149
f 878/3/150 888/3/149 877/3/150
f 889/3/150 888/3/149 878/3/150
f 854/2/148 859/2/148 856/2/148
f 860/2/148 859/2/148 854/2/148
f 452/3/144 791/3/144 451/3/144
f 792/3/144 791/3/144 452/3/144
f 420/3/145 452/3/145 419/3/145
f 453/3/145 452/3/145 420/3/145
f 330/2/90 351/2/90 329/2/90
f 352/2/90 351/2/90 330/2/90
f 891/3/152 893/3/152 890/3/152
f 894/3/153 893/3/152 891/3/152
f 902/3/154 911/3/154 901/3/154
f 912/3/154 911/3/154 902/3/154
f 892/3/155 895/3/155 888/3/155
f 896/3/155 895/3/155 892/3/155
f 332/2/90 353/2/90 331/2/90
f 354/2/90 353/2/90 332/2/90
f 422/3/145 454/3/145 421/3/145
f 455/3/145 454/3/145 422/3/145
f 456/3/147 793/3/147 455/3/147
f 794/3/147 793/3/147 456/3/147
f 898/3/156 903/3/156 897/3/156
f 904/3/156 903/3/156 898/3/156
f 743/3/90 424/3/90 741/3/90
f 425/3/90 424/3/90 743/3/90
f 797/3/90 488/3/90 796/3/90
f 489/3/90 488/3/90 797/3/90
f 912/3/157 913/3/157 911/3/157
f 914/3/157 913/3/157 912/3/157
f 900/3/158 905/3/158 899/3/158
f 906/3/158 905/3/158 900/3/158
f 741/3/159 423/3/159 742/3/159
f 424/3/159 423/3/159 741/3/159
f 796/3/160 487/3/160 795/3/160
f 488/3/160 487/3/160 796/3/160
f 744/3/161 425/3/161 743/3/161
f 426/3/162 425/3/162 744/3/162
f 798/3/163 489/3/163 797/3/163
f 490/3/163 489/3/163 798/3/163
f 862/2/164 865/2/164 861/2/165
f 866/2/165 865/2/164 862/2/164
f 884/2/166 924/2/90 883/2/167
f 915/2/90 924/2/90 884/2/166
f 916/2/90 924/2/90 915/2/90
f 886/2/168 916/2/90 885/2/90
f 925/2/90 924/2/90 916/2/90
f 925/2/90 916/2/90 886/2/168
f 864/2/164 868/2/164 863/2/165
f 867/2/165 868/2/164 864/2/164
f 866/2/169 923/2/170 865/2/171
f 924/2/172 923/2/170 866/2/169
f 803/2/90 494/2/90 802/2/90
f 492/2/90 494/2/90 803/2/90
f 805/2/90 495/2/90 800/2/90
f 496/2/90 495/2/90 805/2/90
f 867/2/173 925/2/174 868/2/175
f 926/2/176 925/2/174 867/2/173
f 802/2/177 497/2/177 804/2/177
f 494/2/177 497/2/177 802/2/177
f 308/3/178 321/3/178 307/3/178
f 322/3/178 321/3/178 308/3/178
f 294/3/179 308/3/179 293/3/179
f 309/3/179 308/3/179 294/3/179
f 310/3/180 323/3/180 309/3/181
f 324/3/180 323/3/180 310/3/180
f 806/2/182 496/2/182 805/2/182
f 498/2/182 496/2/182 806/2/182
f 296/3/178 311/3/178 295/3/178
f 312/3/178 311/3/178 296/3/178
f 276/3/179 296/3/179 275/3/179
f 297/3/179 296/3/179 276/3/179
f 298/3/180 313/3/180 297/3/180
f 314/3/180 313/3/180 298/3/180
f 278/3/178 299/3/178 277/3/178
f 300/3/178 299/3/178 278/3/178
f 264/3/179 278/3/179 263/3/183
f 279/3/179 278/3/179 264/3/179
f 280/3/180 301/3/180 279/3/180
f 302/3/180 301/3/180 280/3/180
f 27/1/184 43/1/184 28/1/184
f 28/1/184 43/1/184 44/1/184
f 527/1/185 551/1/185 528/1/185
f 528/1/185 551/1/185 552/1/185
f 13/1/186 28/1/186 14/1/186
f 14/1/186 28/1/186 29/1/187
f 552/1/188 579/1/188 553/1/188
f 553/1/188 579/1/188 580/1/188
f 5/1/189 14/1/189 6/1/189
f 6/1/189 14/1/189 15/1/189
f 580/1/185 609/1/185 581/1/185
f 581/1/185 609/1/185 610/1/185
f 6/2/189 15/2/189 7/2/184
f 7/2/184 15/2/189 16/2/184
f 581/2/185 610/2/185 582/2/185
f 582/2/185 610/2/185 611/2/185
f 7/1/184 16/1/184 8/1/184
f 8/1/184 16/1/184 17/1/184
f 582/1/185 611/1/185 583/1/185
f 583/1/185 611/1/185 612/1/185
f 17/1/190 30/1/190 18/1/190
f 18/1/190 30/1/190 31/1/190
f 554/1/191 583/1/191 555/1/191
f 555/1/191 583/1/191 584/1/191
f 31/1/184 45/1/184 32/1/184
f 32/1/184 45/1/184 46/1/184
f 529/1/185 555/1/185 530/1/185
f 530/1/185 555/1/185 556/1/185
f 519/1/185 531/1/185 520/1/185
f 520/1/185 531/1/185 532/1/185
f 532/1/188 557/1/188 533/1/188
f 533/1/188 557/1/188 558/1/188
f 558/1/185 585/1/185 559/1/185
f 559/1/185 585/1/185 586/1/185
f 559/2/185 586/2/185 560/2/185
f 560/2/185 586/2/185 587/2/185
f 560/1/185 587/1/185 561/1/185
f 561/1/185 587/1/185 588/1/185
f 534/1/191 561/1/191 535/1/191
f 535/1/191 561/1/191 562/1/191
f 521/1/185 535/1/185 522/1/185
f 522/1/185 535/1/185 536/1/185
f 47/1/184 63/1/184 48/1/184
f 48/1/184 63/1/184 64/1/184
f 33/1/187 48/1/186 34/1/186
f 34/1/186 48/1/186 49/1/186
f 19/1/184 34/1/184 20/1/189
f 20/1/189 34/1/184 35/1/189
f 20/2/189 35/2/189 21/2/184
f 21/2/184 35/2/189 36/2/184
f 21/1/184 36/1/184 22/1/184
f 22/1/184 36/1/184 37/1/184
f 37/1/192 50/1/192 38/1/192
f 38/1/192 50/1/192 51/1/190
f 51/1/184 65/1/184 52/1/184
f 52/1/184 65/1/184 66/1/184
f 67/1/184 83/1/184 68/1/184
f 68/1/184 83/1/184 84/1/184
f 53/1/186 68/1/186 54/1/186
f 54/1/186 68/1/186 69/1/186
f 39/1/184 54/1/184 40/1/184
f 40/1/184 54/1/184 55/1/184
f 40/2/184 55/2/184 41/2/184
f 41/2/184 55/2/184 56/2/184
f 41/1/184 56/1/184 42/1/184
f 42/1/184 56/1/184 57/1/184
f 57/1/192 70/1/192 58/1/190
f 58/1/190 70/1/192 71/1/190
f 71/1/184 85/1/184 72/1/184
f 72/1/184 85/1/184 86/1/184
f 87/1/189 103/1/189 88/1/189
f 88/1/189 103/1/189 104/1/189
f 73/1/187 88/1/187 74/1/186
f 74/1/186 88/1/187 89/1/186
f 59/1/189 74/1/189 60/1/189
f 60/1/189 74/1/189 75/1/189
f 60/2/189 75/2/189 61/2/189
f 61/2/189 75/2/189 76/2/189
f 61/1/189 76/1/189 62/1/189
f 62/1/189 76/1/189 77/1/189
f 77/1/192 90/1/192 78/1/192
f 78/1/192 90/1/192 91/1/192
f 91/1/189 105/1/189 92/1/189
f 92/1/189 105/1/189 106/1/189
f 107/1/184 123/1/184 108/1/184
f 108/1/184 123/1/184 124/1/184
f 93/1/187 108/1/187 94/1/186
f 94/1/186 108/1/187 109/1/186
f 79/1/189 94/1/189 80/1/189
f 80/1/189 94/1/189 95/1/189
f 80/2/189 95/2/189 81/2/184
f 81/2/184 95/2/189 96/2/184
f 81/1/184 96/1/184 82/1/189
f 82/1/189 96/1/184 97/1/189
f 97/1/192 110/1/192 98/1/192
f 98/1/192 110/1/192 111/1/190
f 111/1/184 125/1/184 112/1/184
f 112/1/184 125/1/184 126/1/184
f 723/2/193 475/2/193 724/2/193
f 724/2/193 475/2/193 476/2/193
f 127/1/184 143/1/184 128/1/184
f 128/1/184 143/1/184 144/1/184
f 113/1/186 128/1/186 114/1/187
f 114/1/187 128/1/186 129/1/187
f 99/1/189 114/1/189 100/1/189
f 100/1/189 114/1/189 115/1/189
f 100/2/189 115/2/189 101/2/184
f 101/2/184 115/2/189 116/2/189
f 101/1/184 116/1/189 102/1/189
f 102/1/189 116/1/189 117/1/189
f 713/2/194 725/2/194 714/2/194
f 714/2/194 725/2/194 726/2/194
f 477/2/195 479/2/195 478/2/195
f 478/2/195 479/2/195 480/2/195
f 117/1/192 130/1/192 118/1/192
f 118/1/192 130/1/192 131/1/192
f 131/1/184 145/1/184 132/1/184
f 132/1/184 145/1/184 146/1/184
f 759/3/196 765/3/196 760/3/196
f 760/3/196 765/3/196 766/3/196
f 709/2/194 713/2/194 710/2/194
f 710/2/194 713/2/194 714/2/194
f 479/2/195 481/2/195 480/2/195
f 480/2/195 481/2/195 482/2/195
f 133/1/186 147/1/186 134/1/186
f 134/1/186 147/1/186 148/1/186
f 119/1/189 134/1/184 120/1/189
f 120/1/189 134/1/184 135/1/184
f 120/2/189 135/2/184 121/2/184
f 121/2/184 135/2/184 136/2/184
f 121/1/184 136/1/184 122/1/184
f 122/1/184 136/1/184 137/1/184
f 137/1/190 149/1/190 138/1/192
f 138/1/192 149/1/190 150/1/192
f 151/1/184 161/1/197 152/1/189
f 152/1/189 161/1/197 163/1/197
f 637/2/193 267/2/193 638/2/193
f 638/2/193 267/2/193 639/2/193
f 727/3/196 761/3/196 728/3/196
f 728/3/196 761/3/196 762/3/196
f 639/2/193 267/2/193 640/2/193
f 640/2/193 267/2/193 268/2/193
f 153/1/184 166/1/197 154/1/189
f 154/1/189 166/1/197 162/1/197
f 161/1/197 173/1/197 163/1/197
f 163/1/197 173/1/197 176/1/197
f 155/1/187 163/1/186 156/1/186
f 156/1/186 163/1/186 164/1/186
f 139/1/197 156/1/197 140/1/184
f 140/1/184 156/1/197 157/1/197
f 140/2/184 157/2/197 141/2/184
f 141/2/184 157/2/197 158/2/197
f 141/1/184 158/1/197 142/1/184
f 142/1/184 158/1/197 159/1/197
f 159/1/192 165/1/198 160/1/198
f 160/1/198 165/1/198 166/1/198
f 166/1/197 174/1/197 162/1/197
f 162/1/197 174/1/197 175/1/197
f 173/1/197 185/1/184 176/1/197
f 176/1/197 185/1/184 186/1/197
f 167/1/199 176/1/187 168/1/187
f 168/1/187 176/1/187 177/1/186
f 156/1/197 168/1/197 157/1/197
f 157/1/197 168/1/197 171/1/197
f 157/2/197 171/2/197 158/2/197
f 158/2/197 171/2/197 172/2/197
f 158/1/197 172/1/197 159/1/197
f 159/1/197 172/1/197 169/1/197
f 169/1/198 178/1/198 170/1/198
f 170/1/198 178/1/198 174/1/190
f 174/1/197 189/1/184 175/1/197
f 175/1/197 189/1/184 190/1/197
f 185/1/184 198/1/197 186/1/197
f 186/1/197 198/1/197 199/1/197
f 179/1/187 186/1/187 180/1/187
f 180/1/187 186/1/187 187/1/199
f 168/1/197 180/1/184 171/1/197
f 171/1/197 180/1/184 184/1/197
f 171/2/197 184/2/197 172/2/197
f 172/2/197 184/2/197 181/2/197
f 172/1/197 181/1/197 169/1/197
f 169/1/197 181/1/197 182/1/184
f 182/1/190 188/1/190 183/1/190
f 183/1/190 188/1/190 189/1/192
f 189/1/184 197/1/197 190/1/197
f 190/1/197 197/1/197 202/1/197
f 198/1/197 209/1/197 199/1/197
f 199/1/197 209/1/197 210/1/197
f 191/1/187 199/1/187 196/1/187
f 196/1/187 199/1/187 200/1/199
f 180/1/184 196/1/197 184/1/197
f 184/1/197 196/1/197 192/1/197
f 184/2/197 192/2/197 181/2/197
f 181/2/197 192/2/197 193/2/197
f 181/1/197 193/1/197 182/1/184
f 182/1/184 193/1/197 194/1/197
f 194/1/198 201/1/198 195/1/198
f 195/1/198 201/1/198 197/1/198
f 197/1/197 214/1/197 202/1/197
f 202/1/197 214/1/197 211/1/197
f 209/1/197 221/1/197 210/1/197
f 210/1/197 221/1/197 222/1/197
f 203/1/199 210/1/187 207/1/187
f 207/1/187 210/1/187 212/1/187
f 196/1/197 207/1/197 192/1/197
f 192/1/197 207/1/197 204/1/184
f 192/2/197 204/2/184 193/2/197
f 193/2/197 204/2/184 208/2/197
f 193/1/197 208/1/197 194/1/197
f 194/1/197 208/1/197 205/1/197
f 205/1/198 213/1/198 206/1/190
f 206/1/190 213/1/198 214/1/190
f 214/1/197 225/1/197 211/1/197
f 211/1/197 225/1/197 226/1/197
f 221/1/197 236/1/184 222/1/197
f 222/1/184 236/1/184 233/1/184
f 215/1/187 222/1/187 217/1/199
f 217/1/199 222/1/187 223/1/186
f 207/1/197 217/1/197 204/1/184
f 204/1/184 217/1/197 218/1/184
f 204/2/184 218/2/184 208/2/197
f 208/2/197 218/2/184 219/2/184
f 208/1/197 219/1/184 205/1/197
f 205/1/197 219/1/184 220/1/197
f 220/1/190 224/1/190 216/1/198
f 216/1/198 224/1/190 225/1/198
f 225/1/197 234/1/184 226/1/197
f 226/1/184 234/1/184 235/1/184
f 236/1/200 245/1/200 233/1/200
f 233/1/200 245/1/200 248/1/200
f 661/1/201 679/1/201 662/1/201
f 662/1/201 679/1/201 680/1/201
f 227/1/199 233/1/199 228/1/187
f 228/1/187 233/1/199 237/1/186
f 217/1/197 228/1/197 218/1/184
f 218/1/184 228/1/197 229/1/197
f 218/2/184 229/2/197 219/2/184
f 219/2/184 229/2/197 230/2/197
f 219/1/184 230/1/197 220/1/197
f 220/1/197 230/1/197 232/1/197
f 232/1/198 238/1/198 231/1/190
f 231/1/190 238/1/198 234/1/190
f 234/1/200 246/1/200 235/1/200
f 235/1/200 246/1/200 247/1/200
f 663/1/202 681/1/202 664/1/202
f 664/1/202 681/1/202 682/1/202
f 245/1/203 665/1/203 248/1/203
f 248/1/203 665/1/203 666/1/203
f 239/1/186 248/1/199 240/1/186
f 240/1/186 248/1/199 249/1/199
f 228/1/197 240/1/184 229/1/197
f 229/1/197 240/1/184 242/1/197
f 229/2/197 242/2/197 230/2/197
f 230/2/197 242/2/197 243/2/197
f 230/1/197 243/1/197 232/1/197
f 232/1/197 243/1/197 244/1/184
f 244/1/192 250/1/198 241/1/198
f 241/1/198 250/1/198 246/1/192
f 246/1/193 663/1/193 247/1/193
f 247/1/193 663/1/193 664/1/193
f 251/1/187 257/1/186 256/1/186
f 256/1/186 257/1/186 258/1/186
f 240/1/204 256/1/200 242/1/200
f 242/1/200 256/1/200 252/1/204
f 242/2/200 252/2/204 243/2/200
f 243/2/200 252/2/204 253/2/204
f 243/1/200 253/1/204 244/1/200
f 244/1/200 253/1/200 254/1/200
f 254/1/192 261/1/192 255/1/192
f 255/1/192 261/1/192 259/1/192
f 732/2/193 443/2/193 733/2/193
f 733/2/193 443/2/193 444/2/193
f 786/2/193 485/2/193 787/2/193
f 787/2/193 485/2/193 486/2/193
f 260/1/193 271/1/193 258/1/193
f 258/1/193 271/1/193 272/1/193
f 256/1/193 258/1/193 252/1/205
f 258/2/193 272/2/193 951/2/193
f 252/1/205 258/1/193 951/1/193
f 252/2/205 951/2/193 253/2/193
f 951/2/193 272/2/193 952/2/193
f 253/2/193 951/2/193 952/2/193
f 253/1/193 952/1/193 254/1/193
f 952/2/193 272/2/193 261/2/193
f 254/1/193 952/1/193 261/1/193
f 261/2/193 272/2/193 273/2/193
f 261/1/193 273/1/193 262/1/193
f 262/1/193 273/1/193 274/1/193
f 271/2/206 285/2/206 286/2/206
f 271/2/206 286/2/206 287/2/206
f 271/2/206 287/2/206 274/2/206
f 274/2/206 287/2/206 288/2/206
f 289/2/207 315/2/208 290/2/209
f 290/2/210 315/2/211 303/2/212
f 303/2/212 315/2/211 318/2/193
f 290/3/210 303/3/212 291/3/213
f 291/3/213 303/3/212 306/3/214
f 291/2/213 306/2/214 292/2/215
f 306/2/214 316/2/216 292/2/215
f 292/2/215 316/2/216 317/2/207
f 315/2/217 333/2/217 318/2/217
f 318/2/217 333/2/217 334/2/217
f 303/3/218 318/3/218 304/3/218
f 304/3/218 318/3/218 319/3/218
f 305/3/219 320/3/219 306/3/219
f 306/3/219 320/3/219 316/3/219
f 316/2/217 335/2/217 317/2/217
f 317/2/217 335/2/217 336/2/217
f 879/3/193 907/3/193 880/3/193
f 880/3/193 907/3/193 908/3/193
f 881/3/193 909/3/193 882/3/193
f 882/3/193 909/3/193 910/3/193
f 799/3/220 491/3/220 803/3/220
f 803/3/220 491/3/220 492/3/220
f 800/3/221 495/3/221 801/3/221
f 801/3/221 495/3/221 493/3/221
f 745/3/222 427/3/222 746/3/222
f 746/3/222 427/3/222 428/3/222
f 747/3/223 429/3/223 748/3/223
f 748/3/223 429/3/223 430/3/223
f 457/3/224 807/3/224 458/3/224
f 458/3/224 807/3/224 808/3/224
f 431/3/225 458/3/225 432/3/225
f 432/3/225 458/3/225 459/3/225
f 337/2/226 355/2/227 338/2/228
f 338/2/229 355/2/230 356/2/231
f 339/2/232 357/2/233 340/2/234
f 340/2/234 357/2/233 358/2/235
f 433/3/225 460/3/225 434/3/225
f 434/3/225 460/3/225 461/3/225
f 461/3/236 809/3/236 462/3/236
f 462/3/236 809/3/236 810/3/236
f 338/2/218 356/2/218 341/2/218
f 341/2/218 356/2/218 359/2/218
f 691/3/237 341/3/237 692/3/237
f 692/3/237 341/3/237 342/3/237
f 751/3/193 435/3/193 752/3/193
f 752/3/193 435/3/193 436/3/193
f 693/3/238 343/3/238 694/3/238
f 694/3/238 343/3/238 344/3/238
f 344/2/239 360/2/239 339/2/239
f 339/2/239 360/2/239 357/2/239
f 463/3/224 811/3/224 464/3/224
f 464/3/224 811/3/224 812/3/224
f 437/3/225 464/3/225 438/3/225
f 438/3/225 464/3/225 465/3/225
f 361/2/193 377/2/193 359/2/193
f 813/2/193 499/2/193 814/2/193
f 814/2/193 499/2/193 500/2/193
f 683/3/240 695/3/240 684/3/240
f 684/3/240 695/3/240 696/3/240
f 341/3/193 359/3/193 342/3/193
f 359/2/193 377/2/193 953/2/193
f 342/3/193 359/3/193 953/3/193
f 953/2/193 377/2/193 378/2/193
f 696/3/193 342/3/193 697/3/193
f 953/3/193 378/3/193 697/3/193
f 342/3/193 953/3/193 697/3/193
f 697/3/193 378/3/193 343/3/193
f 343/3/193 378/3/193 954/3/193
f 954/3/193 378/3/193 379/3/193
f 685/3/240 697/3/240 686/3/240
f 686/3/240 697/3/240 698/3/240
f 343/3/193 954/3/193 344/3/193
f 954/2/193 379/2/193 360/2/193
f 344/3/193 954/3/193 360/3/193
f 815/2/193 501/2/193 816/2/193
f 816/2/193 501/2/193 502/2/193
f 360/2/193 379/2/193 362/2/193
f 362/2/193 379/2/193 380/2/193
f 439/3/225 466/3/225 440/3/225
f 440/3/225 466/3/225 467/3/225
f 467/3/236 817/3/236 468/3/236
f 468/3/236 817/3/236 818/3/236
f 403/2/193 755/2/241 404/2/242
f 404/2/242 755/2/241 407/2/243
f 381/2/244 404/2/242 407/2/243
f 407/2/243 755/2/241 756/2/245
f 469/3/246 819/3/246 470/3/246
f 470/3/246 819/3/246 820/3/246
f 503/2/247 927/2/247 504/2/247
f 504/2/247 927/2/247 928/2/247
f 821/2/248 504/2/248 822/2/248
f 822/2/248 504/2/248 506/2/248
f 381/2/244 407/2/243 408/2/249
f 441/3/225 470/3/225 442/3/225
f 442/3/225 470/3/225 471/3/225
f 506/2/250 929/2/250 505/2/250
f 505/2/250 929/2/250 930/2/250
f 408/2/249 757/2/251 382/2/252
f 381/2/244 408/2/249 382/2/252
f 382/2/252 757/2/251 405/2/253
f 405/2/253 757/2/251 406/2/254
f 406/2/254 757/2/251 758/2/255
f 471/3/256 823/3/256 472/3/256
f 472/3/256 823/3/256 824/3/256
f 667/3/257 687/3/257 668/3/257
f 668/3/257 687/3/257 690/3/257
f 504/2/258 928/2/193 515/2/205
f 515/2/205 928/2/193 919/2/193
f 690/3/259 699/3/240 688/3/260
f 688/3/240 699/3/240 700/3/240
f 504/2/258 515/2/205 516/2/193
f 919/2/193 928/2/193 920/2/193
f 669/3/261 688/3/262 670/3/262
f 670/3/262 688/3/262 689/3/262
f 516/2/193 920/2/193 506/2/193
f 504/2/258 516/2/193 506/2/193
f 920/2/193 928/2/193 929/2/193
f 506/2/193 920/2/193 929/2/193
f 407/2/193 756/2/193 408/2/193
f 408/2/193 756/2/193 757/2/193
f 473/3/193 825/3/193 474/3/193
f 474/3/193 825/3/193 826/3/193
f 281/3/263 671/3/263 283/3/263
f 283/3/263 671/3/263 673/3/263
f 265/3/264 283/3/264 266/3/264
f 266/3/264 283/3/264 284/3/264
f 673/3/265 690/3/259 674/3/265
f 674/3/265 690/3/259 688/3/260
f 917/3/266 921/3/266 918/3/266
f 918/3/266 921/3/266 922/3/266
f 284/3/267 674/3/267 282/3/267
f 282/3/267 674/3/267 672/3/267
f 283/3/193 673/3/193 284/3/193
f 284/3/193 673/3/193 674/3/193
f 517/3/193 917/3/193 518/3/193
f 518/3/193 917/3/193 918/3/193
