# Blender 5.1.2
# www.blender.org
mtllib Rifle.mtl
o Untitled
v -10.000000 0.500000 0.100000
v -10.000000 0.500000 -0.100000
v -10.000000 1.100000 0.100000
v -10.000000 1.100000 -0.100000
v -9.900000 0.000000 0.100000
v -9.900000 -0.000000 -0.100000
v -9.900000 0.500000 0.200000
v -9.900000 0.409158 0.100000
v -9.900000 0.409158 -0.100000
v -9.900000 0.500000 -0.200000
v -9.900000 0.800000 0.200000
v -9.900000 0.800000 0.100000
v -9.900000 0.800000 -0.100000
v -9.900000 0.800000 -0.200000
v -9.900000 1.100000 0.200000
v -9.900000 1.197579 -0.100000
v -9.900000 1.100000 -0.200000
v -9.900000 1.197579 0.100000
v -9.800001 0.100000 0.200000
v -9.800001 0.100000 0.100000
v -9.800001 0.100000 -0.100000
v -9.800001 0.100000 -0.200000
v -9.800001 0.500000 0.200000
v -9.800001 0.409158 0.100000
v -9.800001 0.409158 -0.100000
v -9.800001 0.500000 -0.200000
v -8.500000 1.100000 0.200000
v -8.500000 1.100000 -0.200000
v -8.500000 1.200000 0.200000
v -8.500000 1.198581 0.100000
v -8.500000 1.198581 -0.100000
v -8.500000 1.200000 -0.200000
v -7.800001 0.598944 0.100000
v -7.800001 0.598944 -0.100000
v -7.800001 0.600000 0.200000
v -7.800001 0.600000 -0.200000
v -7.845103 0.598652 0.200000
v -7.845103 0.598652 0.100000
v -7.800001 0.617133 -0.100000
v -7.800001 0.617133 -0.200000
v -7.300001 1.100000 0.200000
v -7.300001 1.195559 0.100000
v -7.300001 1.195220 -0.100000
v -7.300001 1.100000 -0.200000
v -7.300001 1.200000 0.200000
v -7.300001 1.200000 -0.200000
v -7.300001 1.296750 0.100000
v -7.300001 1.296750 -0.100000
v -7.100000 1.200000 0.200000
v -7.100000 1.293500 0.100000
v -7.100000 1.293500 -0.100000
v -7.100000 1.200000 -0.200000
v -7.100000 1.300000 0.200000
v -7.100000 1.396750 0.100000
v -7.100000 1.300000 -0.200000
v -7.100000 1.396750 -0.100000
v -6.900001 1.300000 0.200000
v -6.900001 1.393500 0.100000
v -6.900001 1.393500 -0.100000
v -6.900001 1.300000 -0.200000
v -6.900001 1.400000 0.200000
v -6.900001 1.400000 -0.200000
v -6.900001 1.501393 0.100000
v -6.900001 1.501393 -0.100000
v -6.800001 0.800000 0.100000
v -6.800001 0.800000 -0.100000
v -6.800001 1.000000 0.100000
v -6.800001 1.000000 -0.100000
v -6.800001 1.400000 0.200000
v -6.800001 1.499742 -0.100000
v -6.800001 1.400000 -0.200000
v -6.800001 1.500000 0.200000
v -6.800001 1.499742 0.100000
v -6.800001 1.500000 -0.200000
v -6.700000 0.699857 -0.100000
v -6.700000 0.800000 0.100000
v -6.700000 0.800000 -0.100000
v -6.700000 1.598104 0.200000
v -6.700000 1.598104 -0.200000
v -6.700000 1.600610 0.100000
v -6.700000 1.600610 -0.100000
v -6.600000 0.900000 0.100000
v -6.600000 0.900000 -0.100000
v -6.600000 1.000000 0.100000
v -6.600000 1.000000 -0.100000
v -6.500000 0.800364 -0.100000
v -6.500000 0.900000 0.100000
v -6.500000 0.900000 -0.100000
v -6.500000 1.100000 0.400000
v -6.500000 1.100000 0.200000
v -6.500000 1.300000 0.362473
v -6.500000 1.300000 0.200000
v -6.400001 1.300000 0.300000
v -6.400001 1.300000 0.200000
v -6.400000 1.400000 0.200000
v -6.400001 1.600000 0.200000
v -6.400001 1.600000 0.100000
v -6.400001 1.671491 0.275537
v -6.400001 1.700000 0.100000
v -6.300000 0.800000 0.100000
v -6.300000 0.800000 -0.100000
v -6.300001 1.000000 0.100000
v -6.300001 1.000000 -0.100000
v -5.200000 1.500000 0.200000
v -5.200000 1.598050 0.100000
v -5.200000 1.598050 -0.100000
v -5.200000 1.500000 -0.200000
v -5.200000 1.600000 0.200000
v -5.200000 1.600000 -0.200000
v -5.200000 1.700134 0.100000
v -5.200000 1.700134 -0.100000
v -4.200000 1.500000 0.200000
v -4.200000 1.598773 0.100000
v -4.200000 1.598773 -0.100000
v -4.200000 1.500000 -0.200000
v -4.200000 1.600000 0.200000
v -4.200000 1.600000 -0.200000
v -4.200000 1.699775 0.100000
v -4.200000 1.699775 -0.100000
v 0.800000 1.600000 0.100000
v 0.800000 1.600000 -0.100000
v 0.800000 1.800000 0.100000
v 0.800000 1.800000 -0.100000
v -9.500000 0.098944 -0.100000
v -9.500000 0.100000 0.200000
v -9.500000 0.098944 0.100000
v -9.500000 0.100000 -0.200000
v -9.419150 0.140554 0.200000
v -9.419150 0.140554 0.100000
v -9.426003 0.142322 -0.100000
v -9.426003 0.142322 -0.200000
v -9.200000 0.200000 0.200000
v -9.200000 0.198944 0.100000
v -9.200000 0.198944 -0.100000
v -9.200000 0.200000 -0.200000
v -9.119150 0.240554 0.200000
v -9.119150 0.240554 0.100000
v -9.126003 0.242322 -0.100000
v -9.126003 0.242322 -0.200000
v -8.900000 0.298944 -0.100000
v -8.900000 0.300000 0.200000
v -8.900000 0.298944 0.100000
v -8.900000 0.300000 -0.200000
v -8.819150 0.340554 0.200000
v -8.819150 0.340554 0.100000
v -8.826003 0.342322 -0.100000
v -8.826003 0.342322 -0.200000
v -8.600000 0.398944 -0.100000
v -8.600000 0.400000 0.200000
v -8.600000 0.398944 0.100000
v -8.600000 0.400000 -0.200000
v -8.519151 0.440554 0.200000
v -8.519151 0.440554 0.100000
v -8.526004 0.442322 -0.100000
v -8.526004 0.442322 -0.200000
v -8.300001 0.500000 0.200000
v -8.300001 0.498944 0.100000
v -8.300001 0.498944 -0.100000
v -8.300001 0.500000 -0.200000
v -8.219151 0.540554 0.200000
v -8.219151 0.540554 0.100000
v -8.226005 0.542322 -0.100000
v -8.226005 0.542322 -0.200000
v -8.000000 0.598944 -0.100000
v -8.000000 0.601946 0.200000
v -8.000000 0.600593 0.100000
v -8.000000 0.600000 -0.200000
v -8.000000 0.617133 -0.100000
v -8.000000 0.617133 -0.200000
v -8.000000 1.100000 0.200000
v -8.000000 1.197610 -0.100000
v -8.000000 1.100000 -0.200000
v -8.000000 1.200000 0.200000
v -8.000000 1.197779 0.100000
v -8.000000 1.200000 -0.200000
v -8.000000 1.300000 0.100000
v -8.000000 1.300000 -0.100000
v -7.400001 0.597313 0.100000
v -7.400001 0.597313 -0.100000
v -7.400001 0.600000 0.200000
v -7.400001 0.602526 -0.200000
v -7.302434 0.699301 0.100000
v -7.400001 0.605052 -0.100000
v -7.303651 0.700000 0.200000
v -7.300001 0.700985 -0.100000
v -7.300001 0.702526 -0.200000
v -7.203650 0.800000 0.200000
v -7.202434 0.799301 0.100000
v -7.200000 0.800985 -0.100000
v -7.200000 0.802526 -0.200000
v -7.103650 0.900000 0.200000
v -7.102434 0.899301 0.100000
v -7.100000 0.900985 -0.100000
v -7.100000 0.902526 -0.200000
v -7.007300 1.000000 0.200000
v -7.007300 1.000000 0.100000
v -6.900001 1.000000 0.200000
v -6.900001 0.998952 0.100000
v -6.900001 1.000985 -0.100000
v -6.900001 1.002526 -0.200000
v -6.808712 1.100000 0.200000
v -6.808712 1.100000 0.100000
v -6.700000 1.000000 0.100000
v -6.700000 1.000000 -0.100000
v -6.500000 1.000000 0.100000
v -6.500000 1.000000 -0.100000
v -6.400001 0.800000 0.100000
v -6.400001 0.800000 -0.100000
v -6.400001 0.900000 0.100000
v -6.400001 0.900000 -0.100000
v -6.300001 1.100000 0.400000
v -6.300001 1.100000 0.200000
v -6.300001 1.300000 0.362473
v -6.300001 1.300000 0.300000
v -6.300000 1.500000 0.200000
v -6.300001 1.600000 0.200000
v -6.300001 1.600000 0.100000
v -6.300001 1.671491 0.275537
v -6.300001 1.700000 0.100000
v -6.200000 0.800000 0.100000
v -6.200000 0.800000 -0.100000
v -6.200000 1.000000 0.100000
v -6.200000 1.000000 -0.100000
v -6.000000 1.500000 0.200000
v -6.000000 1.599025 0.100000
v -6.000000 1.599025 -0.100000
v -6.000000 1.500000 -0.200000
v -6.000000 1.600000 0.200000
v -6.000000 1.600000 -0.200000
v -6.000000 1.700000 0.100000
v -6.000000 1.700000 -0.100000
v -5.000000 1.000000 0.100000
v -5.000000 1.000000 -0.100000
v -5.000000 1.100000 0.200000
v -4.911792 1.100000 0.100000
v -4.911792 1.100000 -0.100000
v -5.000000 1.100000 -0.200000
v -5.000000 1.200000 0.200000
v -4.911792 1.200000 0.100000
v -4.911792 1.200000 -0.100000
v -5.000000 1.200000 -0.200000
v -4.700000 1.500000 0.200000
v -4.700000 1.598773 0.100000
v -4.700000 1.598773 -0.100000
v -4.700000 1.500000 -0.200000
v -4.700000 1.600000 0.200000
v -4.700000 1.600000 -0.200000
v -4.700000 1.700134 0.100000
v -4.700000 1.700134 -0.100000
v -3.100000 1.100000 0.100000
v -3.100000 1.100000 -0.100000
v -3.100000 1.200000 0.200000
v -3.004146 1.200000 0.100000
v -3.004146 1.200000 -0.100000
v -3.100000 1.200000 -0.200000
v -3.100000 1.300000 0.200000
v -3.004146 1.300000 0.100000
v -3.004146 1.300000 -0.100000
v -3.100000 1.300000 -0.200000
v -1.387079 1.200000 0.100000
v -1.387079 1.200000 -0.100000
v -1.300000 1.300000 0.200000
v -1.300000 1.300000 0.100000
v -1.300000 1.300000 -0.100000
v -1.300000 1.300000 -0.200000
v -1.300000 1.600000 0.200000
v -1.300000 1.600000 -0.200000
v -1.300000 1.697808 0.100000
v -1.300000 1.697808 -0.100000
v 0.500000 1.400000 0.100000
v 0.500000 1.400000 -0.100000
v 0.500000 1.500000 0.100000
v 0.500000 1.500000 -0.100000
v 0.874851 1.300000 0.100000
v 0.874851 1.300000 -0.100000
v 1.000000 1.400000 0.100000
v 1.000000 1.400000 -0.100000
v 1.000000 1.602580 -0.100000
v 1.000000 1.602580 0.100000
v 0.998847 1.500000 0.100000
v 0.998847 1.500000 -0.100000
v 1.100000 1.600000 0.100000
v 1.100000 1.600000 -0.100000
v -9.800000 0.800000 0.200000
v -3.300000 1.500000 0.200000
v -3.300000 1.600000 0.200000
v -1.500000 1.300000 0.200000
v -1.500000 1.600000 0.200000
v -9.800000 1.197579 0.100000
v -9.700000 0.000000 0.100000
v -9.700000 0.100000 0.100000
v -7.500000 0.500000 0.100000
v -7.500000 0.600000 0.100000
v -7.000000 1.396750 0.100000
v -5.500000 1.000000 0.100000
v -5.500000 1.100000 0.100000
v -3.300000 1.699775 0.100000
v -3.200000 1.100000 0.100000
v -3.200000 1.200000 0.100000
v -1.500000 1.200000 0.100000
v -1.500000 1.300000 0.100000
v -1.500000 1.697808 0.100000
v -0.800000 1.300000 0.100000
v -0.800000 1.400000 0.100000
v -0.700000 1.500000 0.100000
v -0.700000 1.600000 0.100000
v 0.300000 1.400000 0.100000
v 0.300000 1.500000 0.100000
v -9.800000 1.197579 -0.100000
v -9.700000 -0.000000 -0.100000
v -9.700000 0.100000 -0.100000
v -7.500000 0.500000 -0.100000
v -7.500000 0.600000 -0.100000
v -7.000000 1.396750 -0.100000
v -5.500000 1.000000 -0.100000
v -5.500000 1.100000 -0.100000
v -3.300000 1.699775 -0.100000
v -3.200000 1.100000 -0.100000
v -3.200000 1.200000 -0.100000
v -1.500000 1.200000 -0.100000
v -1.500000 1.300000 -0.100000
v -1.500000 1.697808 -0.100000
v -0.800000 1.300000 -0.100000
v -0.800000 1.400000 -0.100000
v -0.700000 1.500000 -0.100000
v -0.700000 1.600000 -0.100000
v 0.300000 1.400000 -0.100000
v 0.300000 1.500000 -0.100000
v -9.800000 0.800000 -0.200000
v -6.300000 1.400000 -0.200000
v -6.300000 1.500000 -0.200000
v -3.300000 1.500000 -0.200000
v -3.300000 1.600000 -0.200000
v -1.500000 1.300000 -0.200000
v -1.500000 1.600000 -0.200000
v -6.300001 0.699763 0.100000
v -6.300001 0.699763 -0.100000
v -6.700000 0.699857 0.100000
v -6.500000 0.800364 0.100000
vn -1.0000 -0.0000 -0.0000
vn 0.0299 -0.9996 -0.0000
vn 0.4483 -0.8939 -0.0000
vn 0.4484 -0.8938 -0.0000
vn 0.4965 -0.8681 -0.0000
vn 0.4965 -0.8680 -0.0000
vn 1.0000 -0.0000 -0.0000
vn 0.7334 -0.6798 -0.0000
vn 0.7333 -0.6799 -0.0000
vn 0.7385 -0.6742 -0.0000
vn 0.7386 -0.6742 -0.0000
vn -0.0000 -0.0000 1.0000
vn 0.7499 -0.6615 -0.0000
vn 0.7499 -0.0000 0.6615
vn 0.7499 -0.0000 -0.6615
vn 0.7219 -0.6920 -0.0000
vn 0.7219 -0.0000 0.6920
vn 0.7219 -0.0000 -0.6920
vn 0.7541 -0.6567 -0.0000
vn 0.6242 -0.7812 -0.0000
vn 0.7030 -0.7111 -0.0000
vn -0.0000 0.1844 0.9828
vn -0.0000 0.0657 0.9978
vn -0.0000 -0.0000 -1.0000
vn -0.0000 -1.0000 -0.0000
vn 0.2257 -0.9742 -0.0000
vn 0.2256 -0.9742 -0.0000
vn 0.4396 -0.8982 -0.0000
vn 0.3102 -0.9507 -0.0000
vn 0.2618 -0.9651 -0.0000
vn 0.2473 -0.9689 -0.0000
vn 0.2473 -0.9690 -0.0000
vn -0.0000 -0.7402 0.6724
vn -0.6724 -0.7402 -0.0000
vn -0.3102 -0.9507 -0.0000
vn 0.2194 -0.9756 -0.0000
vn 0.6873 -0.7264 -0.0000
vn -0.0000 -0.7402 -0.6724
vn 0.6996 -0.7146 -0.0000
vn 0.6996 -0.7145 -0.0000
vn -0.0338 -0.9994 -0.0000
vn 0.0002 -1.0000 -0.0000
vn 0.0001 -1.0000 -0.0000
vn -0.0002 -1.0000 -0.0000
vn 0.6885 -0.7252 -0.0000
vn 0.6886 -0.7252 -0.0000
vn 0.4354 -0.9003 0.0007
vn 0.4397 -0.8982 -0.0000
vn 0.4319 -0.9019 0.0004
vn 0.4289 -0.9034 -0.0000
vn 0.0662 -0.9977 0.0113
vn 0.0470 -0.9988 0.0148
vn 0.0016 -0.7360 0.6770
vn 0.0677 -0.9977 -0.0000
vn 0.0499 -0.9978 -0.0440
vn -0.0000 1.0000 -0.0000
vn 0.6325 0.7071 -0.3162
vn 0.8190 0.2703 0.5061
vn -0.0000 0.7244 0.6893
vn -0.0000 0.7244 0.6894
vn -0.0000 0.7245 0.6893
vn -0.0000 0.7230 0.6909
vn -0.6893 0.7244 -0.0000
vn -0.0000 0.7244 -0.6893
vn -0.0000 0.7244 -0.6894
vn -0.0000 0.7242 -0.6896
vn -0.0000 0.7305 0.6830
vn -0.0000 0.7304 0.6830
vn -0.0000 0.7305 0.6829
vn 0.0001 1.0000 -0.0000
vn -0.0002 1.0000 -0.0000
vn -0.1324 0.9912 -0.0000
vn 0.0002 1.0000 -0.0000
vn -0.0000 0.7304 -0.6830
vn -0.1950 0.9808 -0.0000
vn -0.4235 0.9059 -0.0000
vn -0.0000 0.7305 -0.6830
vn -0.0000 0.7089 0.7053
vn -0.3815 0.9244 -0.0000
vn -0.7053 0.7089 -0.0000
vn -0.0000 0.7089 -0.7053
vn -0.6933 0.7206 -0.0000
vn -0.0000 0.7140 0.7001
vn 0.0002 0.7140 0.7001
vn -0.0000 0.7115 0.7027
vn -0.6933 0.7207 -0.0000
vn -0.0000 0.7140 -0.7001
vn -0.0000 0.7115 -0.7027
vn -0.0000 0.7063 0.7079
vn -0.0000 0.7062 0.7081
vn -0.0000 0.7087 0.7055
vn -0.0000 0.7086 0.7056
vn 0.0007 0.7224 0.6915
vn -0.0000 0.7091 0.7052
vn -0.0000 0.7228 0.6911
vn 0.0008 0.7228 0.6911
vn -0.4353 0.9003 -0.0000
vn -0.1244 0.9922 -0.0000
vn -0.1245 0.9922 -0.0000
vn 0.0008 1.0000 -0.0000
vn 0.0015 1.0000 -0.0000
vn 0.0012 1.0000 -0.0000
vn 0.0010 1.0000 -0.0000
vn 0.1574 0.9875 -0.0000
vn 0.0790 0.9969 -0.0000
vn 0.0789 0.9969 -0.0000
vn -0.0000 0.7063 -0.7079
vn -0.0000 0.7087 -0.7055
vn 0.0008 0.7087 -0.7055
vn -0.0000 0.7224 -0.6914
vn 0.0007 0.7090 -0.7053
vn -0.0000 0.7228 -0.6911
vn -0.0000 0.9871 0.1603
vn -0.0383 0.9821 -0.1843
vn -0.0000 0.9706 -0.2407
vn -0.3001 0.9539 -0.0000
vn -0.2151 0.9725 -0.0894
vn -0.1099 0.9905 -0.0830
vn -0.2151 0.9725 -0.0893
vn -0.1099 0.9905 -0.0829
vn -0.1336 0.9910 -0.0000
vn 0.6978 0.7163 -0.0000
vn 0.7096 -0.7046 -0.0000
vn 0.8845 0.2855 0.3690
vn 0.8871 0.3897 -0.2473
vn 0.7096 0.7046 -0.0000
vn 0.8871 0.3897 -0.2474
vn -0.7086 -0.7056 -0.0000
vn -0.7032 -0.7110 -0.0000
vt 0.982422 0.500000
vt 0.373047 0.500000
vt 0.974609 0.500000
vt 0.990234 0.500000
vt 0.986328 0.500000
s 1
usemtl palette.005
f 3/1/1 2/1/1 1/1/1
f 4/1/1 2/1/1 3/1/1
f 8/1/1 6/1/1 5/1/1
f 9/1/1 6/1/1 8/1/1
f 11/1/1 8/1/1 7/1/1
f 12/1/1 8/1/1 11/1/1
f 13/1/1 10/1/1 9/1/1
f 14/1/1 10/1/1 13/1/1
f 15/2/1 12/2/1 11/2/1
f 18/2/1 12/2/1 15/2/1
f 16/2/1 14/2/1 13/2/1
f 17/2/1 14/2/1 16/2/1
f 23/2/1 20/2/1 19/2/1
f 24/2/1 20/2/1 23/2/1
f 25/2/1 22/2/1 21/2/1
f 26/2/1 22/2/1 25/2/1
f 29/2/1 30/2/1 27/2/1
f 32/2/1 28/2/1 31/2/1
f 37/2/2 33/2/2 35/2/2
f 38/2/2 33/2/2 37/2/2
f 39/2/1 36/2/1 34/2/1
f 40/2/1 36/2/1 39/2/1
f 45/2/1 42/2/1 41/2/1
f 47/2/1 42/2/1 45/2/1
f 48/2/1 44/2/1 43/2/1
f 46/2/1 44/2/1 48/2/1
f 53/2/1 50/2/1 49/2/1
f 54/2/1 50/2/1 53/2/1
f 56/2/1 52/2/1 51/2/1
f 55/2/1 52/2/1 56/2/1
f 61/2/1 58/2/1 57/2/1
f 63/2/1 58/2/1 61/2/1
f 64/2/1 60/2/1 59/2/1
f 62/2/1 60/2/1 64/2/1
f 67/3/1 66/3/1 65/3/1
f 68/3/1 66/3/1 67/3/1
f 72/1/1 73/1/1 69/1/1
f 74/1/1 71/1/1 70/1/1
f 84/3/1 83/3/1 82/3/1
f 85/3/1 83/3/1 84/3/1
f 91/4/1 90/4/1 89/4/1
f 92/4/1 90/4/1 91/4/1
f 95/4/1 94/4/1 93/4/1
f 96/4/1 95/4/1 93/4/1
f 98/4/1 96/4/1 93/4/1
f 98/4/1 97/4/1 96/4/1
f 99/4/1 97/4/1 98/4/1
f 102/3/1 101/3/1 100/3/1
f 103/3/1 101/3/1 102/3/1
f 108/1/1 105/1/1 104/1/1
f 110/1/1 105/1/1 108/1/1
f 111/1/1 107/1/1 106/1/1
f 109/1/1 107/1/1 111/1/1
f 116/1/1 113/1/1 112/1/1
f 118/1/1 113/1/1 116/1/1
f 119/1/1 115/1/1 114/1/1
f 117/1/1 115/1/1 119/1/1
f 122/5/1 121/5/1 120/5/1
f 123/5/1 121/5/1 122/5/1
f 125/2/3 126/2/4 128/2/4
f 128/2/4 126/2/4 129/2/4
f 124/2/5 127/2/6 130/2/5
f 130/2/5 127/2/6 131/2/6
f 132/2/3 133/2/4 136/2/4
f 136/2/4 133/2/4 137/2/4
f 134/2/6 135/2/5 138/2/5
f 138/2/5 135/2/5 139/2/5
f 141/2/3 142/2/4 144/2/4
f 144/2/4 142/2/4 145/2/4
f 140/2/5 143/2/6 146/2/6
f 146/2/6 143/2/6 147/2/6
f 149/2/3 150/2/4 152/2/4
f 152/2/4 150/2/4 153/2/4
f 148/2/5 151/2/6 154/2/6
f 154/2/6 151/2/6 155/2/6
f 156/2/3 157/2/4 160/2/4
f 160/2/4 157/2/4 161/2/4
f 158/2/6 159/2/6 162/2/6
f 162/2/6 159/2/6 163/2/6
f 164/2/7 167/2/7 168/2/7
f 168/2/7 167/2/7 169/2/7
f 170/2/7 174/2/7 173/2/7
f 171/2/7 172/2/7 175/2/7
f 174/2/7 171/2/7 176/2/7
f 176/2/7 171/2/7 177/2/7
f 180/2/8 178/2/8 184/2/8
f 184/2/8 178/2/8 182/2/8
f 179/2/7 181/2/7 183/2/7
f 184/2/8 182/2/8 187/2/8
f 187/2/8 182/2/8 188/2/8
f 187/2/8 188/2/8 191/2/8
f 191/2/8 188/2/8 192/2/9
f 191/2/8 192/2/9 195/2/8
f 195/2/8 192/2/9 196/2/8
f 197/2/10 198/2/10 201/2/11
f 201/2/11 198/2/10 202/2/11
f 76/3/7 77/3/7 203/3/7
f 203/3/7 77/3/7 204/3/7
f 87/3/7 88/3/7 205/3/7
f 205/3/7 88/3/7 206/3/7
f 207/3/7 208/3/7 209/3/7
f 209/3/7 208/3/7 210/3/7
s 0
f 220/3/12 100/3/12 336/3/12
s 1
f 211/4/7 212/4/7 213/4/7
f 213/4/7 212/4/7 214/4/7
f 214/4/7 212/4/7 215/4/7
f 214/4/7 215/4/7 216/4/7
f 214/4/7 216/4/7 218/4/7
f 216/4/7 217/4/7 218/4/7
f 218/4/7 217/4/7 219/4/7
f 220/3/7 221/3/7 222/3/7
f 222/3/7 221/3/7 223/3/7
f 224/1/7 225/1/7 228/1/7
f 226/1/7 227/1/7 229/1/7
f 225/1/7 226/1/7 230/1/7
f 230/1/7 226/1/7 231/1/7
f 232/1/13 233/1/13 235/1/13
f 235/1/13 233/1/13 236/1/13
f 234/2/14 235/2/14 238/2/14
f 238/2/14 235/2/14 239/2/14
f 236/2/15 237/2/15 240/2/15
f 240/2/15 237/2/15 241/2/15
f 242/1/7 243/1/7 246/1/7
f 246/1/7 243/1/7 248/1/7
f 244/1/7 245/1/7 249/1/7
f 249/1/7 245/1/7 247/1/7
f 250/1/16 251/1/16 253/1/16
f 253/1/16 251/1/16 254/1/16
f 252/2/17 253/2/17 256/2/17
f 256/2/17 253/2/17 257/2/17
f 254/2/18 255/2/18 258/2/18
f 258/2/18 255/2/18 259/2/18
f 260/5/19 261/5/19 263/5/19
f 263/5/19 261/5/19 264/5/19
f 262/5/7 263/5/7 266/5/7
f 266/5/7 263/5/7 268/5/7
f 264/5/7 265/5/7 269/5/7
f 269/5/7 265/5/7 267/5/7
f 270/5/7 271/5/7 272/5/7
f 272/5/7 271/5/7 273/5/7
f 274/5/20 275/5/20 276/5/20
f 276/5/20 275/5/20 277/5/20
f 280/5/21 281/5/21 282/5/21
f 282/5/21 281/5/21 283/5/21
f 211/4/22 91/4/22 89/4/22
f 213/4/22 91/4/22 211/4/22
f 214/4/23 98/4/23 93/4/23
f 218/4/23 98/4/23 214/4/23
f 23/1/12 11/1/12 7/1/12
f 284/2/12 15/2/12 11/2/12
f 284/1/12 11/1/12 23/1/12
f 125/2/12 23/2/12 19/2/12
f 125/2/12 284/2/12 23/2/12
f 128/2/12 284/2/12 125/2/12
f 132/2/12 284/2/12 128/2/12
f 136/2/12 284/2/12 132/2/12
f 141/2/12 284/2/12 136/2/12
f 144/2/12 284/2/12 141/2/12
f 149/2/12 284/2/12 144/2/12
f 152/2/12 284/2/12 149/2/12
f 27/2/12 15/2/12 284/2/12
f 27/2/12 284/2/12 152/2/12
f 156/2/12 27/2/12 152/2/12
f 156/2/12 29/2/12 27/2/12
f 160/2/12 29/2/12 156/2/12
f 165/2/12 29/2/12 160/2/12
f 170/2/12 29/2/12 165/2/12
f 173/2/12 29/2/12 170/2/12
f 37/2/12 170/2/12 165/2/12
f 180/2/12 37/2/12 35/2/24
f 184/2/12 170/2/12 37/2/12
f 184/2/12 37/2/12 180/2/12
f 187/2/12 170/2/12 184/2/12
f 41/2/12 170/2/12 187/2/12
f 187/2/12 45/2/12 41/2/12
f 191/2/12 45/2/12 187/2/12
f 195/2/12 45/2/12 191/2/12
f 49/2/12 45/2/12 195/2/12
f 197/2/12 49/2/12 195/2/12
f 197/2/12 53/2/12 49/2/12
f 201/2/12 53/2/12 197/2/12
f 57/2/12 53/2/12 201/2/12
f 69/2/12 61/2/12 57/2/12
f 69/2/12 57/2/12 201/2/12
f 78/1/12 72/1/12 69/1/12
f 90/2/12 69/2/12 201/2/12
f 92/2/12 69/2/12 90/2/12
f 94/2/12 69/2/12 92/2/12
f 95/2/12 69/2/12 94/2/12
f 95/1/12 78/1/12 69/1/12
f 96/1/12 78/1/12 95/1/12
f 224/2/12 215/2/12 212/2/12
f 224/1/12 216/1/12 215/1/12
f 228/1/12 216/1/12 224/1/12
f 104/2/12 224/2/12 212/2/12
f 234/2/12 104/2/12 212/2/12
f 238/2/12 104/2/12 234/2/12
f 242/1/12 108/1/12 104/1/12
f 242/2/12 104/2/12 238/2/12
f 246/1/12 108/1/12 242/1/12
f 112/2/12 242/2/12 238/2/12
f 285/2/12 112/2/12 238/2/12
f 285/1/12 116/1/12 112/1/12
f 286/1/12 116/1/12 285/1/12
f 252/2/12 285/2/12 238/2/12
f 252/2/12 286/2/12 285/2/12
f 256/2/12 286/2/12 252/2/12
f 287/2/12 286/2/12 256/2/12
f 288/2/12 286/2/12 287/2/12
f 262/5/12 288/5/12 287/5/12
f 266/5/12 288/5/12 262/5/12
f 8/1/12 3/1/12 1/1/12
f 12/1/12 3/1/12 8/1/12
f 18/1/12 3/1/12 12/1/12
f 20/1/12 8/1/12 5/1/12
f 24/1/12 8/1/12 20/1/12
f 290/1/12 20/1/12 5/1/12
f 291/1/12 20/1/12 290/1/12
f 126/2/12 291/2/12 290/2/12
f 133/2/12 129/2/12 126/2/12
f 142/2/12 137/2/12 133/2/12
f 150/2/12 145/2/12 142/2/12
f 157/2/12 153/2/12 150/2/12
f 166/2/12 161/2/12 157/2/12
f 176/2/12 30/2/12 174/2/12
f 38/2/24 166/2/12 33/2/24
f 293/2/12 33/2/12 292/2/12
f 178/1/12 293/1/12 292/1/12
f 47/2/12 174/2/12 42/2/12
f 54/2/12 47/2/12 50/2/12
f 198/2/12 196/2/12 192/2/12
f 63/2/12 294/2/12 58/2/12
f 67/2/12 202/2/12 198/2/12
f 76/3/12 67/3/12 65/3/12
f 203/2/12 202/2/12 67/2/12
f 203/3/12 67/3/12 76/3/12
f 80/1/12 63/1/12 73/1/12
f 84/2/12 202/2/12 203/2/12
f 339/3/12 76/3/12 338/3/12
f 87/3/12 84/3/12 82/3/12
f 205/2/12 202/2/12 84/2/12
f 205/3/12 84/3/12 87/3/12
f 207/3/12 339/3/12 338/3/12
f 207/3/12 87/3/12 339/3/12
f 209/3/12 87/3/12 207/3/12
f 99/1/12 80/1/12 97/1/12
f 336/3/12 207/3/12 338/3/12
f 100/3/12 207/3/12 336/3/12
f 102/2/12 202/2/12 205/2/12
f 220/3/12 102/3/12 100/3/12
f 222/2/12 202/2/12 102/2/12
f 222/3/12 102/3/12 220/3/12
f 225/1/12 219/1/12 217/1/12
f 230/1/12 219/1/12 225/1/12
f 295/2/12 202/2/12 222/2/12
f 296/2/12 202/2/12 295/2/12
f 110/1/12 225/1/12 105/1/12
f 232/1/12 296/1/12 295/1/12
f 235/1/12 296/1/12 232/1/12
f 113/1/12 248/1/12 243/1/12
f 118/1/12 248/1/12 113/1/12
f 298/2/12 239/2/12 235/2/12
f 299/2/12 239/2/12 298/2/12
f 250/1/12 299/1/12 298/1/12
f 253/1/12 299/1/12 250/1/12
f 300/2/12 257/2/12 253/2/12
f 301/2/12 257/2/12 300/2/12
f 260/5/12 301/5/12 300/5/12
f 263/5/12 301/5/12 260/5/12
f 303/2/12 268/2/12 263/2/12
f 304/2/12 268/2/12 303/2/12
f 305/2/12 268/2/12 304/2/12
f 306/2/12 268/2/12 305/2/12
f 307/5/12 304/5/12 303/5/12
f 307/2/12 305/2/12 304/2/12
f 308/5/12 306/5/12 305/5/12
f 308/2/12 305/2/12 307/2/12
f 270/5/12 307/5/12 303/5/12
f 270/5/12 308/5/12 307/5/12
f 272/5/12 306/5/12 308/5/12
f 272/5/12 308/5/12 270/5/12
f 120/5/12 306/5/12 272/5/12
f 274/5/12 270/5/12 303/5/12
f 276/5/12 270/5/12 274/5/12
f 279/5/12 120/5/12 272/5/12
f 279/5/12 122/5/12 120/5/12
f 280/5/12 279/5/12 272/5/12
f 282/5/12 279/5/12 280/5/12
f 2/1/24 4/1/24 9/1/24
f 9/1/24 4/1/24 13/1/24
f 13/1/24 4/1/24 16/1/24
f 6/1/24 9/1/24 21/1/24
f 21/1/24 9/1/24 25/1/24
f 6/1/24 21/1/24 310/1/24
f 310/1/24 21/1/24 311/1/24
f 310/2/24 311/2/24 124/2/24
f 124/2/24 130/2/24 134/2/24
f 134/2/24 138/2/24 140/2/24
f 140/2/24 146/2/24 148/2/24
f 148/2/24 154/2/24 158/2/24
f 158/2/24 162/2/24 164/2/24
f 171/2/24 31/2/24 177/2/24
f 164/2/24 168/2/24 34/2/24
f 34/2/24 168/2/24 39/2/24
f 312/2/24 34/2/24 313/2/24
f 312/1/24 313/1/24 179/1/24
f 179/2/24 183/2/24 185/2/24
f 43/2/24 171/2/24 48/2/24
f 51/2/24 48/2/24 56/2/24
f 59/2/24 314/2/24 64/2/24
f 66/3/24 68/3/24 77/3/24
f 68/2/24 199/2/24 204/2/24
f 77/3/24 68/3/24 204/3/24
f 70/1/24 64/1/24 81/1/24
f 204/2/24 199/2/24 85/2/24
f 75/3/24 77/3/24 86/3/24
f 83/3/24 85/3/24 88/3/24
f 85/2/24 199/2/24 206/2/24
f 88/3/24 85/3/24 206/3/24
f 75/3/24 86/3/24 208/3/24
f 86/3/24 88/3/24 208/3/24
f 208/3/24 88/3/24 210/3/24
f 75/3/24 208/3/24 337/3/24
f 337/3/24 208/3/24 101/3/24
f 206/2/24 199/2/24 103/2/24
f 101/3/24 103/3/24 221/3/24
f 103/2/24 199/2/24 223/2/24
f 221/3/24 103/3/24 223/3/24
f 226/1/24 81/1/24 231/1/24
f 223/2/24 199/2/24 315/2/24
f 315/2/24 199/2/24 316/2/24
f 106/1/24 226/1/24 111/1/24
f 315/1/24 316/1/24 233/1/24
f 233/1/24 316/1/24 236/1/24
f 244/1/24 249/1/24 114/1/24
f 114/1/24 249/1/24 119/1/24
f 236/2/24 240/2/24 318/2/24
f 318/2/24 240/2/24 319/2/24
f 318/1/24 319/1/24 251/1/24
f 251/1/24 319/1/24 254/1/24
f 254/2/24 258/2/24 320/2/24
f 320/2/24 258/2/24 321/2/24
f 320/5/24 321/5/24 261/5/24
f 261/5/24 321/5/24 264/5/24
f 264/2/24 269/2/24 323/2/24
f 323/2/24 269/2/24 324/2/24
f 324/2/24 269/2/24 325/2/24
f 325/2/24 269/2/24 326/2/24
f 323/5/24 324/5/24 327/5/24
f 324/2/24 325/2/24 327/2/24
f 325/5/24 326/5/24 328/5/24
f 327/2/24 325/2/24 328/2/24
f 323/5/24 327/5/24 271/5/24
f 327/5/24 328/5/24 271/5/24
f 328/5/24 326/5/24 273/5/24
f 271/5/24 328/5/24 273/5/24
f 273/5/24 326/5/24 121/5/24
f 323/5/24 271/5/24 275/5/24
f 275/5/24 271/5/24 277/5/24
f 273/5/24 121/5/24 278/5/24
f 121/5/24 123/5/24 278/5/24
f 273/5/24 278/5/24 281/5/24
f 281/5/24 278/5/24 283/5/24
f 10/1/24 14/1/24 26/1/24
f 14/2/24 17/2/24 329/2/24
f 26/1/24 14/1/24 329/1/24
f 22/2/24 26/2/24 127/2/24
f 26/2/24 329/2/24 127/2/24
f 127/2/24 329/2/24 131/2/24
f 131/2/24 329/2/24 135/2/24
f 135/2/24 329/2/24 139/2/24
f 139/2/24 329/2/24 143/2/24
f 143/2/24 329/2/24 147/2/24
f 147/2/24 329/2/24 151/2/24
f 151/2/24 329/2/24 155/2/24
f 329/2/24 17/2/24 28/2/24
f 155/2/24 329/2/24 28/2/24
f 155/2/24 28/2/24 159/2/24
f 28/2/24 32/2/24 159/2/24
f 159/2/24 32/2/24 163/2/24
f 163/2/24 32/2/24 167/2/24
f 167/2/24 32/2/24 169/2/24
f 169/2/24 32/2/24 172/2/24
f 172/2/24 32/2/24 175/2/24
f 169/2/24 172/2/24 40/2/24
f 36/2/24 40/2/24 181/2/24
f 40/2/24 172/2/24 181/2/24
f 181/2/24 172/2/24 186/2/24
f 186/2/24 172/2/24 44/2/24
f 44/2/24 46/2/24 190/2/24
f 186/2/24 44/2/24 190/2/24
f 190/2/24 46/2/24 194/2/24
f 194/2/24 46/2/24 52/2/24
f 194/2/24 52/2/24 200/2/24
f 52/2/24 55/2/24 200/2/24
f 200/2/24 55/2/24 60/2/24
f 60/2/24 62/2/24 71/2/24
f 200/2/24 60/2/24 71/2/24
f 71/1/24 74/1/24 79/1/24
f 200/2/24 71/2/24 330/2/24
f 71/1/24 79/1/24 330/1/24
f 330/1/24 79/1/24 331/1/24
f 330/2/24 331/2/24 227/2/24
f 331/1/24 79/1/24 227/1/24
f 227/1/24 79/1/24 229/1/24
f 330/2/24 227/2/24 107/2/24
f 200/2/24 330/2/24 237/2/24
f 330/2/24 107/2/24 237/2/24
f 237/2/24 107/2/24 241/2/24
f 107/1/24 109/1/24 245/1/24
f 241/2/24 107/2/24 245/2/24
f 245/1/24 109/1/24 247/1/24
f 241/2/24 245/2/24 115/2/24
f 241/2/24 115/2/24 332/2/24
f 115/1/24 117/1/24 332/1/24
f 332/1/24 117/1/24 333/1/24
f 241/2/24 332/2/24 255/2/24
f 332/2/24 333/2/24 255/2/24
f 255/2/24 333/2/24 259/2/24
f 259/2/24 333/2/24 334/2/24
f 334/2/24 333/2/24 335/2/24
f 334/5/24 335/5/24 265/5/24
f 265/5/24 335/5/24 267/5/24
f 6/1/25 290/1/26 5/1/25
f 310/2/27 126/2/28 290/2/26
f 310/1/27 290/1/26 6/1/25
f 124/2/28 126/2/28 310/2/27
f 20/2/25 125/2/25 19/2/25
f 291/2/25 125/2/25 20/2/25
f 126/2/25 125/2/25 291/2/25
f 124/2/29 133/2/29 126/2/29
f 134/2/29 133/2/29 124/2/29
f 22/2/25 311/2/25 21/2/25
f 22/2/25 124/2/25 311/2/25
f 127/2/25 124/2/25 22/2/25
f 129/2/30 132/2/30 128/2/30
f 133/2/30 132/2/30 129/2/30
f 134/2/29 142/2/29 133/2/29
f 140/2/29 142/2/29 134/2/29
f 131/2/31 134/2/31 130/2/31
f 135/2/32 134/2/31 131/2/31
f 137/2/30 141/2/30 136/2/30
f 142/2/30 141/2/30 137/2/30
f 140/2/29 150/2/29 142/2/29
f 148/2/29 150/2/29 140/2/29
f 139/2/31 140/2/31 138/2/31
f 143/2/32 140/2/31 139/2/31
f 145/2/30 149/2/30 144/2/30
f 150/2/30 149/2/30 145/2/30
f 148/2/29 157/2/29 150/2/29
f 158/2/29 157/2/29 148/2/29
f 147/2/32 148/2/32 146/2/32
f 151/2/31 148/2/31 147/2/31
f 8/1/33 23/1/33 7/1/33
f 24/1/33 23/1/33 8/1/33
f 153/2/30 156/2/30 152/2/30
f 157/2/30 156/2/30 153/2/30
f 2/1/34 8/1/34 1/1/34
f 9/1/34 8/1/34 2/1/34
f 158/2/29 166/2/29 157/2/29
f 164/2/29 166/2/29 158/2/29
f 34/2/35 292/2/36 33/2/35
f 312/1/36 178/1/37 292/1/36
f 312/2/36 292/2/36 34/2/35
f 179/1/37 178/1/37 312/1/36
f 10/1/38 25/1/38 9/1/38
f 26/1/38 25/1/38 10/1/38
f 155/2/32 158/2/32 154/2/32
f 159/2/31 158/2/31 155/2/31
f 161/2/30 165/2/30 160/2/30
f 166/2/30 165/2/30 161/2/30
f 33/2/25 180/2/25 35/2/25
f 293/2/25 180/2/25 33/2/25
f 178/2/25 180/2/25 293/2/25
f 164/2/25 33/2/25 166/2/25
f 34/2/25 33/2/25 164/2/25
f 179/2/39 182/2/40 178/2/39
f 185/2/39 182/2/40 179/2/39
f 163/2/32 164/2/32 162/2/32
f 167/2/32 164/2/31 163/2/31
f 36/2/25 313/2/25 34/2/25
f 36/2/25 179/2/25 313/2/25
f 181/2/25 179/2/25 36/2/25
f 166/2/41 37/2/41 165/2/41
f 38/2/41 37/2/41 166/2/41
f 185/2/39 188/2/40 182/2/40
f 189/2/40 188/2/40 185/2/39
f 75/3/42 336/3/43 338/3/44
f 337/3/42 336/3/43 75/3/42
f 169/2/25 39/2/25 168/2/25
f 40/2/25 39/2/25 169/2/25
f 181/2/45 185/2/45 183/2/46
f 186/2/46 185/2/45 181/2/45
f 189/2/40 192/2/39 188/2/40
f 193/2/39 192/2/39 189/2/40
s 0
f 76/3/12 65/3/12 338/3/12
s 1
f 186/2/46 189/2/46 185/2/45
f 190/2/46 189/2/46 186/2/46
f 193/2/47 198/2/48 192/2/48
f 199/2/49 198/2/48 193/2/47
s 0
f 87/3/12 82/3/12 339/3/12
s 1
f 190/2/46 193/2/46 189/2/46
f 194/2/46 193/2/46 190/2/46
f 196/2/25 197/2/25 195/2/25
f 198/2/25 197/2/25 196/2/25
f 199/2/25 67/2/25 198/2/25
f 68/2/25 67/2/25 199/2/25
f 204/2/25 84/2/25 203/2/25
f 85/2/25 84/2/25 204/2/25
f 206/2/25 102/2/25 205/2/25
f 103/2/25 102/2/25 206/2/25
f 223/2/25 295/2/25 222/2/25
f 315/1/25 232/1/25 295/1/25
f 315/2/25 295/2/25 223/2/25
f 233/1/25 232/1/25 315/1/25
f 194/2/50 199/2/49 193/2/47
f 200/2/50 199/2/49 194/2/50
f 90/4/25 211/4/25 89/4/25
f 212/4/25 211/4/25 90/4/25
f 202/2/25 90/2/25 201/2/25
f 202/2/25 234/2/25 212/2/25
f 202/2/25 212/2/25 90/2/25
f 296/2/25 234/2/25 202/2/25
f 235/2/25 234/2/25 296/2/25
f 236/2/25 298/2/25 235/2/25
f 318/1/25 250/1/25 298/1/25
f 318/2/25 298/2/25 236/2/25
f 251/1/25 250/1/25 318/1/25
f 200/2/51 236/2/52 316/2/53
f 200/2/51 316/2/53 199/2/54
f 237/2/55 236/2/52 200/2/51
f 239/2/25 252/2/25 238/2/25
f 299/2/25 252/2/25 239/2/25
f 253/2/25 252/2/25 299/2/25
f 254/2/25 300/2/25 253/2/25
f 320/5/25 260/5/25 300/5/25
f 320/2/25 300/2/25 254/2/25
f 261/5/25 260/5/25 320/5/25
f 241/2/25 254/2/25 319/2/25
f 241/2/25 319/2/25 240/2/25
f 255/2/25 254/2/25 241/2/25
f 257/2/25 287/2/25 256/2/25
f 301/5/25 262/5/25 287/5/25
f 301/2/25 287/2/25 257/2/25
f 263/5/25 262/5/25 301/5/25
f 264/2/25 303/2/25 263/2/25
f 323/5/25 274/5/25 303/5/25
f 323/2/25 303/2/25 264/2/25
f 275/5/25 274/5/25 323/5/25
f 259/2/25 321/2/25 258/2/25
f 334/5/25 264/5/25 321/5/25
f 334/2/25 321/2/25 259/2/25
f 265/5/25 264/5/25 334/5/25
f 273/5/25 280/5/25 272/5/25
f 281/5/25 280/5/25 273/5/25
f 76/3/56 339/3/56 77/3/56
f 77/3/56 339/3/56 86/3/56
f 207/3/56 100/3/57 208/3/58
f 87/3/56 209/3/56 88/3/56
f 88/3/56 209/3/56 210/3/56
f 15/2/59 27/2/60 18/2/59
f 18/2/59 27/2/60 289/2/61
f 289/2/61 27/2/60 30/2/59
f 170/2/62 41/2/62 174/2/62
f 174/2/62 41/2/62 42/2/62
f 3/1/63 18/1/63 4/1/63
f 4/1/63 18/1/63 16/1/63
f 16/2/64 309/2/65 17/2/65
f 309/2/65 31/2/65 17/2/65
f 17/2/65 31/2/65 28/2/65
f 171/2/66 43/2/66 172/2/66
f 172/2/66 43/2/66 44/2/66
f 29/2/56 173/2/56 30/2/56
f 30/2/56 173/2/56 174/2/56
f 45/2/67 49/2/68 47/2/67
f 47/2/67 49/2/68 50/2/69
f 18/1/56 289/1/70 16/1/56
f 289/2/70 30/2/56 309/2/56
f 16/1/56 289/1/70 309/1/56
f 309/2/56 30/2/56 31/2/71
f 174/2/72 47/2/72 171/2/72
f 171/2/72 47/2/72 48/2/72
f 31/2/56 171/2/73 32/2/56
f 32/2/56 171/2/73 175/2/56
f 48/2/74 51/2/74 46/2/74
f 46/2/74 51/2/74 52/2/74
f 91/4/56 213/4/56 93/4/56
f 93/4/56 213/4/56 214/4/56
f 91/4/56 93/4/56 92/4/56
f 92/4/56 93/4/56 94/4/56
f 53/2/67 57/2/68 54/2/68
f 54/2/68 57/2/68 294/2/67
f 294/2/67 57/2/68 58/2/67
f 30/2/75 176/2/75 31/2/75
f 31/2/75 176/2/75 177/2/75
f 47/2/76 54/2/76 48/2/76
f 48/2/76 54/2/76 56/2/76
f 314/2/74 59/2/77 55/2/74
f 56/2/77 314/2/74 55/2/74
f 55/2/74 59/2/77 60/2/74
f 61/2/78 69/2/78 63/2/78
f 63/2/78 69/2/78 73/2/78
f 54/1/56 294/1/79 56/1/56
f 294/2/79 63/2/80 314/2/79
f 56/1/56 294/1/79 314/1/79
f 314/2/79 63/2/80 64/2/80
f 270/5/56 276/5/56 271/5/56
f 271/5/56 276/5/56 277/5/56
f 64/2/81 70/2/81 62/2/81
f 62/2/81 70/2/81 71/2/81
f 72/1/82 78/1/82 73/1/82
f 73/1/82 78/1/82 80/1/82
f 224/2/83 104/2/83 225/2/83
f 225/2/83 104/2/83 105/2/84
f 242/2/85 112/2/85 243/2/85
f 243/2/85 112/2/85 113/2/85
f 70/1/86 81/1/86 74/1/86
f 74/1/82 81/1/82 79/1/82
f 226/2/87 106/2/87 227/2/87
f 227/2/87 106/2/87 107/2/87
f 244/2/88 114/2/88 245/2/88
f 245/2/88 114/2/88 115/2/88
f 78/1/56 96/1/56 80/1/56
f 80/1/56 96/1/56 97/1/56
f 216/1/56 228/1/56 217/1/56
f 217/1/56 228/1/56 225/1/56
f 108/1/89 246/1/90 110/1/90
f 110/1/90 246/1/90 248/1/89
f 116/1/91 286/1/92 118/1/91
f 286/2/92 288/2/93 297/2/94
f 118/1/91 286/1/92 297/1/94
f 288/5/93 266/5/95 302/5/96
f 297/2/94 288/2/93 302/2/96
f 302/5/96 266/5/95 268/5/95
f 63/1/97 80/1/97 64/1/97
f 64/1/97 80/1/97 81/1/97
f 225/1/98 110/1/99 226/1/99
f 226/1/99 110/1/99 111/1/98
f 248/1/100 118/1/101 249/1/102
f 249/1/101 118/1/102 119/1/103
f 268/2/104 306/2/105 269/2/104
f 306/5/106 120/5/56 326/5/105
f 269/2/104 306/2/106 326/2/105
f 326/5/105 120/5/56 121/5/56
f 279/5/56 282/5/56 278/5/56
f 278/5/56 282/5/56 283/5/56
f 81/1/56 226/1/56 79/1/56
f 79/1/56 226/1/56 229/1/56
f 111/1/107 249/1/107 109/1/107
f 109/1/107 249/1/107 247/1/107
f 119/1/108 317/1/109 117/1/108
f 317/2/109 322/2/110 333/2/111
f 117/1/108 317/1/109 333/1/111
f 322/5/110 269/5/112 335/5/112
f 333/2/111 322/2/110 335/2/112
f 335/5/112 269/5/112 267/5/112
f 98/4/113 218/4/113 99/4/114
f 99/4/114 218/4/113 219/4/115
f 80/1/116 99/1/114 81/1/117
f 99/1/114 219/1/115 81/1/117
f 219/1/115 230/1/118 81/1/117
f 81/1/119 230/1/120 231/1/121
f 110/1/56 248/1/100 111/1/56
f 111/1/56 248/1/100 249/1/102
f 118/1/102 297/1/56 119/1/103
f 297/2/56 302/2/56 317/2/56
f 119/1/103 297/1/56 317/1/56
f 302/5/56 268/5/56 322/5/56
f 317/2/56 302/2/56 322/2/56
f 322/5/56 268/5/56 269/5/56
f 122/5/122 279/5/122 123/5/122
f 123/5/122 279/5/122 278/5/122
s 0
f 337/3/123 220/3/123 336/3/123
f 221/3/123 220/3/123 337/3/123
s 1
f 208/3/124 336/3/125 337/3/126
s 0
f 101/3/24 221/3/24 337/3/24
s 1
f 208/3/58 100/3/57 336/3/127
s 0
f 66/3/128 338/3/128 65/3/128
f 75/3/128 338/3/128 66/3/128
f 66/3/24 77/3/24 75/3/24
f 83/3/129 339/3/129 82/3/129
f 86/3/129 339/3/129 83/3/129
f 83/3/24 88/3/24 86/3/24
